<svg id="svg-source" height="0" version="1.1" xmlns="http://www.w3.org/2000/svg" style="position:absolute; margin-left: -100%; width:0; height:0;" xmlns:xlink="http://www.w3.org/1999/xlink">
  <g id="sex-path" stroke="none" fill-rule="evenodd">
    <path d="M31.3244444,8.18666667 C31.04,8.18666667 30.7911111,7.93777778 30.7911111,7.65333333 L30.7911111,3.38666667 L26.5244444,3.38666667 C26.24,3.38666667 25.9911111,3.13777778 25.9911111,2.85333333 C25.9911111,2.56888889 26.24,2.32 26.5244444,2.32 L31.3244444,2.32 C31.6088889,2.32 31.8577778,2.56888889 31.8577778,2.85333333 L31.8577778,7.65333333 C31.8577778,7.93777778 31.6088889,8.18666667 31.3244444,8.18666667 L31.3244444,8.18666667 Z"></path>
    <path d="M12.6933333,27.0666667 L6.11555556,27.0666667 C5.83111111,27.0666667 5.58222222,26.8177778 5.58222222,26.5333333 C5.58222222,26.2488889 5.83111111,26 6.11555556,26 L12.6577778,26 C12.9422222,26 13.1911111,26.2488889 13.1911111,26.5333333 C13.1911111,26.8177778 12.9777778,27.0666667 12.6933333,27.0666667 L12.6933333,27.0666667 Z"></path>
    <path d="M8.88888889,22.8355556 L8.88888889,29.52 C8.88888889,29.8044444 9.13777778,30.0533333 9.42222222,30.0533333 C9.70666667,30.0533333 9.95555556,29.8044444 9.95555556,29.52 L9.95555556,22.8355556 L8.88888889,22.8355556 L8.88888889,22.8355556 Z"></path>
    <path d="M9.42222222,23.3688889 C6.93333333,23.3688889 4.55111111,22.4088889 2.80888889,20.6311111 C-0.853333333,16.9688889 -0.853333333,11.0311111 2.80888889,7.36888889 C4.58666667,5.59111111 6.93333333,4.63111111 9.42222222,4.63111111 C11.9111111,4.63111111 14.2933333,5.59111111 16.0355556,7.36888889 C19.6977778,11.0311111 19.6977778,16.9688889 16.0355556,20.6311111 C14.2577778,22.4088889 11.9111111,23.3688889 9.42222222,23.3688889 L9.42222222,23.3688889 L9.42222222,23.3688889 Z M9.42222222,5.73333333 C7.21777778,5.73333333 5.12,6.58666667 3.55555556,8.15111111 C0.32,11.3866667 0.32,16.6488889 3.55555556,19.8844444 C5.12,21.4488889 7.21777778,22.3022222 9.42222222,22.3022222 C11.6266667,22.3022222 13.7244444,21.4488889 15.2888889,19.8844444 C18.5244444,16.6488889 18.5244444,11.3866667 15.2888889,8.15111111 C13.7244444,6.58666667 11.6266667,5.73333333 9.42222222,5.73333333 L9.42222222,5.73333333 L9.42222222,5.73333333 Z"></path>
    <path d="M9.42222222,19.6 C7.92888889,19.6 6.54222222,19.0311111 5.47555556,17.9644444 C4.40888889,16.8977778 3.84,15.5111111 3.84,14.0177778 C3.84,12.5244444 4.40888889,11.1377778 5.47555556,10.0711111 C6.54222222,9.00444444 7.92888889,8.43555556 9.42222222,8.43555556 C10.9155556,8.43555556 12.3022222,9.00444444 13.3688889,10.0711111 C14.4355556,11.1377778 15.0044444,12.5244444 15.0044444,14.0177778 C15.0044444,15.5111111 14.4355556,16.8977778 13.3688889,17.9644444 C12.3022222,19.0311111 10.88,19.6 9.42222222,19.6 L9.42222222,19.6 L9.42222222,19.6 Z M9.42222222,9.50222222 C8.21333333,9.50222222 7.07555556,9.96444444 6.22222222,10.8177778 C5.36888889,11.6711111 4.90666667,12.8088889 4.90666667,14.0177778 C4.90666667,15.2266667 5.36888889,16.3644444 6.22222222,17.2177778 C7.07555556,18.0711111 8.21333333,18.5333333 9.42222222,18.5333333 C10.6311111,18.5333333 11.7688889,18.0711111 12.6222222,17.2177778 C13.4755556,16.3644444 13.9377778,15.2266667 13.9377778,14.0177778 C13.9377778,12.8088889 13.4755556,11.6711111 12.6222222,10.8177778 C11.7333333,9.96444444 10.5955556,9.50222222 9.42222222,9.50222222 L9.42222222,9.50222222 L9.42222222,9.50222222 Z"></path>
    <path d="M27.7688889,7.40444444 C25.9911111,5.62666667 23.6444444,4.66666667 21.1555556,4.66666667 C18.88,4.66666667 16.7466667,5.44888889 15.0755556,6.90666667 L15.7155556,7.76 C17.2444444,6.44444444 19.1644444,5.69777778 21.1911111,5.69777778 C23.3955556,5.69777778 25.4933333,6.55111111 27.0577778,8.11555556 C30.2933333,11.3511111 30.2933333,16.6133333 27.0577778,19.8488889 C25.4933333,21.4133333 23.3955556,22.2666667 21.1911111,22.2666667 C19.1288889,22.2666667 17.1733333,21.52 15.6444444,20.1333333 L15.04,21.0222222 C16.7466667,22.5155556 18.9155556,23.3333333 21.1911111,23.3333333 C23.68,23.3333333 26.0622222,22.3733333 27.8044444,20.5955556 C31.4311111,17.0044444 31.4311111,11.0311111 27.7688889,7.40444444 L27.7688889,7.40444444 Z"></path>
    <path d="M25.3866667,10.0711111 C24.32,9.00444444 22.9333333,8.43555556 21.44,8.43555556 C19.9466667,8.43555556 18.56,9.00444444 17.4933333,10.0711111 C17.3866667,10.1777778 17.3155556,10.2844444 17.2088889,10.3911111 L17.7066667,11.4933333 C17.8488889,11.28 18.0266667,11.0311111 18.24,10.8533333 C19.0933333,10 20.2311111,9.53777778 21.44,9.53777778 C22.6488889,9.53777778 23.7866667,10 24.64,10.8533333 C26.4177778,12.6311111 26.4177778,15.4755556 24.64,17.2533333 C23.7866667,18.1066667 22.6488889,18.5688889 21.44,18.5688889 C20.2311111,18.5688889 19.0933333,18.1066667 18.24,17.2533333 C18.0977778,17.1111111 17.9555556,16.9333333 17.8133333,16.7555556 L17.28,17.6444444 L17.2444444,17.7155556 C17.3155556,17.7866667 17.3866667,17.8933333 17.4577778,17.9644444 C18.5244444,19.0311111 19.9111111,19.6 21.4044444,19.6 C22.8977778,19.6 24.2844444,19.0311111 25.3511111,17.9644444 C27.5555556,15.7955556 27.5555556,12.24 25.3866667,10.0711111 L25.3866667,10.0711111 Z"></path>
    <path d="M31.36,2.81777778 C31.1466667,2.60444444 30.8266667,2.60444444 30.6133333,2.81777778 L26.4888889,6.97777778 L27.2355556,7.72444444 L31.3955556,3.56444444 C31.5733333,3.35111111 31.5733333,3.03111111 31.36,2.81777778 L31.36,2.81777778 Z"></path>
  </g>

  <g id="earth-path" stroke="none" fill-rule="evenodd">
      <path d="M16.0410256,31.5487179 C7.38461538,31.5487179 0.328205128,24.4923077 0.328205128,15.8358974 C0.328205128,7.17948718 7.38461538,0.0820512821 16.0410256,0.0820512821 C24.6974359,0.0820512821 31.7538462,7.13846154 31.7538462,15.7948718 C31.7538462,24.4512821 24.7384615,31.5487179 16.0410256,31.5487179 L16.0410256,31.5487179 L16.0410256,31.5487179 Z M16.0410256,1.31282051 C8.04102564,1.31282051 1.55897436,7.83589744 1.55897436,15.7948718 C1.55897436,23.7538462 8.08205128,30.2769231 16.0410256,30.2769231 C24.0410256,30.2769231 30.5230769,23.7538462 30.5230769,15.7948718 C30.5230769,7.83589744 24.0410256,1.31282051 16.0410256,1.31282051 L16.0410256,1.31282051 L16.0410256,1.31282051 Z"></path>
      <path d="M14.2358974,31.4666667 L14.1128205,31.4666667 L12.7179487,31.2205128 C12.5128205,31.1794872 12.3487179,31.0564103 12.2666667,30.8512821 L11.2410256,28.3076923 C11.2410256,28.2666667 11.2,28.225641 11.2,28.1435897 L10.9538462,26.2564103 L10.9538462,26.174359 L10.9538462,24.3282051 L10.9538462,24.2871795 L11.0769231,22.8512821 L9.55897436,22.0307692 C9.51794872,22.0307692 9.47692308,21.9897436 9.47692308,21.9487179 L8.41025641,21.0871795 C8.28717949,21.0051282 8.20512821,20.8410256 8.20512821,20.7179487 L7.79487179,18.3384615 L7.38461538,17.6820513 L6.72820513,16.8205128 L4.38974359,16.1641026 C4.34871795,16.1641026 4.30769231,16.1230769 4.22564103,16.1230769 L2.01025641,14.8512821 C1.88717949,14.7692308 1.76410256,14.6461538 1.72307692,14.4820513 L0.943589744,11.9794872 C0.861538462,11.6512821 1.02564103,11.3230769 1.35384615,11.2 C1.68205128,11.1179487 2.01025641,11.2820513 2.13333333,11.6102564 L2.83076923,13.8666667 L4.75897436,15.0153846 L7.22051282,15.7128205 C7.34358974,15.7538462 7.46666667,15.8358974 7.54871795,15.9589744 L8.32820513,17.025641 L8.36923077,17.0666667 L8.86153846,17.8461538 C8.9025641,17.9282051 8.94358974,18.0102564 8.94358974,18.0923077 L9.31282051,20.3897436 L10.1333333,21.0871795 L11.9794872,22.0717949 C12.1846154,22.1948718 12.3076923,22.4 12.3076923,22.6461538 L12.1846154,24.4512821 L12.1846154,26.2153846 L12.4307692,27.9794872 L13.2923077,30.1128205 L14.1538462,30.2769231 L14.5230769,30.0717949 L14.0307692,29.5384615 C13.9076923,29.4153846 13.8666667,29.2923077 13.8666667,29.1282051 L13.7846154,27.9384615 L13.7846154,27.8153846 L13.9487179,26.8307692 C13.9487179,26.7076923 14.0307692,26.625641 14.0717949,26.5435897 L15.5076923,24.8205128 L15.5897436,23.4666667 C15.5897436,23.2615385 15.7538462,23.0564103 15.9179487,22.9333333 L17.3128205,22.2358974 L17.4358974,21.3333333 C17.4358974,21.2923077 17.4769231,21.2512821 17.4769231,21.2102564 L17.9692308,20.0205128 L17.7230769,19.2820513 L15.4666667,18.5846154 C15.3025641,18.5435897 15.1794872,18.4205128 15.0974359,18.2564103 L14.4820513,16.9846154 L12.8,16.7384615 C12.7589744,16.7384615 12.7179487,16.7384615 12.7179487,16.6974359 L10.6666667,16.0410256 L9.02564103,16.1641026 C8.77948718,16.1641026 8.53333333,16.0410256 8.41025641,15.8358974 L7.83589744,14.7692308 L7.54871795,14.7692308 C7.46666667,14.7692308 7.38461538,14.7692308 7.34358974,14.7282051 L6.64615385,14.4410256 L5.7025641,14.2769231 C5.41538462,14.2358974 5.21025641,13.9487179 5.21025641,13.6615385 L5.21025641,13.1282051 C5.21025641,13.0461538 5.21025641,13.0051282 5.25128205,12.9230769 L5.53846154,12.1025641 C5.57948718,11.9384615 5.7025641,11.8153846 5.86666667,11.7333333 L7.26153846,11.1589744 C7.42564103,11.0769231 7.63076923,11.1179487 7.79487179,11.2 L9.35384615,12.0205128 L9.27179487,11.0769231 C9.23076923,10.8307692 9.39487179,10.5435897 9.64102564,10.4615385 L10.9948718,9.84615385 L12.5128205,8.24615385 C12.5948718,8.16410256 12.7179487,8.08205128 12.8410256,8.08205128 L15.5897436,7.38461538 L15.7128205,6.4 L15.6717949,4.59487179 C15.6717949,4.38974359 15.7538462,4.22564103 15.9179487,4.1025641 L16.3692308,3.77435897 L15.1384615,3.03589744 L12.5538462,3.73333333 L12.5128205,3.73333333 L10.3794872,4.1025641 C10.2153846,4.14358974 10.0102564,4.1025641 9.88717949,3.97948718 L8.82051282,3.07692308 C8.57435897,2.87179487 8.53333333,2.46153846 8.73846154,2.21538462 C8.94358974,1.96923077 9.35384615,1.92820513 9.6,2.13333333 L10.4205128,2.87179487 L12.225641,2.54358974 L15.0564103,1.76410256 C15.2205128,1.72307692 15.3846154,1.76410256 15.5487179,1.84615385 L17.7641026,3.2 C17.9282051,3.32307692 18.0512821,3.48717949 18.0512821,3.69230769 C18.0512821,3.8974359 17.9692308,4.1025641 17.8051282,4.22564103 L16.9435897,4.92307692 L16.9846154,6.44102564 L16.9846154,6.52307692 L16.7794872,7.95897436 C16.7384615,8.20512821 16.574359,8.41025641 16.2871795,8.49230769 L13.2512821,9.18974359 L11.774359,10.7487179 C11.7333333,10.7897436 11.6512821,10.8717949 11.5692308,10.8717949 L10.5435897,11.3230769 L10.7076923,12.9641026 C10.7487179,13.1692308 10.625641,13.4153846 10.4615385,13.5384615 C10.2564103,13.6615385 10.0512821,13.6615385 9.84615385,13.5794872 L7.50769231,12.3897436 L6.60512821,12.7589744 L6.44102564,13.2102564 L6.93333333,13.2923077 C6.97435897,13.2923077 7.01538462,13.2923077 7.05641026,13.3333333 L7.71282051,13.6205128 L8.24615385,13.6205128 C8.45128205,13.6205128 8.65641026,13.7435897 8.77948718,13.9487179 L9.31282051,14.974359 L10.625641,14.8512821 C10.7076923,14.8512821 10.7897436,14.8512821 10.8717949,14.8923077 L13.0051282,15.5487179 L14.9333333,15.8358974 C15.1384615,15.8769231 15.3025641,16 15.3846154,16.1641026 L16.0410256,17.4769231 L18.3384615,18.174359 C18.5025641,18.2153846 18.6666667,18.3794872 18.7487179,18.5435897 L19.2410256,19.8564103 C19.2820513,20.0205128 19.2820513,20.1435897 19.2410256,20.3076923 L18.7076923,21.6615385 L18.5435897,22.8102564 C18.5025641,23.0153846 18.3794872,23.1794872 18.2153846,23.2615385 L16.8205128,23.9179487 L16.7384615,25.1076923 C16.7384615,25.2307692 16.6974359,25.3538462 16.6153846,25.4769231 L15.1794872,27.2410256 L15.0564103,27.9794872 L15.0974359,28.8820513 L15.9589744,29.7435897 C16.0820513,29.8666667 16.1641026,30.0717949 16.1230769,30.2769231 C16.0820513,30.4820513 16,30.6461538 15.8358974,30.7282051 L14.5641026,31.4666667 C14.4410256,31.425641 14.3179487,31.4666667 14.2358974,31.4666667 L14.2358974,31.4666667 Z"></path>
      <path d="M23.0153846,10.2153846 L20.8,10.2153846 C20.5538462,10.2153846 20.3487179,10.0923077 20.225641,9.84615385 L19.2820513,7.83589744 C19.2,7.67179487 19.2,7.42564103 19.3230769,7.26153846 C19.4461538,7.0974359 19.6102564,6.97435897 19.8153846,6.97435897 L21.5794872,6.85128205 L22.6051282,6.27692308 L23.7128205,4.63589744 L24.0410256,3.40512821 C24.1230769,3.07692308 24.4512821,2.87179487 24.7794872,2.95384615 C25.1076923,3.03589744 25.3128205,3.36410256 25.2307692,3.69230769 L24.9025641,5.04615385 C24.9025641,5.12820513 24.8615385,5.16923077 24.8205128,5.25128205 L23.5487179,7.0974359 C23.5076923,7.17948718 23.425641,7.22051282 23.3435897,7.3025641 L22.0717949,8.04102564 C21.9897436,8.08205128 21.9076923,8.12307692 21.825641,8.12307692 L20.8410256,8.20512821 L21.2102564,9.02564103 L22.7692308,9.02564103 L23.5487179,8.16410256 C23.6307692,8.08205128 23.7128205,8 23.8358974,8 L25.4358974,7.54871795 C25.6,7.50769231 25.7641026,7.50769231 25.8871795,7.58974359 L27.4871795,8.49230769 L28.7179487,8.45128205 C29.0461538,8.41025641 29.3333333,8.6974359 29.374359,9.02564103 C29.374359,9.35384615 29.1282051,9.64102564 28.8,9.68205128 L27.4051282,9.72307692 C27.2820513,9.72307692 27.2,9.68205128 27.0769231,9.64102564 L25.5589744,8.77948718 L24.3692308,9.10769231 L23.5076923,10.0512821 C23.3846154,10.1333333 23.2205128,10.2153846 23.0153846,10.2153846 L23.0153846,10.2153846 Z"></path>
      <path d="M27.5692308,25.1897436 C27.3230769,25.1897436 27.0769231,25.025641 26.9948718,24.7794872 L26.3794872,23.0974359 C26.3384615,23.0153846 26.3384615,22.974359 26.3384615,22.8923077 L26.2974359,21.4974359 L26.3384615,20.3487179 L25.7230769,19.0358974 L25.1487179,18.174359 L23.425641,18.7487179 C23.2615385,18.7897436 23.0974359,18.7897436 22.9333333,18.7076923 L20.5948718,17.5179487 C20.4307692,17.4358974 20.3076923,17.2307692 20.2666667,17.025641 L19.9384615,14.2358974 C19.8974359,14.0717949 19.9794872,13.8666667 20.1025641,13.7435897 L21.9487179,11.8153846 C22.0307692,11.7333333 22.1538462,11.6512821 22.2769231,11.6512821 L25.4769231,11.0769231 L25.5589744,11.0769231 L28.4717949,10.9128205 L28.6358974,10.9128205 L30.6051282,11.4051282 C30.9333333,11.4871795 31.1384615,11.8153846 31.0564103,12.1435897 C30.974359,12.4717949 30.6461538,12.6769231 30.3179487,12.5948718 L28.4307692,12.1435897 L25.6410256,12.2666667 L22.6871795,12.8 L21.2102564,14.3589744 L21.4564103,16.5333333 L23.2615385,17.4769231 L25.1897436,16.8615385 C25.4358974,16.7794872 25.7230769,16.8615385 25.8871795,17.1076923 L26.7487179,18.4205128 C26.7487179,18.4615385 26.7897436,18.4615385 26.7897436,18.5025641 L27.4461538,20.0205128 C27.4871795,20.1025641 27.4871795,20.1846154 27.4871795,20.3076923 L27.4461538,21.5794872 L27.4871795,22.8512821 L27.8974359,23.9589744 L28.0615385,23.9179487 C28.3897436,23.8358974 28.7179487,24.0820513 28.8,24.4102564 C28.8820513,24.7384615 28.6358974,25.0666667 28.3076923,25.1487179 L27.6102564,25.2717949 C27.6512821,25.1487179 27.6102564,25.1897436 27.5692308,25.1897436 L27.5692308,25.1897436 Z"></path>
  </g>

  <g id="heart-path" stroke="none" fill-rule="evenodd">
    <path d="M25.764339,0.644338983 C25.7545763,0.274440678 26.1309831,-0.0482711864 26.4943729,0.032 C26.6955932,0.0645423729 26.8528814,0.208271186 26.9646102,0.370983051 C27.6599322,1.35484746 28.1014237,2.50467797 28.3129492,3.68759322 C28.6530169,5.6580339 28.3970169,7.69735593 27.7835932,9.58915254 C28.5239322,8.94264407 28.9865763,8.04610169 29.3054915,7.13057627 C29.4069153,6.79538983 29.8191186,6.62779661 30.135322,6.75905085 C30.2817627,6.81383051 30.3951186,6.93586441 30.4558644,7.07850847 C30.9185085,8.2039322 31.240678,9.39118644 31.3594576,10.6039322 C31.4863729,11.8557288 31.3589153,13.1373559 30.9456271,14.3278644 C30.4130169,15.8768814 29.3890169,17.2241356 28.1388475,18.2687458 C27.9929492,18.3869831 27.8530169,18.536678 27.6577627,18.5648814 C27.3957966,18.6115254 27.1105085,18.4781017 26.9928136,18.2372881 C26.8398644,17.9650169 26.9532203,17.608678 27.195661,17.4291525 C27.9810169,16.7864407 28.6855593,16.0292881 29.1894237,15.1435932 C29.696,14.2823051 29.9975593,13.3065763 30.0995254,12.3140339 C30.2058305,11.2222373 30.08,10.1168814 29.8033898,9.05816949 C29.2648136,9.98237288 28.4832542,10.7997288 27.4896271,11.227661 C27.1826441,11.3475254 26.8631864,11.4928814 26.5263729,11.4679322 C26.1662373,11.4348475 25.8999322,11.044339 26.0040678,10.6977627 C26.1082034,10.4 26.2611525,10.1217627 26.3669153,9.82454237 C26.8810847,8.50874576 27.1734237,7.10508475 27.2124746,5.69220339 C27.2471864,4.69152542 27.1050847,3.68379661 26.7845424,2.73410169 C26.4184407,4.36935593 25.6922034,5.92542373 24.6600678,7.24664407 C23.5503729,8.66766102 22.0414915,9.87172881 20.2494915,10.2638644 C19.5677288,10.4401356 18.8528814,10.3327458 18.1656949,10.4759322 C16.2446102,10.7856271 14.5247458,12.0976271 13.704678,13.8597966 C13.3293559,14.6440678 13.1275932,15.5107797 13.1237966,16.3802034 C13.1368136,16.6920678 12.9052203,17.0088136 12.5863051,17.0429831 C12.2332203,17.1075254 11.8654915,16.8016271 11.8779661,16.4404068 C11.8714576,15.0893559 12.2554576,13.7404746 12.9703051,12.5938983 C14.1949831,10.5979661 16.4295593,9.25938983 18.7715254,9.14874576 C19.2379661,9.12705085 19.7130847,9.13572881 20.1654237,9.00230508 C21.2528814,8.71864407 22.2031186,8.05532203 22.9873898,7.26616949 C24.6904407,5.50616949 25.7274576,3.09911864 25.764339,0.644338983 L25.764339,0.644338983 Z"></path>
    <path d="M22.3620339,1.25505085 C22.6587119,1.14874576 23.0459661,1.25559322 23.1793898,1.55823729 C23.5026441,2.4260339 23.5915932,3.42237288 23.236339,4.29505085 C23.0296949,4.82277966 22.6277966,5.2539661 22.1559322,5.55877966 C21.7198644,5.84135593 21.2290169,6.03172881 20.727322,6.15918644 C20.5364068,6.20691525 20.32,6.21288136 20.1507797,6.09789831 C19.9191864,5.96230508 19.8535593,5.68027119 19.7906441,5.43891525 C19.579661,4.57762712 19.5595932,3.61166102 20.0097627,2.81979661 C20.5027797,1.96935593 21.4351186,1.4839322 22.3620339,1.25505085 L22.3620339,1.25505085 L22.3620339,1.25505085 Z M21.1064407,3.42020339 C20.8629153,3.83077966 20.8602034,4.3319322 20.9301695,4.79077966 C21.3445424,4.6199322 21.7632542,4.38508475 22.0024407,3.99077966 C22.2427119,3.57857627 22.2448814,3.07742373 22.1781695,2.6180339 C21.7610847,2.78454237 21.3423729,3.02372881 21.1064407,3.42020339 L21.1064407,3.42020339 L21.1064407,3.42020339 Z"></path>
    <path d="M2.81979661,10.5681356 C3.94467797,9.67159322 5.34237288,9.12271186 6.77694915,9.0120678 C8.86454237,8.83362712 11.0155932,9.61030508 12.4924746,11.099661 C12.6665763,11.2965424 12.6714576,11.6056949 12.535322,11.8248136 C12.3975593,12.0547797 12.0954576,12.1735593 11.84,12.0878644 C11.6187119,12.0227797 11.4684746,11.8378305 11.296,11.6984407 C9.67484746,10.2795932 7.25749153,9.84135593 5.24691525,10.6191186 C3.79661017,11.1511864 2.56813559,12.2630508 1.90264407,13.6574915 C1.50888136,14.4515254 1.30277966,15.3350508 1.30115254,16.2212881 C1.28325424,17.7616271 1.78277966,19.2629153 2.50305085,20.6085424 C3.66155932,22.7612203 5.3380339,24.5830508 7.13166102,26.2221017 C8.96,27.8898983 10.9656949,29.3548475 13.0625085,30.6657627 C15.1338305,29.7860339 17.1086102,28.6709153 18.9022373,27.3101017 C20.4832542,26.1293559 21.9259661,24.7414237 23.0546441,23.1170169 C23.9370847,21.8522034 24.603661,20.4301017 24.9578305,18.9266441 C25.0570847,18.4997966 25.0435254,18.0583051 25.0353898,17.623322 C24.9957966,16.5157966 24.7609492,15.3871186 24.1724746,14.4352542 C23.8709153,13.9422373 23.4570847,13.5240678 22.9841356,13.1943051 C22.747661,13.047322 22.632678,12.7452203 22.7172881,12.4789153 C22.7948475,12.1610847 23.1658305,11.9511864 23.4760678,12.0623729 C23.7103729,12.1458983 23.9018305,12.3134915 24.0922034,12.4686102 C24.7761356,13.0147797 25.2930169,13.7491525 25.6477288,14.5453559 C26.1646102,15.7342373 26.3397966,17.0522034 26.2844746,18.3408814 C26.2709153,18.9532203 26.0957288,19.5444068 25.9194576,20.1252881 C25.2469153,22.2551864 24.0054237,24.1719322 22.4889492,25.7979661 C20.9757288,27.4082712 19.2065085,28.7642034 17.3174237,29.9048136 C16.0037966,30.6950508 14.6343051,31.3985085 13.2062373,31.9587797 C13.0066441,32.0357966 12.7896949,31.9620339 12.6161356,31.8562712 C10.4894915,30.5665085 8.47349153,29.0928814 6.61098305,27.4435254 C4.95294915,25.9731525 3.40555932,24.3547119 2.17545763,22.504678 C1.15633898,20.9735593 0.368813559,19.2504407 0.127457627,17.4145085 C-0.0737627119,15.9381695 0.133423729,14.395661 0.802169492,13.0576271 C1.27728814,12.0900339 1.98454237,11.2455593 2.81979661,10.5681356 L2.81979661,10.5681356 Z"></path>
  </g>

  <g id="influencer-path" stroke="none" fill-rule="evenodd">
    <path d="M14.9870345,1.03486897 C17.0253241,0.907751724 19.0896552,1.16463448 21.0277517,1.81081379 C24.2030345,2.85202759 27.0234483,4.9296 28.9739034,7.6409931 C30.0168828,9.07944828 30.8135724,10.6948966 31.3246897,12.3964138 C31.8803862,14.2488828 32.0922483,16.2024276 31.9593931,18.1316966 C31.7312,21.4685241 30.4176552,24.7214897 28.2584276,27.2761931 C27.8461793,27.7705379 27.4025931,28.2388414 26.9312,28.677131 C26.7881931,28.8086621 26.653131,28.9768276 26.4509793,29.0125793 C26.1963034,29.0708414 25.9177931,28.9265103 25.8136276,28.6886069 C25.7129931,28.4745379 25.7655172,28.2039724 25.9367724,28.0419862 C26.1945379,27.7859862 26.4704,27.5480828 26.7149241,27.2788414 C28.6631724,25.2612966 30.0155586,22.6770207 30.5602207,19.9259034 C30.9808552,17.8205241 30.9433379,15.6233379 30.441931,13.5356138 C29.6756966,10.283531 27.7574621,7.32275862 25.1162483,5.27873103 C23.6724966,4.14924138 22.0146759,3.29517241 20.258869,2.77037241 C18.217931,2.15994483 16.0459034,1.99972414 13.9365517,2.29324138 C12.0381793,2.55586207 10.1910069,3.19233103 8.53671724,4.16071724 C5.46736552,5.93638621 3.07332414,8.8486069 1.94162759,12.2101517 C0.85097931,15.3867586 0.890703448,18.9358897 2.04667586,22.0891034 C2.85175172,24.3145379 4.21075862,26.3320828 5.95067586,27.9342897 C6.19608276,28.1284966 6.25125517,28.5191172 6.04071724,28.7587862 C5.85710345,28.9918345 5.48457931,29.0359724 5.25373793,28.8479448 C2.92678621,26.7469793 1.23895172,23.9455448 0.484193103,20.9017931 C-0.0948965517,18.6335448 -0.145655172,16.2381793 0.294841379,13.9416828 C0.68457931,11.9272276 1.46846897,9.98957241 2.59222069,8.27304828 C4.27564138,5.68126897 6.72706207,3.59486897 9.55806897,2.35415172 C11.2701793,1.59674483 13.1186759,1.1513931 14.9870345,1.03486897 L14.9870345,1.03486897 Z"></path>
    <path d="M15.0320552,4.83602759 C17.0178207,4.67845517 19.0424276,5.01611034 20.8662069,5.81942069 C22.4812138,6.52606897 23.9377655,7.59067586 25.104331,8.91216552 C26.2775172,10.2363034 27.158069,11.8190897 27.6581517,13.5161931 C28.2098759,15.3748414 28.3047724,17.3659034 27.9410759,19.2700138 C27.4740966,21.7620414 26.192331,24.0898759 24.3464828,25.8267034 C24.1575724,25.9988414 23.8508138,26.014731 23.6442483,25.8655448 C23.4385655,25.7265103 23.3445517,25.4457931 23.4292966,25.2118621 C23.4694621,25.0794483 23.5727448,24.9823448 23.6676414,24.8874483 C24.9357241,23.6599724 25.9019034,22.1217655 26.454069,20.4454069 C27.1333517,18.3956414 27.1916138,16.1454897 26.6209103,14.0635034 C26.1804138,12.4445241 25.3598897,10.9314759 24.2480552,9.6761931 C23.197131,8.48491034 21.8866759,7.52314483 20.4327724,6.88226207 C18.4249379,5.9897931 16.1465379,5.72893793 13.9873103,6.12573793 C11.1991172,6.62052414 8.64132414,8.25495172 7.00292414,10.5616 C5.83062069,12.190731 5.11955862,14.1478069 4.97743448,16.1499034 C4.81809655,18.2212966 5.25726897,20.3363862 6.24022069,22.167669 C6.77075862,23.1643034 7.45754483,24.0779586 8.26615172,24.8662621 C8.39415172,24.9854345 8.51508966,25.131531 8.52612414,25.3142621 C8.55790345,25.5861517 8.36546207,25.8584828 8.1001931,25.9229241 C7.91393103,25.9728 7.70604138,25.9193931 7.56612414,25.7869793 C6.2825931,24.5603862 5.26697931,23.0530759 4.62565517,21.3970207 C3.8272,19.3556414 3.60297931,17.0962207 3.96932414,14.9361103 C4.26372414,13.1758897 4.95713103,11.4840828 5.97936552,10.0213517 C6.91862069,8.67161379 8.13417931,7.51475862 9.52937931,6.64391724 C11.1810207,5.608 13.0873379,4.97947586 15.0320552,4.83602759 L15.0320552,4.83602759 Z"></path>
    <path d="M15.1640276,8.63012414 C16.9908966,8.45401379 18.8724966,8.89671724 20.4212966,9.88408276 C21.9140414,10.8251034 23.0964966,12.2498759 23.7395862,13.8935724 C24.4457931,15.6749793 24.5062621,17.7013517 23.9152552,19.5233655 C23.4244414,21.0593655 22.4723862,22.443531 21.2166621,23.454731 C20.9708138,23.646731 20.5779862,23.5783172 20.4089379,23.3174621 C20.2835862,23.140469 20.2738759,22.891531 20.3846621,22.7057103 C20.4544,22.5878621 20.5673931,22.5066483 20.668469,22.417931 C22.0879448,21.2059034 23.0002759,19.4209655 23.1450483,17.559669 C23.3030621,15.7769379 22.7623724,13.9447724 21.6589241,12.5358897 C20.6667034,11.2505931 19.229131,10.3161931 17.6485517,9.94057931 C16.6572138,9.7017931 15.6146759,9.67707586 14.6127448,9.86554483 C13.2585931,10.1175724 11.984331,10.7734621 10.9881379,11.7237517 C10.0612414,12.6012138 9.37268966,13.7284966 9.0217931,14.9559724 C8.47404138,16.8353655 8.73489655,18.9345655 9.73771034,20.6171034 C10.1526069,21.3215448 10.6884414,21.9553655 11.3160828,22.4797241 C11.4361379,22.5777103 11.5526621,22.6968828 11.5862069,22.8544552 C11.6532966,23.1033931 11.5239724,23.3845517 11.2944552,23.5001931 C11.1064276,23.5999448 10.8627862,23.5822897 10.6932966,23.4534069 C9.41329655,22.4223448 8.44932414,21.002869 7.96733793,19.4311172 C7.24435862,17.1310897 7.58201379,14.5229793 8.88364138,12.4913103 C9.67150345,11.2426483 10.7956966,10.2089379 12.1065931,9.53053793 C13.0546759,9.0361931 14.0994207,8.73031724 15.1640276,8.63012414 L15.1640276,8.63012414 Z"></path>
    <path d="M13.1791448,13.2535724 C14.006731,12.7274483 15.0174897,12.6113655 15.9774897,12.6096 C16.886731,12.6122483 17.8304,12.7168552 18.6368,13.1675034 C19.2750345,13.5214897 19.7481931,14.1385379 19.9653517,14.8315034 C20.2738759,15.7650207 20.2624,16.7607724 20.2703448,17.7326897 C20.6309517,18.1197793 20.6795034,18.6926897 20.5974069,19.1927724 C20.5131034,19.6994759 20.2747586,20.2278069 19.8068966,20.4864552 C19.4233379,21.4424828 18.8186483,22.3071448 18.0555034,22.9983448 C18.0409379,23.2344828 18.0678621,23.4723862 18.0864,23.7080828 C18.1133241,24.0157241 18.3785931,24.2505379 18.6707862,24.3101241 C19.5328,24.4999172 20.3246345,24.9183448 21.0537931,25.4047448 C22.0491034,26.0796138 22.9521655,26.8974897 23.6941241,27.8455724 C23.9986759,28.2251586 24.1549241,28.7164138 24.1438897,29.2014897 C24.1341793,29.6358069 23.9602759,30.0736552 23.6345379,30.3676138 C23.3419034,30.6289103 22.9442207,30.7502897 22.5562483,30.7489655 L9.39917241,30.7489655 C9.04253793,30.7511724 8.67972414,30.648331 8.39503448,30.4289655 C8.09048276,30.1959172 7.90113103,29.8344276 7.83668966,29.4601379 C7.74576552,28.9441655 7.8825931,28.401269 8.17478621,27.9700414 C8.63470345,27.3379862 9.18642759,26.7774345 9.77390345,26.263669 C10.5193931,25.6263172 11.3359448,25.0626759 12.2328276,24.6596966 C12.5691586,24.5047724 12.9240276,24.3944276 13.2841931,24.3096828 C13.5534345,24.2545103 13.8072276,24.0514759 13.8597517,23.7720828 C13.8981517,23.5165241 13.8990345,23.2574345 13.9074207,22.999669 C13.1332414,22.315531 12.5356138,21.4411586 12.1476414,20.4855724 C11.6881655,20.2379586 11.4590897,19.7215448 11.3641931,19.230731 C11.2750345,18.7240276 11.3160828,18.135669 11.6819862,17.7406345 C11.6965517,16.7793103 11.6802207,15.7959172 11.977269,14.8703448 C12.1772138,14.2153379 12.5943172,13.6185931 13.1791448,13.2535724 L13.1791448,13.2535724 L13.1791448,13.2535724 Z M15.1830069,13.7117241 C14.6568828,13.7668966 14.1214897,13.8922483 13.6792276,14.1950345 C13.3049379,14.4408828 13.0816,14.8566621 12.957131,15.2759724 C12.7108414,16.1600552 12.7563034,17.0869517 12.7426207,17.994869 C12.7430621,18.212469 12.6106483,18.4137379 12.4173241,18.5095172 C12.3422897,18.8502621 12.3970207,19.2294069 12.6009379,19.5176276 C12.8110345,19.5467586 12.9911172,19.6937379 13.0568828,19.896331 C13.3804138,20.7698207 13.9016828,21.5771034 14.6034759,22.1941517 C14.7623724,22.334069 14.9645241,22.481931 14.9707034,22.7149793 C14.9715862,23.0857379 14.9583448,23.4569379 14.9217103,23.825931 C14.8660966,24.3878069 14.5015172,24.8962759 14.006731,25.1588966 C13.6779034,25.349131 13.2872828,25.3654621 12.9425655,25.5137655 C12.1277793,25.8244966 11.3964138,26.3161931 10.7184552,26.8573241 C10.1071448,27.3596138 9.53688276,27.9166345 9.06151724,28.5508966 C8.88275862,28.8060138 8.81037241,29.1524966 8.92998621,29.4477793 C9.00943448,29.6234483 9.21644138,29.6958345 9.39828966,29.6892138 C13.7847172,29.6900966 18.1711448,29.6896552 22.5575724,29.6896552 C22.7155862,29.6914207 22.895669,29.6472828 22.9883586,29.5078069 C23.1088552,29.3113931 23.1053241,29.0620138 23.0391172,28.8475034 C22.9786483,28.6382897 22.8374069,28.4688 22.7027862,28.3032828 C22.2150621,27.7047724 21.6478897,27.1746759 21.039669,26.7006345 C20.3700966,26.1881931 19.6466759,25.7304828 18.8464552,25.4524138 C18.563531,25.3623724 18.262069,25.3244138 17.9963586,25.1844966 C17.6128,24.9863172 17.2879448,24.6570483 17.1361103,24.248331 C16.9728,23.8299034 17.0151724,23.3730759 16.9829517,22.9343448 C16.9705931,22.7207172 17.0059034,22.4757517 17.1881931,22.3380414 C17.9584,21.7046621 18.5414621,20.8567724 18.8879448,19.9236966 C18.9572414,19.7149241 19.1302621,19.5352828 19.3580138,19.5171862 C19.5535448,19.2285241 19.6210759,18.8515862 19.5350069,18.5143724 C19.3694897,18.4247724 19.2194207,18.2729379 19.2154483,18.0734345 C19.1969103,17.226869 19.2423724,16.3688276 19.0614069,15.5355034 C18.9762207,15.0994207 18.7943724,14.6677517 18.4730483,14.3526069 C18.1181793,14.021131 17.6406069,13.8564966 17.1718621,13.7646897 C16.5159724,13.6512552 15.8441931,13.6441931 15.1830069,13.7117241 L15.1830069,13.7117241 L15.1830069,13.7117241 Z"></path>
  </g>

  <g id="personality-path" stroke="none" fill-rule="evenodd">
    <path d="M10.3268698,6.11069252 C11.0829917,5.42105263 12.0979501,5.01063712 13.1235457,5.01861496 C14.3450416,4.99024931 15.5567867,5.55490305 16.3412742,6.48742382 C17.1700831,5.53717452 18.4172853,4.95301939 19.6857618,5.01950139 C21.5357341,5.04963989 23.2039889,6.49362881 23.5993352,8.28421053 C24.8952909,8.09451524 26.2781163,8.50315789 27.2088643,9.4365651 C27.9827147,10.1687535 28.4427701,11.2111911 28.486205,12.2731302 C28.5198892,12.8679224 28.3727424,13.4547368 28.17241,14.0105263 C29.2662604,14.4829917 30.1314127,15.4580609 30.4354571,16.6139612 C30.6189474,17.2557341 30.5976731,17.9418283 30.4372299,18.585374 C31.0151801,18.9142382 31.4973961,19.4274792 31.727867,20.0577285 C32.0336842,20.8377839 31.9299723,21.7330748 31.5479224,22.4679224 C31.9654294,23.0636011 31.9530194,23.8117452 31.8883102,24.5040443 C31.7331856,25.1990028 31.299723,25.8265928 30.7004986,26.2130748 C29.7644321,26.8521884 28.425928,26.8096399 27.5297507,26.1155679 C26.838338,26.9426039 25.8251524,27.514349 24.7454848,27.6029917 C24.2685873,27.593241 23.7810526,27.6526316 23.3156787,27.5196676 C22.2342382,27.2643767 21.2609418,26.566759 20.6936288,25.6085319 C18.6060942,26.77241 16.0753463,27.1048199 13.7564543,26.5304155 C12.8008864,26.3034903 11.8852078,25.9178947 11.0395568,25.4206094 C10.4589474,26.44 9.47146814,27.2289197 8.32797784,27.5125762 C7.83157895,27.6544044 7.31036011,27.5976731 6.80155125,27.5976731 C5.99756233,27.5072576 5.23257618,27.1482548 4.61916898,26.6252632 C4.15468144,27.2643767 3.36753463,27.6792244 2.56975069,27.6065374 C1.7134626,27.6668144 0.883767313,27.1739612 0.422825485,26.4692521 C-0.249085873,25.4755679 -0.101939058,24.0227147 0.781828255,23.2036565 C0.491966759,22.3704155 0.413074792,21.4538504 0.64,20.5957895 C0.905041551,19.5356233 1.60531856,18.5995568 2.53961219,18.034903 C2.06803324,17.0163989 1.98204986,15.8126316 2.3800554,14.7560111 C2.79490305,13.6001108 3.75313019,12.6791136 4.89927978,12.2536288 C5.2299169,11.0498615 6.10570637,10.0083102 7.2465374,9.49595568 C7.78105263,9.24686981 8.37052632,9.13695291 8.95734072,9.11745152 C8.98481994,7.98371191 9.48476454,6.87124654 10.3268698,6.11069252 L10.3268698,6.11069252 L10.3268698,6.11069252 Z M11.4978393,6.39523546 C10.5582271,6.94216066 9.93152355,7.98193906 9.88720222,9.06781163 C9.87390582,9.5331856 9.90493075,9.99855956 9.93772853,10.4621607 C10.2426593,11.2980609 10.7691967,12.0408864 11.3861496,12.6764543 C12.8035457,14.0982825 14.6774515,14.9731856 16.5912465,15.5068144 C18.8365651,16.0971745 21.205097,16.320554 23.5080332,15.9553463 C24.1240997,15.8711357 24.7348476,15.6885319 25.3624377,15.7381717 C26.0866482,15.759446 26.7993352,16.0891967 27.285097,16.6272576 C27.9587812,17.3452632 28.1635457,18.4506371 27.8222715,19.3698615 C27.411856,20.565651 26.0884211,21.3705263 24.8376731,21.1347368 C24.2437673,22.4803324 23.3369529,23.6894183 22.2032133,24.6272576 C21.9621053,24.8320222 21.6846537,24.9942382 21.4657064,25.226482 C21.9115789,25.9010526 22.5967867,26.4178393 23.3768421,26.6367867 C24.6080886,26.9957895 26.0440997,26.5534626 26.8152909,25.5172299 C26.9739612,25.3186704 27.0962881,25.0279224 27.3843767,25.0004432 C27.5918006,24.9525762 27.7407202,25.1351801 27.8754571,25.2610526 C28.2459834,25.6413296 28.7946814,25.8354571 29.3229917,25.7822715 C29.8911911,25.7290859 30.4265928,25.3913573 30.7173407,24.8993906 C31.1047091,24.2868698 31.0674792,23.4376731 30.6233795,22.8632687 C30.5152355,22.7116898 30.3964543,22.4945152 30.5258726,22.3198892 C30.7111357,22.0583934 30.9141274,21.7951247 30.9761773,21.4724654 C31.1968975,20.6436565 30.7590028,19.6872022 29.9550139,19.3645429 C29.7697507,19.2750139 29.4905263,19.2422161 29.446205,19.0002216 C29.3939058,18.7014958 29.5640997,18.4204986 29.5951247,18.126205 C29.8911911,16.6972853 28.9232133,15.1575623 27.5182271,14.7799446 C27.2283657,14.7347368 26.9580055,14.425374 27.1255402,14.1337396 C27.4136288,13.5557895 27.6104155,12.9166759 27.5598892,12.2633795 C27.5111357,11.254626 26.952687,10.294626 26.1159003,9.73351801 C25.3659834,9.22027701 24.3953463,9.03855956 23.5142382,9.26814404 C23.3564543,9.3000554 23.1756233,9.38072022 23.02759,9.27966759 C22.7660942,9.13606648 22.8166205,8.80188366 22.7448199,8.55722992 C22.4381163,7.01839335 20.9187812,5.81905817 19.3436011,5.94404432 C18.3162327,5.99191136 17.3331856,6.56720222 16.7968975,7.4465374 C16.6426593,7.7700831 16.1471468,7.80022161 15.9672022,7.48554017 C15.5488089,6.83401662 14.9079224,6.32786704 14.1668698,6.09739612 C13.2893075,5.80576177 12.2885319,5.9165651 11.4978393,6.39523546 L11.4978393,6.39523546 L11.4978393,6.39523546 Z M6.14116343,11.5116898 C5.87168975,11.8831025 5.7201108,12.3209972 5.61905817,12.765097 C5.58360111,12.9742936 5.39213296,13.0815512 5.20421053,13.1303047 C3.8701385,13.5593352 2.89772853,14.9208864 2.96155125,16.326759 C2.97839335,16.9215512 3.17252078,17.498615 3.47479224,18.0074238 C3.65562327,18.2777839 3.45174515,18.620831 3.17252078,18.7165651 C1.72941828,19.3547922 0.975955679,21.1648753 1.5166759,22.6434349 C1.59734072,22.9368421 1.85529086,23.2346814 1.70725762,23.54759 C1.54149584,23.7886981 1.26227147,23.9349584 1.1266482,24.2017729 C0.807534626,24.6999446 0.80132964,25.3709695 1.09916898,25.8797784 C1.35091413,26.3478116 1.85263158,26.6580609 2.37828255,26.7050416 C3.05019391,26.7812742 3.72210526,26.3717452 4.02260388,25.7769529 C4.1467036,25.498615 4.5633241,25.2557341 4.81240997,25.5225485 C5.45861496,26.2839889 6.44432133,26.7591136 7.45041551,26.7103601 C8.61429363,26.6624931 9.70903047,25.9409418 10.2479778,24.9144598 C8.96088643,23.8906371 7.8900831,22.5858172 7.20398892,21.0868698 C6.36897507,21.2366759 5.46304709,20.9485873 4.86736842,20.3431579 C4.04476454,19.5551247 3.83645429,18.2308033 4.33196676,17.2131856 C4.71135734,16.3914681 5.52421053,15.8028809 6.41684211,15.6752355 C6.72886427,13.7375069 7.59224377,11.8857618 8.95024931,10.4603878 C8.92897507,10.3371745 8.91124654,10.2139612 8.89529086,10.0907479 C7.8200554,10.0818837 6.74747922,10.6172853 6.14116343,11.5116898 L6.14116343,11.5116898 L6.14116343,11.5116898 Z M9.28177285,11.4319114 C8.08775623,12.8696953 7.38925208,14.6842105 7.24919668,16.5430471 C6.90526316,16.5474792 6.55157895,16.5332964 6.22182825,16.646759 C5.39922438,16.918892 4.83457064,17.8425485 5.02072022,18.6988366 C5.14925208,19.3831579 5.70415512,19.9690859 6.38936288,20.1118006 C6.85119114,20.239446 7.31922438,20.0763435 7.75268698,19.9265374 C8.28897507,21.4955125 9.28620499,22.9031579 10.5715235,23.9482548 C11.8444321,24.9871468 13.4284765,25.6342382 15.0630471,25.7902493 C16.9555679,25.9826039 18.9101385,25.5429363 20.5269806,24.538615 C22.2306925,23.4855402 23.571856,21.8341274 24.2003324,19.9283102 C24.6204986,20.0648199 25.068144,20.233241 25.5157895,20.1215512 C26.2595014,19.9717452 26.8658172,19.3175623 26.9571191,18.5640997 C27.0626039,17.7955679 26.5901385,17.0048753 25.8818837,16.7026039 C25.3659834,16.4925208 24.7827147,16.513795 24.247313,16.6387812 C23.3901385,16.8382271 22.5108033,16.9330748 21.6314681,16.9658726 C18.988144,17.0110803 16.2969529,16.6201662 13.8752355,15.5218837 C11.9827147,14.6655956 10.2488643,13.3022715 9.28177285,11.4319114 L9.28177285,11.4319114 L9.28177285,11.4319114 Z"></path>
    <path d="M12.2645983,19.3069252 C12.4578393,19.1863712 12.7175623,19.2147368 12.9311911,19.2643767 C13.1474792,19.3485873 13.1120222,19.6145152 13.1625485,19.798892 C13.3903601,21.0895291 14.6446537,22.0920776 15.952133,22.045097 C17.2241551,22.0708033 18.4323546,21.1152355 18.686759,19.865374 C18.7461496,19.653518 18.7168975,19.3352909 18.9801662,19.2563989 C19.1911357,19.2156233 19.4951801,19.1668698 19.6414404,19.3618837 C19.586482,21.0274792 18.3073684,22.5769529 16.6595014,22.8942936 C15.4911911,23.1407202 14.2023269,22.8100831 13.3345152,21.9803878 C12.6750139,21.3776177 12.2575069,20.5266482 12.1564543,19.641108 C12.1342936,19.5214404 12.166205,19.3840443 12.2645983,19.3069252 L12.2645983,19.3069252 Z"></path>
  </g>

  <g id="age-path" stroke="none" fill-rule="evenodd">
    <path d="M31.0025974,31.0441558 L0.664935065,31.0441558 C0.332467532,31.0441558 0.0415584416,30.7532468 0.0415584416,30.4207792 L0.0415584416,12.425974 C0.0415584416,12.0935065 0.332467532,11.8025974 0.664935065,11.8025974 L31.0025974,11.8025974 C31.3350649,11.8025974 31.625974,12.0935065 31.625974,12.425974 L31.625974,30.4207792 C31.625974,30.7532468 31.3350649,31.0441558 31.0025974,31.0441558 L31.0025974,31.0441558 L31.0025974,31.0441558 Z M1.28831169,29.7974026 L30.3792208,29.7974026 L30.3792208,13.0493506 L1.28831169,13.0493506 L1.28831169,29.7974026 L1.28831169,29.7974026 L1.28831169,29.7974026 Z"></path>
    <path d="M25.8077922,19.7818182 C24.3116883,19.7818182 23.5220779,18.9922078 22.8571429,18.3688312 C22.2753247,17.787013 21.7766234,17.2883117 20.8207792,17.2883117 C19.8233766,17.2883117 19.3662338,17.7454545 18.7844156,18.3688312 C18.161039,18.9922078 17.3714286,19.7818182 15.8337662,19.7818182 C14.3376623,19.7818182 13.5480519,18.9922078 12.8831169,18.3688312 C12.3012987,17.787013 11.8025974,17.2883117 10.8467532,17.2883117 C9.84935065,17.2883117 9.39220779,17.7454545 8.81038961,18.3688312 C8.18701299,18.9922078 7.3974026,19.7818182 5.85974026,19.7818182 C4.32207792,19.7818182 3.57402597,18.9922078 2.90909091,18.3688312 C2.32727273,17.787013 1.82857143,17.2883117 0.872727273,17.2883117 L0.872727273,16.0415584 C2.36883117,16.0415584 3.15844156,16.8311688 3.82337662,17.4545455 C4.40519481,18.0363636 4.9038961,18.5350649 5.85974026,18.5350649 C6.85714286,18.5350649 7.31428571,18.0779221 7.8961039,17.4545455 C8.51948052,16.8311688 9.30909091,16.0415584 10.8467532,16.0415584 C12.3428571,16.0415584 13.1324675,16.8311688 13.7974026,17.4545455 C14.3792208,18.0363636 14.8779221,18.5350649 15.8337662,18.5350649 C16.8311688,18.5350649 17.2883117,18.0779221 17.8701299,17.4545455 C18.4935065,16.8311688 19.2831169,16.0415584 20.8207792,16.0415584 C22.3168831,16.0415584 23.1064935,16.8311688 23.7714286,17.4545455 C24.3532468,18.0363636 24.8519481,18.5350649 25.8077922,18.5350649 C26.7636364,18.5350649 27.2623377,18.0779221 27.8441558,17.4545455 C28.4675325,16.8311688 29.2571429,16.0415584 30.7948052,16.0415584 L30.7948052,17.2883117 C29.7974026,17.2883117 29.3402597,17.7454545 28.7584416,18.3688312 C28.0935065,18.9922078 27.3038961,19.7818182 25.8077922,19.7818182 L25.8077922,19.7818182 Z"></path>
    <rect id="Rectangle-path" fill="#000000" sketch:type="MSShapeGroup" x="6.94025974" y="9.76623377" width="1.24675325" height="3.03376623"></rect>
    <rect id="Rectangle-path" fill="#000000" sketch:type="MSShapeGroup" x="23.438961" y="9.76623377" width="1.24675325" height="3.03376623"></rect>
    <rect id="Rectangle-path" fill="#000000" sketch:type="MSShapeGroup" x="15.2103896" y="7.14805195" width="1.24675325" height="5.65194805"></rect>
    <path d="M7.56363636,9.93246753 C6.06753247,9.93246753 4.82077922,8.72727273 4.82077922,7.18961039 C4.82077922,6.56623377 5.98441558,4.1974026 6.98181818,2.28571429 C7.10649351,2.07792208 7.31428571,1.95324675 7.52207792,1.95324675 C7.72987013,1.95324675 7.97922078,2.07792208 8.06233766,2.28571429 C9.05974026,4.1974026 10.2233766,6.56623377 10.2233766,7.18961039 C10.3064935,8.72727273 9.05974026,9.93246753 7.56363636,9.93246753 L7.56363636,9.93246753 L7.56363636,9.93246753 Z M7.56363636,3.94805195 C6.81558442,5.44415584 6.10909091,6.8987013 6.06753247,7.23116883 C6.06753247,8.02077922 6.73246753,8.68571429 7.56363636,8.68571429 C8.39480519,8.68571429 9.05974026,8.02077922 9.05974026,7.18961039 C9.01818182,6.8987013 8.31168831,5.44415584 7.56363636,3.94805195 L7.56363636,3.94805195 L7.56363636,3.94805195 Z"></path>
    <path d="M15.8337662,8.14545455 C14.3376623,8.14545455 13.0909091,6.94025974 13.0909091,5.4025974 C13.0909091,4.77922078 14.2545455,2.41038961 15.2519481,0.498701299 C15.3766234,0.290909091 15.5844156,0.166233766 15.7922078,0.166233766 C16,0.166233766 16.2493506,0.290909091 16.3324675,0.498701299 C17.3298701,2.41038961 18.4935065,4.77922078 18.4935065,5.4025974 C18.5350649,6.8987013 17.3298701,8.14545455 15.8337662,8.14545455 L15.8337662,8.14545455 L15.8337662,8.14545455 Z M15.8337662,2.16103896 C15.0857143,3.65714286 14.3792208,5.11168831 14.3376623,5.44415584 C14.3376623,6.23376623 15.0025974,6.8987013 15.8337662,6.8987013 C16.6649351,6.8987013 17.3298701,6.23376623 17.3298701,5.4025974 C17.2467532,5.11168831 16.5818182,3.65714286 15.8337662,2.16103896 L15.8337662,2.16103896 L15.8337662,2.16103896 Z"></path>
    <path d="M24.1038961,9.93246753 C22.6077922,9.93246753 21.361039,8.72727273 21.361039,7.18961039 C21.361039,6.56623377 22.5246753,4.1974026 23.5220779,2.28571429 C23.6467532,2.07792208 23.8545455,1.95324675 24.1038961,1.95324675 C24.3532468,1.95324675 24.561039,2.07792208 24.6441558,2.28571429 C25.6415584,4.1974026 26.8051948,6.56623377 26.8051948,7.18961039 C26.8051948,8.72727273 25.6,9.93246753 24.1038961,9.93246753 L24.1038961,9.93246753 L24.1038961,9.93246753 Z M24.1038961,3.94805195 C23.3558442,5.44415584 22.6493506,6.8987013 22.6077922,7.23116883 C22.6077922,8.02077922 23.2727273,8.68571429 24.1038961,8.68571429 C24.9350649,8.68571429 25.6,8.02077922 25.6,7.18961039 C25.5168831,6.8987013 24.8519481,5.44415584 24.1038961,3.94805195 L24.1038961,3.94805195 L24.1038961,3.94805195 Z"></path>
    <path d="M30.3792208,25.5584416 L1.12207792,25.5584416 C0.78961039,25.5584416 0.498701299,25.2675325 0.498701299,24.9350649 C0.498701299,24.6025974 0.78961039,24.3116883 1.12207792,24.3116883 L30.3792208,24.3116883 C30.7116883,24.3116883 31.0025974,24.6025974 31.0025974,24.9350649 C31.0025974,25.2675325 30.7116883,25.5584416 30.3792208,25.5584416 L30.3792208,25.5584416 Z"></path>
  </g>

  <g id="income-path" stroke="none" fill-rule="evenodd">
    <path d="M29.4363636,6.03636364 L26.0909091,6.03636364 L26.0909091,7.12727273 L28.8909091,7.12727273 L28.8909091,9.16363636 L26.0909091,9.16363636 L26.0909091,10.2545455 L28.8909091,10.2545455 L28.8909091,17.5636364 L26.0909091,17.5636364 L26.0909091,18.6545455 L29.4363636,18.6545455 C29.7272727,18.6545455 29.9818182,18.4 29.9818182,18.1090909 L29.9818182,6.58181818 C29.9818182,6.29090909 29.7272727,6.03636364 29.4363636,6.03636364 L29.4363636,6.03636364 Z"></path>
    <path d="M26.0909091,21.8181818 L1.65454545,21.8181818 C1.36363636,21.8181818 1.10909091,21.5636364 1.10909091,21.2727273 L1.10909091,3.30909091 C1.10909091,3.01818182 1.36363636,2.76363636 1.65454545,2.76363636 L26.0909091,2.76363636 C26.3818182,2.76363636 26.6363636,3.01818182 26.6363636,3.30909091 L26.6363636,21.3090909 C26.6363636,21.6 26.3818182,21.8181818 26.0909091,21.8181818 L26.0909091,21.8181818 L26.0909091,21.8181818 Z M2.2,20.7272727 L25.5454545,20.7272727 L25.5454545,3.85454545 L2.2,3.85454545 L2.2,20.7272727 L2.2,20.7272727 L2.2,20.7272727 Z"></path>
    <path d="M5.98181818,27.6 C3.83636364,27.6 2.2,26.6545455 2.2,25.4181818 C2.2,24.1818182 3.83636364,23.2363636 5.98181818,23.2363636 C8.12727273,23.2363636 9.76363636,24.1818182 9.76363636,25.4181818 C9.72727273,26.6545455 8.12727273,27.6 5.98181818,27.6 L5.98181818,27.6 L5.98181818,27.6 Z M5.98181818,24.2909091 C4.34545455,24.2909091 3.29090909,24.9454545 3.29090909,25.3818182 C3.29090909,25.8181818 4.34545455,26.4727273 5.98181818,26.4727273 C7.61818182,26.4727273 8.67272727,25.8181818 8.67272727,25.3818182 C8.67272727,24.9454545 7.61818182,24.2909091 5.98181818,24.2909091 L5.98181818,24.2909091 L5.98181818,24.2909091 Z"></path>
    <path d="M11.6181818,31.8909091 C9.47272727,31.8909091 7.83636364,30.9454545 7.83636364,29.7090909 C7.83636364,28.4727273 9.47272727,27.5272727 11.6181818,27.5272727 C13.7636364,27.5272727 15.4,28.4727273 15.4,29.7090909 C15.4,30.9454545 13.8,31.8909091 11.6181818,31.8909091 L11.6181818,31.8909091 L11.6181818,31.8909091 Z M11.6181818,28.5818182 C9.98181818,28.5818182 8.92727273,29.2363636 8.92727273,29.6727273 C8.92727273,30.1090909 9.98181818,30.7636364 11.6181818,30.7636364 C13.2545455,30.7636364 14.3090909,30.1090909 14.3090909,29.6727273 C14.3090909,29.2363636 13.2545455,28.5818182 11.6181818,28.5818182 L11.6181818,28.5818182 L11.6181818,28.5818182 Z"></path>
    <path d="M22.4181818,28.6181818 C20.2727273,28.6181818 18.6363636,27.6727273 18.6363636,26.4363636 C18.6363636,25.2 20.2727273,24.2545455 22.4181818,24.2545455 C24.5636364,24.2545455 26.2,25.2 26.2,26.4363636 C26.2,27.6727273 24.5636364,28.6181818 22.4181818,28.6181818 L22.4181818,28.6181818 L22.4181818,28.6181818 Z M22.4181818,25.3454545 C20.7818182,25.3454545 19.7272727,26 19.7272727,26.4363636 C19.7272727,26.8727273 20.7818182,27.5272727 22.4181818,27.5272727 C24.0545455,27.5272727 25.1090909,26.8727273 25.1090909,26.4363636 C25.1090909,26 24.0545455,25.3454545 22.4181818,25.3454545 L22.4181818,25.3454545 L22.4181818,25.3454545 Z"></path>
    <path d="M22.5272727,18.6181818 L17.2181818,18.6181818 C16.9272727,18.6181818 16.6727273,18.3636364 16.6727273,18.0727273 L16.6727273,15.3090909 C16.6727273,15.0181818 16.9272727,14.7636364 17.2181818,14.7636364 L22.5636364,14.7636364 C22.8545455,14.7636364 23.1090909,15.0181818 23.1090909,15.3090909 L23.1090909,18.0727273 C23.1090909,18.3636364 22.8545455,18.6181818 22.5272727,18.6181818 L22.5272727,18.6181818 L22.5272727,18.6181818 Z M17.7636364,17.5272727 L22.0181818,17.5272727 L22.0181818,15.8545455 L17.7636364,15.8545455 L17.7636364,17.5272727 L17.7636364,17.5272727 L17.7636364,17.5272727 Z"></path>
    <path d="M1.65454545,21.2727273 L1.65454545,3.30909091 L5.94545455,3.30909091 L21.3636364,1.30909091 L21.3636364,3.30909091 L22.4545455,3.30909091 L22.4545455,0.690909091 C22.4545455,0.545454545 22.3818182,0.4 22.2727273,0.290909091 C22.1636364,0.181818182 21.9818182,0.145454545 21.8363636,0.145454545 L1.58181818,2.76363636 C1.32727273,2.8 1.10909091,3.01818182 1.10909091,3.30909091 L1.10909091,21.3090909 C1.10909091,21.6 1.36363636,21.8545455 1.65454545,21.8545455 L21.9090909,21.8545455 C22.2,21.8545455 22.4545455,21.6 22.4545455,21.3090909 L22.4545455,21.3090909 L1.65454545,21.3090909 L1.65454545,21.2727273 Z"></path>
  </g>

  <g id="brand-path" stroke="none" fill-rule="evenodd">
    <path d="M14.9652934,0.0343570537 C16.9939576,-0.0958801498 19.0501873,0.15340824 20.9813733,0.791810237 C23.8509863,1.7310362 26.4393508,3.50561798 28.3533583,5.84029963 C30.2593758,8.14421973 31.4990262,10.9946567 31.8693633,13.9629463 C32.2033458,16.5684894 31.8865418,19.2571286 30.9405243,21.7088639 C30.2477903,23.5098127 29.2250687,25.1841199 27.9390762,26.6227216 C26.6351061,28.0840949 25.0646692,29.3073658 23.3232459,30.2038452 C21.422422,31.1890137 19.3198502,31.7810737 17.1845194,31.9344819 C14.3496629,32.1474157 11.4600749,31.5861174 8.91605493,30.3153059 C6.13193508,28.9370287 3.76888889,26.7261923 2.20364544,24.0431461 C1.36589263,22.6065418 0.745867665,21.0412984 0.393907615,19.4153308 C-0.0459425718,17.4166292 -0.0966791511,15.332834 0.246891386,13.3153558 C0.530137328,11.6402497 1.0878402,10.0126841 1.88324594,8.5117603 C2.9467166,6.49947566 4.45003745,4.72249688 6.25178527,3.33223471 C8.74067416,1.39545568 11.818427,0.232908864 14.9652934,0.0343570537 L14.9652934,0.0343570537 L14.9652934,0.0343570537 Z M14.7643446,1.43181024 C11.84799,1.66951311 9.01553059,2.82127341 6.75835206,4.68254682 C5.5031211,5.70806492 4.42247191,6.94571785 3.56833958,8.3227965 C2.53403246,9.99270911 1.84489388,11.8751561 1.55765293,13.8179276 C1.26761548,15.7750811 1.37228464,17.7909613 1.87325843,19.7049688 C2.65947566,22.705618 4.43126092,25.4390012 6.85343321,27.3777778 C9.24484395,29.3145568 12.2658677,30.4579276 15.340824,30.5865668 C17.9491635,30.706417 20.5882647,30.1159551 22.8893883,28.8806991 C24.5928589,27.9714357 26.1113608,26.7190012 27.3322347,25.2232709 C28.6198252,23.650437 29.5746317,21.8063421 30.1059675,19.843995 C30.9277403,16.8549313 30.7643446,13.6037953 29.6341573,10.7166042 C28.6346067,8.11705368 26.851236,5.83870162 24.6108365,4.19235955 C23.332035,3.25792759 21.9026217,2.52843945 20.3909114,2.05423221 C18.5803745,1.48094881 16.656779,1.26681648 14.7643446,1.43181024 L14.7643446,1.43181024 L14.7643446,1.43181024 Z"></path>
    <path d="M11.4308229,7.66558869 L14.7143119,7.66558869 C15.5610377,7.67305541 16.4100035,7.63870851 17.2541159,7.71897572 C17.9910809,7.79774959 18.7321526,7.93364385 19.4123706,8.23791258 C19.8883738,8.45444739 20.3416036,8.74004933 20.6962726,9.12831864 C21.1801159,9.6472555 21.4877447,10.3177667 21.5956388,11.0166515 C21.7136129,11.78311 21.7057728,12.5876488 21.4410777,13.3242405 C21.2028894,13.9674982 20.8049134,14.5543822 20.2773898,14.9956652 C19.4650109,15.6833499 18.401377,15.9943387 17.3560366,16.0824459 C18.8829803,18.5673695 20.408804,21.0526664 21.9357477,23.53759 C22.0160149,23.6522041 21.9947348,23.8022851 21.9402278,23.9232459 C21.435851,23.9221259 20.9314742,23.9228726 20.4274708,23.9228726 C18.9023938,21.3490951 17.3795567,18.7738242 15.8541064,16.2000467 C14.8524462,16.2000467 13.8507861,16.2004201 12.8491259,16.2000467 L12.8491259,23.9228726 L11.4308229,23.9228726 C11.4308229,18.5035291 11.4304496,13.0845589 11.4308229,7.66558869 L11.4308229,7.66558869 L11.4308229,7.66558869 Z M12.8487526,8.85093009 C12.8498726,10.9057707 12.8487526,12.960238 12.8491259,15.0150787 C13.4837969,15.0147053 14.1180946,15.0150787 14.7527655,15.0147053 C15.658105,15.0079853 16.5731513,15.0550256 17.466544,14.8788111 C18.1829755,14.7436635 18.9020204,14.4789684 19.4463441,13.9786983 C19.9216007,13.543762 20.1859225,12.9135711 20.2348295,12.2770334 C20.2863498,11.6121222 20.2049626,10.9012907 19.8256534,10.3353135 C19.5001045,9.81189662 18.9733276,9.44229411 18.403617,9.22538597 C17.6211051,8.93269064 16.7769926,8.8572768 15.9478137,8.85093009 C14.9147933,8.85055675 13.8817729,8.85055675 12.8487526,8.85093009 L12.8487526,8.85093009 L12.8487526,8.85093009 Z"></path>
  </g>

  <g id="tv-path" stroke="none" fill-rule="evenodd">
    <path d="M26.9989889,8.097 L5.18172627,8.097 C3.97725454,8.097 3,8.99 3,10.09 L3,25.029 C3,26.131 3.97725454,27.02 5.18172627,27.02 L26.9989889,27.02 C28.2045636,27.02 29.1818182,26.13 29.1818182,25.029 L29.1818182,10.089 C29.1807152,8.99 28.2034607,8.097 26.9989889,8.097 L26.9989889,8.097 L26.9989889,8.097 Z M28.0898521,25.028 C28.0898521,25.578 27.6001218,26.023 26.9989889,26.023 L5.18172627,26.023 C4.5805934,26.023 4.09086313,25.578 4.09086313,25.028 L4.09086313,10.089 C4.09086313,9.54 4.5805934,9.093 5.18172627,9.093 L26.9989889,9.093 C27.6001218,9.093 28.0898521,9.54 28.0898521,10.089 L28.0898521,25.028 L28.0898521,25.028 L28.0898521,25.028 Z M18.2731869,7.101 L17.0356252,5.972 L21.2303194,0.587 L20.3788064,0.029 L16.4245654,5.108 L11.7809519,0 L10.9768677,0.615 L15.5278296,5.623 L13.9075283,7.101 L18.2731869,7.101 L18.2731869,7.101 Z M3,29.012 L6.2725894,29.012 L5.18172627,32 L6.2725894,32 L7.36345253,29.012 L24.8172627,29.012 L25.9081258,32 L26.9978859,32 L25.9081258,29.012 L29.1807152,29.012 L29.1807152,28.015 L3,28.015 L3,29.012 L3,29.012 L3,29.012 Z"></path>
  </g>

  <g id="ibm-watson-path" stroke="none"fill-rule="evenodd">
    <path d="M16.1795918,0.145306122 C16.1795918,0.145306122 16.7477551,0.599183673 16.7036735,0.974693878 C16.7183673,2.23020408 16.7297959,3.48734694 16.6987755,4.74285714 C16.6677551,5.5477551 15.3795918,5.64734694 15.2163265,4.86530612 C15.12,3.6244898 15.1918367,2.3722449 15.1755102,1.12653061 C15.1118367,0.705306122 15.6881633,0.146938776 15.6881633,0.146938776 L16.1795918,0.145306122 Z"></path>
    <path d="M6.92571429,3.25387755 C6.62530612,2.7477551 7.10040816,2.06040816 7.67346939,2.1355102 C8.03102041,2.14693878 8.27591837,2.44897959 8.39510204,2.75755102 C8.91591837,3.92326531 9.49061224,5.06122449 9.99510204,6.23510204 C9.85469388,6.55673469 9.69306122,6.97469388 9.28,6.99918367 C8.95020408,7.05632653 8.59428571,6.88163265 8.47020408,6.56163265 C7.94285714,5.4644898 7.43020408,4.36081633 6.92571429,3.25387755 L6.92571429,3.25387755 Z"></path>
    <path d="M23.9134694,2.22693878 C24.4653061,1.8922449 25.2212245,2.49632653 24.9991837,3.10204082 C24.6220408,4.1044898 24.0865306,5.04 23.6718367,6.02612245 C23.4857143,6.3755102 23.3730612,6.85877551 22.9404082,6.97959184 C22.4016327,7.19346939 21.7681633,6.59265306 21.9787755,6.04571429 C22.3820408,5.04163265 22.8914286,4.08163265 23.3289796,3.0922449 C23.4889796,2.78693878 23.5885714,2.40163265 23.9134694,2.22693878 L23.9134694,2.22693878 Z"></path>
    <path d="M14.1208163,7.46612245 C16.7216327,7.06612245 19.4481633,7.50367347 21.7795918,8.72816327 C24.4114286,10.0832653 26.5273469,12.4195918 27.6,15.1804082 C28.475102,17.4008163 28.677551,19.8791837 28.1763265,22.2122449 C27.5885714,25.0269388 25.9591837,27.6032653 23.684898,29.36 C21.5608163,31.0334694 18.8702041,31.9657143 16.1681633,31.9853061 C13.0155102,32.042449 9.8644898,30.8342857 7.55918367,28.6840816 C5.7877551,27.0546939 4.50612245,24.8963265 3.9444898,22.555102 C3.22122449,19.6065306 3.63918367,16.3918367 5.11836735,13.7371429 C6.93387755,10.4016327 10.3657143,8.01959184 14.1208163,7.46612245 L14.1208163,7.46612245 L14.1208163,7.46612245 Z M10.8832653,9.51673469 C12.4897959,9.59836735 14.0571429,10.0359184 15.5134694,10.7085714 C15.9591837,9.84979592 16.4685714,9.01714286 17.1542857,8.32653061 C15.0057143,8.17142857 12.804898,8.52081633 10.8832653,9.51673469 L10.8832653,9.51673469 L10.8832653,9.51673469 Z M16.8359184,10.6253061 C17.6473469,10.3885714 18.4653061,10.164898 19.2979592,10.0097959 C19.0889796,9.52979592 19.124898,8.61714286 18.4538776,8.58285714 C17.7126531,9.07265306 17.2783673,9.88081633 16.8359184,10.6253061 L16.8359184,10.6253061 L16.8359184,10.6253061 Z M19.5918367,8.86693878 C19.7077551,9.21632653 19.8236735,9.56734694 19.9281633,9.92326531 C20.5208163,9.87102041 21.1134694,9.84326531 21.7077551,9.83183673 C21.0318367,9.44816327 20.3232653,9.12489796 19.5918367,8.86693878 L19.5918367,8.86693878 L19.5918367,8.86693878 Z M9.93142857,10.7444898 C8.8555102,10.922449 7.78285714,11.52 7.26367347,12.5061224 C6.60734694,14.4391837 6.72163265,16.564898 7.29959184,18.5012245 C7.99510204,17.3942857 8.78857143,16.3493878 9.67183673,15.3844898 C9.54285714,14.9273469 9.5444898,14.3542857 9.98204082,14.0571429 C10.3102041,13.764898 10.7591837,13.9020408 11.1379592,13.9902041 C12.2497959,13.0155102 13.4955102,12.2089796 14.7918367,11.5036735 C13.2506122,10.9257143 11.5869388,10.4669388 9.93142857,10.7444898 L9.93142857,10.7444898 L9.93142857,10.7444898 Z M16.5746939,11.237551 C17.5738776,11.7812245 18.5142857,12.4244898 19.4253061,13.1053061 C19.4710204,12.2791837 19.4530612,11.4497959 19.3812245,10.6269388 C18.4244898,10.7085714 17.4791837,10.9126531 16.5746939,11.237551 L16.5746939,11.237551 L16.5746939,11.237551 Z M20.037551,10.6155102 C20.1338776,11.5934694 20.0881633,12.5746939 20.0538776,13.5542857 C20.4391837,14.0685714 20.9959184,14.4408163 21.4416327,14.9077551 C21.9020408,14.8293878 22.4163265,14.7591837 22.8195918,15.0546939 C23.2587755,15.2979592 23.4367347,15.7877551 23.5787755,16.2383673 C24.1485714,16.3069388 24.7134694,16.4 25.2767347,16.5077551 C25.604898,14.9453061 25.4040816,13.0579592 24.08,11.9983673 C22.922449,11.1232653 21.4791837,10.6759184 20.037551,10.6155102 L20.037551,10.6155102 L20.037551,10.6155102 Z M11.4710204,14.3804082 C11.5297959,14.7983673 11.562449,15.2995918 11.1869388,15.5885714 C10.8832653,15.8987755 10.4408163,15.8122449 10.0555102,15.7697959 C9.33061224,16.5697959 8.65632653,17.4171429 8.06530612,18.3216327 C9.31428571,17.92 10.5763265,17.5640816 11.8579592,17.28 C11.7714286,16.1469388 12.6367347,15.0987755 13.7844898,15.0367347 C14.1273469,13.995102 14.5044898,12.9632653 14.9404082,11.9559184 C13.6914286,12.6236735 12.5404082,13.4546939 11.4710204,14.3804082 L11.4710204,14.3804082 L11.4710204,14.3804082 Z M16.1191837,12.1355102 C15.6669388,13.2 15.2718367,14.2857143 14.9159184,15.3861224 C15.2734694,15.7077551 15.5314286,16.1126531 15.7338776,16.5453061 C16.0636735,16.4946939 16.3967347,16.4473469 16.7281633,16.4 C17.0040816,16.1910204 17.3355102,15.9053061 17.6963265,16.117551 C18.1355102,16.3444898 18.6269388,16.1991837 19.0938776,16.1828571 C19.1510204,15.5395918 19.3567347,14.8702041 19.2767347,14.2416327 C18.3134694,13.4187755 17.2326531,12.7363265 16.1191837,12.1355102 L16.1191837,12.1355102 L16.1191837,12.1355102 Z M4.66285714,19.8693878 C5.25714286,19.4742857 5.90040816,19.162449 6.55510204,18.88 C6.02285714,17.4236735 5.80408163,15.8563265 5.97387755,14.3118367 C5.07918367,16.0195918 4.63836735,17.9428571 4.66285714,19.8693878 L4.66285714,19.8693878 L4.66285714,19.8693878 Z M19.9167347,14.7673469 C19.8563265,15.2293878 19.7926531,15.6897959 19.722449,16.1485714 C19.9902041,16.1404082 20.2595918,16.1322449 20.5289796,16.1240816 C20.5959184,15.924898 20.6628571,15.7273469 20.7314286,15.5314286 C20.4587755,15.2783673 20.1877551,15.0236735 19.9167347,14.7673469 L19.9167347,14.7673469 L19.9167347,14.7673469 Z M26.4538776,16.8636735 C26.6563265,16.9387755 26.8587755,17.0155102 27.0612245,17.0922449 C26.9355102,16.6155102 26.7967347,16.1404082 26.6546939,15.6685714 C26.5861224,16.0669388 26.5208163,16.4653061 26.4538776,16.8636735 L26.4538776,16.8636735 L26.4538776,16.8636735 Z M19.6081633,16.8587755 C19.5330612,17.2146939 19.4644898,17.5722449 19.3991837,17.9314286 C19.6669388,18.2073469 20.0032653,18.517551 19.9461224,18.9453061 C19.9346939,19.4955102 19.4236735,19.8302041 18.9387755,19.9444898 C18.8310204,20.3706122 18.72,20.7967347 18.6171429,21.2244898 C20.3967347,20.9126531 22.16,20.4881633 23.8661224,19.8873469 C23.515102,19.1640816 23.1069388,18.4702041 22.6546939,17.8057143 C22.2236735,17.8563265 21.7567347,17.9363265 21.3567347,17.7142857 C20.9844898,17.5444898 20.8065306,17.1591837 20.5567347,16.8604082 C20.2416327,16.8244898 19.9232653,16.8522449 19.6081633,16.8587755 L19.6081633,16.8587755 L19.6081633,16.8587755 Z M18.2236735,16.96 C18.0293878,17.2081633 17.8465306,17.5787755 17.4759184,17.557551 C17.1477551,17.6016327 16.9306122,17.2767347 16.6563265,17.1526531 C16.357551,17.162449 16.0620408,17.2081633 15.764898,17.242449 C15.6016327,18.1763265 14.8326531,18.917551 13.8857143,19.0171429 C13.6669388,19.9510204 13.4579592,20.8881633 13.2832653,21.8334694 C13.6212245,21.8122449 13.9591837,21.7893878 14.2971429,21.7681633 C14.5044898,21.3012245 14.7902041,20.7771429 15.3485714,20.6906122 C15.9836735,20.5191837 16.5387755,20.9779592 16.842449,21.4906122 C17.2293878,21.4416327 17.6163265,21.3844898 18.0016327,21.3257143 C18.1289796,20.8114286 18.2628571,20.2987755 18.3820408,19.7828571 C18.1012245,19.4595918 17.797551,19.0481633 17.9738776,18.5959184 C18.0702041,18.197551 18.4604082,18.0130612 18.7967347,17.8497959 C18.8587755,17.5314286 18.9191837,17.2130612 18.9779592,16.8946939 C18.7265306,16.9159184 18.475102,16.9387755 18.2236735,16.96 L18.2236735,16.96 L18.2236735,16.96 Z M23.2669388,16.9893878 C23.6440816,17.6261224 24.0767347,18.2302041 24.4457143,18.8718367 C24.677551,18.3477551 24.8946939,17.8171429 25.0726531,17.2718367 C24.4767347,17.1395918 23.8759184,17.0318367 23.2669388,16.9893878 L23.2669388,16.9893878 L23.2669388,16.9893878 Z M26.2628571,17.6130612 C26.0865306,18.1142857 25.9036735,18.6106122 25.7191837,19.1085714 C26.2253061,18.8146939 26.7640816,18.564898 27.2277551,18.2057143 C27.1934694,17.7991837 26.5616327,17.8171429 26.2628571,17.6130612 L26.2628571,17.6130612 L26.2628571,17.6130612 Z M7.57714286,19.3404082 C7.93142857,20.2253061 8.36408163,21.077551 8.86530612,21.8873469 C9.91836735,21.9412245 10.9730612,21.9167347 12.0261224,21.9053061 C12.2514286,20.8326531 12.4604082,19.755102 12.7346939,18.6922449 C12.5142857,18.4604082 12.2987755,18.2236735 12.0914286,17.9787755 C10.564898,18.357551 9.04816327,18.7836735 7.57714286,19.3404082 L7.57714286,19.3404082 L7.57714286,19.3404082 Z M25.1820408,20.4293878 C25.7632653,21.835102 26.0457143,23.3567347 26.0130612,24.8783673 C26.917551,23.1640816 27.364898,21.2277551 27.3371429,19.2930612 C26.6416327,19.7142857 25.9281633,20.1044898 25.1820408,20.4293878 L25.1820408,20.4293878 L25.1820408,20.4293878 Z M4.6922449,20.7526531 C4.68734694,21.4236735 5.40408163,21.4318367 5.88571429,21.5885714 C6.11265306,20.9485714 6.3722449,20.32 6.65142857,19.7028571 C5.96897959,19.9934694 5.29959184,20.3232653 4.6922449,20.7526531 L4.6922449,20.7526531 L4.6922449,20.7526531 Z M6.42612245,21.6816327 C6.98122449,21.7502041 7.53959184,21.8057143 8.09795918,21.8579592 C7.72734694,21.28 7.37959184,20.6857143 7.0677551,20.0734694 C6.82612245,20.597551 6.60571429,21.1330612 6.42612245,21.6816327 L6.42612245,21.6816327 L6.42612245,21.6816327 Z M18.3102041,22.2955102 C17.8710204,23.7779592 17.364898,25.237551 16.8130612,26.6808163 C17.6473469,26.2383673 18.4391837,25.7208163 19.1934694,25.1559184 C19.1053061,24.6171429 19.1183673,24.0195918 19.4971429,23.5853061 C19.9493878,22.9681633 20.804898,22.8587755 21.4955102,23.082449 C22.0342857,22.4881633 22.5469388,21.8726531 23.0236735,21.2293878 C21.477551,21.684898 19.9053061,22.0538776 18.3102041,22.2955102 L18.3102041,22.2955102 L18.3102041,22.2955102 Z M22.3804082,23.9902041 C22.48,24.6318367 22.4310204,25.3779592 21.8857143,25.8155102 C21.3926531,26.2955102 20.6595918,26.3069388 20.0391837,26.1126531 C19.0236735,26.8702041 17.9330612,27.5183673 16.7820408,28.0473469 C18.2873469,28.6089796 19.9379592,28.9812245 21.5379592,28.6416327 C22.7836735,28.3967347 23.8873469,27.5542857 24.4734694,26.4326531 C25.035102,24.8130612 24.9208163,23.0285714 24.4555102,21.3991837 C23.8269388,22.3102041 23.1559184,23.1967347 22.3804082,23.9902041 L22.3804082,23.9902041 L22.3804082,23.9902041 Z M4.98612245,22.2595918 C5.11346939,22.6971429 5.24408163,23.1330612 5.40081633,23.5608163 C5.48081633,23.2016327 5.55428571,22.8408163 5.63428571,22.4816327 C5.41877551,22.4081633 5.20163265,22.3330612 4.98612245,22.2595918 L4.98612245,22.2595918 L4.98612245,22.2595918 Z M16.8636735,22.5126531 C16.6187755,22.8865306 16.3265306,23.2963265 15.8497959,23.3714286 C15.2979592,23.5183673 14.8212245,23.1395918 14.4685714,22.7657143 C14.0130612,22.795102 13.557551,22.8212245 13.1020408,22.8522449 C12.9502041,23.8644898 12.8130612,24.88 12.7493878,25.9020408 C13.5428571,26.4228571 14.3363265,26.9534694 15.204898,27.3436735 C15.524898,27.3371429 15.8040816,27.1444898 16.0995918,27.04 C16.7216327,25.5216327 17.2408163,23.9657143 17.7044898,22.3918367 C17.4236735,22.4326531 17.1444898,22.4718367 16.8636735,22.5126531 L16.8636735,22.5126531 L16.8636735,22.5126531 Z M6.60897959,25.8906122 C6.94367347,26.4718367 7.5444898,26.8163265 8.10938776,27.1412245 C9.14938776,27.7240816 10.3330612,28.0114286 11.52,28.0669388 C11.4906122,27.2326531 11.4938776,26.395102 11.5493878,25.562449 C11.3322449,25.3877551 11.1183673,25.2114286 10.9061224,25.035102 C10.5697959,25.0530612 10.1812245,25.1216327 9.91510204,24.8555102 C9.6,24.6187755 9.63918367,24.202449 9.68489796,23.8579592 C9.4122449,23.5395918 9.13795918,23.2228571 8.88326531,22.8897959 C7.98204082,22.8310204 7.08244898,22.7559184 6.18938776,22.6138776 C6.00816327,23.7061224 5.98530612,24.9240816 6.60897959,25.8906122 L6.60897959,25.8906122 L6.60897959,25.8906122 Z M9.60653061,22.9044898 C9.74693878,23.0889796 9.88571429,23.275102 10.0228571,23.4612245 C10.4195918,23.4285714 10.9044898,23.364898 11.1738776,23.7306122 C11.5657143,24.0963265 11.0530612,24.7477551 11.5853061,25.0318367 C11.6767347,24.3216327 11.76,23.6097959 11.8693878,22.9012245 C11.115102,22.9240816 10.3608163,22.9126531 9.60653061,22.9044898 L9.60653061,22.9044898 L9.60653061,22.9044898 Z M12.7085714,26.442449 C12.6955102,26.9665306 12.6922449,27.4906122 12.7036735,28.0146939 C13.3306122,27.9281633 13.9477551,27.7893878 14.5583673,27.6228571 C13.9314286,27.2457143 13.317551,26.8473469 12.7085714,26.442449 L12.7085714,26.442449 L12.7085714,26.442449 Z M16.042449,28.4032653 C15.6293878,29.2440816 15.1689796,30.0685714 14.555102,30.7820408 C16.7689796,31.0285714 19.0432653,30.6742857 21.0465306,29.6914286 C19.2979592,29.6979592 17.6081633,29.1412245 16.042449,28.4032653 L16.042449,28.4032653 L16.042449,28.4032653 Z M12.7918367,29.0808163 C12.8979592,29.5706122 13.0302041,30.0555102 13.2114286,30.5240816 C13.4383673,30.5697959 13.6653061,30.6171429 13.8906122,30.6644898 C14.564898,30.1044898 14.9828571,29.3240816 15.3991837,28.5697959 C14.5469388,28.8179592 13.675102,28.9893878 12.7918367,29.0808163 L12.7918367,29.0808163 L12.7918367,29.0808163 Z M9.37795918,28.7265306 C10.164898,29.3077551 11.0432653,29.7502041 11.9444898,30.1208163 C11.8432653,29.7828571 11.7453061,29.4416327 11.6587755,29.0987755 C10.8881633,29.0367347 10.1322449,28.8897959 9.37795918,28.7265306 L9.37795918,28.7265306 L9.37795918,28.7265306 Z"></path>
    <path d="M0.431020408,7.95265306 C0.827755102,7.72244898 1.23591837,7.98857143 1.56897959,8.20244898 C2.49959184,8.81142857 3.47102041,9.36 4.39183673,9.98693878 C4.89469388,10.3134694 4.71673469,11.1689796 4.15183673,11.3191837 C3.79755102,11.4481633 3.46612245,11.2195918 3.17877551,11.0432653 C2.28408163,10.4636735 1.37306122,9.91020408 0.471836735,9.34204082 C-0.0244897959,9.11183673 -0.0228571429,8.22204082 0.431020408,7.95265306 L0.431020408,7.95265306 Z"></path>
    <path d="M30.5681633,7.97877551 C31.0383673,7.69632653 31.6914286,8.12408163 31.6653061,8.66122449 C31.68,9.04816327 31.3518367,9.30612245 31.0497959,9.48081633 C30.0636735,10.0718367 29.1102041,10.72 28.1110204,11.2930612 C27.7453061,11.5216327 27.2326531,11.3028571 27.0644898,10.9289796 C26.8669388,10.5191837 27.1183673,10.0685714 27.4955102,9.87755102 C28.5208163,9.24734694 29.5265306,8.58122449 30.5681633,7.97877551 L30.5681633,7.97877551 Z"></path>
  </g>

  <g id="info-path" stroke="none" fill-rule="evenodd">
    <path d="M16.2380952,30.4948105 C24.6538629,30.4948105 31.4761905,23.8388728 31.4761905,15.6283576 C31.4761905,7.41784243 24.6538629,0.761904762 16.2380952,0.761904762 C7.82232762,0.761904762 1,7.41784243 1,15.6283576 C1,23.8388728 7.82232762,30.4948105 16.2380952,30.4948105 L16.2380952,30.4948105 Z M16.9826649,7.06794249 C16.0260512,7.37518251 15.4986438,8.54385089 15.8973739,9.44327129 C16.1200194,9.95451209 16.704993,10.2774445 17.2688025,10.2039381 C17.8622417,10.1502537 18.3591729,9.73894852 18.6402311,9.24587783 C18.9500723,8.67847488 18.9805485,7.89303062 18.5013951,7.40326359 C18.1289083,6.99608797 17.4990671,6.89945602 16.9826649,7.06794249 L16.9826649,7.06794249 L16.9826649,7.06794249 Z M15.4927179,12.3694848 C14.235575,12.8922884 13.2154692,13.8206158 12.3037231,14.7927166 C12.1225591,14.9512921 12.1124004,15.2667912 12.3104956,15.4171076 C12.5001253,15.567424 12.6939877,15.7127848 12.8903898,15.8548421 C13.0368448,15.9721218 13.2671094,16.0076362 13.4186438,15.8787936 C13.9799136,15.4063707 14.4632999,14.83649 15.1007602,14.4573955 C14.4277443,16.700578 13.6963157,18.9330237 13.2180089,21.2257611 C13.1215009,21.7477388 13.0156808,22.2730201 13.0190671,22.8057347 C13.0232999,23.2599874 13.1993845,23.7357139 13.5888025,24.0074396 C14.0899665,24.3724936 14.7807602,24.3064205 15.3293316,24.0859015 C16.5255221,23.61926 17.4550459,22.716536 18.403194,21.8980551 C18.5843581,21.7047913 18.86203,21.5709932 18.9322946,21.3009193 C18.9686967,20.9969829 18.6766332,20.8218891 18.4870036,20.6335807 C18.3337761,20.5088677 18.200866,20.3032151 17.9731411,20.3288185 C17.7936702,20.3189075 17.672612,20.4634424 17.5507073,20.5683335 C17.032612,21.0324972 16.5153634,21.5040941 15.9253104,21.879885 C16.0015009,21.0952667 16.2216067,20.3321221 16.419702,19.5706294 C16.9098607,17.7139746 17.5270036,15.8920082 18.0264745,14.0386571 C18.1119771,13.6488256 18.2719771,13.2474314 18.1653104,12.8460372 C18.0688025,12.4413393 17.6886967,12.1481398 17.2789612,12.078763 C16.670284,11.9631351 16.0506014,12.1374029 15.4927179,12.3694848 L15.4927179,12.3694848 L15.4927179,12.3694848 Z"></path>
  </g>

  <g id="statsocial-path" stroke="none" fill-rule="evenodd">
    <path d="M23.661,6.839 C23.278,6.839 22.969,7.15 22.969,7.531 C22.969,7.66 23.005,7.808 23.067,7.912 L22.854,8.271 L17.454,8.271 L17.454,11.123 L15.743,11.123 L15.743,9.603 L11.087,9.603 L11.087,11.883 L8.805,11.883 L8.805,17.957 L8.747,18.003 C8.195,17.855 7.835,18.279 7.835,18.661 C7.835,19.044 8.141,19.353 8.523,19.353 C8.99,19.353 9.327,18.882 9.177,18.439 L12.826,14.743 C12.893,14.765 13.073,14.796 13.168,14.764 L15.92,18.359 C15.712,18.709 15.942,19.353 16.542,19.353 C17.197,19.353 17.364,18.623 17.137,18.308 L23.59,8.22 C23.928,8.263 24.336,7.995 24.354,7.532 C24.367,7.149 24.043,6.839 23.661,6.839 L23.661,6.839 L23.661,6.839 Z M11.086,13.309 L10.23,13.309 L10.23,13.974 L11.085,13.974 L11.085,14.45 L10.23,14.45 L10.23,15.115 L11.085,15.115 L11.085,15.613 L9.374,17.329 L9.374,12.549 L11.085,12.549 L11.085,13.309 L11.086,13.309 L11.086,13.309 Z M15.077,11.123 L12.701,11.123 L12.701,11.693 L14.601,11.693 L14.601,12.262 L12.701,12.262 L12.701,12.832 L14.601,12.832 L14.601,15.608 L13.663,14.385 C13.862,14.052 13.653,13.391 13.04,13.391 C12.477,13.391 12.278,13.974 12.401,14.305 L11.75,14.982 L11.75,10.171 L15.076,10.171 L15.076,11.123 L15.077,11.123 L15.077,11.123 Z M17.453,12.738 L16.027,12.738 L16.027,13.308 L17.453,13.308 L17.453,13.784 L16.027,13.784 L16.027,14.449 L17.453,14.449 L17.453,14.924 L16.027,14.924 L16.027,15.59 L17.453,15.59 L17.453,16.62 L16.601,17.973 C16.577,17.971 16.425,17.974 16.383,17.982 L15.171,16.421 L15.171,11.693 L17.452,11.693 L17.452,12.738 L17.453,12.738 L17.453,12.738 Z M21.878,9.792 L18.974,9.792 L18.974,10.362 L21.481,10.362 L21.12,10.932 L18.974,10.932 L18.974,11.597 L20.722,11.597 L20.397,12.073 L18.974,12.073 L18.974,12.738 L19.999,12.738 L18.118,15.649 L18.118,8.842 L22.456,8.842 L21.878,9.792 L21.878,9.792 L21.878,9.792 Z"></path>
    <path d="M2.218,23.446 C2.172,23.399 2.117,23.362 2.054,23.336 C1.991,23.31 1.923,23.296 1.852,23.296 L0.775,23.296 C0.751,23.296 0.732,23.288 0.717,23.272 C0.702,23.256 0.695,23.236 0.695,23.212 L0.695,22.853 C0.695,22.83 0.702,22.81 0.717,22.793 C0.732,22.777 0.751,22.769 0.775,22.769 L2.189,22.769 C2.212,22.769 2.232,22.762 2.249,22.748 C2.266,22.732 2.273,22.714 2.273,22.69 L2.273,22.144 C2.273,22.088 2.245,22.06 2.189,22.06 L0.519,22.06 C0.448,22.06 0.381,22.075 0.317,22.102 C0.254,22.13 0.198,22.167 0.151,22.213 C0.104,22.259 0.067,22.314 0.04,22.377 C0.013,22.44 0,22.508 0,22.578 L0,23.411 C0,23.482 0.013,23.549 0.04,23.61 C0.066,23.672 0.103,23.727 0.151,23.774 C0.198,23.822 0.254,23.858 0.317,23.885 C0.38,23.911 0.447,23.924 0.519,23.924 L1.591,23.924 C1.614,23.924 1.634,23.933 1.651,23.948 C1.667,23.965 1.675,23.984 1.675,24.009 L1.675,24.376 C1.675,24.4 1.667,24.419 1.651,24.434 C1.635,24.449 1.615,24.456 1.591,24.456 L0.084,24.456 C0.061,24.456 0.041,24.464 0.024,24.48 C0.007,24.496 0,24.518 0,24.541 L0,25.077 C0,25.134 0.028,25.161 0.084,25.161 L1.852,25.161 C1.923,25.161 1.99,25.148 2.054,25.122 C2.117,25.095 2.172,25.058 2.218,25.011 C2.264,24.964 2.301,24.908 2.329,24.845 C2.357,24.782 2.371,24.714 2.371,24.643 L2.371,23.81 C2.371,23.74 2.357,23.673 2.329,23.611 C2.3,23.549 2.264,23.494 2.218,23.446 L2.218,23.446 Z"></path>
    <path d="M5.596,22.06 L4.967,22.06 L4.803,22.06 L4.187,22.06 L4.023,22.06 L3.394,22.06 C3.338,22.06 3.31,22.088 3.31,22.144 L3.31,22.729 C3.31,22.753 3.318,22.773 3.334,22.79 C3.351,22.806 3.371,22.814 3.394,22.814 L4.023,22.814 C4.046,22.814 4.065,22.821 4.081,22.835 C4.096,22.85 4.103,22.869 4.103,22.893 L4.103,25.078 C4.103,25.101 4.111,25.122 4.127,25.138 C4.143,25.155 4.163,25.162 4.187,25.162 L4.803,25.162 C4.826,25.162 4.846,25.154 4.861,25.138 C4.876,25.122 4.883,25.102 4.883,25.078 L4.883,22.893 C4.883,22.87 4.891,22.85 4.907,22.835 C4.923,22.82 4.943,22.814 4.967,22.814 L5.596,22.814 C5.62,22.814 5.639,22.805 5.656,22.79 C5.672,22.773 5.68,22.754 5.68,22.729 L5.68,22.144 C5.68,22.121 5.672,22.101 5.656,22.084 C5.64,22.068 5.62,22.06 5.596,22.06 L5.596,22.06 Z"></path>
    <path d="M9.081,22.213 C9.035,22.167 8.98,22.13 8.917,22.102 C8.854,22.075 8.786,22.06 8.716,22.06 L7.147,22.06 C7.076,22.06 7.009,22.075 6.945,22.102 C6.882,22.13 6.826,22.167 6.779,22.213 C6.732,22.259 6.695,22.314 6.668,22.377 C6.642,22.44 6.628,22.508 6.628,22.578 L6.628,25.077 C6.628,25.134 6.656,25.161 6.712,25.161 L7.323,25.161 C7.379,25.161 7.407,25.134 7.407,25.077 L7.407,24.284 C7.407,24.261 7.415,24.24 7.431,24.224 C7.447,24.207 7.467,24.2 7.491,24.2 L8.37,24.2 C8.393,24.2 8.413,24.208 8.428,24.224 C8.443,24.24 8.45,24.26 8.45,24.284 L8.45,25.077 C8.45,25.1 8.458,25.121 8.474,25.137 C8.49,25.154 8.51,25.161 8.534,25.161 L9.149,25.161 C9.173,25.161 9.193,25.153 9.21,25.137 C9.226,25.121 9.234,25.101 9.234,25.077 L9.234,22.578 C9.234,22.508 9.219,22.44 9.192,22.377 C9.164,22.313 9.127,22.259 9.081,22.213 L9.081,22.213 L9.081,22.213 Z M8.45,23.535 L7.409,23.535 L7.409,22.756 L8.45,22.756 L8.45,23.535 L8.45,23.535 L8.45,23.535 Z"></path>
    <path d="M12.486,22.06 L11.857,22.06 L11.693,22.06 L11.077,22.06 L10.913,22.06 L10.284,22.06 C10.227,22.06 10.2,22.088 10.2,22.144 L10.2,22.729 C10.2,22.753 10.208,22.773 10.224,22.79 C10.24,22.806 10.26,22.814 10.284,22.814 L10.913,22.814 C10.936,22.814 10.956,22.821 10.971,22.835 C10.986,22.849 10.993,22.869 10.993,22.893 L10.993,25.078 C10.993,25.101 11.001,25.122 11.017,25.138 C11.033,25.155 11.053,25.162 11.077,25.162 L11.693,25.162 C11.716,25.162 11.736,25.154 11.751,25.138 C11.766,25.122 11.772,25.102 11.772,25.078 L11.772,22.893 C11.772,22.87 11.781,22.85 11.796,22.835 C11.813,22.82 11.832,22.814 11.857,22.814 L12.486,22.814 C12.509,22.814 12.53,22.805 12.546,22.79 C12.563,22.773 12.57,22.754 12.57,22.729 L12.57,22.144 C12.57,22.121 12.562,22.101 12.546,22.084 C12.53,22.068 12.51,22.06 12.486,22.06 L12.486,22.06 Z"></path>
    <path d="M15.75,23.446 C15.704,23.399 15.649,23.362 15.586,23.336 C15.523,23.31 15.455,23.296 15.384,23.296 L14.308,23.296 C14.285,23.296 14.265,23.288 14.25,23.272 C14.235,23.256 14.228,23.236 14.228,23.212 L14.228,22.853 C14.228,22.83 14.236,22.81 14.25,22.793 C14.265,22.777 14.284,22.769 14.308,22.769 L15.721,22.769 C15.744,22.769 15.765,22.762 15.781,22.748 C15.798,22.732 15.805,22.714 15.805,22.69 L15.805,22.144 C15.805,22.088 15.778,22.06 15.721,22.06 L14.051,22.06 C13.98,22.06 13.912,22.075 13.849,22.102 C13.786,22.13 13.73,22.167 13.683,22.213 C13.636,22.259 13.599,22.314 13.573,22.377 C13.546,22.44 13.533,22.508 13.533,22.578 L13.533,23.411 C13.533,23.482 13.546,23.549 13.573,23.61 C13.599,23.672 13.636,23.727 13.683,23.774 C13.73,23.822 13.786,23.858 13.849,23.885 C13.912,23.911 13.98,23.924 14.051,23.924 L15.123,23.924 C15.146,23.924 15.166,23.933 15.183,23.948 C15.199,23.965 15.207,23.984 15.207,24.009 L15.207,24.376 C15.207,24.4 15.198,24.419 15.183,24.434 C15.166,24.449 15.147,24.456 15.123,24.456 L13.616,24.456 C13.593,24.456 13.572,24.464 13.556,24.48 C13.539,24.497 13.532,24.516 13.532,24.54 L13.532,25.076 C13.532,25.133 13.559,25.16 13.616,25.16 L15.384,25.16 C15.455,25.16 15.523,25.147 15.586,25.121 C15.649,25.094 15.704,25.057 15.75,25.01 C15.795,24.963 15.832,24.907 15.86,24.844 C15.888,24.781 15.902,24.713 15.902,24.642 L15.902,23.81 C15.902,23.74 15.888,23.673 15.86,23.611 C15.832,23.549 15.795,23.494 15.75,23.446 L15.75,23.446 Z"></path>
    <path d="M19.463,22.213 C19.417,22.167 19.362,22.13 19.299,22.102 C19.236,22.075 19.168,22.06 19.098,22.06 L17.529,22.06 C17.459,22.06 17.391,22.075 17.328,22.102 C17.265,22.13 17.209,22.167 17.162,22.213 C17.114,22.259 17.078,22.314 17.051,22.377 C17.025,22.44 17.011,22.508 17.011,22.578 L17.011,24.642 C17.011,24.713 17.025,24.781 17.051,24.844 C17.078,24.907 17.114,24.963 17.162,25.01 C17.209,25.057 17.265,25.094 17.328,25.121 C17.391,25.147 17.459,25.16 17.529,25.16 L19.098,25.16 C19.168,25.16 19.236,25.147 19.299,25.121 C19.362,25.094 19.417,25.057 19.463,25.01 C19.509,24.963 19.546,24.907 19.573,24.844 C19.601,24.781 19.615,24.713 19.615,24.642 L19.615,22.578 C19.615,22.508 19.601,22.44 19.573,22.377 C19.546,22.313 19.509,22.259 19.463,22.213 L19.463,22.213 L19.463,22.213 Z M18.831,24.408 L17.79,24.408 L17.79,22.813 L18.831,22.813 L18.831,24.408 L18.831,24.408 L18.831,24.408 Z"></path>
    <path d="M23.027,22.06 L21.339,22.06 L21.26,22.06 C21.189,22.06 21.121,22.075 21.058,22.102 C20.995,22.13 20.939,22.167 20.892,22.213 C20.845,22.259 20.808,22.314 20.782,22.377 C20.755,22.44 20.742,22.508 20.742,22.578 L20.742,22.919 L20.742,23.207 L20.742,24.24 L20.742,24.563 L20.742,24.642 C20.742,24.713 20.755,24.781 20.782,24.844 C20.808,24.907 20.845,24.963 20.892,25.01 C20.939,25.057 20.995,25.094 21.058,25.121 C21.121,25.147 21.189,25.16 21.26,25.16 L21.339,25.16 L22.102,25.16 L23.028,25.16 C23.051,25.16 23.072,25.152 23.088,25.136 C23.105,25.12 23.112,25.1 23.112,25.076 L23.112,24.491 C23.112,24.468 23.104,24.448 23.088,24.431 C23.072,24.414 23.052,24.407 23.028,24.407 L21.606,24.407 C21.582,24.407 21.562,24.4 21.545,24.385 C21.529,24.37 21.521,24.352 21.521,24.327 L21.521,22.891 C21.521,22.868 21.53,22.848 21.545,22.833 C21.562,22.818 21.581,22.812 21.606,22.812 L23.028,22.812 C23.051,22.812 23.072,22.803 23.088,22.788 C23.105,22.771 23.112,22.752 23.112,22.727 L23.112,22.142 C23.112,22.119 23.104,22.099 23.088,22.082 C23.071,22.068 23.051,22.06 23.027,22.06 L23.027,22.06 Z"></path>
    <path d="M24.955,22.06 L24.344,22.06 C24.287,22.06 24.259,22.088 24.259,22.144 L24.259,25.078 C24.259,25.135 24.287,25.162 24.344,25.162 L24.955,25.162 C25.011,25.162 25.039,25.135 25.039,25.078 L25.039,22.144 C25.039,22.088 25.011,22.06 24.955,22.06 L24.955,22.06 Z"></path>
    <path d="M28.626,22.213 C28.58,22.167 28.525,22.13 28.462,22.102 C28.399,22.075 28.331,22.06 28.261,22.06 L26.692,22.06 C26.622,22.06 26.554,22.075 26.491,22.102 C26.428,22.13 26.372,22.167 26.325,22.213 C26.277,22.259 26.24,22.314 26.214,22.377 C26.188,22.44 26.175,22.508 26.175,22.578 L26.175,25.077 C26.175,25.134 26.202,25.161 26.259,25.161 L26.87,25.161 C26.926,25.161 26.954,25.134 26.954,25.077 L26.954,24.284 C26.954,24.261 26.962,24.24 26.978,24.224 C26.995,24.207 27.014,24.2 27.038,24.2 L27.916,24.2 C27.939,24.2 27.958,24.208 27.974,24.224 C27.989,24.24 27.995,24.26 27.995,24.284 L27.995,25.077 C27.995,25.1 28.004,25.121 28.019,25.137 C28.036,25.154 28.055,25.161 28.08,25.161 L28.695,25.161 C28.718,25.161 28.739,25.153 28.755,25.137 C28.772,25.121 28.779,25.101 28.779,25.077 L28.779,22.578 C28.779,22.508 28.765,22.44 28.737,22.377 C28.709,22.314 28.672,22.259 28.626,22.213 L28.626,22.213 L28.626,22.213 Z M27.994,23.535 L26.953,23.535 L26.953,22.756 L27.994,22.756 L27.994,23.535 L27.994,23.535 L27.994,23.535 Z"></path>
    <path d="M31.978,24.433 C31.963,24.416 31.945,24.409 31.92,24.409 L30.786,24.409 C30.762,24.409 30.742,24.402 30.726,24.387 C30.709,24.372 30.702,24.354 30.702,24.329 L30.702,22.144 C30.702,22.088 30.674,22.06 30.617,22.06 L30.006,22.06 C29.95,22.06 29.922,22.088 29.922,22.144 L29.922,25.078 C29.922,25.135 29.95,25.162 30.006,25.162 L31.92,25.162 C31.944,25.162 31.963,25.154 31.978,25.138 C31.992,25.121 32,25.101 32,25.077 L32,24.492 C32,24.469 31.992,24.449 31.978,24.433 L31.978,24.433 Z"></path>
  </g>

  <path d="M19.4864601,3.56788651 C20.2269517,3.23889299 21.028425,3.0287881 21.8411722,3.01238967 C23.6660101,2.8960633 25.5262071,3.60427053 26.8073345,4.90948311 C26.885227,4.98225115 26.9723437,5.08012928 27.0912323,5.03657095 C28.0105693,4.84593919 28.9114581,4.55845421 29.7677636,4.17360354 C30.2510049,3.98450914 30.6896629,3.70368601 31.153431,3.47359553 C30.9361518,4.08187482 30.6645528,4.67324322 30.2925134,5.20311751 C29.769301,5.96359473 29.073905,6.59493431 28.2975418,7.08944948 C29.3285932,6.98952155 30.3350468,6.7215097 31.3076788,6.37099324 C31.5367443,6.27875207 31.7617103,6.17523698 32,6.1081059 C31.3307391,7.11660938 30.5108175,8.01954797 29.5981424,8.8123096 C29.3485787,9.02497675 29.0713428,9.20484703 28.8320282,9.42930055 C28.7607975,9.48567016 28.7418368,9.57483662 28.7469613,9.66144084 C28.7843702,10.8452025 28.7418368,12.0392133 28.5332693,13.2076015 C27.773817,17.9395736 25.2223236,22.3958471 21.4137881,25.3291164 C19.4172792,26.8633946 17.089727,27.9677264 14.6350869,28.5268104 C14.4500921,28.5749808 14.2661222,28.6267383 14.0775402,28.6595352 C13.2699175,28.7927724 12.4633197,28.9495824 11.6444231,28.9890411 C10.89317,29.0310621 10.1398671,29.0643714 9.38810153,29.0213255 C8.44211706,29.0172259 7.5002322,28.8973124 6.57269597,28.7159048 C6.06536953,28.6554356 5.58059092,28.488889 5.08351349,28.3771747 C3.28891024,27.8800973 1.57219954,27.1124457 0,26.1141913 C1.32981023,26.226418 2.68063096,26.216169 3.99301786,25.9568688 C6.06690688,25.573043 8.04035551,24.6721543 9.69967171,23.3715537 C7.85484827,23.337732 6.03769717,22.491163 4.84163664,21.0829478 C4.27486588,20.4198362 3.8305709,19.6470602 3.56973337,18.8133025 C4.02171511,18.8583982 4.47267195,18.9429526 4.9287533,18.9152802 C5.45247818,18.8747966 5.98337737,18.849174 6.48660421,18.6846773 C5.69076788,18.4986576 4.91747938,18.1973364 4.23643206,17.7417675 C2.3834094,16.5539062 1.20784691,14.3765021 1.26472896,12.1719381 C1.83867403,12.4558359 2.4356794,12.6987377 3.06394427,12.8324874 C3.44162063,12.9216538 3.8305709,12.9406145 4.21593402,12.9693118 C3.69528385,12.5849735 3.20179358,12.1586143 2.79285771,11.6538502 C2.02264393,10.7217019 1.53530307,9.56766231 1.36721915,8.37211423 C1.30265033,7.77715867 1.30674994,7.17554124 1.37336856,6.58109813 C1.50763072,5.74734043 1.77615502,4.93356831 2.19995196,4.20127589 C4.26615422,6.71331048 6.97650733,8.70008284 10.020466,9.85565975 C11.6587717,10.4828997 13.3862439,10.8836364 15.1357515,11.0199483 C15.3412443,11.02866 15.5457122,11.049158 15.7501802,11.0737557 C15.6113059,10.2379482 15.5457122,9.38061771 15.6799744,8.53968569 C15.9982064,6.38124226 17.4873889,4.44007804 19.4864601,3.56788651 L19.4864601,3.56788651 Z" id="twitter-path" stroke="none"></path>

</svg>