<?xml version="1.0" encoding="UTF-8" standalone="no"?>
<svg width="63px" height="70px" viewBox="0 0 63 70" version="1.1" xmlns="http://www.w3.org/2000/svg" xmlns:xlink="http://www.w3.org/1999/xlink" xmlns:sketch="http://www.bohemiancoding.com/sketch/ns">
    <!-- Generator: Sketch 3.1.1 (8761) - http://www.bohemiancoding.com/sketch -->
    <title>Untitled 4</title>
    <desc>Created with Sketch.</desc>
    <defs>
        <filter x="-50%" y="-50%" width="200%" height="200%" filterUnits="objectBoundingBox" id="filter-1">
            <feOffset dx="-1" dy="1" in="SourceAlpha" result="shadowOffsetOuter1"></feOffset>
            <feGaussianBlur stdDeviation="0" in="shadowOffsetOuter1" result="shadowBlurOuter1"></feGaussianBlur>
            <feColorMatrix values="0 0 0 0 0   0 0 0 0 0   0 0 0 0 0  0 0 0 0.07 0" in="shadowBlurOuter1" type="matrix" result="shadowMatrixOuter1"></feColorMatrix>
            <feMerge>
                <feMergeNode in="shadowMatrixOuter1"></feMergeNode>
                <feMergeNode in="SourceGraphic"></feMergeNode>
            </feMerge>
        </filter>
    </defs>
    <g id="Page-1" stroke="none" stroke-width="1" fill="none" fill-rule="evenodd" sketch:type="MSPage">
        <g id="csv-icon-3" sketch:type="MSLayerGroup" transform="translate(3.000000, 0.000000)">
            <path d="M60,70 L8.06718925,70 L8.06718925,0 L42.6890631,0 L60,17 L60,70 Z" id="Rectangle-41" fill="#FFFFFF" sketch:type="MSShapeGroup"></path>
            <path d="M42.6890631,0 L42.6890631,17 L60,17 L42.6890631,0 L42.6890631,0 Z" id="Path-26" fill="#FFFFFF" filter="url(#filter-1)" sketch:type="MSShapeGroup"></path>
            <rect id="Rectangle-40" fill="#57B2D9" sketch:type="MSShapeGroup" x="1.95744681" y="9" width="34.6218738" height="17"></rect>
            <rect id="Rectangle-8" fill="#57B2D9" sketch:type="MSShapeGroup" x="22" y="36" width="26" height="3"></rect>
            <rect id="Rectangle-9" fill="#57B2D9" sketch:type="MSShapeGroup" x="22" y="42" width="26" height="3"></rect>
            <rect id="Rectangle-10" fill="#57B2D9" sketch:type="MSShapeGroup" x="22" y="48" width="26" height="3"></rect>
            <rect id="Rectangle-11" fill="#57B2D9" sketch:type="MSShapeGroup" x="22" y="54" width="26" height="3"></rect>
            <path d="M8.3913187,36.9063279 C8.46130109,36.8925718 8.53167013,36.8802265 8.6024258,36.8703503 C8.79806718,36.8424853 8.99796164,36.8410744 9.19476295,36.8611795 C9.24386661,36.8671758 9.29374357,36.8742302 9.34284723,36.8823428 C9.49866438,36.908797 9.65177503,36.9504182 9.79831274,37.0065009 C9.83891026,37.0227261 9.87950778,37.0396568 9.91971866,37.0576456 C10.0457643,37.1140811 10.1656236,37.181451 10.2769768,37.2590498 C10.3137079,37.2851512 10.3500524,37.3119581 10.3856235,37.3394704 C10.4973634,37.4265927 10.5978906,37.5246494 10.7026708,37.6191788 C10.71543,37.6308187 10.7409485,37.6540983 10.7537077,37.6657381 C10.8654475,37.7683802 10.9771874,37.8706695 11.0897005,37.9726062 C11.1016864,37.9838933 11.126045,38.0061147 11.1384175,38.0174018 C11.2509307,38.1207493 11.3638304,38.2237441 11.4771168,38.3267389 C11.4894894,38.338026 11.5138479,38.3602475 11.5262205,38.3715346 C11.6379603,38.4741767 11.7500868,38.5761133 11.8622133,38.6784026 C11.8749725,38.6900424 11.9008776,38.7140275 11.9140235,38.7256674 C12.02499,38.827604 12.1363432,38.9295406 12.2480831,39.0311245 C12.2608423,39.0424116 12.2859741,39.0656912 12.2983467,39.0769783 C12.4100865,39.1792677 12.5218263,39.281557 12.6339528,39.3834937 C12.6463254,39.3951335 12.6714572,39.4180604 12.6842164,39.4293475 C12.7971162,39.5334004 12.9104026,39.636748 13.0244623,39.7400955 C13.0364482,39.7513826 13.0604201,39.7732513 13.072406,39.7841857 C13.1837592,39.8861223 13.2951124,39.9880589 13.4068523,40.0896428 C13.4192248,40.1009299 13.4443566,40.1238569 13.4567292,40.135144 C13.5680824,40.2370806 13.6794356,40.3393699 13.7915621,40.4409538 C13.8043213,40.4525937 13.8298398,40.4758733 13.842599,40.4875131 C13.9551121,40.5912134 14.0683985,40.6942081 14.1816849,40.7975557 C14.1936709,40.80849 14.2176427,40.8303588 14.2296287,40.8412932 C14.3405952,40.9435825 14.4523351,41.0455191 14.5640749,41.147103 C14.5772208,41.1587429 14.6031259,41.1827279 14.6162717,41.1947205 C14.7272383,41.2966571 14.8385915,41.3985937 14.9507179,41.5001776 C14.9634772,41.5118174 14.9893823,41.5354498 15.0021415,41.5470896 C15.114268,41.6497317 15.2263944,41.7523738 15.3389076,41.8546631 C15.3520534,41.8666557 15.3783452,41.8906407 15.391491,41.9026333 C15.500911,42.0035117 15.6111043,42.1036848 15.7209109,42.2045632 C15.7472026,42.2285483 15.7731077,42.2528861 15.7993994,42.2772239 C15.8945136,42.3661098 15.980735,42.4627556 16.0561304,42.5664559 C16.0804889,42.6006699 16.1044608,42.6355893 16.128046,42.6712143 C16.2026681,42.786907 16.2641444,42.910007 16.3117015,43.0373396 C16.329487,43.0877788 16.3464993,43.1392762 16.3615784,43.1907736 C16.4025626,43.3346841 16.4261478,43.4824746 16.4307875,43.6313232 C16.4319474,43.6884641 16.4311742,43.7459578 16.4296276,43.8034515 C16.4176417,44.0186118 16.368538,44.2323613 16.2838632,44.4334127 C16.2328263,44.5512218 16.1705768,44.665151 16.1017543,44.7748475 C15.9173256,45.0390362 15.6702607,45.2668945 15.3810517,45.4354956 C15.266992,45.495811 15.1486792,45.5508356 15.0265,45.595984 C14.7987672,45.678521 14.5567287,45.727902 14.3119836,45.7395418 C14.241228,45.7413055 14.1708589,45.7416582 14.1004899,45.7395418 C13.9450594,45.7338983 13.7907888,45.7120295 13.6403847,45.6767574 C13.5823882,45.6626485 13.525165,45.6471287 13.4683285,45.6301981 C13.3326168,45.587166 13.2015448,45.5321414 13.0774324,45.4665351 C13.0325818,45.4421973 12.9888911,45.4171541 12.9459738,45.3910526 C12.8299808,45.3190974 12.7221074,45.2369132 12.6219669,45.1476745 C12.6041813,45.1314493 12.5693834,45.0993516 12.5515979,45.0831264 C12.4472042,44.9875388 12.3420373,44.8915985 12.2376437,44.7960108 C12.2198581,44.7797856 12.184287,44.7480407 12.166888,44.7321682 C12.0613345,44.6351697 11.9557809,44.5385239 11.8494541,44.4422308 C11.8320552,44.4260056 11.7968706,44.3932024 11.7790851,44.3769772 C11.6739181,44.2810369 11.5687512,44.1847438 11.4631977,44.0891562 C11.4457988,44.0732837 11.4110009,44.041186 11.3939886,44.0249608 C11.3236195,43.9607654 11.2540238,43.8962173 11.1824948,43.8334328 C11.1670291,43.8203821 11.15195,43.8073314 11.1364843,43.7946334 C11.1434439,46.5031847 11.1399641,49.211736 11.1384175,51.9199345 C11.1349377,52.0010606 11.1268182,52.0818339 11.1144457,52.1626072 C11.0506496,52.4708861 10.9149379,52.7685834 10.7076972,53.0204268 C10.580105,53.1735081 10.4312474,53.3110696 10.2657642,53.4299369 C9.97616854,53.6338101 9.62973637,53.7674917 9.2697717,53.8228691 C9.2140951,53.8295708 9.1584185,53.8348616 9.1027419,53.8397997 C8.92952582,53.8535559 8.75437652,53.8493232 8.58232037,53.8246327 C8.51233797,53.814051 8.44274223,53.8024112 8.37391976,53.7875969 C8.22854198,53.7551465 8.08664398,53.7089399 7.95131892,53.6500353 C7.91188133,53.6316938 7.87244374,53.613705 7.83377943,53.594658 C7.70541394,53.5297572 7.58362138,53.4535693 7.47188154,53.366447 C7.44017681,53.341051 7.40924537,53.3163605 7.37908721,53.2906118 C7.28242645,53.2077221 7.19388519,53.1170726 7.11539666,53.0197214 C7.0852385,52.9816274 7.05624027,52.9431807 7.02878861,52.9040286 C6.95300658,52.7975066 6.88959712,52.6842829 6.83817359,52.5664737 C6.82270787,52.5308488 6.80840208,52.4952239 6.79448293,52.459599 C6.73957962,52.3114558 6.7043951,52.1576691 6.68815609,52.0024715 C6.68622288,51.9887153 6.68274309,51.9615557 6.68119652,51.9477996 C6.67191708,49.2438337 6.67887666,46.5398678 6.67771673,43.8355492 C6.19673278,44.2743352 5.71729541,44.7138266 5.23592482,45.1522599 C4.98538012,45.3797655 4.67413247,45.5501302 4.33697974,45.6478342 C4.2476652,45.6714665 4.15796401,45.6922771 4.06671625,45.7081496 C3.8749413,45.7406 3.67852664,45.7490653 3.48404518,45.7349565 C3.41560937,45.7286075 3.34717355,45.7204949 3.27951101,45.7102659 C3.13645309,45.6883972 2.99610166,45.6527723 2.86116324,45.6055075 C2.81669929,45.5889296 2.77300863,45.571999 2.7297046,45.5540101 C2.60172576,45.5007491 2.4799332,45.4358483 2.3658735,45.3607186 C2.32798248,45.3349699 2.29047811,45.3088684 2.25374702,45.2820616 C2.14780682,45.2037573 2.05037278,45.1159296 1.96260481,45.0214001 C1.93244665,44.9882443 1.90306178,44.9547357 1.87483683,44.9208744 C1.79054865,44.8189378 1.71747312,44.7092412 1.65677016,44.5942539 C1.637438,44.5575708 1.61926578,44.520535 1.60186684,44.4834992 C1.5403906,44.3487595 1.49515336,44.2080235 1.46731507,44.0644657 C1.45880892,44.0203754 1.4514627,43.9759325 1.44527641,43.9318422 C1.4236244,43.7516014 1.42671755,43.5685387 1.45803563,43.389356 C1.47002157,43.3219861 1.48432736,43.254969 1.50095301,43.1883045 C1.60534663,42.8257064 1.81954688,42.4913261 2.11455552,42.2303119 C3.85947558,40.6363618 5.60362235,39.0420589 7.34892905,37.4484614 C7.63388498,37.1853309 7.99887601,36.9980356 8.3913187,36.9063279 L8.3913187,36.9063279 Z" id="Shape" stroke="#FFFFFF" stroke-width="2" fill="#57B2D9" sketch:type="MSShapeGroup" transform="translate(8.840379, 45.559957) rotate(91.000000) translate(-8.840379, -45.559957) "></path>
            <path d="M10,21 L9,21 L9,14 L13,14 L13,15 L10,15 L10,18 L13,18 L10,18 L10,21 Z M10,17 L10,18 L13,18 L13,17 L10,17 Z M15,21 L15,14 L16,14 L16,21 L15,21 Z M18,21 L18,14 L19,14 L19,20 L22,20 L22,21 L18,21 Z M28,21 L24,21 L24,14 L28,14 L28,15 L25,15 L25,17 L28,17 L28,18 L25,18 L25,20 L28,20 L28,21 Z" id="FILE" fill="#FFFFFF" sketch:type="MSShapeGroup"></path>
        </g>
    </g>
</svg>