<?xml version="1.0" encoding="utf-8"?>
<!-- Generator: Adobe Illustrator 16.0.0, SVG Export Plug-In . SVG Version: 6.00 Build 0)  -->
<!DOCTYPE svg PUBLIC "-//W3C//DTD SVG 1.1//EN" "http://www.w3.org/Graphics/SVG/1.1/DTD/svg11.dtd">
<svg version="1.1" id="Layer_1" xmlns="http://www.w3.org/2000/svg" xmlns:xlink="http://www.w3.org/1999/xlink" x="0px" y="0px"
	 width="316px" height="316px" viewBox="0 0 316 316" enable-background="new 0 0 316 316" xml:space="preserve">
<g id="js-twitter-campaign-image-1-twitter">
	<g id="layer1" transform="translate(-282.32053,-396.30734)" inkscape:label="Layer 1" inkscape:groupmode="layer">
		<path inkscape:connector-curvature="0" fill="#66B9DC" d="M590.568,460.248
			c-11.071,4.911-22.976,8.231-35.472,9.722c12.756-7.637,22.546-19.741,27.156-34.158c-11.932,7.071-25.153,12.213-39.217,14.979
			c-11.266-12.001-27.311-19.5-45.072-19.5c-34.106,0-61.759,27.648-61.759,61.752c0,4.842,0.548,9.556,1.602,14.073
			c-51.324-2.573-96.829-27.156-127.282-64.517c-5.318,9.117-8.367,19.721-8.367,31.043c0,21.424,10.907,40.323,27.474,51.4
			c-10.122-0.321-19.643-3.1-27.969-7.726c-0.005,0.266-0.005,0.516-0.005,0.782c0,29.917,21.287,54.873,49.533,60.552
			c-5.181,1.412-10.636,2.165-16.267,2.165c-3.979,0-7.85-0.389-11.62-1.107c7.858,24.534,30.665,42.391,57.694,42.878
			c-21.134,16.572-47.769,26.442-76.699,26.442c-4.982,0-9.897-0.295-14.729-0.865c27.328,17.526,59.791,27.751,94.664,27.751
			c113.587,0,175.704-94.104,175.704-175.706c0-2.687-0.062-5.344-0.179-7.997C571.821,483.512,582.287,472.637,590.568,460.248
			L590.568,460.248z"/>
	</g>
	<g id="js-twitter-campaign-image-1-star-outer">
		<g id="js-twitter-campaign-image-1-star">
			<path fill="#F26F70" d="M247.787,100.854L247.787,100.854V92.43c-14.826,0-26.859-12.026-26.859-26.866h-8.424
			c0,14.84-12.033,26.866-26.858,26.866v8.423c14.825,0,26.858,12.021,26.858,26.852l0,0h8.424
			C220.928,112.875,232.961,100.854,247.787,100.854z"/>
		</g>
	</g>
</g>
</svg>
