<?xml version="1.0" encoding="UTF-8" standalone="no"?>
<svg width="383px" height="383px" viewBox="0 0 383 383" version="1.1" xmlns="http://www.w3.org/2000/svg" xmlns:xlink="http://www.w3.org/1999/xlink" xmlns:sketch="http://www.bohemiancoding.com/sketch/ns">
    <!-- Generator: Sketch 3.3.1 (12002) - http://www.bohemiancoding.com/sketch -->
    <title>Untitled 8</title>
    <desc>Created with Sketch.</desc>
    <defs></defs>
    <g id="Page-1" stroke="none" stroke-width="1" fill="none" fill-rule="evenodd" sketch:type="MSPage">
        <g id="image-2" sketch:type="MSLayerGroup">
            <g id="Page-1" sketch:type="MSShapeGroup">
                <g id="image-2" fill="#65B9DC">
                    <g id="Page-1">
                        <path d="M100.448,188.997 C100.448,136.617 143.062,94.004 195.444,94.004 C238.47,94.004 274.901,122.761 286.542,162.063 L304.499,155.231 C304.46,155.104 304.426,154.977 304.387,154.85 L303.485,151.97 L305.798,150.031 L333.262,127.025 C329.648,119.005 325.315,111.28 320.341,103.99 L285.402,114.476 L282.639,115.304 L280.721,113.15 C273.741,105.306 265.74,98.469 256.94,92.825 L254.402,91.198 L261.181,52.939 C253.253,49.101 244.978,45.959 236.497,43.568 L216.466,74.066 L214.887,76.474 L212.033,76.06 C206.547,75.26 200.965,74.856 195.443,74.856 C190.527,74.856 185.578,75.172 180.736,75.796 L177.745,76.181 L158.346,42.514 C149.807,44.672 141.448,47.588 133.415,51.21 L137.671,87.445 L138.006,90.307 L135.558,91.82 C126.656,97.32 118.54,104.021 111.438,111.741 L109.393,113.961 L106.558,112.926 L72.899,100.644 C67.733,107.795 63.194,115.399 59.361,123.322 L87.999,150.303 L87.088,153.042 C83.8,162.94 81.893,173.293 81.423,183.813 L81.288,186.832 L78.447,187.862 L44.767,200.087 C45.407,208.876 46.82,217.618 48.982,226.159 L85.381,228.256 L88.257,228.421 L89.322,231.101 C90.012,232.838 90.761,234.55 91.536,236.25 L109.49,229.419 C103.695,217.147 100.448,203.445 100.448,188.997 L100.448,188.997 L100.448,188.997 Z M309.619,188.598 L309.537,185.713 C309.243,175.325 307.543,165.072 304.499,155.231 L286.542,162.063 C289.072,170.606 290.437,179.645 290.437,188.997 C290.437,241.378 247.823,283.993 195.444,283.993 C157.51,283.993 124.705,261.641 109.49,229.419 L91.536,236.25 C95.094,244.055 99.522,251.46 104.768,258.313 L106.605,260.712 L87.16,294.323 C93.302,300.637 100.007,306.425 107.16,311.588 L136.371,289.813 L138.684,288.087 L141.224,289.46 C150.444,294.447 160.307,298.129 170.54,300.406 L173.49,301.062 L174.014,304.039 L180.198,339.31 C185.266,339.819 190.379,340.076 195.441,340.076 C199.113,340.076 202.858,339.937 206.616,339.66 L215.656,301.393 L218.486,300.813 C228.733,298.713 238.656,295.193 247.978,290.349 L250.659,288.957 L280.383,313.94 C287.652,308.982 294.513,303.375 300.839,297.219 L284.459,264.656 L283.159,262.076 L284.954,259.814 C291.47,251.598 296.816,242.529 300.847,232.862 L302.007,230.077 L305.026,230.081 L340.854,230.111 C343.24,221.651 344.889,212.949 345.767,204.163 L312.27,189.739 L309.619,188.598 L309.619,188.598 Z M281.217,330.368 L284.549,330.368 C286.068,330.368 287.17,330.584 287.856,331.017 C288.542,331.448 288.885,332.136 288.885,333.078 C288.885,333.718 288.735,334.243 288.435,334.653 C288.135,335.063 287.735,335.31 287.237,335.393 L287.237,335.466 C287.916,335.617 288.405,335.9 288.706,336.315 C289.006,336.731 289.156,337.282 289.156,337.971 C289.156,338.947 288.803,339.709 288.098,340.256 C287.392,340.803 286.434,341.076 285.223,341.076 L281.217,341.076 L281.217,330.368 L281.217,330.368 Z M283.487,334.609 L284.806,334.609 C285.421,334.609 285.866,334.514 286.143,334.323 C286.418,334.133 286.556,333.818 286.556,333.378 C286.556,332.968 286.406,332.674 286.105,332.496 C285.806,332.318 285.331,332.229 284.681,332.229 L283.487,332.229 L283.487,334.609 L283.487,334.609 Z M283.487,336.411 L283.487,339.201 L284.967,339.201 C285.592,339.201 286.053,339.082 286.351,338.842 C286.649,338.603 286.798,338.237 286.798,337.744 C286.798,336.855 286.163,336.411 284.894,336.411 L283.487,336.411 L283.487,336.411 Z M298.662,341.076 L292.495,341.076 L292.495,330.368 L298.662,330.368 L298.662,332.229 L294.766,332.229 L294.766,334.58 L298.391,334.58 L298.391,336.44 L294.766,336.44 L294.766,339.201 L298.662,339.201 L298.662,341.076 L298.662,341.076 Z M304.33,341.076 L302.096,341.076 L302.096,330.368 L308.233,330.368 L308.233,332.229 L304.33,332.229 L304.33,334.99 L307.962,334.99 L307.962,336.843 L304.33,336.843 L304.33,341.076 L304.33,341.076 Z M321.248,335.707 C321.248,337.48 320.808,338.842 319.929,339.794 C319.05,340.747 317.79,341.223 316.15,341.223 C314.509,341.223 313.25,340.747 312.371,339.794 C311.492,338.842 311.052,337.475 311.052,335.693 C311.052,333.911 311.493,332.55 312.374,331.609 C313.255,330.67 314.519,330.2 316.165,330.2 C317.81,330.2 319.068,330.673 319.94,331.621 C320.811,332.568 321.248,333.93 321.248,335.707 L321.248,335.707 L321.248,335.707 Z M313.433,335.707 C313.433,336.904 313.66,337.805 314.114,338.41 C314.568,339.016 315.247,339.318 316.15,339.318 C317.961,339.318 318.867,338.115 318.867,335.707 C318.867,333.295 317.966,332.089 316.165,332.089 C315.261,332.089 314.58,332.394 314.121,333.001 C313.662,333.609 313.433,334.511 313.433,335.707 L313.433,335.707 L313.433,335.707 Z M326.937,336.967 L326.937,341.076 L324.667,341.076 L324.667,330.368 L327.787,330.368 C329.242,330.368 330.318,330.633 331.017,331.163 C331.715,331.693 332.064,332.497 332.064,333.576 C332.064,334.206 331.891,334.767 331.544,335.257 C331.197,335.748 330.706,336.132 330.072,336.411 C331.683,338.818 332.733,340.373 333.221,341.076 L330.702,341.076 L328.146,336.967 L326.937,336.967 L326.937,336.967 Z M0,0 L383,0 L383,383 L0,383 L0,0 L0,0 Z M326.937,335.122 L327.669,335.122 C328.387,335.122 328.917,335.002 329.259,334.763 C329.601,334.523 329.772,334.147 329.772,333.635 C329.772,333.127 329.597,332.766 329.248,332.551 C328.898,332.336 328.358,332.229 327.625,332.229 L326.937,332.229 L326.937,335.122 L326.937,335.122 Z M335.769,341.076 L335.769,330.368 L341.936,330.368 L341.936,332.229 L338.04,332.229 L338.04,334.58 L341.665,334.58 L341.665,336.44 L338.04,336.44 L338.04,339.201 L341.936,339.201 L341.936,341.076 L335.769,341.076 Z M173.672449,240.213344 C160.349915,240.213344 147.950761,236.185685 137.513339,229.276507 C139.360098,229.499267 141.235601,229.617834 143.139846,229.617834 C154.191657,229.617834 164.363203,225.726705 172.436486,219.198376 C162.114037,219.000766 153.404808,211.965836 150.40113,202.293705 C151.838297,202.577546 153.318578,202.732041 154.838382,202.732041 C156.990539,202.732041 159.070837,202.433829 161.050534,201.876927 C150.261006,199.642133 142.126644,189.801135 142.126644,178.005591 L142.126644,177.700193 C145.306375,179.525395 148.945999,180.617641 152.811977,180.743393 C146.481258,176.381593 142.317068,168.926292 142.317068,160.482938 C142.317068,156.020536 143.481173,151.838382 145.511171,148.245465 C157.15222,162.969236 174.531156,172.662925 194.1377,173.676127 C193.735293,171.89404 193.526904,170.036503 193.526904,168.128664 C193.526904,154.683971 204.086485,143.786656 217.1144,143.786656 C223.897826,143.786656 230.027341,146.743626 234.328062,151.475497 C239.703065,150.383251 244.751112,148.356846 249.310523,145.568743 C247.549994,151.252736 243.809768,156.024129 238.93418,159.038586 C243.712759,158.445755 248.254205,157.137933 252.486661,155.197758 C249.324894,160.080532 245.325979,164.370474 240.716267,167.801709 C240.766568,168.847247 240.788125,169.896379 240.788125,170.949103 C240.784532,203.120076 217.056913,240.213344 173.672449,240.213344 Z" id="Fill-1"></path>
                    </g>
                </g>
                <g id="js-twitter-campaign-image-2-after" opacity="0">
                    <g transform="translate(15.000000, 68.000000)" fill="#F06F73">
                        <path d="M7.902832,11 L7.1264648,8.4511719 L3.2226562,8.4511719 L2.4462891,11 L0,11 L3.7792969,0.2480469 L6.5551758,0.2480469 L10.3491211,11 L7.902832,11 L7.902832,11 Z M6.5844727,6.546875 C5.8666956,4.2372931 5.4626469,2.9311539 5.3723145,2.628418 C5.281982,2.3256821 5.2172854,2.0864267 5.1782227,1.9106445 C5.017089,2.5356477 4.5556679,4.0810424 3.7939453,6.546875 L6.5844727,6.546875 L6.5844727,6.546875 Z M15.1806639,11 L12.9467772,11 L12.9467772,0.2919922 L19.0844725,0.2919922 L19.0844725,2.1523438 L15.1806639,2.1523438 L15.1806639,4.9135742 L18.8134764,4.9135742 L18.8134764,6.7666016 L15.1806639,6.7666016 L15.1806639,11 L15.1806639,11 Z M26.5600584,11 L24.2895505,11 L24.2895505,2.1816406 L21.3818357,2.1816406 L21.3818357,0.2919922 L29.4677732,0.2919922 L29.4677732,2.1816406 L26.5600584,2.1816406 L26.5600584,11 L26.5600584,11 Z M38.5327145,11 L32.3657223,11 L32.3657223,0.2919922 L38.5327145,0.2919922 L38.5327145,2.1523438 L34.6362301,2.1523438 L34.6362301,4.503418 L38.2617184,4.503418 L38.2617184,6.3637695 L34.6362301,6.3637695 L34.6362301,9.125 L38.5327145,9.125 L38.5327145,11 L38.5327145,11 Z M44.2871089,5.0454102 L45.0195308,5.0454102 C45.7373078,5.0454102 46.2670877,4.9257824 46.6088862,4.6865234 C46.9506848,4.4472644 47.1215816,4.0712916 47.1215816,3.5585938 C47.1215816,3.0507787 46.9470228,2.6894542 46.5978999,2.4746094 C46.2487771,2.2597646 45.708011,2.1523438 44.9755855,2.1523438 L44.2871089,2.1523438 L44.2871089,5.0454102 L44.2871089,5.0454102 Z M44.2871089,6.8911133 L44.2871089,11 L42.0166011,11 L42.0166011,0.2919922 L45.1367183,0.2919922 C46.5918037,0.2919922 47.6684531,0.5568821 48.3666987,1.0866699 C49.0649444,1.6164577 49.414062,2.420893 49.414062,3.5 C49.414062,4.129886 49.2407239,4.6901831 48.8940425,5.1809082 C48.5473611,5.6716333 48.0566433,6.056151 47.4218745,6.3344727 C49.0332107,8.7417113 50.0830049,10.2968715 50.5712886,11 L48.0517573,11 L45.495605,6.8911133 L44.2871089,6.8911133 L44.2871089,6.8911133 Z" id="Shape"></path>
                    </g>
                </g>
            </g>
        </g>
    </g>
</svg>