<svg width="268px" height="166px" viewBox="0 0 268 166" version="1.1" xmlns="http://www.w3.org/2000/svg" xmlns:xlink="http://www.w3.org/1999/xlink" xmlns:sketch="http://www.bohemiancoding.com/sketch/ns">
    <g id="Page-1" stroke="none" stroke-width="1" fill="none" fill-rule="evenodd" sketch:type="MSPage">
        <g id="Imported-Layers" sketch:type="MSLayerGroup">
            <path d="M0.5,22.152 L267.5,22.152 L267.5,165.885 L0.5,165.885 L0.5,22.152 Z" id="Fill-1" fill="#FFFFFF" sketch:type="MSShapeGroup"></path>
            <path d="M0.5,0.499 L267.5,0.499 L267.5,21.916 L0.5,21.916 L0.5,0.499 Z" id="Fill-2" fill="#B5DFE3" sketch:type="MSShapeGroup"></path>
            <path d="M11.921,11.207 C11.921,13.573 10.004,15.49 7.64,15.49 C5.274,15.49 3.355,13.573 3.355,11.207 C3.355,8.841 5.274,6.923 7.64,6.923 C10.004,6.923 11.921,8.841 11.921,11.207" id="Fill-3" fill="#E36869" sketch:type="MSShapeGroup"></path>
            <path d="M23.929,11.207 C23.929,13.573 22.01,15.49 19.645,15.49 C17.28,15.49 15.362,13.573 15.362,11.207 C15.362,8.841 17.28,6.923 19.645,6.923 C22.01,6.923 23.929,8.841 23.929,11.207" id="Fill-4" fill="#F6C281" sketch:type="MSShapeGroup"></path>
            <path d="M36.195,11.207 C36.195,13.573 34.275,15.49 31.912,15.49 C29.547,15.49 27.629,13.573 27.629,11.207 C27.629,8.841 29.547,6.923 31.912,6.923 C34.275,6.923 36.195,8.841 36.195,11.207" id="Fill-5" fill="#5CBBA1" sketch:type="MSShapeGroup"></path>
            <path d="M260.641,66.891 L218.003,87.832 L175.168,66.891 L133.286,78.313 L92.356,99.568 L50.473,87.832 L7.359,99.568" id="Stroke-6" stroke="#E36869" stroke-width="4" sketch:type="MSShapeGroup"></path>
            <path d="M260.641,56.896 L215.624,66.891 L174.693,110.201 L132.572,56.896 L92.832,77.838 L50.95,110.201 L7.359,77.838" id="Stroke-7" stroke="#5CBBA1" stroke-width="4" sketch:type="MSShapeGroup"></path>
            <path d="M260.641,93.544 L215.994,50.709 L174.217,83.549 L132.572,88.784 L90.928,124.955 L52.377,74.031 L7.359,62.607" id="Stroke-8" stroke="#F6C281" stroke-width="4" sketch:type="MSShapeGroup"></path>
            <path d="M260.641,146.476 L7.359,146.476" id="Fill-9" fill="#F6C281" sketch:type="MSShapeGroup"></path>
            <path d="M260.641,146.476 L7.359,146.476" id="Stroke-10" stroke="#1A1918" stroke-width="4" sketch:type="MSShapeGroup"></path>
        </g>
    </g>
</svg>