<svg width="560px" height="469px" viewBox="0 0 560 469" version="1.1" xmlns="http://www.w3.org/2000/svg" xmlns:xlink="http://www.w3.org/1999/xlink" xmlns:sketch="http://www.bohemiancoding.com/sketch/ns">
    <g id="Page-1" stroke="none" stroke-width="1" fill="none" fill-rule="evenodd" sketch:type="MSPage">
        <g id="target-circles" sketch:type="MSLayerGroup" transform="translate(165.000000, 119.000000)" fill="#E36869">
            <path d="M102.72571,0.686151985 C126.356903,-1.93837936 150.778068,3.13914533 171.368295,15.1639589 C184.177727,22.5057851 195.288295,32.6351038 204.462159,44.2224955 C219.429148,63.5376739 227.923466,87.836031 228.263239,112.357388 C228.789886,137.22182 220.949631,162.163445 206.288437,182.156198 C194.965511,197.414503 180.074972,210.091161 162.882472,218.093409 C138.393352,229.723685 109.725028,231.936525 83.7409091,224.371699 C50.1034091,214.842764 21.7323864,188.520258 9.28821023,155.584963 C-0.446278409,130.265954 -0.786051136,101.42184 8.31136364,75.8712558 C15.9732386,53.9315461 30.6853977,34.762175 49.3389205,21.1935195 C64.9939489,9.88058859 83.579517,2.73603104 102.72571,0.686151985 L102.72571,0.686151985 Z M108.552812,25.3704697 C94.630625,26.1509675 80.963267,30.4394175 68.9268182,37.5153598 C51.1821875,47.9019855 37.1495739,64.6183632 30.0228409,84.0450413 C23.9154261,100.032383 22.7601989,117.838027 26.2853409,134.571558 C30.719375,155.353386 42.6453977,174.411258 59.3876989,187.310915 C74.6944602,199.258537 93.9255966,206.051441 113.292642,206.085749 C130.332244,206.283018 147.320881,201.248377 161.676278,192.036787 C178.146761,181.538662 191.100597,165.482705 197.811108,147.01664 C204.980312,127.984499 205.303097,106.387865 198.821932,87.1155715 C192.187869,66.9427031 178.248693,49.3257509 160.206761,38.3644729 C144.832045,28.852691 126.560767,24.229742 108.552812,25.3704697 L108.552812,25.3704697 Z" id="Shape" sketch:type="MSShapeGroup"></path>
            <path d="M104.178239,46.5211046 C117.73517,44.5827253 131.861222,46.7784116 144.1525,52.8851643 C158.694773,60.0211449 170.586818,72.4748035 177.110455,87.4071861 C183.990852,102.939952 184.882756,121.03721 179.650256,137.196089 C172.540511,159.813374 153.24142,177.970671 130.374716,183.459887 C115.637074,187.1308 99.7102273,185.749919 85.8559943,179.480206 C71.245767,172.961762 59.0479261,161.159948 51.9551705,146.716448 C44.7859659,132.29868 42.8747443,115.333572 46.5697727,99.6378452 C49.6956818,86.0691897 57.0177841,73.5554928 67.2109659,64.1723644 C77.3956534,54.703467 90.4599148,48.4337533 104.178239,46.5211046 L104.178239,46.5211046 Z M104.339631,68.4608144 C91.4877273,71.0510381 79.9184659,79.3191695 73.14,90.6406773 C66.4549716,101.567648 64.4757955,115.25638 67.695142,127.675731 C71.0419034,141.081425 80.4705966,152.746009 92.761875,158.827031 C103.235369,164.118978 115.671051,165.233975 126.917528,161.974753 C139.650511,158.372455 150.650653,149.126557 156.528722,137.178936 C162.304858,125.668736 163.145795,111.782735 158.856165,99.6378452 C154.855341,88.093338 146.301563,78.2727877 135.505284,72.7406874 C126.000142,67.8003931 114.813125,66.3080125 104.339631,68.4608144 L104.339631,68.4608144 Z" id="Shape" sketch:type="MSShapeGroup"></path>
            <path d="M140.576392,109.784318 C143.872188,123.438742 134.961648,138.474048 121.566108,142.136384 C109.249347,146.064604 94.8939489,139.631929 89.3811364,127.881576 C83.6219886,116.654414 86.9347727,101.756339 96.8561364,94.0714372 C100.219886,91.3439831 104.237699,89.465642 108.459375,88.607952 C122.568438,85.3315763 137.841222,95.4694719 140.576392,109.784318 Z" id="Shape" sketch:type="MSShapeGroup"></path>
        </g>
        <g id="" sketch:type="MSLayerGroup" transform="translate(146.000000, 100.000000)" fill="#FFFFFF">
            <g id="js-image-3-target-lines" transform="translate(-50, -30)">
                <g transform="translate(0, -300)">
                    <path d="M139.394,93.294 C139.394,95.974 137.228,98.146 134.547,98.146 C131.874,98.146 129.701,95.974 129.701,93.294 L129.701,5.538 C129.701,2.863 131.874,0.691 134.547,0.691 C137.228,0.691 139.394,2.863 139.394,5.538 L139.394,93.294"></path>
                </g>
                <g transform="translate(300, 0)">
                    <path d="M262.653,129.889 C265.327,129.889 267.5,132.062 267.5,134.742 C267.5,137.415 265.327,139.589 262.653,139.589 L174.898,139.589 C172.217,139.589 170.044,137.415 170.044,134.742 C170.044,132.062 172.217,129.889 174.898,129.889 L262.653,129.889"></path>
                </g>
                <g transform="translate(0, 300)">
                    <path d="M138.298,262.844 C138.298,265.521 136.126,267.691 133.453,267.691 C130.772,267.691 128.606,265.521 128.606,262.844 L128.606,175.089 C128.606,172.408 130.772,170.235 133.453,170.235 C136.126,170.235 138.298,172.408 138.298,175.089 L138.298,262.844"></path>
                </g>
                <g transform="translate(-300, 0)">
                    <path d="M93.103,128.793 C95.783,128.793 97.956,130.965 97.956,133.639 C97.956,136.32 95.783,138.486 93.103,138.486 L5.347,138.486 C2.673,138.486 0.5,136.32 0.5,133.639 C0.5,130.965 2.673,128.793 5.347,128.793 L93.103,128.793"></path>
                </g>
            </g>
        </g>
    </g>
</svg>