<svg width="278px" height="283px" viewBox="0 0 278 283" version="1.1" xmlns="http://www.w3.org/2000/svg" xmlns:xlink="http://www.w3.org/1999/xlink" xmlns:sketch="http://www.bohemiancoding.com/sketch/ns">
  <g id="Page-1" stroke="none" stroke-width="1" fill="none" fill-rule="evenodd" sketch:type="MSPage">
    <g id="js-image-2-bubble" opacity="0" sketch:type="MSLayerGroup" transform="translate(24.000000, 2.000000)" stroke="#FFFFFF" stroke-width="3" stroke-dasharray="3,2">
      <path d="M82.9028908,160.020769 C83.8028908,176.630769 96.9428908,186.264769 109.999891,188.120769 C122.952891,189.961769 130.461891,182.493769 133.696891,172.338769 C137.859891,175.678769 142.858891,177.793769 148.105891,178.539769 C163.944891,180.791769 171.645891,169.131769 173.339891,155.646769 C174.041891,156.143769 174.768891,156.613769 175.540891,157.040769 C203.814891,172.637769 234.237891,156.585769 240.690891,137.709769 C249.690891,111.384769 235.549891,91.8037694 218.026891,85.9297694 C207.073891,82.2587694 188.000891,87.9427694 178.656891,96.9277694 C179.975891,86.1467694 180.940891,78.8097694 167.397891,74.8187694 C180.690891,66.7257694 191.105891,50.5787694 189.190891,38.5707694 C186.979891,24.7217694 175.910891,11.9757694 160.690891,11.9757694 C144.694891,11.9757694 136.095891,26.3427694 131.376891,35.9757694 C129.917891,23.4567694 123.354891,13.9957694 110.261891,14.7067694 C101.324891,15.1917694 95.3968908,26.6017694 93.7258908,37.1017694 C91.2668908,28.2697694 85.9038908,10.5577694 69.1308908,14.6697694 C57.7688908,17.4537694 47.3738908,26.1367694 53.3398908,56.2797694 C51.8508908,54.6197694 50.1058908,53.1117694 48.1168908,51.8217694 C37.3558908,44.8297694 23.6428908,46.8447694 17.4898908,56.3157694 C11.3368908,65.7887694 15.0768908,79.1357694 25.8378908,86.1247694 C29.1598908,88.2837694 32.7658908,89.5787694 36.3428908,90.0667694 C29.0188908,93.2497694 24.0318908,99.5307694 24.0318908,106.761769 C24.0318908,117.207769 34.4368908,125.678769 47.2728908,125.678769" id="small" sketch:type="MSShapeGroup"></path>
      <path d="M77.7688908,167.785769 C79.0908908,192.139769 91.5518908,201.320769 108.696891,204.148769 C125.051891,206.847769 134.731891,196.893769 139.150891,182.916769 C143.193891,185.494769 147.677891,187.192769 152.326891,187.922769 C168.651891,190.483769 177.701891,179.735769 181.149891,165.629769 C213.311891,179.111769 237.491891,165.354769 247.491891,143.908769 C258.392891,120.543769 251.634891,87.2847694 223.281891,77.7677694 C216.220891,75.3967694 201.440891,73.1477694 186.585891,84.1777694 C185.521891,77.5867694 185.190891,75.9007694 180.440891,74.4457694 C193.440891,65.6797694 198.918891,50.6657694 199.070891,43.3227694 C199.297891,32.3987694 192.798891,2.98476942 159.869891,2.98476942 C147.034891,2.98476942 139.932891,9.47576942 132.799891,17.2257694 C131.376891,3.97576942 119.026891,-0.774230578 110.440891,0.100769422 C104.471891,0.708769422 95.8538908,7.02776942 93.4408908,17.2257694 C89.5318908,7.61176942 78.8598908,2.83776942 70.5278908,2.84476942 C60.4138908,2.85176942 41.4628908,7.12076942 44.9408908,40.9307694 C29.8388908,32.8887694 12.6808908,36.0647694 4.29689083,48.9697694 C-4.43610917,62.4177694 0.573890825,81.2407694 15.4148908,91.5477694 C11.8528908,95.8837694 9.77289083,101.095769 9.77289083,106.702769 C9.77289083,121.775769 22.1998908,127.566769 33.5078908,128.849769" id="large" opacity="0.65" sketch:type="MSShapeGroup"></path>
    </g>
    <g id="js-image-2-brands" sketch:type="MSLayerGroup" transform="translate(48.000000, 26.000000)">
      <g opacity="0" transform="translate(71.000000, 10.000000)">
        <path d="M35.273,19.961 L35.273,15.223 C26.922,15.223 20.149,8.46 20.149,0.115 L15.399,0.115 C15.399,8.46 8.63,15.22 0.276,15.22 L0.276,19.961 C8.63,19.961 15.399,26.724 15.399,35.068 L20.149,35.068 C20.149,26.724 26.922,19.961 35.273,19.961" id="Fill-25" fill="#FFFFFF"></path>
        <path d="M17.871,13.577 C18.333,13.577 19.19,12.944 20.302,12.944 C22.221,12.944 22.974,14.306 22.974,14.306 C22.974,14.306 21.498,15.06 21.498,16.889 C21.498,18.95 23.337,19.662 23.337,19.662 C23.337,19.662 22.052,23.272 20.316,23.272 C19.52,23.272 18.899,22.736 18.06,22.736 C17.204,22.736 16.356,23.293 15.802,23.293 C14.217,23.293 12.214,19.867 12.214,17.113 C12.214,14.403 13.909,12.982 15.499,12.982 C16.532,12.982 17.334,13.577 17.871,13.577" id="Fill-27" fill="#378FB0"></path>
        <path d="M18.352,10.854 C19.248,9.673 20.494,9.668 20.494,9.668 C20.494,9.668 20.679,10.777 19.789,11.845 C18.837,12.986 17.756,12.799 17.756,12.799 C17.756,12.799 17.555,11.903 18.352,10.854" id="Fill-26" fill="#378FB0"></path>
      </g>
      <g opacity="0" transform="translate(114.000000, 115.000000)" sketch:type="MSShapeGroup">
        <path d="M25.979,14.933 L25.981,14.933 L25.981,11.525 C19.979,11.525 15.116,6.659 15.116,0.658 L11.706,0.658 C11.706,6.659 6.84,11.523 0.841,11.523 L0.841,14.933 C6.84,14.933 11.706,19.797 11.706,25.799 L15.116,25.799 C15.116,19.797 19.979,14.933 25.979,14.933" id="Fill-28" fill="#E36869"></path>
        <path d="M15.303,10.026 C15.988,10.026 16.542,12.899 16.542,16.442 L17.534,16.442 C17.534,12.626 16.535,9.532 15.303,9.532 C14.601,9.532 13.976,10.462 13.567,11.916 C13.158,10.462 12.532,9.532 11.831,9.532 C10.599,9.532 9.599,12.626 9.599,16.442 L10.591,16.442 C10.591,12.899 11.148,10.026 11.831,10.026 C12.516,10.026 13.072,12.678 13.072,15.949 L14.063,15.949 C14.063,12.678 14.618,10.026 15.303,10.026" id="Fill-29" fill="#F6C281"></path>
      </g>
      <g opacity="0" transform="translate(70.000000, 117.000000)">
        <path d="M34.118,19.551 L34.119,19.551 L34.119,14.969 C26.049,14.969 19.505,8.426 19.505,0.356 L14.919,0.356 C14.919,8.426 8.377,14.969 0.308,14.969 L0.308,19.551 C8.377,19.551 14.919,26.097 14.919,34.168 L19.505,34.168 C19.505,26.097 26.049,19.551 34.118,19.551" id="Fill-31" fill="#B5DFE3"></path>
        <path d="M24.399,17.262 C24.399,13.293 21.184,10.076 17.215,10.076 C13.245,10.076 10.029,13.293 10.029,17.262 C10.029,21.231 13.245,24.449 17.215,24.449 C21.184,24.449 24.399,21.231 24.399,17.262" id="Fill-32" fill="#378FB0"></path>
        <path d="M14.514,13.756 C14.489,13.588 14.389,13.449 14.236,13.379 C14.082,13.309 13.901,13.335 13.767,13.432 L13.735,13.458 L13.745,13.224 L13.628,13.021 C13.512,12.908 13.337,12.871 13.188,12.927 L13.002,13.06 L12.925,13.161 C12.781,13.337 12.639,13.513 12.501,13.69 C12.376,13.843 12.256,13.994 12.136,14.145 L12.112,14.175 L12.126,14.188 L12.269,14.301 C12.447,14.444 12.626,14.586 12.801,14.73 C12.979,14.871 13.154,15.011 13.333,15.153 L13.467,15.261 L13.481,15.271 L13.509,15.237 C13.628,15.085 13.749,14.936 13.872,14.784 C14.016,14.603 14.161,14.421 14.307,14.241 C14.381,14.147 14.462,14.06 14.498,13.942 L14.514,13.756 L14.514,13.756 Z M12.952,14.266 L12.733,14.091 L12.65,14.023 L12.68,13.985 C12.816,13.813 12.952,13.642 13.088,13.473 L13.212,13.357 L13.434,13.405 L13.477,13.585 L13.387,13.726 C13.313,13.817 13.239,13.908 13.17,13.998 L12.952,14.266 L12.952,14.266 Z M14.036,14.058 L13.899,14.23 C13.771,14.39 13.643,14.549 13.514,14.708 L13.512,14.712 L13.49,14.697 L13.387,14.614 L13.207,14.47 C13.323,14.325 13.438,14.181 13.554,14.036 L13.725,13.825 L13.881,13.738 L14.064,13.853 L14.036,14.058 L14.036,14.058 Z" id="Fill-33" fill="#FFFFFF"></path>
        <path d="M21.115,17.262 C21.115,15.109 19.367,13.363 17.215,13.363 C15.06,13.363 13.314,15.109 13.314,17.262 C13.314,19.416 15.06,21.161 17.215,21.161 C19.367,21.161 21.115,19.416 21.115,17.262" id="Fill-34" fill="#FFFFFF"></path>
        <path d="M17.214,13.56 C15.194,13.613 13.565,15.242 13.512,17.262 L17.214,17.262 L17.214,13.56" id="Fill-35" fill="#67B2CD"></path>
        <path d="M17.214,20.963 C19.233,20.911 20.863,19.282 20.915,17.262 L17.214,17.262 L17.214,20.963" id="Fill-36" fill="#67B2CD"></path>
        <path d="M21.373,12.996 L21.049,12.694 L19.991,14.079 L20.316,14.382 L21.477,13.85 L20.703,14.863 L20.928,15.247 L22.512,14.52 L22.288,14.137 L21.374,14.557 L22.023,13.703 L21.739,13.348 L20.766,13.795 L21.373,12.996" id="Fill-37" fill="#FFFFFF"></path>
        <path d="M16.64,11.934 L17.051,13.103 L17.377,13.103 L17.789,11.934 L17.832,13.103 L18.285,13.168 L18.22,11.414 L17.636,11.35 L17.215,12.584 L16.792,11.35 L16.208,11.414 L16.143,13.168 L16.596,13.103 L16.64,11.934" id="Fill-38" fill="#FFFFFF"></path>
      </g>
      <g opacity="0" transform="translate(11.000000, 65.000000)">
        <path d="M35.555,21.042 L35.556,21.042 L35.556,16.25 C27.116,16.25 20.275,9.411 20.275,0.974 L15.482,0.974 C15.482,9.411 8.644,16.247 0.206,16.247 L0.206,21.042 C8.644,21.042 15.482,27.882 15.482,36.32 L20.275,36.32 C20.275,27.882 27.116,21.042 35.555,21.042" id="Fill-39" fill="#B5DFE3"></path>
        <path d="M17.881,25.746 C14.238,25.746 11.287,22.795 11.287,19.153 C11.287,15.512 14.238,12.56 17.881,12.56 C21.523,12.56 24.474,15.512 24.474,19.153 C24.474,22.795 21.523,25.746 17.881,25.746" id="Fill-40" fill="#378FB0"></path>
        <path d="M17.882,20.149 L12.529,22.365 C13.656,24.26 15.7,25.416 17.905,25.405 C20.104,25.399 22.141,24.231 23.258,22.33 L17.882,20.149" id="Fill-41" fill="#B5DFE3"></path>
        <path d="M16.954,18.584 L17.808,12.933 C15.609,12.962 13.582,14.148 12.482,16.053 C11.379,17.96 11.368,20.308 12.448,22.226 L16.954,18.584" id="Fill-42" fill="#B5DFE3"></path>
        <path d="M18.781,18.66 L23.339,22.185 C24.398,20.268 24.374,17.938 23.269,16.042 C22.17,14.148 20.16,12.969 17.968,12.934 L18.781,18.66" id="Fill-43" fill="#B5DFE3"></path>
      </g>
      <g opacity="0" transform="translate(154.000000, 74.000000)">
        <path d="M32.427,37.313 L32.427,38.026" id="Fill-45" fill="#378FB0"></path>
        <path d="M52.324,30.234 L52.327,30.234 L52.327,23.22 C39.974,23.22 29.958,13.202 29.958,0.847 L22.937,0.847 C22.937,13.202 12.92,23.218 0.567,23.218 L0.567,30.234 C12.92,30.234 22.937,40.252 22.937,52.603 L22.937,52.606 L29.958,52.606 C29.958,40.252 39.974,30.234 52.324,30.234" id="Fill-44" fill="#FFFFFF"></path>
        <path d="M32.982,37.213 L33.224,37.838" id="Fill-46" fill="#378FB0"></path>
        <path d="M27.292,20.312 L27.292,20.312 C27.191,20.296 26.708,20.217 26.147,20.217 C25.588,20.217 25.103,20.296 25.001,20.312 L24.969,20.238 L26.147,19.337 L27.326,20.238 L27.292,20.312 L27.292,20.312 Z M25.324,25.942 L25.324,25.942 L25.245,26.019 C25.484,26.201 25.645,26.62 26.147,26.62 C26.646,26.62 26.815,26.201 27.054,26.019 L26.976,25.942 C26.976,25.943 26.659,26.019 26.147,26.019 C25.636,26.019 25.324,25.942 25.324,25.942 L25.324,25.942 Z M26.147,25.241 L26.147,25.241 C26.01,25.241 25.979,25.19 25.884,25.19 L25.578,25.324 L25.619,25.413 C25.821,25.447 25.91,25.558 26.147,25.558 C26.378,25.558 26.468,25.447 26.67,25.413 L26.711,25.324 L26.413,25.19 C26.314,25.19 26.285,25.241 26.147,25.241 L26.147,25.241 Z M37.514,27.388 L37.514,27.388 C37.505,27.663 37.472,27.932 37.441,28.198 C36.155,28.413 35.691,27.263 34.374,27.321 C34.448,27.599 34.517,27.889 34.562,28.179 C35.648,28.175 36.091,29.195 37.306,29.042 C37.24,29.354 37.161,29.664 37.071,29.965 C36.115,30.058 35.776,29.107 34.669,29.133 C34.682,29.29 34.684,29.446 34.684,29.608 C34.684,29.699 34.684,29.788 34.682,29.872 C35.622,29.865 35.931,30.737 36.834,30.694 C36.726,31.002 36.598,31.3 36.458,31.591 C35.813,31.559 35.591,30.73 34.601,30.796 C34.571,31.006 34.535,31.22 34.489,31.425 C35.347,31.366 35.531,32.153 36.146,32.215 C35.982,32.5 35.818,32.778 35.64,33.044 C35.28,32.849 34.962,32.266 34.278,32.228 C34.345,32.013 34.401,31.788 34.46,31.569 C33.845,31.569 33.151,31.33 32.568,30.796 C32.752,29.715 31.08,28.62 31.08,27.827 C31.08,26.969 31.514,26.498 31.514,25.337 C31.514,24.485 31.1,23.551 30.465,22.916 C30.349,22.789 30.219,22.69 30.077,22.6 C30.657,23.315 31.1,24.166 31.1,25.143 C31.1,26.232 30.595,26.808 30.595,27.815 C30.595,28.82 32.065,29.69 32.065,30.723 C32.065,31.132 31.933,31.533 31.504,32.315 C32.161,32.976 33.021,33.335 33.578,33.335 C33.761,33.335 33.858,33.277 33.926,33.137 C33.977,33.015 34.034,32.89 34.082,32.769 C34.682,32.792 34.955,33.335 35.285,33.552 C35.104,33.792 34.908,34.026 34.711,34.255 C34.489,34.01 34.191,33.601 33.752,33.486 C33.679,33.636 33.596,33.783 33.505,33.933 C33.884,34.032 34.137,34.414 34.336,34.66 C34.127,34.887 33.902,35.095 33.666,35.299 C33.524,35.073 33.302,34.788 33.041,34.634 C32.951,34.76 32.856,34.887 32.752,35.005 C32.968,35.152 33.157,35.411 33.281,35.626 C33.015,35.844 32.733,36.045 32.446,36.237 C32.305,35.082 30.73,34.292 31.151,32.954 C31.013,33.187 30.844,33.486 30.844,33.837 C30.844,34.81 31.881,35.579 31.958,36.545 C31.75,36.67 31.529,36.792 31.305,36.905 C31.267,35.848 30.175,34.688 30.175,33.815 C30.175,32.845 31.446,31.869 31.446,30.723 C31.446,29.581 29.976,28.786 29.976,27.779 C29.976,26.773 30.6,26.191 30.6,24.908 C30.6,23.964 30.151,23.004 29.46,22.394 C29.335,22.287 29.218,22.2 29.07,22.124 C29.727,22.907 30.105,23.621 30.105,24.7 C30.105,25.914 29.39,26.582 29.39,27.769 C29.39,28.957 30.824,29.619 30.824,30.723 C30.824,31.833 29.486,32.766 29.486,33.901 C29.486,34.935 30.668,35.968 30.686,37.198 C30.435,37.31 30.169,37.411 29.893,37.509 C30.046,36.267 28.714,34.983 28.714,33.974 C28.714,32.867 30.106,31.92 30.106,30.723 C30.106,29.533 28.69,28.979 28.69,27.753 C28.69,26.531 29.566,25.85 29.566,24.502 C29.566,23.445 29.04,22.497 28.282,21.912 L28.233,21.871 L28.154,21.951 C28.687,22.619 28.976,23.302 28.976,24.306 C28.976,25.545 27.979,26.549 27.979,27.747 C27.979,29.158 29.322,29.564 29.322,30.723 C29.322,31.888 27.884,32.813 27.884,34.045 C27.884,35.188 29.242,36.455 29.011,37.776 C28.737,37.845 28.46,37.905 28.18,37.956 C28.439,36.315 27.105,35.133 27.105,34.065 C27.105,32.899 28.591,31.86 28.591,30.723 C28.591,29.653 27.525,29.302 27.381,28.205 C27.368,28.058 27.243,27.946 27.08,27.974 C26.861,28.013 26.581,28.157 26.147,28.157 C25.709,28.157 25.437,28.013 25.216,27.974 C25.056,27.946 24.931,28.058 24.909,28.205 C24.771,29.302 23.704,29.653 23.704,30.723 C23.704,31.86 25.193,32.899 25.193,34.065 C25.193,35.133 23.858,36.315 24.109,37.956 C23.835,37.905 23.553,37.845 23.284,37.776 C23.048,36.455 24.411,35.188 24.411,34.045 C24.411,32.813 22.974,31.888 22.974,30.723 C22.974,29.564 24.313,29.158 24.313,27.747 C24.313,26.549 23.314,25.545 23.314,24.306 C23.314,23.302 23.601,22.619 24.145,21.951 L24.062,21.871 L24.014,21.912 C23.256,22.497 22.729,23.445 22.729,24.502 C22.729,25.85 23.598,26.531 23.598,27.753 C23.598,28.979 22.189,29.533 22.189,30.723 C22.189,31.92 23.576,32.867 23.576,33.974 C23.576,34.983 22.242,36.267 22.397,37.509 C22.127,37.411 21.865,37.31 21.608,37.198 C21.622,35.968 22.809,34.935 22.809,33.901 C22.809,32.766 21.464,31.833 21.464,30.723 C21.464,29.619 22.906,28.957 22.906,27.769 C22.906,26.582 22.191,25.914 22.191,24.7 C22.191,23.621 22.569,22.907 23.223,22.124 C23.079,22.2 22.958,22.287 22.836,22.394 C22.144,23.004 21.689,23.964 21.689,24.908 C21.689,26.191 22.32,26.773 22.32,27.779 C22.32,28.786 20.853,29.581 20.853,30.723 C20.853,31.869 22.125,32.845 22.125,33.815 C22.125,34.688 21.023,35.848 20.99,36.905 C20.766,36.792 20.549,36.67 20.332,36.545 C20.415,35.579 21.447,34.81 21.447,33.837 C21.447,33.486 21.282,33.187 21.143,32.954 C21.57,34.292 19.991,35.082 19.843,36.237 C19.564,36.045 19.283,35.844 19.014,35.626 C19.143,35.411 19.327,35.152 19.547,35.005 C19.44,34.887 19.346,34.76 19.255,34.634 C19,34.788 18.771,35.073 18.623,35.299 C18.396,35.095 18.172,34.887 17.953,34.66 C18.152,34.414 18.415,34.032 18.788,33.933 C18.703,33.783 18.616,33.636 18.543,33.486 C18.105,33.601 17.808,34.01 17.579,34.255 C17.388,34.026 17.191,33.792 17.012,33.552 C17.345,33.335 17.618,32.792 18.217,32.769 C18.265,32.89 18.313,33.015 18.373,33.137 C18.437,33.277 18.531,33.335 18.72,33.335 C19.269,33.335 20.128,32.976 20.792,32.315 C20.365,31.533 20.233,31.132 20.233,30.723 C20.233,29.69 21.706,28.82 21.706,27.815 C21.706,26.808 21.194,26.232 21.194,25.143 C21.194,24.166 21.64,23.315 22.217,22.6 C22.077,22.69 21.949,22.789 21.822,22.916 C21.199,23.551 20.78,24.485 20.78,25.337 C20.78,26.498 21.214,26.969 21.214,27.827 C21.214,28.62 19.541,29.715 19.729,30.796 C19.145,31.33 18.445,31.569 17.835,31.569 C17.888,31.788 17.949,32.013 18.017,32.228 C17.333,32.266 17.017,32.849 16.656,33.044 C16.477,32.778 16.306,32.5 16.15,32.215 C16.765,32.153 16.948,31.366 17.799,31.425 C17.756,31.22 17.722,31.006 17.689,30.796 C16.708,30.73 16.483,31.559 15.837,31.591 C15.701,31.3 15.573,31.002 15.462,30.694 C16.364,30.737 16.666,29.865 17.615,29.872 C17.609,29.788 17.609,29.699 17.609,29.608 C17.609,29.446 17.615,29.29 17.622,29.133 C16.519,29.107 16.176,30.058 15.219,29.965 C15.132,29.664 15.059,29.354 14.99,29.042 C16.198,29.195 16.641,28.175 17.73,28.179 C17.777,27.889 17.841,27.599 17.925,27.321 C16.599,27.263 16.144,28.413 14.856,28.198 C14.817,27.932 14.795,27.663 14.786,27.388 C16.277,27.558 16.839,26.328 18.202,26.478 C18.333,26.153 18.483,25.836 18.647,25.535 C16.935,25.234 16.356,26.666 14.77,26.444 C14.942,20.312 19.968,15.396 26.147,15.396 C32.326,15.396 37.354,20.312 37.53,26.444 C35.935,26.666 35.354,25.234 33.644,25.535 C33.812,25.836 33.967,26.153 34.089,26.478 C35.456,26.328 36.017,27.558 37.514,27.388 L37.514,27.388 Z M21.256,22.624 L21.256,22.624 C20.417,22.283 19.398,22.357 18.533,22.916 C18.4,22.111 17.966,21.394 17.343,20.959 C17.255,20.901 17.164,20.959 17.172,21.06 C17.304,22.764 16.306,24.239 15.083,25.535 C16.345,25.914 17.418,24.291 19.059,24.857 C19.643,23.986 20.391,23.226 21.256,22.624 L21.256,22.624 Z M26.147,21.596 L26.147,21.596 C25.088,21.596 24.209,22.187 23.974,22.96 L24.047,23.026 C24.238,22.943 24.456,22.901 24.689,22.901 C25.123,22.901 25.501,23.061 25.724,23.334 C25.821,23.662 25.834,24.135 25.722,24.408 C25.545,24.368 25.482,24.226 25.306,24.226 C25.133,24.226 24.997,24.352 24.706,24.352 C24.411,24.352 24.376,24.213 24.187,24.213 C23.953,24.213 23.911,24.447 23.911,24.71 C23.911,25.887 24.995,27.507 26.147,27.507 C27.302,27.507 28.379,25.887 28.379,24.71 C28.379,24.447 28.326,24.22 28.088,24.188 C27.97,24.27 27.862,24.352 27.592,24.352 C27.292,24.352 27.214,24.226 27.043,24.226 C26.836,24.226 26.856,24.668 26.605,24.697 C26.438,24.297 26.433,23.788 26.571,23.334 C26.795,23.061 27.173,22.901 27.603,22.901 C27.84,22.901 28.06,22.943 28.247,23.026 L28.322,22.96 C28.088,22.187 27.201,21.596 26.147,21.596 L26.147,21.596 Z M27.833,23.279 L27.833,23.279 C27.577,23.279 27.283,23.355 27.091,23.567 L27.102,23.76 C27.558,23.602 27.967,23.599 28.165,23.82 C28.267,23.724 28.302,23.64 28.302,23.541 C28.302,23.388 28.146,23.279 27.833,23.279 L27.833,23.279 Z M24.134,23.82 L24.134,23.82 C24.355,23.596 24.821,23.602 25.309,23.782 C25.327,23.545 24.898,23.279 24.464,23.279 C24.152,23.279 23.995,23.388 23.995,23.541 C23.995,23.64 24.032,23.724 24.134,23.82 L24.134,23.82 Z M31.418,19.838 L31.418,19.838 C30.581,19.896 29.856,20.181 29.268,20.661 C29.523,19.954 29.837,19.337 30.239,18.741 C29.175,18.853 28.284,19.24 27.637,19.905 L27.132,18.574 L28.258,17.579 L26.75,17.477 L26.147,16.074 L25.545,17.477 L24.035,17.579 L25.167,18.574 L24.657,19.905 C24.012,19.24 23.124,18.853 22.061,18.741 C22.457,19.337 22.774,19.954 23.022,20.661 C22.438,20.181 21.712,19.896 20.878,19.838 C21.379,20.478 21.821,21.163 22.151,21.899 L22.352,21.967 C23.499,21.401 24.782,21.084 26.147,21.084 C27.509,21.084 28.798,21.401 29.944,21.967 L30.145,21.899 C30.472,21.163 30.916,20.478 31.418,19.838 L31.418,19.838 Z M33.24,24.857 L33.24,24.857 C34.87,24.291 35.949,25.914 37.214,25.535 C35.991,24.239 34.993,22.764 35.128,21.06 C35.132,20.959 35.04,20.901 34.955,20.959 C34.332,21.394 33.895,22.111 33.761,22.916 C32.891,22.357 31.881,22.283 31.042,22.624 C31.905,23.226 32.649,23.986 33.24,24.857 L33.24,24.857 Z" id="Fill-47" fill="#5CBBA1"></path>
        <path d="M32.427,38.026 L32.314,38.026 L32.314,37.313 L32.059,37.313 L32.059,37.213 L32.694,37.213 L32.694,37.313 L32.427,37.313 L32.427,38.026" id="Fill-48" fill="#5CBBA1"></path>
        <path d="M33.224,37.838 L33.224,37.838 L33.469,37.213 L33.647,37.213 L33.647,38.026 L33.531,38.026 L33.531,37.348 L33.259,38.026 L33.184,38.026 L32.913,37.348 L32.913,38.026 L32.803,38.026 L32.803,37.213 L32.982,37.213 L33.224,37.838" id="Fill-49" fill="#5CBBA1"></path>
      </g>
      <g opacity="0" transform="translate(43.000000, 44.000000)">
        <path d="M43.79,24.918 L43.79,19.028 C33.423,19.028 25.017,10.624 25.017,0.26 L19.129,0.26 C19.129,10.624 10.727,19.028 0.356,19.028 L0.356,24.918 C10.724,24.918 19.129,33.322 19.129,43.688 L25.017,43.688 C25.017,33.322 33.423,24.918 43.79,24.918" id="Fill-50" fill="#FFFFFF"></path>
        <path d="M22.073,16.905 C19.202,16.905 16.874,19.232 16.874,22.103 C16.874,24.974 19.202,27.302 22.073,27.302 C24.944,27.302 27.273,24.974 27.273,22.103 C27.273,19.232 24.944,16.905 22.073,16.905 M29.865,22.103 C29.865,26.406 26.377,29.894 22.073,29.894 C17.771,29.894 14.281,26.406 14.281,22.103 C14.281,17.801 17.771,14.312 22.073,14.312 C26.377,14.312 29.865,17.801 29.865,22.103" id="Fill-51" fill="#E36869"></path>
        <path d="M22.073,19.433 C20.599,19.433 19.404,20.628 19.404,22.103 C19.404,23.579 20.599,24.774 22.073,24.774 C23.549,24.774 24.745,23.579 24.745,22.103 C24.745,20.628 23.549,19.433 22.073,19.433" id="Fill-52" fill="#E36869"></path>
      </g>
      <g opacity="0" transform="translate(33.000000, 3.000000)">
        <path d="M32.071,18.674 L32.073,18.674 L32.073,14.359 C24.474,14.359 18.315,8.197 18.315,0.598 L13.997,0.598 C13.997,8.197 7.837,14.357 0.239,14.357 L0.239,18.674 C7.837,18.674 13.997,24.834 13.997,32.434 L18.315,32.434 C18.315,24.834 24.474,18.674 32.071,18.674" id="Fill-53" fill="#B5DFE3"></path>
        <path d="M20.264,12.579 L20.264,12.579 C21.351,13.666 21.896,15.091 21.896,16.517 C21.896,17.941 21.351,19.366 20.264,20.454 C19.176,21.54 17.75,22.084 16.326,22.084 C14.9,22.084 13.476,21.54 12.388,20.454 C11.3,19.366 10.756,17.941 10.756,16.517 C10.756,15.091 11.3,13.666 12.388,12.579 C13.476,11.491 14.9,10.947 16.326,10.947 C17.75,10.947 19.176,11.491 20.264,12.579 L20.264,12.579 Z M20.218,12.624 L20.218,12.623 C19.144,11.549 17.733,11.012 16.326,11.012 C14.916,11.012 13.509,11.549 12.434,12.623 L12.434,12.624 C11.358,13.699 10.82,15.107 10.82,16.517 C10.82,17.925 11.358,19.333 12.434,20.408 C13.509,21.483 14.916,22.02 16.326,22.02 C17.733,22.02 19.144,21.483 20.218,20.408 C21.294,19.333 21.831,17.925 21.831,16.517 C21.831,15.107 21.294,13.699 20.218,12.624 L20.218,12.624 Z" id="Fill-54" fill="#378FB0"></path>
        <path d="M20.662,13.706 C20.768,14.044 20.825,14.401 20.825,14.773 C20.825,15.974 20.233,17.031 19.338,17.691 C17.775,18.842 15.502,18.843 12.359,19.83 C13.308,20.965 14.731,21.686 16.327,21.686 C19.181,21.686 21.493,19.372 21.493,16.515 C21.493,15.48 21.19,14.515 20.662,13.706" id="Fill-55" fill="#378FB0"></path>
        <path d="M19.425,12.38 C18.563,11.731 17.489,11.346 16.327,11.346 C13.471,11.346 11.157,13.661 11.157,16.515 C11.157,17.664 11.532,18.726 12.166,19.583 C15.644,18.571 18.389,15.844 19.425,12.38" id="Fill-56" fill="#E36869"></path>
      </g>
      <g opacity="0" transform="translate(116.000000, 0.000000)">
        <path d="M37.481,22.155 L37.483,22.155 L37.483,17.214 C28.784,17.214 21.731,10.158 21.731,1.461 L16.786,1.461 C16.786,10.158 9.733,17.214 1.036,17.214 L1.036,22.155 C9.733,22.155 16.786,29.21 16.786,37.911 L21.731,37.911 C21.731,29.21 28.784,22.155 37.481,22.155" id="Fill-57" fill="#B5DFE3"></path>
        <path d="M37.481,22.155 L37.481,22.655 L37.983,22.655 L37.983,16.714 L37.483,16.714 C33.271,16.714 29.461,15.007 26.699,12.246 C23.938,9.483 22.231,5.673 22.231,1.461 L22.231,0.961 L16.286,0.961 L16.286,1.461 C16.286,5.673 14.58,9.483 11.819,12.246 C9.058,15.007 5.248,16.714 1.036,16.714 L0.536,16.714 L0.536,22.655 L1.036,22.655 C5.248,22.655 9.058,24.362 11.819,27.124 C14.58,29.886 16.286,33.696 16.286,37.911 L16.286,38.41 L22.231,38.41 L22.231,37.911 C22.231,33.697 23.938,29.886 26.698,27.124 C29.46,24.362 33.269,22.655 37.481,22.655 L37.481,21.655 C28.508,21.655 21.231,28.934 21.231,37.911 L21.731,37.911 L21.731,37.411 L16.786,37.411 L16.786,37.911 L17.286,37.911 C17.286,28.934 10.01,21.655 1.036,21.655 L1.036,22.155 L1.536,22.155 L1.536,17.214 L1.036,17.214 L1.036,17.714 C10.01,17.714 17.286,10.435 17.286,1.461 L16.786,1.461 L16.786,1.961 L21.731,1.961 L21.731,1.461 L21.231,1.461 C21.231,10.435 28.508,17.714 37.483,17.714 L37.483,17.214 L36.983,17.214 L36.983,22.155 L37.483,22.155 L37.483,21.655 L37.481,21.655 L37.481,22.155" id="Fill-58" fill="#B5DFE3"></path>
        <path d="M23.009,15.273 L19.836,22.761 L18.961,20.841 L20.578,16.44 C20.701,16.101 21.125,15.942 21.844,15.942 L22.099,15.273 L18.33,15.273 L18.086,15.942 C18.621,15.942 18.839,16.101 18.756,16.44 L17.951,18.678 L16.373,15.273 C16.081,14.91 16.227,14.727 16.798,14.727 L16.798,13.937 L13.151,13.937 L13.151,14.727 C13.831,14.727 14.259,14.91 14.44,15.273 L17.115,20.963 L15.861,24.306 C15.838,24.754 15.133,24.973 13.772,24.973 L13.517,25.642 L23.921,25.642 L25.368,22.567 L24.614,22.567 C23.909,24.16 23.094,24.973 22.184,24.973 L17.406,24.973 L18.11,23.089 L18.719,24.306 L20.08,24.306 L23.921,15.273 C24.102,14.727 24.576,14.435 25.318,14.435 L25.318,13.73 L22.184,13.73 L22.184,14.435 C23.129,14.435 23.398,14.727 23.009,15.273" id="Fill-59" fill="#378FB0"></path>
      </g>
      <g opacity="0" transform="translate(0.000000, 29.000000)">
        <path d="M13.628,21.264 C13.628,20.895 13.513,20.617 13.278,20.43 C13.028,20.239 12.583,20.061 12.026,19.922 L12.026,21.667 L13.564,21.667 C13.602,21.544 13.628,21.415 13.628,21.264" id="Fill-61" fill="#FFFFFF"></path>
        <path d="M12.551,22.571 C12.767,22.51 12.946,22.42 13.11,22.3 C13.274,22.184 13.396,22.038 13.493,21.876 L13.564,21.667 L12.026,21.667 L12.026,22.675 C12.181,22.662 12.345,22.624 12.551,22.571" id="Fill-60" fill="#E36869"></path>
        <path d="M7.619,20.774 L9.663,20.774 C9.659,21.132 9.735,21.412 9.847,21.667 L11.206,21.667 L11.206,19.665 L10.999,19.598 C10.905,19.572 10.798,19.55 10.698,19.53 C10.333,19.439 10.032,19.329 9.691,19.202 C9.333,19.064 8.997,18.891 8.691,18.681 C8.433,18.457 8.254,18.182 8.092,17.865 C7.936,17.541 7.86,17.144 7.86,16.663 C7.86,16.176 7.95,15.735 8.128,15.363 C8.29,14.989 8.508,14.675 8.834,14.41 C9.183,14.162 9.555,13.961 9.946,13.821 C10.304,13.691 10.728,13.605 11.206,13.574 L11.206,12.454 L12.026,12.454 L12.026,13.574 C12.434,13.628 12.896,13.719 13.298,13.844 C13.66,13.986 13.96,14.187 14.222,14.429 C14.537,14.679 14.811,14.985 14.995,15.347 C15.188,15.712 15.302,16.151 15.326,16.646 L13.274,16.646 C13.267,16.253 13.132,15.93 12.891,15.663 C12.624,15.404 12.319,15.262 12.026,15.262 L12.026,17.813 C12.124,17.841 12.224,17.872 12.345,17.901 C12.467,17.928 12.618,17.967 12.776,18.013 C13.513,18.192 14.017,18.439 14.388,18.726 C14.831,19.006 15.12,19.306 15.313,19.604 C15.485,19.93 15.583,20.23 15.611,20.539 C15.649,20.838 15.667,21.124 15.667,21.36 C15.667,21.446 15.653,21.553 15.634,21.667 L22.523,21.667 C21.682,18.001 18.793,13.077 16.111,9.476 L16.091,9.456 C15.833,9.057 15.602,8.703 15.345,8.34 C14.981,7.742 14.785,7.017 15.247,5.967 L16.739,2.37 L14.316,1.295 L14.587,0.22 L8.61,0.22 L8.954,1.593 L6.523,2.37 L8.06,5.967 C8.747,7.753 7.745,8.602 7.073,9.476 C4.495,13.077 1.632,18.001 0.796,21.667 L7.771,21.667 C7.698,21.396 7.649,21.1 7.619,20.774 L7.619,20.774 Z M10.13,6.459 L13.192,6.459 L13.192,8.374 L10.13,8.374 L10.13,6.459 Z" id="Fill-62" fill="#FFFFFF"></path>
        <path d="M11.206,22.675 L11.206,21.667 L9.847,21.667 C9.917,21.813 9.976,21.96 10.073,22.081 C10.339,22.403 10.716,22.602 11.206,22.675" id="Fill-63" fill="#E36869"></path>
        <path d="M15.634,21.667 C15.606,21.816 15.577,21.977 15.523,22.165 C15.422,22.487 15.227,22.8 14.948,23.104 C14.647,23.407 14.239,23.684 13.822,23.927 C13.39,24.174 12.757,24.319 12.026,24.362 L12.026,25.586 L11.206,25.586 L11.206,24.362 C10.11,24.294 9.282,23.948 8.61,23.366 C8.226,22.938 7.937,22.375 7.771,21.667 L0.796,21.667 C0.638,22.352 0.548,22.991 0.548,23.569 C0.548,29.694 5.279,29.499 11.65,29.499 C17.909,29.499 22.771,29.694 22.771,23.569 C22.771,22.991 22.673,22.352 22.523,21.667 L15.634,21.667" id="Fill-64" fill="#E36869"></path>
        <path d="M10.269,15.562 C10.155,15.656 10.067,15.777 10.009,15.93 C9.942,16.08 9.905,16.249 9.905,16.459 C9.905,16.783 10.001,17.022 10.175,17.193 C10.343,17.378 10.698,17.508 11.206,17.617 L11.206,15.262 C11.024,15.262 10.85,15.28 10.677,15.332 C10.519,15.386 10.367,15.459 10.269,15.562" id="Fill-65" fill="#FFFFFF"></path>
      </g>
      <g opacity="0" transform="translate(101.000000, 37.000000)">
        <path d="M28.628,50.337 L8.691,50.337 C5.545,50.337 3,52.563 3,55.3 C3,58.045 5.547,60.263 8.691,60.263 C10.858,60.263 12.714,59.206 13.674,57.655 C14.642,59.206 16.504,60.263 18.663,60.263 C20.823,60.263 22.68,59.206 23.645,57.655 C24.613,59.206 26.469,60.263 28.628,60.263 C31.778,60.263 34.328,58.044 34.328,55.3 C34.328,52.563 31.778,50.337 28.628,50.337" id="Fill-66" fill="#FFFFFF" sketch:type="MSShapeGroup"></path>
        <path d="M23.645,59.078 C22.68,60.624 20.823,61.682 18.663,61.682 C16.504,61.682 14.642,60.624 13.674,59.076 C12.714,60.624 10.858,61.682 8.691,61.682 C6.981,61.682 5.466,61.018 4.42,59.97 L4.42,68.781 C4.42,70.344 5.694,71.613 7.268,71.613 L30.049,71.613 C31.631,71.613 32.906,70.345 32.906,68.781 L32.906,59.97 C31.859,61.018 30.336,61.682 28.628,61.682 C26.469,61.682 24.613,60.624 23.645,59.078" id="Fill-67" fill="#67B2CD" sketch:type="MSShapeGroup"></path>
        <path d="M17.242,46.076 L20.085,46.076 L20.085,50.338 L17.242,50.338 L17.242,46.076 Z" id="Fill-68" fill="#67B2CD" sketch:type="MSShapeGroup"></path>
        <path d="M18.669,36.154 L18.557,36.28 C18.439,36.405 15.821,39.344 15.821,41.857 C15.821,43.394 17.102,44.647 18.668,44.647 C20.231,44.647 21.505,43.393 21.505,41.857 C21.505,39.324 18.887,36.403 18.777,36.28 L18.669,36.154" id="Fill-69" fill="#F6C281" sketch:type="MSShapeGroup"></path>
        <path d="M25.785,46.076 L28.628,46.076 L28.628,50.338 L25.785,50.338 L25.785,46.076 Z" id="Fill-70" fill="#67B2CD" sketch:type="MSShapeGroup"></path>
        <path d="M27.212,36.154 L27.101,36.28 C26.989,36.406 24.375,39.344 24.375,41.858 C24.375,43.396 25.648,44.648 27.212,44.648 C28.775,44.648 30.049,43.394 30.049,41.858 C30.049,39.326 27.432,36.405 27.324,36.282 L27.212,36.154" id="Fill-71" fill="#F6C281" sketch:type="MSShapeGroup"></path>
        <path d="M8.687,46.076 L11.53,46.076 L11.53,50.338 L8.687,50.338 L8.687,46.076 Z" id="Fill-72" fill="#67B2CD" sketch:type="MSShapeGroup"></path>
        <path d="M10.113,36.154 L9.995,36.28 C9.883,36.406 7.268,39.344 7.268,41.858 C7.268,43.396 8.543,44.648 10.113,44.648 C11.676,44.648 12.951,43.394 12.951,41.858 C12.951,39.326 10.332,36.405 10.223,36.282 L10.113,36.154" id="Fill-73" fill="#F6C281" sketch:type="MSShapeGroup"></path>
        <path d="M2.1,37.551 C2.099,36.448 2.102,35.419 2.223,34.522 C2.313,33.849 2.469,33.253 2.724,32.743 C3.109,31.981 3.693,31.38 4.774,30.916 C5.855,30.458 7.441,30.175 9.706,30.176 L27.633,30.176 C29.643,30.175 31.119,30.398 32.179,30.77 C32.975,31.05 33.534,31.407 33.947,31.821 C34.564,32.44 34.883,33.217 35.055,34.192 C35.226,35.163 35.229,36.309 35.229,37.551 L36.479,37.551 C36.478,36.447 36.481,35.372 36.345,34.356 C36.242,33.594 36.06,32.861 35.725,32.186 C35.225,31.17 34.355,30.314 33.045,29.765 C31.734,29.212 29.995,28.927 27.633,28.926 L9.706,28.926 C7.604,28.927 5.995,29.152 4.74,29.591 C3.802,29.919 3.06,30.373 2.497,30.939 C1.648,31.787 1.236,32.855 1.042,33.977 C0.847,35.105 0.851,36.309 0.85,37.551 L2.1,37.551" id="Fill-74" fill="#FFFFFF" sketch:type="MSShapeGroup"></path>
        <text id="24" sketch:type="MSTextLayer" font-family="Open Sans" font-size="17.7536" font-weight="normal" fill="#FFFFFF">
          <tspan x="8.5049" y="19.5274563">24</tspan>
        </text>
      </g>
      <g opacity="0" transform="translate(49.000000, 96.000000)" fill="#E36869">
        <path d="M9.833,6.485 C10.822,5.176 12.291,4.438 13.742,4.189 C15.328,4.025 16.826,4.345 18.103,5.308 C19.423,6.305 20.278,7.756 20.399,9.208 C20.644,10.733 20.237,12.271 19.254,13.584 C18.268,14.889 16.91,15.691 15.363,15.897 C13.944,16.157 12.305,15.756 10.978,14.759 C9.703,13.796 8.997,12.426 8.7,10.877 C8.553,9.397 8.849,7.789 9.833,6.485 M22.163,15.777 C25.348,11.554 24.537,5.604 20.293,2.4 C16.157,-0.712 10.147,0.1 6.963,4.324 C4.168,8.033 4.462,13.106 7.452,16.432 L5.981,18.389 L2.581,15.828 L0.394,18.731 L3.794,21.294 L1.229,24.698 L4.117,26.873 L6.683,23.472 L10.095,26.042 L12.281,23.137 L8.873,20.567 L10.347,18.61 C14.394,20.587 19.369,19.487 22.163,15.777"></path>
      </g>
    </g>
    <g transform="translate(0.000000, 135.000000)" fill="#E36869">
      <path d="M47.30375,0.262527716 C56.34525,-0.741640798 65.689,1.2010643 73.567,5.80186253 C78.468,8.61090909 82.719,12.4864745 86.229,16.9199113 C91.9555,24.3100665 95.2055,33.6068293 95.3355,42.9889135 C95.537,52.5022616 92.53725,62.0451441 86.92775,69.6945455 C82.5955,75.5325055 76.89825,80.3827051 70.32025,83.4444346 C60.9505,87.8942794 49.98175,88.7409313 40.04,85.8465632 C27.17,82.2007095 16.315,72.12949 11.55375,59.5281596 C7.82925,49.8408869 7.69925,38.804878 11.18,29.0290022 C14.1115,20.6346785 19.7405,13.3003104 26.8775,8.10882483 C32.86725,3.78039911 39.97825,1.04682927 47.30375,0.262527716 L47.30375,0.262527716 Z M49.53325,9.70696231 C44.2065,10.0055876 38.97725,11.6463858 34.372,14.3537029 C27.58275,18.3277162 22.21375,24.7235477 19.487,32.1563636 C17.15025,38.2732594 16.70825,45.0858537 18.057,51.4882483 C19.7535,59.4395565 24.3165,66.7312639 30.72225,71.6667849 C36.57875,76.2380488 43.93675,78.8370732 51.34675,78.8501996 C57.86625,78.9256763 64.36625,76.9993792 69.85875,73.4749446 C76.1605,69.4582705 81.11675,63.315122 83.68425,56.2498448 C86.42725,48.9679823 86.55075,40.7049224 84.071,33.3311752 C81.53275,25.6128603 76.1995,18.8724612 69.2965,14.6785809 C63.414,11.0392905 56.42325,9.27050998 49.53325,9.70696231 L49.53325,9.70696231 Z" id="Shape" sketch:type="MSShapeGroup"></path>
      <path d="M47.8595,17.7993792 C53.0465,17.0577384 58.45125,17.8978271 63.154,20.2343237 C68.718,22.964612 73.268,27.72949 75.764,33.4427494 C78.3965,39.3857206 78.73775,46.3098891 76.73575,52.4924169 C74.0155,61.1459867 66.6315,68.0931264 57.8825,70.1933481 C52.24375,71.5978714 46.15,71.0695344 40.84925,68.6706874 C35.25925,66.1766741 30.59225,61.6611973 27.8785,56.1349889 C25.1355,50.6186253 24.40425,44.1276275 25.818,38.122306 C27.014,32.9308204 29.8155,28.1429712 33.7155,24.5529047 C37.61225,20.9300222 42.61075,18.5311752 47.8595,17.7993792 L47.8595,17.7993792 Z M47.92125,26.1937029 C43.004,27.184745 38.5775,30.348204 35.984,34.6799113 C33.42625,38.8606652 32.669,44.0980931 33.90075,48.8498448 C35.18125,53.97898 38.78875,58.4419512 43.4915,60.7686031 C47.49875,62.7933481 52.25675,63.2199557 56.55975,61.972949 C61.4315,60.5946785 65.64025,57.0571175 67.88925,52.4858537 C70.09925,48.0819512 70.421,42.7690466 68.77975,38.122306 C67.249,33.7052772 63.97625,29.9478492 59.8455,27.8312195 C56.20875,25.94102 51.9285,25.3700222 47.92125,26.1937029 L47.92125,26.1937029 Z" id="Shape" sketch:type="MSShapeGroup"></path>
      <path d="M61.78575,42.0044346 C63.04675,47.2287361 59.6375,52.9813747 54.51225,54.3826164 C49.79975,55.8855876 44.30725,53.4243902 42.198,48.9286031 C39.9945,44.6329933 41.262,38.9328603 45.058,35.9925499 C46.345,34.9490022 47.88225,34.2303326 49.4975,33.9021729 C54.89575,32.6486031 60.73925,36.5274501 61.78575,42.0044346 Z" id="Shape" sketch:type="MSShapeGroup"></path>
      <path d="M47.1315,95.7832373 C58.67875,94.7626608 70.56725,97.3912195 80.483,103.491707 C89.5115,108.994945 96.8825,117.395831 100.70775,127.358758 C103.2785,133.787406 103.97075,140.790333 103.74325,147.668559 C69.2445,147.661996 34.7425,147.694812 0.24375,147.652151 C0.195,143.162927 0.273,138.634324 1.248,134.233703 C3.328,124.274058 8.9375,115.210288 16.5555,108.597871 C25.04775,101.171619 35.958,96.7217738 47.1315,95.7832373 L47.1315,95.7832373 Z" id="Shape" sketch:type="MSShapeGroup"></path>
    </g>
  </g>
</svg>