
<svg width="582px" height="414px" viewBox="0 0 582 414" version="1.1" xmlns="http://www.w3.org/2000/svg" xmlns:xlink="http://www.w3.org/1999/xlink" xmlns:sketch="http://www.bohemiancoding.com/sketch/ns">
    <g id="Page-1" stroke="none" stroke-width="1" fill="none" fill-rule="evenodd" sketch:type="MSPage">
        <g id="fb" sketch:type="MSLayerGroup" transform="translate(187.000000, 111.000000)">

            <g id="js-fb-char">
                <path d="M162.605,91.429 L129.749,91.429 L129.749,73.039 C129.749,65.394 138.999,60.779 142.9,60.779 L162.611,60.779 L162.611,24 L135.403,24.005 C98.827,24.005 90.494,49.07 90.494,65.113 L90.294,91.429 L64,91.429 L64,128.208 L90.294,128.208 L90.294,220.157 L129.749,220.157 L129.749,128.208 L156.037,128.208 L162.605,91.429" id="Imported-Layers" fill="#378FB0" sketch:type="MSShapeGroup"></path>
            </g>

            <g id="js-fb-target" fill="#F26E70">
                <path d="M101.72571,0.686151985 C125.356903,-1.93837936 149.778068,3.13914533 170.368295,15.1639589 C183.177727,22.5057851 194.288295,32.6351038 203.462159,44.2224955 C218.429148,63.5376739 226.923466,87.836031 227.263239,112.357388 C227.789886,137.22182 219.949631,162.163445 205.288437,182.156198 C193.965511,197.414503 179.074972,210.091161 161.882472,218.093409 C137.393352,229.723685 108.725028,231.936525 82.7409091,224.371699 C49.1034091,214.842764 20.7323864,188.520258 8.28821023,155.584963 C-1.44627841,130.265954 -1.78605114,101.42184 7.31136364,75.8712558 C14.9732386,53.9315461 29.6853977,34.762175 48.3389205,21.1935195 C63.9939489,9.88058859 82.579517,2.73603104 101.72571,0.686151985 L101.72571,0.686151985 Z M107.552813,25.3704697 C93.630625,26.1509675 79.963267,30.4394175 67.9268182,37.5153598 C50.1821875,47.9019855 36.1495739,64.6183632 29.0228409,84.0450413 C22.9154261,100.032383 21.7601989,117.838027 25.2853409,134.571558 C29.719375,155.353386 41.6453977,174.411258 58.3876989,187.310915 C73.6944602,199.258537 92.9255966,206.051441 112.292642,206.085749 C129.332244,206.283018 146.320881,201.248377 160.676278,192.036787 C177.146761,181.538662 190.100597,165.482705 196.811108,147.01664 C203.980313,127.984499 204.303097,106.387865 197.821932,87.1155715 C191.187869,66.9427031 177.248693,49.3257509 159.206761,38.3644729 C143.832045,28.852691 125.560767,24.229742 107.552813,25.3704697 L107.552813,25.3704697 Z" id="Shape"></path>
                <path d="M103.178239,46.5211046 C116.73517,44.5827253 130.861222,46.7784116 143.1525,52.8851643 C157.694773,60.0211449 169.586818,72.4748035 176.110455,87.4071861 C182.990852,102.939952 183.882756,121.03721 178.650256,137.196089 C171.540511,159.813374 152.24142,177.970671 129.374716,183.459887 C114.637074,187.1308 98.7102273,185.749919 84.8559943,179.480206 C70.245767,172.961762 58.0479261,161.159948 50.9551705,146.716448 C43.7859659,132.29868 41.8747443,115.333572 45.5697727,99.6378452 C48.6956818,86.0691897 56.0177841,73.5554928 66.2109659,64.1723644 C76.3956534,54.703467 89.4599148,48.4337533 103.178239,46.5211046 L103.178239,46.5211046 Z M103.339631,68.4608144 C90.4877273,71.0510381 78.9184659,79.3191695 72.14,90.6406773 C65.4549716,101.567648 63.4757955,115.25638 66.695142,127.675731 C70.0419034,141.081425 79.4705966,152.746009 91.761875,158.827031 C102.235369,164.118978 114.671051,165.233975 125.917528,161.974753 C138.650511,158.372455 149.650653,149.126557 155.528722,137.178936 C161.304858,125.668736 162.145795,111.782735 157.856165,99.6378452 C153.855341,88.093338 145.301563,78.2727877 134.505284,72.7406874 C125.000142,67.8003931 113.813125,66.3080125 103.339631,68.4608144 L103.339631,68.4608144 Z" id="Shape"></path>
                <path d="M139.576392,109.784318 C142.872188,123.438742 133.961648,138.474048 120.566108,142.136384 C108.249347,146.064604 93.8939489,139.631929 88.3811364,127.881576 C82.6219886,116.654414 85.9347727,101.756339 95.8561364,94.0714372 C99.2198864,91.3439831 103.237699,89.465642 107.459375,88.607952 C121.568438,85.3315763 136.841222,95.4694719 139.576392,109.784318 Z" id="Shape"></path>
            </g>
            <g transform="translate(103.000000, 106.000000)" stroke="#FFFFFF" stroke-width="2" sketch:type="MSShapeGroup">
                <g id="js-fb-dart" opacity="0">
                    <g id="js-fb-dart-shadow" transform="translate(9, 9)" opacity="1">
                        <path stroke-width="0" d="M22.4894123,1.00710136 C22.0387049,2.19818422 22.6838182,1.46652828 21.768402,2.28012496 C21.2918742,2.70364969 20.8018132,3.11434739 20.3496816,3.55211242 C16.7802699,6.79995761 16.6786712,7.31233962 13.1378147,10.586926 C13.1473332,13.5308935 13.2282398,16.5745329 12.1978697,19.372639 C11.7171889,20.6100291 10.915261,21.925212 9.57554184,22.2825722 C8.28817401,22.5572776 6.70335521,22.4381576 5.8181411,21.3174565 C5.18278582,20.4179784 5.04952778,19.2778292 4.72828073,18.2422139 C3.36952466,19.2340708 2.26062742,20.5322364 0.906630577,21.5289554 C0.549689405,21.1983364 0.230821958,20.821528 0,20.3888061 C1.17076704,19.25595 2.52476389,18.3102825 3.55751368,17.031565 C2.41292232,16.5526537 1.07320312,16.0907595 0.521134111,14.8460763 C-0.349802349,13.3339807 0.292691761,11.250595 1.79422429,10.4459268 C4.2951921,9.09427863 7.23638736,9.3130706 9.97055674,9.41760454 C10.8319748,9.40544943 11.886141,9.79684395 12.5548108,9.04079615 C16.8166884,5.20464368 16.0287771,5.61388776 20.2906547,1.77530426 C20.7808539,1.31097909 22.3323582,0.943894789 22.4894123,1.00710136 Z" id="dart" opacity="0.1" fill="#000000" sketch:type="MSShapeGroup" transform="translate(11.244706, 11.703706) rotate(-90.000000) translate(-11.244706, -11.703706) "></path>
                    </g>
                    <g id="js-fb-dart-wrapper">
                        <path d="M10,0.1171875 L10,19.1328125"></path>
                        <path d="M19.2929688,9 L0.27734375,9"></path>
                    </g>
                </g>
            </g>
        </g>

    </g>

    <g id="twitter" sketch:type="MSLayerGroup" transform="translate(187.000000, 111.000000)">
        <g id="js-twitter-char" opacity="0">
            <path d="M8,185.84244 C11.53375,186.269819 15.1225,186.497295 18.76625,186.497295 C39.91375,186.497295 59.376875,179.031948 74.825,166.506983 C55.073125,166.127857 38.408125,152.630949 32.660625,134.074425 C35.410625,134.618989 38.243125,134.915397 41.15125,134.915397 C45.269375,134.915397 49.25,134.34326 53.038125,133.274812 C32.3925,128.987235 16.8275,110.10673 16.8275,87.4763177 L16.8275,86.8903947 C22.911875,90.392146 29.87625,92.4876822 37.27375,92.7289446 C25.16,84.3605863 17.191875,70.0571732 17.191875,53.8581271 C17.191875,45.2967589 19.419375,37.2730611 23.30375,30.37985 C45.57875,58.6282292 78.833125,77.2261128 116.35,79.1699983 C115.58,75.7509656 115.18125,72.1871754 115.18125,68.5268803 C115.18125,42.7324843 135.386875,21.825375 160.315625,21.825375 C173.295625,21.825375 185.024375,27.4984878 193.25375,36.5768468 C203.53875,34.4813106 213.198125,30.5935395 221.9225,25.2444077 C218.55375,36.1494677 211.396875,45.3036521 202.0675,51.0870562 C211.21125,49.9496764 219.90125,47.4405475 228,43.7182135 C221.95,53.0860874 214.298125,61.3165815 205.4775,67.8995981 C205.57375,69.9055226 205.615,71.9183402 205.615,73.9380511 C205.608125,135.659863 160.205625,206.825375 77.19,206.825375 C51.6975,206.825375 27.971875,199.098085 8,185.84244 Z" id="twitter-icon" fill="#378EB0" sketch:type="MSShapeGroup"></path>
        </g>
        <g id="js-twitter-target" fill="#F26E70" sketch:type="MSShapeGroup">
            <g opacity="0">
                <path d="M103.178239,46.5211046 C116.73517,44.5827253 130.861222,46.7784116 143.1525,52.8851643 C157.694773,60.0211449 169.586818,72.4748035 176.110455,87.4071861 C182.990852,102.939952 183.882756,121.03721 178.650256,137.196089 C171.540511,159.813374 152.24142,177.970671 129.374716,183.459887 C114.637074,187.1308 98.7102273,185.749919 84.8559943,179.480206 C70.245767,172.961762 58.0479261,161.159948 50.9551705,146.716448 C43.7859659,132.29868 41.8747443,115.333572 45.5697727,99.6378452 C48.6956818,86.0691897 56.0177841,73.5554928 66.2109659,64.1723644 C76.3956534,54.703467 89.4599148,48.4337533 103.178239,46.5211046 L103.178239,46.5211046 Z M103.339631,68.4608144 C90.4877273,71.0510381 78.9184659,79.3191695 72.14,90.6406773 C65.4549716,101.567648 63.4757955,115.25638 66.695142,127.675731 C70.0419034,141.081425 79.4705966,152.746009 91.761875,158.827031 C102.235369,164.118978 114.671051,165.233975 125.917528,161.974753 C138.650511,158.372455 149.650653,149.126557 155.528722,137.178936 C161.304858,125.668736 162.145795,111.782735 157.856165,99.6378452 C153.855341,88.093338 145.301563,78.2727877 134.505284,72.7406874 C125.000142,67.8003931 113.813125,66.3080125 103.339631,68.4608144 L103.339631,68.4608144 Z" id="Shape"></path>
            </g>
            <g opacity="0">
                <path d="M139.576392,109.784318 C142.872188,123.438742 133.961648,138.474048 120.566108,142.136384 C108.249347,146.064604 93.8939489,139.631929 88.3811364,127.881576 C82.6219886,116.654414 85.9347727,101.756339 95.8561364,94.0714372 C99.2198864,91.3439831 103.237699,89.465642 107.459375,88.607952 C121.568438,85.3315763 136.841222,95.4694719 139.576392,109.784318 Z" id="Shape"></path>
            </g>
            <g opacity="0">
                <path d="M101.72571,0.686151985 C125.356903,-1.93837936 149.778068,3.13914533 170.368295,15.1639589 C183.177727,22.5057851 194.288295,32.6351038 203.462159,44.2224955 C218.429148,63.5376739 226.923466,87.836031 227.263239,112.357388 C227.789886,137.22182 219.949631,162.163445 205.288437,182.156198 C193.965511,197.414503 179.074972,210.091161 161.882472,218.093409 C137.393352,229.723685 108.725028,231.936525 82.7409091,224.371699 C49.1034091,214.842764 20.7323864,188.520258 8.28821023,155.584963 C-1.44627841,130.265954 -1.78605114,101.42184 7.31136364,75.8712558 C14.9732386,53.9315461 29.6853977,34.762175 48.3389205,21.1935195 C63.9939489,9.88058859 82.579517,2.73603104 101.72571,0.686151985 L101.72571,0.686151985 Z M107.552813,25.3704697 C93.630625,26.1509675 79.963267,30.4394175 67.9268182,37.5153598 C50.1821875,47.9019855 36.1495739,64.6183632 29.0228409,84.0450413 C22.9154261,100.032383 21.7601989,117.838027 25.2853409,134.571558 C29.719375,155.353386 41.6453977,174.411258 58.3876989,187.310915 C73.6944602,199.258537 92.9255966,206.051441 112.292642,206.085749 C129.332244,206.283018 146.320881,201.248377 160.676278,192.036787 C177.146761,181.538662 190.100597,165.482705 196.811108,147.01664 C203.980313,127.984499 204.303097,106.387865 197.821932,87.1155715 C191.187869,66.9427031 177.248693,49.3257509 159.206761,38.3644729 C143.832045,28.852691 125.560767,24.229742 107.552813,25.3704697 L107.552813,25.3704697 Z" id="Shape"></path>
            </g>
        </g>
        <g id="js-twitter-darts">
            <g opacity="0">
                <g id="js-wrapper">
                    <path stroke-width="0" d="M180.463235,28.3033954 C180.012528,29.4944783 180.657641,28.7628223 179.742225,29.576419 C179.265697,29.9999438 178.775636,30.4106415 178.323504,30.8484065 C174.754093,34.0962517 174.652494,34.6086337 171.111638,37.8832201 C171.121156,40.8271876 171.202063,43.8708269 170.171692,46.6689331 C169.691012,47.9063232 168.889084,49.221506 167.549365,49.5788662 C166.261997,49.8535717 164.677178,49.7344516 163.791964,48.6137506 C163.156609,47.7142725 163.023351,46.5741232 162.702104,45.5385079 C161.343347,46.5303648 160.23445,47.8285305 158.880453,48.8252495 C158.523512,48.4946305 158.204645,48.1178221 157.973823,47.6851002 C159.14459,46.552244 160.498587,45.6065765 161.531337,44.327859 C160.386745,43.8489477 159.047026,43.3870536 158.494957,42.1423704 C157.62402,40.6302748 158.266515,38.5468891 159.768047,37.7422208 C162.269015,36.3905727 165.21021,36.6093647 167.94438,36.7138986 C168.805798,36.7017435 169.859964,37.093138 170.528634,36.3370902 C174.790511,32.5009377 174.0026,32.9101818 178.264478,29.0715983 C178.754677,28.6072732 180.306181,28.2401889 180.463235,28.3033954 Z" id="dart-5" opacity="0.1" fill="#000000" sketch:type="MSShapeGroup" transform="translate(169.218529, 39.000000) rotate(-104.000000) translate(-169.218529, -39.000000) "></path>
                    <g id="cross-2" transform="translate(146.000000, 21.000000)" stroke="#FFFFFF" stroke-width="2" sketch:type="MSShapeGroup">
                        <path d="M10,0.1171875 L10,19.1328125" id="Path-7"></path>
                        <path d="M19.2929688,9 L0.27734375,9" id="Path-8"></path>
                    </g>
                </g>
            </g>
            <g opacity="0">
                <g id="js-wrapper">
                    <path d="M215.808136,182.420008 C215.357428,183.611091 216.002542,182.879435 215.087125,183.693031 C214.610598,184.116556 214.120537,184.527254 213.668405,184.965019 C210.098993,188.212864 209.129232,189.399762 205.588376,192.674349 C205.597894,195.618316 205.678801,198.661955 204.64843,201.460062 C204.16775,202.697452 203.365822,204.012635 202.026103,204.369995 C200.738735,204.6447 199.153916,204.52558 198.268702,203.404879 C197.633347,202.505401 197.500089,201.365252 197.178842,200.329636 C195.820086,201.321493 194.711188,202.619659 193.357191,203.616378 C193.00025,203.285759 192.681383,202.908951 192.450561,202.476229 C193.621328,201.343373 194.975325,200.397705 196.008075,199.118988 C194.863483,198.640076 193.523764,198.178182 192.971695,196.933499 C192.100758,195.421403 192.743253,193.338018 194.244785,192.533349 C196.745753,191.181701 199.686948,191.400493 202.421118,191.505027 C203.282536,191.492872 204.336702,191.884267 205.005372,191.128219 C209.267249,187.292066 209.347501,187.026794 213.609378,183.188211 C214.099577,182.723886 215.651082,182.356801 215.808136,182.420008 Z" id="dart-3" opacity="0.1" fill="#000000" sketch:type="MSShapeGroup" transform="translate(204.129348, 193.453870) rotate(-93.000000) translate(-204.129348, -193.453870) "></path>
                    <g id="cross-3" transform="translate(182.000000, 173.000000)" stroke="#FFFFFF" stroke-width="2" sketch:type="MSShapeGroup">
                        <g id="js-wrapper">
                            <path d="M10,0.1171875 L10,19.1328125" id="Path-7"></path>
                            <path d="M19.2929688,9 L0.27734375,9" id="Path-8"></path>
                        </g>
                    </g>
                </g>
            </g>
            <g opacity="0">
                <g id="js-wrapper">
                    <path d="M124.948412,159.007101 C124.497705,160.198184 125.142818,159.466528 124.227402,160.280125 C123.750874,160.70365 123.260813,161.114347 122.808681,161.552112 C119.23927,164.799958 119.137671,165.31234 115.596815,168.586926 C115.606333,171.530894 115.68724,174.574533 114.656869,177.372639 C114.176189,178.610029 113.374261,179.925212 112.034542,180.282572 C110.747174,180.557278 109.162355,180.438158 108.277141,179.317456 C107.641786,178.417978 107.508528,177.277829 107.187281,176.242214 C105.828524,177.234071 104.719627,178.532236 103.36563,179.528955 C103.008689,179.198336 102.689822,178.821528 102.459,178.388806 C103.629767,177.25595 104.983764,176.310282 106.016513,175.031565 C104.871922,174.552654 103.532203,174.09076 102.980134,172.846076 C102.109197,171.333981 102.751692,169.250595 104.253224,168.445927 C106.754192,167.094279 109.695387,167.313071 112.429557,167.417605 C113.290975,167.405449 114.345141,167.796844 115.013811,167.040796 C119.275688,163.204644 118.487777,163.613888 122.749654,159.775304 C123.239854,159.310979 124.791358,158.943895 124.948412,159.007101 Z" id="dart-2" opacity="0.1" fill="#000000" sketch:type="MSShapeGroup" transform="translate(113.703706, 169.703706) rotate(-90.000000) translate(-113.703706, -169.703706) "></path>
                    <g id="cross-4" transform="translate(94.000000, 151.000000)" stroke="#FFFFFF" stroke-width="2" sketch:type="MSShapeGroup">
                        <g id="js-wrapper">
                            <path d="M10,0.1171875 L10,19.1328125" id="Path-7"></path>
                            <path d="M19.2929688,9 L0.27734375,9" id="Path-8"></path>
                        </g>
                    </g>
                </g>
            </g>
            <g opacity="0">
                <g id="js-wrapper">
                    <path d="M49.9591823,54.660063 C49.5084749,55.8511458 50.1535882,55.1194899 49.238172,55.9330866 C48.7616443,56.3566113 48.2715832,56.767309 47.8194516,57.205074 C44.2500399,60.4529192 46.3632139,58.8419904 42.8223575,62.1165768 C42.8318759,65.0605443 42.9127826,68.1041836 41.8824124,70.9022898 C41.4017316,72.1396799 40.5998038,73.4548627 39.2600846,73.8122229 C37.9727168,74.0869284 36.387898,73.9678083 35.5026838,72.8471073 C34.8673286,71.9476292 34.7340705,70.8074799 34.4128235,69.7718646 C33.0540674,70.7637215 31.9451702,72.0618872 30.5911733,73.0586062 C30.2342321,72.7279872 29.9153647,72.3511788 29.6845427,71.9184569 C30.8553098,70.7856007 32.2093066,69.8399332 33.2420564,68.5612157 C32.0974651,68.0823044 30.7577459,67.6204103 30.2056769,66.3757271 C29.3347404,64.8636315 29.9772345,62.7802458 31.478767,61.9755775 C33.9797348,60.6239294 36.9209301,60.8427214 39.6550995,60.9472553 C40.5165175,60.9351002 41.5706838,61.3264947 42.2393536,60.5704469 C46.5012312,56.7342944 43.4985471,59.2668494 47.7604247,55.4282659 C48.2506239,54.9639407 49.8021282,54.5968564 49.9591823,54.660063 Z" id="dart-4" opacity="0.1" fill="#000000" sketch:type="MSShapeGroup" transform="translate(39.821863, 64.295012) rotate(-93.000000) translate(-39.821863, -64.295012) "></path>
                    <g id="cross-5" transform="translate(20.000000, 47.000000)" stroke="#FFFFFF" stroke-width="2" sketch:type="MSShapeGroup">
                        <g id="js-wrapper">
                            <path d="M10,0.1171875 L10,19.1328125" id="Path-7"></path>
                            <path d="M19.2929688,9 L0.27734375,9" id="Path-8"></path>
                        </g>
                    </g>
                </g>
            </g>
        </g>

    </g>
</svg>