<?xml version="1.0" encoding="UTF-8" standalone="no"?>
<svg width="281px" height="264px" viewBox="0 0 281 264" version="1.1" xmlns="http://www.w3.org/2000/svg" xmlns:xlink="http://www.w3.org/1999/xlink" xmlns:sketch="http://www.bohemiancoding.com/sketch/ns" class="tailored-block__svg">
    <g id="Page-1" stroke="none" stroke-width="1" fill="none" fill-rule="evenodd" sketch:type="MSPage">
        <g id="js-influencers-analysis-3-humans" opacity="0">
            <g id="js-influencers-analysis-human-center" sketch:type="MSLayerGroup" transform="translate(118.000000, 39.000000)" fill="#2F98C2">
                <path d="M21.474,0.439 C11.77,0.439 3.905,8.305 3.905,18.006 C3.905,27.708 11.77,35.57 21.474,35.57 C31.173,35.57 39.037,27.708 39.037,18.006 C39.037,8.305 31.173,0.439 21.474,0.439" id="Fill-1" sketch:type="MSShapeGroup"></path>
                <path d="M42.434,58.037 C42.434,47.406 33.049,38.789 21.474,38.789 C9.894,38.789 0.511,47.406 0.511,58.037 C0.511,58.597 0.459,59.151 0.511,59.7 L42.434,59.7 C42.484,59.153 42.434,58.598 42.434,58.037" id="Fill-2" sketch:type="MSShapeGroup"></path>
            </g>
            <g id="" sketch:type="MSLayerGroup" transform="translate(170.000000, 60.000000)" fill="#2F98C2">
                <g id="js-influencers-analysis-3-human-right">
                    <path d="M18.749,30.814 C27.167,30.814 33.996,23.989 33.996,15.566 C33.996,7.145 27.167,0.317 18.749,0.317 C10.327,0.317 3.499,7.145 3.499,15.566 C3.499,23.989 10.327,30.814 18.749,30.814" id="Fill-3" sketch:type="MSShapeGroup"></path>
                    <path d="M36.944,50.318 C36.944,41.089 28.798,33.609 18.749,33.609 C8.696,33.609 0.552,41.089 0.552,50.318 C0.552,50.803 0.507,51.285 0.552,51.762 L36.944,51.762 C36.987,51.286 36.944,50.805 36.944,50.318" id="Fill-4" sketch:type="MSShapeGroup"></path>
                </g>
            </g>
            <g id="" sketch:type="MSLayerGroup" transform="translate(71.000000, 60.000000)" fill="#2F98C2">
                <g id="js-influencers-analysis-3-human-left">
                    <path d="M19.198,30.814 C10.779,30.814 3.951,23.989 3.951,15.566 C3.951,7.145 10.779,0.317 19.198,0.317 C27.62,0.317 34.448,7.145 34.448,15.566 C34.448,23.989 27.62,30.814 19.198,30.814" id="Fill-5" sketch:type="MSShapeGroup"></path>
                    <path d="M1.003,50.318 C1.003,41.089 9.148,33.609 19.198,33.609 C29.251,33.609 37.395,41.089 37.395,50.318 C37.395,50.803 37.44,51.285 37.395,51.762 L1.003,51.762 C0.959,51.286 1.003,50.805 1.003,50.318" id="Fill-6" sketch:type="MSShapeGroup"></path>
                </g>
            </g>
        </g>
        <g id="js-influencers-analysis-red-human" opacity="0">
            <g id="" sketch:type="MSLayerGroup" transform="translate(73.000000, 141.000000)" fill="#F26D70">
                <path d="M67.089,0.463 C53.593,0.463 42.653,11.401 42.653,24.895 C42.653,38.388 53.593,49.323 67.089,49.323 C80.579,49.323 91.517,38.388 91.517,24.895 C91.517,11.401 80.579,0.463 67.089,0.463" id="Fill-7" sketch:type="MSShapeGroup"></path>
                <path d="M96.24,80.572 C96.24,65.958 83.488,54.089 67.649,53.814 C67.543,53.685 67.426,53.559 67.297,53.439 C63.174,53.396 59.054,53.341 54.931,53.311 C37.191,53.176 25.105,42.597 22.835,25.012 C22.564,22.902 21.89,22.271 19.866,22.312 C14.851,22.418 9.815,22.598 4.819,22.265 C0.876,22.003 0.154,23.482 0.539,27.081 C2.679,47.054 12.638,61.758 30.705,70.245 C34.385,71.975 37.303,73.454 38.332,76.176 C38.073,77.606 37.934,79.074 37.934,80.572 C37.934,81.35 37.86,82.122 37.934,82.885 L96.24,82.885 C96.31,82.124 96.24,81.352 96.24,80.572" id="Fill-8" sketch:type="MSShapeGroup"></path>
            </g>
        </g>
        <g id="js-influencers-analysis-arrows" opacity="0">
            <g id="" sketch:type="MSLayerGroup" transform="translate(27.000000, 88.000000)" fill="#FFFFFF">
                <path d="M212.96,101.253 L225.452,90.823 L218.233,88.176 C221.85,77.252 223.815,65.584 223.815,53.463 C223.815,36.216 219.85,19.878 212.784,5.31 L205.189,8.968 C211.718,22.429 215.384,37.525 215.384,53.463 C215.384,64.564 213.601,75.256 210.315,85.272 L202.044,82.239 L206.315,106.801 L212.853,101.343 L212.906,101.368 C212.925,101.33 212.941,101.291 212.96,101.253" id="Fill-9" sketch:type="MSShapeGroup"></path>
                <path d="M15.798,21.85 L23.86,24.806 L19.589,0.244 L13.475,5.349 L13.394,5.31 C13.365,5.368 13.339,5.429 13.311,5.486 L0.452,16.222 L7.878,18.945 C4.304,29.813 2.362,41.414 2.362,53.463 C2.362,70.612 6.282,86.863 13.273,101.368 L20.868,97.71 C14.413,84.312 10.794,69.303 10.794,53.463 C10.794,42.435 12.552,31.81 15.798,21.85" id="Fill-10" sketch:type="MSShapeGroup"></path>
            </g>
        </g>
    </g>
</svg>