<svg width="316px" height="331px" viewBox="0 0 316 331" version="1.1" xmlns="http://www.w3.org/2000/svg" xmlns:xlink="http://www.w3.org/1999/xlink" xmlns:sketch="http://www.bohemiancoding.com/sketch/ns" class="tailored-block__svg">
    <g id="Page-1" stroke="none" stroke-width="1" fill="none" fill-rule="evenodd" sketch:type="MSPage">
        <g id="js-influencers-analysis-compass" sketch:type="MSLayerGroup" transform="translate(45.000000, 47.000000)">
            <g id="js-influencers-analysis-humans" opacity="0">
                <g id="js-influencers-analysis-human-n">
                    <g transform="translate(92.000000, 0.000000)" sketch:type="MSShapeGroup">
                        <path d="M4.738,18.073 C4.738,27.859 12.665,35.789 22.453,35.789 L22.453,0.359 C12.665,0.359 4.738,8.288 4.738,18.073" id="Fill-1" fill="#66BBDE"></path>
                        <path d="M40.171,18.073 C40.171,8.288 32.239,0.359 22.453,0.359 L22.453,35.789 C32.239,35.789 40.171,27.859 40.171,18.073" id="Fill-2" fill="#B6E3EE"></path>
                        <path d="M0.965,56.887 C0.965,57.458 0.912,58.028 0.965,58.591 L22.453,58.591 L22.453,37.154 C10.585,37.154 0.965,45.988 0.965,56.887" id="Fill-3" fill="#66BBDE"></path>
                        <path d="M43.946,56.887 C43.946,45.988 34.32,37.154 22.453,37.154 L22.453,58.591 L43.946,58.593 C43.995,58.03 43.946,57.461 43.946,56.887" id="Fill-4" fill="#B6E3EE"></path>
                    </g>
                </g>
                <g id="js-influencers-analysis-human-s">
                    <g id="" transform="translate(92.000000, 177.000000)" sketch:type="MSShapeGroup">
                        <path d="M4.735,18.489 C4.735,28.275 12.665,36.206 22.45,36.206 L22.45,0.774 C12.665,0.774 4.735,8.703 4.735,18.489" id="Fill-5" fill="#66BBDE"></path>
                        <path d="M40.168,18.489 C40.168,8.703 32.236,0.774 22.45,0.774 L22.45,36.206 C32.236,36.206 40.168,28.275 40.168,18.489" id="Fill-6" fill="#B6E3EE"></path>
                        <path d="M0.962,57.302 C0.962,57.877 0.91,58.443 0.962,59.005 L22.45,59.008 L22.45,37.569 C10.585,37.569 0.962,46.403 0.962,57.302" id="Fill-7" fill="#66BBDE"></path>
                        <path d="M43.944,57.302 C43.944,46.403 34.317,37.569 22.45,37.569 L22.45,59.008 L43.944,59.008 C43.99,58.446 43.944,57.877 43.944,57.302" id="Fill-8" fill="#B6E3EE"></path>
                    </g>
                </g>
                <g id="js-influencers-analysis-human-e">
                    <g id="" transform="translate(182.000000, 98.000000)" sketch:type="MSShapeGroup">
                        <path d="M4.268,18.314 C4.268,28.101 12.199,36.032 21.985,36.032 L21.985,0.6 C12.199,0.6 4.268,8.531 4.268,18.314" id="Fill-9" fill="#66BBDE"></path>
                        <path d="M39.705,18.314 C39.705,8.531 31.772,0.6 21.985,0.6 L21.985,36.032 C31.772,36.032 39.705,28.101 39.705,18.314" id="Fill-10" fill="#B6E3EE"></path>
                        <path d="M0.497,57.128 C0.497,57.702 0.442,58.271 0.497,58.832 L21.985,58.832 L21.985,37.394 C10.12,37.394 0.497,46.229 0.497,57.128" id="Fill-11" fill="#66BBDE"></path>
                        <path d="M43.477,57.128 C43.477,46.229 33.853,37.394 21.985,37.394 L21.985,58.832 L43.477,58.834 C43.528,58.271 43.477,57.702 43.477,57.128" id="Fill-12" fill="#B6E3EE"></path>
                    </g>
                </g>
                <g id="js-influencers-analysis-human-w">
                    <g id="" transform="translate(0.000000, 98.000000)" sketch:type="MSShapeGroup">
                        <path d="M4.295,18.314 C4.295,28.101 12.226,36.032 22.012,36.032 L22.012,0.6 C12.226,0.6 4.295,8.531 4.295,18.314" id="Fill-13" fill="#66BBDE"></path>
                        <path d="M39.729,18.314 C39.729,8.531 31.799,0.6 22.012,0.6 L22.012,36.032 C31.799,36.032 39.729,28.101 39.729,18.314" id="Fill-14" fill="#B6E3EE"></path>
                        <path d="M0.524,57.128 C0.524,57.702 0.47,58.271 0.524,58.832 L22.012,58.832 L22.012,37.394 C10.148,37.394 0.524,46.229 0.524,57.128" id="Fill-15" fill="#66BBDE"></path>
                        <path d="M43.505,57.128 C43.505,46.229 33.88,37.394 22.012,37.394 L22.012,58.832 L43.505,58.834 C43.553,58.271 43.505,57.702 43.505,57.128" id="Fill-16" fill="#B6E3EE"></path>
                    </g>
                </g>
            </g>
            <g id="js-influencers-analysis-circle" opacity="0">
                <g id="" transform="translate(22.000000, 24.000000)" fill="#E36869" sketch:type="MSShapeGroup">
                    <path d="M160.336,143.329 C150.638,156.205 137.369,166.246 122.007,171.966 C121.469,176.277 120.021,180.306 117.854,183.843 L118.168,184.97 C141.521,178.48 161.315,163.385 173.916,143.329 L160.336,143.329" id="Fill-17"></path>
                    <path d="M24.574,143.329 L10.993,143.329 C23.596,163.383 43.386,178.475 66.733,184.965 L67.05,183.831 C64.888,180.294 63.444,176.273 62.905,171.969 C47.543,166.249 34.275,156.205 24.574,143.329" id="Fill-18"></path>
                    <path d="M181.982,62.584 C182.637,62.584 183.278,62.623 183.915,62.68 C174.255,32.946 150.489,9.535 120.538,0.368 C119.763,4.148 118.243,7.656 116.139,10.735 C142.659,18.447 163.855,38.746 172.802,64.719 C175.578,63.365 178.687,62.584 181.982,62.584" id="Fill-19"></path>
                    <path d="M0.983,62.73 C4.905,62.909 8.551,64.144 11.622,66.188 C20.265,39.517 41.751,18.595 68.765,10.737 C66.662,7.659 65.141,4.15 64.366,0.372 C34.4,9.544 10.63,32.974 0.983,62.73" id="Fill-20"></path>
                </g>
            </g>
            <g id="js-influencers-analysis-star" opacity="0">
                <g id="" transform="translate(96.000000, 97.000000)" fill="#E36869" sketch:type="MSShapeGroup">
                    <path d="M36.599,21.394 L36.599,16.475 C27.938,16.475 20.912,9.453 20.912,0.787 L15.994,0.787 C15.994,9.453 8.967,16.475 0.309,16.475 L0.309,21.394 C8.967,21.394 15.994,28.413 15.994,37.077 L20.912,37.077 C20.912,28.413 27.938,21.394 36.599,21.394" id="start"></path>
                </g>
            </g>
        </g>
    </g>
</svg>