
<svg width="396px" height="331px" viewBox="0 0 396 331" version="1.1" xmlns="http://www.w3.org/2000/svg" xmlns:xlink="http://www.w3.org/1999/xlink" xmlns:sketch="http://www.bohemiancoding.com/sketch/ns" class="tailored-block__svg">
    <g id="Page-1" stroke="none" stroke-width="1" fill="none" fill-rule="evenodd" sketch:type="MSPage">
        <g id="js-influencers-analysis-teacher-+-js-influencers-analysis-students" sketch:type="MSLayerGroup" transform="translate(89.000000, 52.000000)">
            <g id="js-influencers-analysis-teacher" sketch:type="MSShapeGroup" opacity="0">
                <path d="M83.086,128.365 C88.683,128.365 94.078,127.927 99.289,127.497 C104.955,127.028 110.814,126.559 116.668,126.647 L115.914,90.722 C108.665,90.621 100.239,90.672 93.898,91.177 C72.129,92.88 40.727,76.474 39.889,38.362 L0.19,38.362 C3.943,90.722 36.744,126.467 83.086,128.365" id="Fill-1" fill="#378FB0"></path>
                <path d="M74.557,41.694 C74.557,64.708 93.069,83.365 115.914,83.365 L115.914,0.009 C93.069,0.009 74.557,18.689 74.557,41.694" id="Fill-2" fill="#378FB0"></path>
                <path d="M157.243,41.694 C157.243,18.689 138.732,0.009 115.914,0.009 L115.914,83.365 C138.732,83.365 157.243,64.708 157.243,41.694" id="Fill-3" fill="#B6E3EE"></path>
                <path d="M65.071,137.765 C65.071,139.137 64.97,140.484 65.071,141.818 L115.914,141.818 L115.914,90.722 C87.847,90.722 65.071,111.757 65.071,137.765" id="Fill-4" fill="#378FB0"></path>
                <path d="M166.73,137.765 C166.73,111.757 143.955,90.722 115.914,90.722 L115.914,141.818 L166.73,141.824 C166.864,140.484 166.73,139.137 166.73,137.765" id="Fill-5" fill="#B6E3EE"></path>
            </g>
            <g id="js-influencers-analysis-students" transform="translate(14.000000, 120.000000)" fill="#F26E70" sketch:type="MSShapeGroup" opacity="0">
                <g id="" transform="translate(64.000000, 0.000000)">
                    <g id="js-influencers-analysis-student-center">
                        <path d="M38.003,0.439 C21.08,0.439 7.393,14.268 7.393,31.307 C7.393,48.342 21.08,62.155 38.003,62.155 C54.902,62.155 68.602,48.342 68.602,31.307 C68.602,14.268 54.902,0.439 38.003,0.439" id="Fill-6"></path>
                        <path d="M75.136,102.031 C75.136,83.03 58.503,67.669 38.003,67.669 C17.491,67.669 0.869,83.03 0.869,102.031 C0.869,103.037 0.789,104.028 0.869,104.997 L38.003,104.997 L75.136,105.009 C75.227,104.035 75.136,103.037 75.136,102.031" id="Fill-7"></path>
                    </g>
                </g>
                <g id="" transform="translate(139.000000, 14.000000)">
                    <g id="js-influencers-analysis-student-2">
                        <path d="M32.507,53.769 C47.182,53.769 59.09,41.766 59.09,26.956 C59.09,12.156 47.182,0.133 32.507,0.133 C17.802,0.133 5.903,12.156 5.903,26.956 C5.903,41.766 17.802,53.769 32.507,53.769" id="Fill-8"></path>
                        <path d="M64.777,88.418 C64.777,71.915 50.317,58.571 32.507,58.571 C14.68,58.571 0.227,71.915 0.227,88.418 C0.227,89.302 0.154,90.157 0.227,91.004 L32.507,91.004 L64.777,91.009 C64.851,90.161 64.777,89.302 64.777,88.418" id="Fill-9"></path>
                    </g>
                </g>
                <g id="" transform="translate(0.000000, 14.000000)">
                    <g id="js-influencers-analysis-student-1">
                        <path d="M32.327,53.769 C47.031,53.769 58.932,41.766 58.932,26.956 C58.932,12.156 47.031,0.133 32.327,0.133 C17.642,0.133 5.731,12.156 5.731,26.956 C5.731,41.766 17.642,53.769 32.327,53.769" id="Fill-10"></path>
                        <path d="M64.606,88.418 C64.606,71.915 50.153,58.571 32.327,58.571 C14.504,58.571 0.053,71.915 0.053,88.418 C0.053,89.302 -0.024,90.161 0.053,91.009 L32.327,91.004 L64.606,91.004 C64.673,90.157 64.606,89.302 64.606,88.418" id="Fill-11"></path>
                    </g>
                </g>
            </g>
        </g>
    </g>
</svg>