<?xml version="1.0" encoding="UTF-8" standalone="no"?>
<svg width="58px" height="71px" viewBox="0 0 58 71" version="1.1" xmlns="http://www.w3.org/2000/svg" xmlns:xlink="http://www.w3.org/1999/xlink" xmlns:sketch="http://www.bohemiancoding.com/sketch/ns">
    <!-- Generator: Sketch 3.0.1 (7597) - http://www.bohemiancoding.com/sketch -->
    <title>csv-icon</title>
    <description>Created with Sketch.</description>
    <defs>
        <filter x="-50%" y="-50%" width="200%" height="200%" filterUnits="objectBoundingBox" id="filter-1">
            <feOffset dx="-1" dy="1" in="SourceAlpha" result="shadowOffsetOuter1"></feOffset>
            <feGaussianBlur stdDeviation="0" in="shadowOffsetOuter1" result="shadowBlurOuter1"></feGaussianBlur>
            <feColorMatrix values="0 0 0 0 0   0 0 0 0 0   0 0 0 0 0  0 0 0 0.0858554121 0" in="shadowBlurOuter1" type="matrix" result="shadowMatrixOuter1"></feColorMatrix>
            <feMerge>
                <feMergeNode in="shadowMatrixOuter1"></feMergeNode>
                <feMergeNode in="SourceGraphic"></feMergeNode>
            </feMerge>
        </filter>
    </defs>
    <g id="Page-1" stroke="none" stroke-width="1" fill="none" fill-rule="evenodd" sketch:type="MSPage">
        <path d="M57,18 L57,71 L6,71 L6,1 L40,1 L57,18 Z" id="Rectangle-41" fill="#FFFFFF" sketch:type="MSShapeGroup"></path>
        <path d="M40,1 L40,18 L57,18 L40,1 Z" id="Path-26" fill="#FFFFFF" filter="url(#filter-1)" sketch:type="MSShapeGroup"></path>
        <rect id="Rectangle-40" fill="#0DDDB8" sketch:type="MSShapeGroup" x="0" y="10" width="34" height="17"></rect>
        <text id="CSV" sketch:type="MSTextLayer" font-family="Open Sans" font-size="10" font-weight="normal" sketch:alignment="middle" letter-spacing="1" fill="#FFFFFF">
            <tspan x="6.62548828" y="22">CSV</tspan>
        </text>
        <path d="M25,53 L25,49 L25,49 L20,49 L20,53 L25,53 Z M25,55 L25,59 L25,59 L20,59 L20,55 L25,55 Z M27,53 L27,49 L27,49 L43,49 L43,53 L27,53 Z M27,55 L27,59 L43,59 L43,55 L27,55 Z M25,47 L25,43 L25,43 L20,43 L20,47 L25,47 L25,47 Z M27,47 L27,43 L27,43 L43,43 L43,47 L27,47 L27,47 Z M25,41 L25,37.9441833 L25,37.9441833 L20,37.9441833 L20,41 L25,41 Z M27,41 L27,37.9441833 L43,37.9441833 L43,41 L27,41 L27,41 Z M43.9721657,61 L45,61 L45,36 L44.9443315,36 L44.9443315,35.9441833 L18,35.9441833 L18,36.9720917 L18,61 L19,61 L43.9721657,61 L43.9721657,61 Z" id="Rectangle-12" fill="#0DDDB8" sketch:type="MSShapeGroup"></path>
    </g>
</svg>