<?xml version="1.0" encoding="UTF-8" standalone="no"?>
<svg width="42px" height="47px" viewBox="0 0 42 47" version="1.1" xmlns="http://www.w3.org/2000/svg" xmlns:xlink="http://www.w3.org/1999/xlink" xmlns:sketch="http://www.bohemiancoding.com/sketch/ns">
    <!-- Generator: Sketch 3.1.1 (8761) - http://www.bohemiancoding.com/sketch -->
    <title>Untitled 4</title>
    <desc>Created with Sketch.</desc>
    <defs>
        <filter x="-50%" y="-50%" width="200%" height="200%" filterUnits="objectBoundingBox" id="filter-1">
            <feOffset dx="-1" dy="1" in="SourceAlpha" result="shadowOffsetOuter1"></feOffset>
            <feGaussianBlur stdDeviation="0" in="shadowOffsetOuter1" result="shadowBlurOuter1"></feGaussianBlur>
            <feColorMatrix values="0 0 0 0 0   0 0 0 0 0   0 0 0 0 0  0 0 0 0.07 0" in="shadowBlurOuter1" type="matrix" result="shadowMatrixOuter1"></feColorMatrix>
            <feMerge>
                <feMergeNode in="shadowMatrixOuter1"></feMergeNode>
                <feMergeNode in="SourceGraphic"></feMergeNode>
            </feMerge>
        </filter>
    </defs>
    <g id="Page-1" stroke="none" stroke-width="1" fill="none" fill-rule="evenodd" sketch:type="MSPage">
        <g id="csv-icon-3" sketch:type="MSLayerGroup" transform="translate(1.000000, 0.000000)">
            <path d="M40,47 L5,47 L5,0 L28,0 L40,11 L40,47 Z" id="Rectangle-41" fill="#FFFFFF" sketch:type="MSShapeGroup"></path>
            <path d="M28.4593754,0 L28.4593754,11.4142857 L40,11.4142857 L28.4593754,0 L28.4593754,0 Z" id="Path-26" fill="#FFFFFF" filter="url(#filter-1)" sketch:type="MSShapeGroup"></path>
            <rect id="Rectangle-40" fill="#57B2D9" sketch:type="MSShapeGroup" x="1" y="6" width="23" height="11"></rect>
            <rect id="Rectangle-8" fill="#57B2D9" sketch:type="MSShapeGroup" x="15" y="24" width="17" height="2"></rect>
            <rect id="Rectangle-9" fill="#57B2D9" sketch:type="MSShapeGroup" x="15" y="28" width="17" height="2"></rect>
            <rect id="Rectangle-10" fill="#57B2D9" sketch:type="MSShapeGroup" x="15" y="32" width="17" height="2"></rect>
            <rect id="Rectangle-11" fill="#57B2D9" sketch:type="MSShapeGroup" x="15" y="36" width="17" height="2"></rect>
            <path d="M5.63565683,25.5120761 C5.68231175,25.503175 5.72922444,25.4951869 5.77639489,25.4887964 C5.90682248,25.4707661 6.04008545,25.4698532 6.17128632,25.4828624 C6.2040221,25.4867423 6.2372734,25.491307 6.27000918,25.4965563 C6.37388728,25.5136737 6.47596104,25.540605 6.57365285,25.5768939 C6.60071786,25.5873926 6.62778288,25.5983477 6.65459013,25.6099875 C6.73862055,25.6465046 6.81852678,25.6900969 6.89276224,25.7403079 C6.91724964,25.757197 6.94147927,25.7745426 6.96519337,25.7923447 C7.0396866,25.848718 7.10670473,25.9121664 7.17655824,25.9733325 C7.18506439,25.9808642 7.20207668,25.9959275 7.21058283,26.0034591 C7.28507605,26.0698746 7.35956928,26.1360618 7.43457803,26.2020208 C7.44256865,26.2093242 7.45880766,26.2237028 7.46705605,26.2310062 C7.5420648,26.2978782 7.61733131,26.3645218 7.69285558,26.4311655 C7.70110397,26.4384689 7.71734298,26.4528476 7.72559136,26.460151 C7.80008459,26.5265664 7.87483558,26.5925254 7.94958656,26.6587126 C7.95809271,26.6662443 7.97536277,26.681764 7.98412668,26.6892957 C8.05810438,26.7552547 8.13233984,26.8212137 8.20683307,26.8869444 C8.21533922,26.8942479 8.23209375,26.9093112 8.24034213,26.9166146 C8.31483536,26.9828018 8.38932859,27.048989 8.46407958,27.114948 C8.47232796,27.1224797 8.48908249,27.1373147 8.49758864,27.1446181 C8.57285515,27.2119465 8.64837943,27.2788184 8.72441923,27.3456904 C8.73240985,27.3529938 8.74839109,27.3671441 8.75638172,27.3742193 C8.83061718,27.4401783 8.90485265,27.5061373 8.97934587,27.5718681 C8.98759426,27.5791715 9.00434879,27.5940066 9.01259717,27.60131 C9.08683264,27.667269 9.1610681,27.7334562 9.23581909,27.799187 C9.24432524,27.8067186 9.26133753,27.8217819 9.26984368,27.8293135 C9.34485243,27.8964137 9.4203767,27.9630574 9.49590098,28.0299293 C9.5038916,28.0370045 9.51987285,28.0511549 9.52786347,28.05823 C9.60184117,28.1244173 9.6763344,28.1903763 9.75082763,28.256107 C9.75959154,28.2636387 9.77686159,28.2791584 9.7856255,28.2869183 C9.8596032,28.3528773 9.93383867,28.4188363 10.0085897,28.4845671 C10.0170958,28.4920987 10.0343659,28.5073902 10.042872,28.5149219 C10.117623,28.5813373 10.192374,28.6477528 10.2673827,28.71394 C10.2761466,28.7216999 10.2936745,28.7372197 10.3024384,28.7449795 C10.375385,28.8102538 10.4488472,28.8750717 10.5220516,28.940346 C10.5395794,28.9558657 10.5568495,28.9716137 10.5743773,28.9873617 C10.6377868,29.0448761 10.6952677,29.1074116 10.7455313,29.1745118 C10.7617703,29.1966503 10.7777516,29.2192452 10.793475,29.2422966 C10.8432231,29.3171567 10.8842073,29.3968096 10.915912,29.4792012 C10.9277691,29.5118384 10.9391106,29.5451602 10.9491633,29.5784821 C10.9764861,29.6716007 10.9922096,29.7672298 10.9953027,29.8635436 C10.996076,29.9005171 10.9955605,29.9377189 10.9945294,29.9749207 C10.9865388,30.1141421 10.953803,30.2524506 10.8973531,30.3825427 C10.8633285,30.4587721 10.8218289,30.532491 10.7759472,30.6034711 C10.6529947,30.7744167 10.4882848,30.9218545 10.2954788,31.0309493 C10.219439,31.0699769 10.1405638,31.1055811 10.059111,31.1347947 C9.90728918,31.188201 9.74593015,31.2201534 9.58276678,31.2276851 C9.53559633,31.2288262 9.48868364,31.2290545 9.44177095,31.2276851 C9.33815062,31.2240334 9.23530357,31.209883 9.13503414,31.1870598 C9.09636983,31.1779305 9.05822105,31.1678883 9.02033004,31.1569332 C8.92985556,31.1290889 8.84247423,31.0934848 8.75973262,31.0510337 C8.72983223,31.0352857 8.70070512,31.0190812 8.67209353,31.0021921 C8.59476492,30.9556328 8.52284932,30.9024548 8.45608895,30.8447121 C8.4442319,30.8342134 8.42103332,30.8134444 8.40917626,30.8029457 C8.33958052,30.7410949 8.26946924,30.6790158 8.1998735,30.617165 C8.18801644,30.6066663 8.16430234,30.5861255 8.15270304,30.5758551 C8.08233401,30.5130913 8.01196498,30.4505558 7.94108042,30.3882485 C7.92948113,30.3777498 7.90602478,30.3565243 7.89416773,30.3460256 C7.82405646,30.2839466 7.75394518,30.2216393 7.68357615,30.1597885 C7.67197686,30.149518 7.64877828,30.128749 7.63743675,30.1182503 C7.59052406,30.0767121 7.54412689,30.0349457 7.49644092,29.9943204 C7.48613044,29.9858758 7.47607772,29.9774313 7.46576724,29.9692149 C7.47040695,31.7218069 7.46808709,33.4743989 7.46705605,35.2267627 C7.46473619,35.279256 7.45932318,35.3315211 7.4510748,35.3837862 C7.40854406,35.5832608 7.31806959,35.7758884 7.17990914,35.9388459 C7.09484767,36.0378985 6.99560929,36.1269089 6.88528714,36.203823 C6.69222338,36.335741 6.46126861,36.4222409 6.22129216,36.4580733 C6.18417442,36.4624097 6.14705669,36.4658332 6.10993896,36.4690284 C5.99446157,36.4779294 5.87769537,36.4751907 5.76299127,36.4592144 C5.71633634,36.4523675 5.66993918,36.4448358 5.62405753,36.4352501 C5.52713901,36.4142528 5.43254035,36.3843544 5.34232364,36.3462397 C5.31603191,36.3343716 5.28974018,36.3227318 5.26396398,36.3104073 C5.17838699,36.2684126 5.09719195,36.2191146 5.02269872,36.1627413 C5.00156223,36.1463086 4.98094127,36.1303324 4.96083583,36.1136715 C4.89639533,36.060037 4.83736782,36.0013814 4.78504213,35.9383895 C4.76493669,35.9137404 4.74560454,35.8888632 4.72730343,35.8635294 C4.67678208,35.7946034 4.6345091,35.721341 4.60022675,35.6451116 C4.58991627,35.6220602 4.58037908,35.5990088 4.57109964,35.5759574 C4.53449744,35.4801 4.51104109,35.3805909 4.50021509,35.2801689 C4.49892628,35.2712679 4.49660642,35.2536941 4.49557537,35.244793 C4.48938908,33.495168 4.4940288,31.745543 4.49325551,29.9956898 C4.17259955,30.2796102 3.85297463,30.563987 3.5320609,30.8476791 C3.36503111,30.9948886 3.15753267,31.1051246 2.93276418,31.1683448 C2.87322116,31.1836363 2.81342037,31.197102 2.75258853,31.2073724 C2.62473856,31.2283698 2.49379545,31.2338473 2.36414115,31.2247181 C2.31851727,31.2206099 2.27289339,31.2153606 2.22778503,31.2087418 C2.13241308,31.1945915 2.03884547,31.1715401 1.94888652,31.140957 C1.91924388,31.1302301 1.89011678,31.119275 1.86124743,31.1076351 C1.7759282,31.0731721 1.69473316,31.0311775 1.61869336,30.9825641 C1.59343268,30.9659032 1.56842976,30.949014 1.54394237,30.9316684 C1.47331557,30.881001 1.40835954,30.8241713 1.34984756,30.7630051 C1.32974212,30.7415513 1.31015221,30.7198693 1.29133558,30.6979591 C1.23514346,30.6320001 1.18642644,30.56102 1.1459578,30.4866164 C1.13306969,30.4628803 1.12095488,30.438916 1.10935559,30.4149516 C1.06837143,30.3277671 1.03821327,30.2367026 1.0196544,30.1438122 C1.01398364,30.1152833 1.00908616,30.0865261 1.00496197,30.0579971 C0.990527293,29.9413706 0.992589389,29.8229183 1.01346811,29.7069766 C1.02145874,29.6633843 1.03099593,29.6200203 1.0420797,29.5768845 C1.11167545,29.3422622 1.25447561,29.1258984 1.45114804,28.9570069 C2.61442808,27.9256274 3.77719259,26.8940196 4.94073039,25.8628683 C5.13070101,25.6926074 5.37402837,25.5714163 5.63565683,25.5120761 L5.63565683,25.5120761 Z" id="Shape" stroke="#FFFFFF" fill="#57B2D9" sketch:type="MSShapeGroup" transform="translate(5.935067, 31.040695) rotate(91.000000) translate(-5.935067, -31.040695) "></path>
            <path d="M7,14 L6,14 L6,9 L9,9 L9,10 L7,10 L7,12 L9,12 L7,12 L7,14 Z M7,11 L7,12 L9,12 L9,11 L7,11 Z M10,14 L10,9 L11,9 L11,14 L10,14 Z M12,14 L12,9 L13,9 L13,13 L15,13 L15,14 L12,14 Z M19,14 L16,14 L16,9 L19,9 L19,10 L17,10 L17,11 L19,11 L19,12 L17,12 L17,13 L19,13 L19,14 Z" id="FILE" fill="#FFFFFF" sketch:type="MSShapeGroup"></path>
        </g>
    </g>
</svg>