<?xml version="1.0" encoding="UTF-8" standalone="no"?>
<svg width="57px" height="70px" viewBox="0 0 57 70" version="1.1" xmlns="http://www.w3.org/2000/svg" xmlns:xlink="http://www.w3.org/1999/xlink" xmlns:sketch="http://www.bohemiancoding.com/sketch/ns">
    <!-- Generator: Sketch 3.3.3 (12072) - http://www.bohemiancoding.com/sketch -->
    <title>Untitled 23</title>
    <desc>Created with Sketch.</desc>
    <defs></defs>
    <g id="Page-1" stroke="none" stroke-width="1" fill="none" fill-rule="evenodd" sketch:type="MSPage">
        <g id="Group" sketch:type="MSLayerGroup">
            <path d="M57,17 L57,70 L6,70 L6,0 L40,0 L57,17 L57,17 Z" id="Rectangle-41" fill="#FFFFFF" sketch:type="MSShapeGroup"></path>
            <path d="M39,1 L39,18 L56,18 L39,1 L39,1 Z" id="Path-26-Copy" fill="#E4E4E4" sketch:type="MSShapeGroup"></path>
            <path d="M40,0 L40,17 L57,17 L40,0 L40,0 Z" id="Path-26" fill="#FFFFFF" sketch:type="MSShapeGroup"></path>
            <rect id="Rectangle-40" fill="#39579A" sketch:type="MSShapeGroup" x="0" y="9" width="34" height="17"></rect>
        </g>
        <path d="M35.127,43.25 L31.419,43.25 L31.419,41 C31.419,40.06475 32.463,39.5 32.90325,39.5 L35.12775,39.5 L35.12775,35 L32.05725,35.00075 C27.93,35.00075 26.99025,38.0675 26.99025,40.03025 L26.967,43.25 L24,43.25 L24,47.75 L26.967,47.75 L26.967,59 L31.419,59 L31.419,47.75 L34.38525,47.75 L35.127,43.25 L35.127,43.25 Z" id="Shape" fill="#39579A" sketch:type="MSShapeGroup"></path>
        <path d="M12.0358122,21.4366464 L11.1013184,21.4366464 L11.1013184,13.3999996 L15.5813917,13.3999996 L15.5813917,14.23005 L12.0358122,14.23005 L12.0358122,17.170957 L15.3670078,17.170957 L15.3670078,18.0010074 L12.0358122,18.0010074 L12.0358122,21.4366464 Z M16.9116711,13.3999996 L19.1819414,13.3999996 C20.248369,13.3999996 21.0197768,13.5594117 21.4961878,13.8782406 C21.9725988,14.1970695 22.2108007,14.7009582 22.2108007,15.3899217 C22.2108007,15.8663327 22.0779573,16.2593659 21.8122666,16.5690331 C21.5465758,16.8787002 21.1590396,17.0793395 20.6496463,17.170957 L20.6496463,17.2259272 C21.8699914,17.4348151 22.4801548,18.076128 22.4801548,19.1498851 C22.4801548,19.8681663 22.2373721,20.428857 21.7517993,20.831974 C21.2662266,21.235091 20.5873511,21.4366464 19.7151525,21.4366464 L16.9116711,21.4366464 L16.9116711,13.3999996 Z M17.8461649,16.8411357 L19.3853312,16.8411357 C20.0449772,16.8411357 20.5195487,16.7376094 20.80906,16.5305539 C21.0985713,16.3234984 21.2433248,15.9744409 21.2433248,15.4833711 C21.2433248,15.032613 21.0820804,14.7073758 20.7595868,14.5076496 C20.4370932,14.3079235 19.9240429,14.2080619 19.2204205,14.2080619 L17.8461649,14.2080619 L17.8461649,16.8411357 Z M17.8461649,17.6327069 L17.8461649,20.6395782 L19.5227567,20.6395782 C20.1714086,20.6395782 20.6597226,20.5140641 20.9877132,20.2630321 C21.3157039,20.0120002 21.4796967,19.618967 21.4796967,19.0839208 C21.4796967,18.5855216 21.3120392,18.2190571 20.9767192,17.9845163 C20.6413991,17.7499755 20.1310973,17.6327069 19.4457984,17.6327069 L17.8461649,17.6327069 Z" id="FB" fill="#FFFFFF" sketch:type="MSShapeGroup"></path>
    </g>
</svg>