<svg version="1.1" id="Layer_1" class="svg"
	 xmlns="http://www.w3.org/2000/svg" xmlns:xlink="http://www.w3.org/1999/xlink" x="0px" y="0px" width="885px" height="1032px"
	 viewBox="0 0 885 1032" enable-background="new 0 0 885 1032" xml:space="preserve">

<g id="js-slide5--target1" opacity="0" transform="translate(0, -15)">
	<g id="js-slide5--target1__lines" opacity="0" >
		<path fill="none" stroke="#ED696E" stroke-width="9" stroke-miterlimit="10" d="M193.009,174.364
			c7.496-22.982,25.81-41.076,48.929-48.267"/>
		<path fill="none" stroke="#ED696E" stroke-width="9" stroke-miterlimit="10" d="M243.199,269.48
			c-16.694-4.87-30.976-15.397-40.63-29.366"/>
		<path fill="none" stroke="#ED696E" stroke-width="9" stroke-miterlimit="10" d="M325.767,240.212
			c-9.654,13.922-23.91,24.412-40.566,29.269"/>
		<path fill="none" stroke="#ED696E" stroke-width="9" stroke-miterlimit="10" d="M285.207,125.717
			c23.499,6.855,42.218,24.92,49.979,48.018"/>
	</g>

	<g id="lines-cutters">
		<path fill="#B4E2ED" d="M209.915,196.524c-0.001-6.264-2.647-12.512-7.896-17.133c-10.073-8.87-25.894-8.389-35.337,1.073
				c-6.692,6.707-8.378,16.125-5.21,24.199V235h51v-38.476H209.915z"/>
		<circle fill="#B4E2ED" cx="264.171" cy="116.826" r="24.536"/>
		<circle fill="#B4E2ED" cx="264.173" cy="259.826" r="26.326"/>
		<path fill="#B4E2ED" d="M363.916,197.145c-0.002-6.163-2.648-12.31-7.896-16.857c-10.073-8.727-25.895-8.253-35.337,1.056
			c-6.692,6.598-8.378,15.865-5.21,23.808V235h51v-37.855H363.916z"/>
	</g>

	<g id="js-slide5--target1__human1" opacity="0">
		<path fill="#3197C5" d="M249.556,116.826c0,8.089,6.554,14.645,14.645,14.645v-29.29
			C256.11,102.181,249.556,108.736,249.556,116.826z"/>
		<path fill="#73BCE0" d="M278.848,116.826c0-8.09-6.557-14.646-14.647-14.646v29.29
			C272.291,131.471,278.848,124.915,278.848,116.826z"/>
		<path fill="#3197C5" d="M246.437,148.911c0,0.474-0.043,0.944,0,1.408l17.764,0.001V132.6
			C254.391,132.6,246.437,139.902,246.437,148.911z"/>
		<path fill="#73BCE0" d="M281.969,148.911c0-9.009-7.957-16.312-17.768-16.312v17.721l17.768,0.001
			C282.01,149.857,281.969,149.386,281.969,148.911z"/>
	</g>
	<g id="js-slide5--target1__human2" opacity="0">
		<path fill="#3197C5" d="M249.554,263.49c0,8.089,6.555,14.646,14.645,14.646v-29.29C256.109,248.846,249.554,255.4,249.554,263.49z
			"/>
		<path fill="#73BCE0" d="M278.846,263.49c0-8.09-6.557-14.645-14.647-14.645v29.29C272.289,278.136,278.846,271.579,278.846,263.49z
			"/>
		<path fill="#3197C5" d="M246.436,295.576c0,0.474-0.044,0.943,0,1.407l17.763,0.002v-17.722
			C254.39,279.264,246.436,286.566,246.436,295.576z"/>
		<path fill="#73BCE0" d="M281.967,295.576c0-9.01-7.957-16.312-17.768-16.312v17.722h17.768
			C282.006,296.521,281.967,296.05,281.967,295.576z"/>
	</g>
	
	<g id="js-slide5--target1__human3" opacity="0">
		<path fill="#3197C5" d="M323.568,198.039c0,8.09,6.557,14.646,14.646,14.646v-29.291
			C330.125,183.395,323.568,189.951,323.568,198.039z"/>
		<path fill="#73BCE0" d="M352.863,198.039c0-8.088-6.559-14.645-14.648-14.645v29.291
			C346.305,212.686,352.863,206.129,352.863,198.039z"/>
		<path fill="#3197C5" d="M320.451,230.125c0,0.475-0.045,0.945,0,1.408h17.764v-17.721
			C328.406,213.812,320.451,221.115,320.451,230.125z"/>
		<path fill="#73BCE0" d="M355.982,230.125c0-9.01-7.957-16.312-17.768-16.312v17.721l17.768,0.002
			C356.023,231.07,355.982,230.6,355.982,230.125z"/>
	</g>

	<g id="js-slide5--target1__human4" opacity="0">
		<path fill="#3197C5" d="M173.137,198.039c0,8.09,6.556,14.646,14.646,14.646v-29.291
			C179.693,183.395,173.137,189.951,173.137,198.039z"/>
		<path fill="#73BCE0" d="M202.43,198.039c0-8.088-6.558-14.645-14.647-14.645v29.291C195.873,212.686,202.43,206.129,202.43,198.039
			z"/>
		<path fill="#3197C5" d="M170.019,230.125c0,0.475-0.044,0.945,0,1.408h17.764v-17.721
			C177.974,213.812,170.019,221.115,170.019,230.125z"/>
		<path fill="#73BCE0" d="M205.55,230.125c0-9.01-7.957-16.312-17.768-16.312v17.721l17.768,0.002
			C205.59,231.07,205.55,230.6,205.55,230.125z"/>
	</g>

	<!-- <path fill="#3197C5" d="M187.781,176.83v-0.617c-0.055,0.191-0.114,0.379-0.169,0.57L187.781,176.83z"/> -->
	<path id="js-slide5--target1__star" fill="#ED696E" d="M279.201,199.758L279.201,199.758v-4.066c-7.158,0-12.967-5.805-12.967-12.97h-4.066
		c0,7.165-5.808,12.97-12.967,12.97v4.066c7.159,0,12.967,5.803,12.967,12.964l0,0h4.066
		C266.234,205.561,272.043,199.758,279.201,199.758z"/>
</g>

<line id="js-slide5--main-line" fill="none" stroke="#FFFFFF" stroke-width="5" stroke-miterlimit="10" x1="444" y1="1.275" x2="444" y2="1032.5" stroke-dasharray="1031.225" stroke-dashoffset="1031.225" />

<line id="js-slide5--line2" transform="translate(0, -15)" stroke-dasharray="70" stroke-dashoffset="70" fill="none" stroke="#FFFFFF" stroke-width="5" stroke-miterlimit="10" x1="444" y1="197.599" x2="374" y2="197.599"/>

<g transform="translate(0, -70)">
	<g id="js-slide5--target2" opacity="1">
		<path id="js-slide5--target2__star" opacity="0" fill="#ED696E" d="M279.055,855.594L279.055,855.594v-4.066c-7.158,0-12.967-5.805-12.967-12.97h-4.066
			c0,7.165-5.808,12.97-12.967,12.97v4.066c7.159,0,12.967,5.803,12.967,12.964l0,0h4.066
			C266.087,861.396,271.896,855.594,279.055,855.594z"/>

		<g id="js-slide5--target2__lines" opacity="0">
			<path fill="none" stroke="#ED696E" stroke-width="9" stroke-miterlimit="10" d="M193.528,830.424
				c7.519-22.623,25.619-40.417,48.431-47.513"/>
			<path fill="none" stroke="#ED696E" stroke-width="9" stroke-miterlimit="10" d="M242.755,925.083
				c-16.38-4.892-30.388-15.282-39.882-29.028"/>
			<path fill="none" stroke="#ED696E" stroke-width="9" stroke-miterlimit="10" d="M325.239,896.049
				c-9.497,13.753-23.512,24.146-39.9,29.038"/>
			<path fill="none" stroke="#ED696E" stroke-width="9" stroke-miterlimit="10" d="M285.052,782.58
				c23.544,6.922,42.231,25.19,49.738,48.479"/>
		</g>
		<g>
			<circle fill="#B5E2ED" cx="263.534" cy="777.093" r="23.203"/>
			<circle fill="#B5E2ED" cx="339.662" cy="851.743" r="23.203"/>
			<circle fill="#B5E2ED" cx="187.465" cy="852.558" r="23.203"/>
			<circle fill="#B5E2ED" cx="264.534" cy="920.327" r="23.721"/>
		</g>

		<g id="js-slide5--target2__human1" opacity="0">
			<path fill="#66BFAC" d="M249.41,772.662c0,8.089,6.554,14.645,14.645,14.645v-29.29
				C255.963,758.017,249.41,764.572,249.41,772.662z"/>
			<path fill="#95D0C6" d="M278.701,772.662c0-8.09-6.557-14.646-14.647-14.646v29.29
				C272.145,787.307,278.701,780.751,278.701,772.662z"/>
			<path fill="#66BFAC" d="M246.291,804.747c0,0.474-0.043,0.944,0,1.408l17.764,0.001v-17.721
				C254.245,788.436,246.291,795.738,246.291,804.747z"/>
			<path fill="#95D0C6" d="M281.822,804.747c0-9.009-7.957-16.312-17.768-16.312v17.721l17.768,0.001
				C281.863,805.693,281.822,805.222,281.822,804.747z"/>
		</g>
		<g id="js-slide5--target2__human2" opacity="0">
			<path fill="#66BFAC" d="M249.408,919.326c0,8.089,6.555,14.646,14.645,14.646v-29.29
				C255.962,904.682,249.408,911.236,249.408,919.326z"/>
			<path fill="#95D0C6" d="M278.699,919.326c0-8.09-6.557-14.645-14.647-14.645v29.29
				C272.143,933.972,278.699,927.415,278.699,919.326z"/>
			<path fill="#66BFAC" d="M246.29,951.412c0,0.474-0.044,0.943,0,1.407l17.763,0.002V935.1
				C254.244,935.1,246.29,942.402,246.29,951.412z"/>
			<path fill="#95D0C6" d="M281.82,951.412c0-9.01-7.957-16.312-17.768-16.312v17.722h17.768
				C281.859,952.357,281.82,951.886,281.82,951.412z"/>
		</g>
		<g id="js-slide5--target2__human3" opacity="0">
			<path fill="#66BFAC" d="M323.422,853.875c0,8.09,6.557,14.646,14.646,14.646V839.23
				C329.979,839.23,323.422,845.787,323.422,853.875z"/>
			<path fill="#95D0C6" d="M352.715,853.875c0-8.088-6.557-14.645-14.646-14.645v29.291
				C346.158,868.521,352.715,861.965,352.715,853.875z"/>
			<path fill="#66BFAC" d="M320.305,885.961c0,0.475-0.045,0.945,0,1.408h17.764v-17.721
				C328.26,869.648,320.305,876.951,320.305,885.961z"/>
			<path fill="#95D0C6" d="M355.836,885.961c0-9.01-7.957-16.312-17.768-16.312v17.721l17.768,0.002
				C355.875,886.906,355.836,886.436,355.836,885.961z"/>
		</g>
		<g id="js-slide5--target2__human4" opacity="0">
			<path fill="#66BFAC" d="M172.991,853.875c0,8.09,6.556,14.646,14.646,14.646V839.23
				C179.546,839.23,172.991,845.787,172.991,853.875z"/>
			<path fill="#95D0C6" d="M202.284,853.875c0-8.088-6.558-14.645-14.647-14.645v29.291
				C195.726,868.521,202.284,861.965,202.284,853.875z"/>
			<path fill="#66BFAC" d="M169.873,885.961c0,0.475-0.044,0.945,0,1.408h17.764v-17.721
				C177.828,869.648,169.873,876.951,169.873,885.961z"/>
			<path fill="#95D0C6" d="M205.404,885.961c0-9.01-7.957-16.312-17.768-16.312v17.721l17.768,0.002
				C205.444,886.906,205.404,886.436,205.404,885.961z"/>
		</g>
		<!-- <path fill="#ED696E" d="M320.172,896.047c-8.018,10.645-18.986,18.945-31.686,23.674c-0.445,3.564-1.643,6.894-3.434,9.818
			l0.26,0.932c19.305-5.365,35.668-17.844,46.086-34.424H320.172z"/>
		<path fill="#ED696E" d="M207.942,896.047h-11.227c10.417,16.578,26.777,29.055,46.078,34.42l0.261-0.938
			c-1.786-2.923-2.979-6.247-3.425-9.806C226.929,914.994,215.96,906.691,207.942,896.047z"/>
		<path fill="#ED696E" d="M338.066,829.297c0.539,0,1.07,0.033,1.596,0.08c-7.984-24.58-27.631-43.934-52.391-51.512
			c-0.641,3.125-1.896,6.025-3.637,8.57c21.924,6.375,39.445,23.156,46.842,44.626C332.771,829.943,335.342,829.297,338.066,829.297z
			"/>
		<path fill="#ED696E" d="M188.439,829.418c3.243,0.148,6.256,1.17,8.796,2.859c7.145-22.049,24.906-39.345,47.237-45.84
			c-1.738-2.545-2.996-5.445-3.636-8.569C216.064,785.451,196.415,804.82,188.439,829.418z"/>
		<path fill="#3197C5" d="M187.634,832.666v-0.617c-0.055,0.191-0.114,0.379-0.169,0.57L187.634,832.666z"/> -->
	</g>
	<g id="js-slide5--target3" opacity="1">

		<g id="js-slide5--target3__lines" opacity="0">
			<path fill="none" stroke="#ED696E" stroke-width="9" stroke-miterlimit="10" d="M284.388,977.336
				c21.59-3.529,41.321-12.586,57.695-25.669l5.917-4.858"/>
			<path fill="none" stroke="#ED696E" stroke-width="9" stroke-miterlimit="10" d="M381.805,896.221
				c-2.361,6.564-5.254,12.874-8.629,18.877"/>
			<path fill="none" stroke="#ED696E" stroke-width="9" stroke-miterlimit="10" d="M370.695,788.438
				c8.486,13.801,14.369,29.375,16.963,46.038"/>
			<path fill="none" stroke="#ED696E" stroke-width="9" stroke-miterlimit="10" d="M287.643,730.993
				c17.233,3.288,33.212,10.112,47.152,19.688l6.288,5.293"/>
			<path fill="none" stroke="#ED696E" stroke-width="9" stroke-miterlimit="10" d="M240.016,731.077
				c-18.604,3.62-35.734,11.362-50.401,22.237"/>
			<path fill="none" stroke="#ED696E" stroke-width="9" stroke-miterlimit="10" d="M140.612,833.393
				c2.678-16.257,8.489-31.457,16.793-44.959l1.644-2.684"/>
			<path fill="none" stroke="#ED696E" stroke-width="9" stroke-miterlimit="10" d="M146.293,896.223
				c2.303,6.402,5.113,12.563,8.382,18.434"/>
			<path fill="none" stroke="#ED696E" stroke-width="9" stroke-miterlimit="10" d="M243.088,977.232
				c-19.52-3.293-37.505-11.107-52.839-22.327L183.5,948.5"/>
		</g>
		<g>
			<circle fill="#B5E2ED" cx="355.589" cy="772.25" r="30.182"/>
			<circle fill="#B5E2ED" cx="359.808" cy="940.268" r="32.435"/>
			<circle fill="#B5E2ED" cx="171.839" cy="766.918" r="29.935"/>
			<circle fill="#B5E2ED" cx="263.45" cy="729.88" r="29.185"/>
			<circle fill="#B5E2ED" cx="169.089" cy="941.5" r="33.667"/>
			<circle fill="#B5E2ED" cx="141.797" cy="864.782" r="33.935"/>
			<circle fill="#B5E2ED" cx="387.658" cy="866.032" r="33.935"/>
			<circle fill="#B5E2ED" cx="263.45" cy="979.342" r="27.135"/>
		</g>

		
		<g id="js-slide5--target3__humans" opacity="0">
			<g>
				<path fill="#66BFAC" d="M155.207,748.592c0,8.089,6.554,14.645,14.645,14.645v-29.29
					C161.76,733.946,155.207,740.502,155.207,748.592z"/>
				<path fill="#95D0C6" d="M184.499,748.592c0-8.09-6.558-14.646-14.647-14.646v29.29
					C177.941,763.236,184.499,756.681,184.499,748.592z"/>
				<path fill="#66BFAC" d="M152.087,780.677c0,0.474-0.043,0.944,0,1.408l17.764,0.001v-17.721
					C160.042,764.365,152.087,771.668,152.087,780.677z"/>
				<path fill="#95D0C6" d="M187.619,780.677c0-9.009-7.957-16.312-17.768-16.312v17.721l17.768,0.001
					C187.66,781.623,187.619,781.151,187.619,780.677z"/>
			</g>
			<g>
				<path fill="#66BFAC" d="M342.07,747.733c0,8.089,6.553,14.645,14.645,14.645v-29.29
					C348.623,733.088,342.07,739.644,342.07,747.733z"/>
				<path fill="#95D0C6" d="M371.361,747.733c0-8.09-6.557-14.646-14.646-14.646v29.29
					C364.805,762.378,371.361,755.822,371.361,747.733z"/>
				<path fill="#66BFAC" d="M338.951,779.818c0,0.474-0.043,0.944,0,1.408l17.764,0.001v-17.721
					C346.904,763.507,338.951,770.81,338.951,779.818z"/>
				<path fill="#95D0C6" d="M374.482,779.818c0-9.009-7.957-16.312-17.768-16.312v17.721l17.768,0.001
					C374.523,780.765,374.482,780.293,374.482,779.818z"/>
			</g>
			<g>
				<path fill="#66BFAC" d="M373.598,854.444c0,8.089,6.554,14.645,14.646,14.645v-29.29
					C380.151,839.799,373.598,846.354,373.598,854.444z"/>
				<path fill="#95D0C6" d="M402.89,854.444c0-8.09-6.557-14.646-14.646-14.646v29.29C396.333,869.089,402.89,862.533,402.89,854.444z
					"/>
				<path fill="#66BFAC" d="M370.479,886.529c0,0.474-0.043,0.944,0,1.408l17.765,0.001v-17.721
					C378.433,870.218,370.479,877.521,370.479,886.529z"/>
				<path fill="#95D0C6" d="M406.011,886.529c0-9.009-7.957-16.312-17.768-16.312v17.721l17.768,0.001
					C406.052,887.476,406.011,887.004,406.011,886.529z"/>
			</g>
			<g>
				<path fill="#66BFAC" d="M125.677,853.875c0,8.09,6.556,14.646,14.646,14.646V839.23
					C132.233,839.23,125.677,845.787,125.677,853.875z"/>
				<path fill="#95D0C6" d="M154.97,853.875c0-8.088-6.558-14.645-14.647-14.645v29.291
					C148.413,868.521,154.97,861.965,154.97,853.875z"/>
				<path fill="#66BFAC" d="M122.559,885.961c0,0.475-0.044,0.945,0,1.408h17.764v-17.721
					C130.514,869.648,122.559,876.951,122.559,885.961z"/>
				<path fill="#95D0C6" d="M158.09,885.961c0-9.01-7.957-16.312-17.768-16.312v17.721l17.768,0.002
					C158.13,886.906,158.09,886.436,158.09,885.961z"/>
			</g>
			<g>
				<path fill="#66BFAC" d="M249.405,704.138c0,8.089,6.554,14.645,14.645,14.645v-29.29
					C255.958,689.492,249.405,696.048,249.405,704.138z"/>
				<path fill="#95D0C6" d="M278.697,704.138c0-8.09-6.559-14.646-14.648-14.646v29.29
					C272.139,718.782,278.697,712.227,278.697,704.138z"/>
				<path fill="#66BFAC" d="M246.286,736.223c0,0.474-0.043,0.944,0,1.408l17.764,0.001v-17.721
					C254.24,719.911,246.286,727.214,246.286,736.223z"/>
				<path fill="#95D0C6" d="M281.816,736.223c0-9.009-7.957-16.312-17.767-16.312v17.721l17.767,0.001
					C281.857,737.169,281.816,736.697,281.816,736.223z"/>
			</g>
			<g>
				<path fill="#66BFAC" d="M249.409,976.608c0,8.089,6.555,14.646,14.645,14.646v-29.29
					C255.963,961.964,249.409,968.519,249.409,976.608z"/>
				<path fill="#95D0C6" d="M278.701,976.608c0-8.09-6.559-14.645-14.648-14.645v29.29
					C272.143,991.254,278.701,984.697,278.701,976.608z"/>
				<path fill="#66BFAC" d="M246.291,1008.694c0,0.474-0.044,0.943,0,1.407l17.763,0.002v-17.722
					C254.245,992.382,246.291,999.685,246.291,1008.694z"/>
				<path fill="#95D0C6" d="M281.82,1008.694c0-9.01-7.957-16.312-17.767-16.312v17.722h17.767
					C281.861,1009.64,281.82,1009.168,281.82,1008.694z"/>
			</g>
			<g>
				<path fill="#66BFAC" d="M344.068,928.535c0,8.089,6.555,14.646,14.645,14.646v-29.29
					C350.623,913.891,344.068,920.445,344.068,928.535z"/>
				<path fill="#95D0C6" d="M373.359,928.535c0-8.09-6.557-14.645-14.646-14.645v29.29
					C366.803,943.181,373.359,936.624,373.359,928.535z"/>
				<path fill="#66BFAC" d="M340.949,960.621c0,0.474-0.043,0.943,0,1.407l17.764,0.002v-17.722
					C348.904,944.309,340.949,951.611,340.949,960.621z"/>
				<path fill="#95D0C6" d="M376.479,960.621c0-9.01-7.956-16.312-17.767-16.312v17.722h17.767
					C376.521,961.566,376.479,961.095,376.479,960.621z"/>
			</g>
			<g>
				<path fill="#66BFAC" d="M155.205,928.744c0,8.089,6.555,14.646,14.645,14.646V914.1
					C161.759,914.1,155.205,920.654,155.205,928.744z"/>
				<path fill="#95D0C6" d="M184.497,928.744c0-8.09-6.558-14.645-14.647-14.645v29.29
					C177.939,943.39,184.497,936.833,184.497,928.744z"/>
				<path fill="#66BFAC" d="M152.086,960.83c0,0.474-0.044,0.943,0,1.407l17.763,0.002v-17.722
					C160.041,944.518,152.086,951.82,152.086,960.83z"/>
				<path fill="#95D0C6" d="M187.617,960.83c0-9.01-7.957-16.312-17.768-16.312v17.722h17.768
					C187.657,961.775,187.617,961.304,187.617,960.83z"/>
			</g>
			
		</g>
		
	</g>
</g>

<line id="js-slide5--line7" fill="none" stroke="#FFFFFF" stroke-width="5" stroke-miterlimit="10" stroke-dasharray="145.5" stroke-dashoffset="145.5" x1="612.5" y1="853.99" x2="758" y2="854"/>

<path id="js-slide5--line4" transform="translate(13,0)" stroke-dasharray="779" stroke-dashoffset="779" fill="none" stroke="#FFFFFF" stroke-width="5" stroke-miterlimit="10" d="M149.08,182.599h-19.242
	c-54.663,0-98.976,44.312-98.976,98.977v278.425v124.756c0,44.062,28.794,81.401,68.593,94.225"/>

<line id="js-slide5--line3" transform="translate(0,-40)" fill="none" stroke="#FFFFFF" stroke-width="5" stroke-miterlimit="10" x1="444" y1="525.001" x2="548.478" y2="525.001"
 stroke-dasharray="105" stroke-dashoffset="105"
 />

<g id="js-slide5--twitter" opacity="0" transform="translate(0, -70)">
	<g transform="translate(-282.32053,-396.30734)">
		<path id="path5_4_"  fill="#65b9dc" d="M1167.267,1237.774c-4.395,1.949-9.12,3.267-14.08,3.859
			c5.063-3.032,8.949-7.836,10.779-13.56c-4.736,2.808-9.984,4.849-15.566,5.946c-4.472-4.764-10.841-7.74-17.891-7.74
			c-13.538,0-24.515,10.975-24.515,24.512c0,1.922,0.218,3.793,0.636,5.585c-20.372-1.021-38.435-10.779-50.522-25.609
			c-2.111,3.62-3.321,7.829-3.321,12.323c0,8.503,4.329,16.006,10.905,20.402c-4.018-0.127-7.797-1.23-11.102-3.066
			c-0.002,0.104-0.002,0.205-0.002,0.31c0,11.875,8.449,21.782,19.661,24.035c-2.057,0.562-4.222,0.86-6.457,0.86
			c-1.579,0-3.116-0.154-4.612-0.44c3.119,9.739,12.172,16.826,22.9,17.021c-8.389,6.577-18.961,10.495-30.444,10.495
			c-1.978,0-3.929-0.116-5.847-0.343c10.848,6.956,23.733,11.015,37.575,11.015c45.087,0,69.743-37.353,69.743-69.744
			c0-1.065-0.024-2.121-0.071-3.173C1159.825,1247.008,1163.98,1242.691,1167.267,1237.774L1167.267,1237.774z"/>
	</g>
	<path id="js-slide5--twitter-star" fill="#ED696E" d="M860.947,856.118L860.947,856.118v-3.343c-5.885,0-10.661-4.773-10.661-10.664h-3.344
		c0,5.891-4.776,10.664-10.661,10.664v3.343c5.885,0,10.661,4.771,10.661,10.659l0,0h3.344
		C850.286,860.89,855.062,856.118,860.947,856.118z"/>
</g>

	
<line id="js-slide5--line5" transform="translate(0, -70)" fill="none" stroke="#FFFFFF" stroke-width="5" stroke-miterlimit="10" stroke-dasharray="146" stroke-dashoffset="146" x1="612.5" y1="853.99" x2="758" y2="854"/>
	<path id="js-slide5--line6" transform="translate(0, -70)" fill="none" stroke="#FFFFFF" stroke-width="5" stroke-miterlimit="10" stroke-dasharray="514" stroke-dashoffset="514" d="
		M417,854l195.5-0.01v75.938c21.323,0,38.607,17.285,38.607,38.607s-17.284,38.605-38.607,38.605
		c-21.32,0-38.605-17.283-38.605-38.605c0-21.012,16.785-38.105,37.682-38.596"/>

<g id="js-slide5--at" opacity="0" transform="translate(0, -70)">
	<path fill="#66BFAC" d="M621.004,973.928c-0.16,0.48-0.291,0.96-0.39,1.44c-0.101,0.479-0.15,0.921-0.15,1.319
		c0,0.4,0.09,0.73,0.27,0.99c0.181,0.261,0.47,0.391,0.87,0.391c0.92,0,1.85-0.33,2.79-0.99c0.939-0.66,1.779-1.569,2.521-2.73
		c0.739-1.159,1.34-2.529,1.8-4.109c0.459-1.58,0.69-3.29,0.69-5.13c0-2.24-0.421-4.25-1.261-6.03c-0.84-1.779-1.99-3.29-3.45-4.53
		c-1.46-1.239-3.16-2.189-5.1-2.85c-1.94-0.66-4.011-0.99-6.21-0.99c-2.561,0-4.89,0.471-6.99,1.41c-2.1,0.94-3.91,2.22-5.43,3.84
		c-1.521,1.62-2.7,3.521-3.54,5.7c-0.84,2.181-1.26,4.529-1.26,7.05c0,2.92,0.45,5.561,1.35,7.92c0.9,2.36,2.14,4.36,3.72,6
		c1.58,1.641,3.46,2.91,5.641,3.81c2.18,0.9,4.53,1.351,7.05,1.351c2.64,0,5.14-0.52,7.5-1.561c2.359-1.039,4.359-2.499,6-4.38h4.2
		c-1.92,3.12-4.461,5.541-7.62,7.261c-3.16,1.719-6.6,2.579-10.32,2.579c-3.08,0-5.98-0.569-8.7-1.71
		c-2.72-1.14-5.09-2.729-7.109-4.77c-2.021-2.04-3.61-4.479-4.771-7.32c-1.16-2.84-1.739-5.979-1.739-9.42
		c0-3.039,0.589-5.869,1.77-8.49c1.18-2.619,2.77-4.909,4.771-6.869c1.999-1.96,4.329-3.5,6.989-4.62s5.49-1.681,8.49-1.681
		c2.68,0,5.229,0.431,7.65,1.29c2.419,0.861,4.55,2.07,6.39,3.63c1.84,1.561,3.31,3.421,4.41,5.58c1.1,2.16,1.649,4.521,1.649,7.08
		c0,3-0.51,5.62-1.529,7.86c-1.021,2.24-2.261,4.101-3.721,5.58c-1.46,1.48-3.01,2.59-4.649,3.33
		c-1.641,0.74-3.061,1.109-4.26,1.109c-0.921,0-1.721-0.289-2.4-0.869c-0.681-0.58-1.061-1.45-1.14-2.61h-0.12
		c-0.801,0.921-1.8,1.72-3,2.399c-1.2,0.681-2.44,1.021-3.721,1.021c-1.24,0-2.399-0.249-3.479-0.75c-1.08-0.5-2.01-1.18-2.79-2.04
		c-0.78-0.859-1.391-1.86-1.83-3c-0.44-1.14-0.66-2.35-0.66-3.63c0-1.92,0.32-3.8,0.96-5.64s1.53-3.5,2.67-4.98
		c1.141-1.479,2.521-2.67,4.141-3.57c1.62-0.899,3.409-1.35,5.37-1.35c1.399,0,2.679,0.34,3.84,1.02
		c1.159,0.681,2.119,1.78,2.88,3.301l1.08-3.42h4.2L621.004,973.928z M610.084,977.708c1.2,0,2.3-0.35,3.3-1.05
		c0.999-0.699,1.86-1.58,2.58-2.641c0.72-1.059,1.29-2.22,1.71-3.479s0.63-2.43,0.63-3.51c0-0.721-0.13-1.4-0.39-2.04
		c-0.261-0.64-0.601-1.2-1.021-1.681c-0.42-0.479-0.92-0.859-1.5-1.14c-0.58-0.279-1.19-0.42-1.83-0.42c-1.24,0-2.37,0.34-3.39,1.02
		c-1.02,0.681-1.89,1.53-2.61,2.551c-0.72,1.02-1.28,2.15-1.68,3.39c-0.4,1.24-0.6,2.421-0.6,3.54c0,1.601,0.429,2.91,1.29,3.93
		C607.434,977.198,608.604,977.708,610.084,977.708z"/>
</g>
<g id="js-slide5--humans" opacity="0" transform="translate(-60, -87)">
	<g id="js-slide5--right-human">
		<path id="js-slide5--right-hand" fill="#66BFAC" d="M691.346,571.454c1.735,0,3.41-0.137,5.027-0.27c1.758-0.144,3.577-0.289,5.396-0.263l-0.235-11.082
			c-2.252-0.032-4.866-0.015-6.837,0.14c-6.756,0.523-16.502-4.536-16.759-16.293h-12.324
			C666.782,559.84,676.961,570.868,691.346,571.454z"/>
		<path fill="#66BFAC" d="M688.699,544.713c0,7.102,5.742,12.858,12.835,12.858v-25.717
			C694.441,531.854,688.699,537.618,688.699,544.713z"/>
		<path fill="#95D0C6" d="M714.361,544.713c0-7.095-5.747-12.858-12.827-12.858v25.717
			C708.614,557.571,714.361,551.814,714.361,544.713z"/>
		<path fill="#66BFAC" d="M685.756,574.351c0,0.424-0.034,0.84,0,1.253h15.778V559.84
			C692.82,559.84,685.756,566.328,685.756,574.351z"/>
		<path fill="#95D0C6" d="M717.307,574.351c0-8.022-7.068-14.511-15.772-14.511v15.764l15.772,0.001
			C717.348,575.191,717.307,574.774,717.307,574.351z"/>
	</g>
	<g id="js-slide5--left-human">
		<path id="js-slide5--left-hand" fill="#3197C5" d="M652.223,571.454c-1.735,0-3.41-0.137-5.027-0.27c-1.758-0.144-3.577-0.289-5.396-0.263l0.235-11.082
			c2.252-0.032,4.866-0.015,6.837,0.14c6.756,0.523,16.502-4.536,16.759-16.293h12.324
			C676.786,559.84,666.607,570.868,652.223,571.454z"/>
		<path fill="#3197C5" d="M654.869,544.713c0,7.102-5.742,12.858-12.835,12.858v-25.717
			C649.127,531.854,654.869,537.618,654.869,544.713z"/>
		<path fill="#73BCE0" d="M629.207,544.713c0-7.095,5.747-12.858,12.827-12.858v25.717
			C634.954,557.571,629.207,551.814,629.207,544.713z"/>
		<path fill="#3197C5" d="M657.812,574.351c0,0.424,0.034,0.84,0,1.253h-15.778V559.84
			C650.748,559.84,657.812,566.328,657.812,574.351z"/>
		<path fill="#73BCE0" d="M626.262,574.351c0-8.022,7.068-14.511,15.772-14.511v15.764l-15.772,0.001
			C626.221,575.191,626.262,574.774,626.262,574.351z"/>
	</g>

	<g id="js-slide5--stars" opacity="1">
		<path fill="#ED696E" d="M693,506.13L693,506.13v-5.625c-9.905,0-17.94-8.029-17.94-17.942h-5.622
		c0,9.913-8.036,17.942-17.938,17.942v5.625c9.901,0,17.938,8.024,17.938,17.933l0,0h5.622
		C675.06,514.154,683.095,506.13,693,506.13z"/>
		<path fill="#ED696E" d="M718.824,488.212L718.824,488.212v-2.542c-4.476,0-8.106-3.63-8.106-8.107h-2.539
			c0,4.478-3.631,8.107-8.104,8.107v2.542c4.474,0,8.104,3.625,8.104,8.101l0,0h2.539
			C710.718,491.837,714.349,488.212,718.824,488.212z"/>
		<path fill="#ED696E" d="M648.64,483.673L648.64,483.673v-2.214c-3.899,0-7.062-3.161-7.062-7.062h-2.211
			c0,3.901-3.161,7.062-7.06,7.062v2.214c3.898,0,7.06,3.156,7.06,7.056l0,0h2.211C641.578,486.829,644.74,483.673,648.64,483.673z"
			/>
	</g>
</g>
</svg>
