
<svg version="1.1" id="Layer_1"
	 xmlns="http://www.w3.org/2000/svg" xmlns:xlink="http://www.w3.org/1999/xlink" x="0px" y="0px" width="150px" height="86px"
	 viewBox="0 0 150 86" enable-background="new 0 0 100.5 86" xml:space="preserve">
	<g transform="translate(25,0)">
		<g id="js-slide4--dir-line">
			<line fill="none" x1="50.682" y1="0.5" x2="50.682" y2="86"/>
			<rect x="48.182" y="0.5" fill="#ED696E" width="5" height="85.2"/>
		</g>

		<g id="js-slide4--dir-arrow1">
			<polygon fill="#3197C5" points="100.631,22.443 9.035,22.443 0.175,9.294 91.77,9.294 	"/>
			<polygon fill="#73BCE0" points="0.175,35.589 91.771,35.589 100.631,22.443 9.037,22.443 	"/>
			<polygon fill="#3197C5" points="100.071,23.273 8.74,22.883 9.035,22.443 8.668,21.75 100.071,21.613 100.631,22.443 "/>
		</g>
		<g id="js-slide4--dir-arrow2">
			<polygon fill="#95D0C6" points="12.403,51.611 81.699,51.611 88.402,60.006 19.108,60.006 	"/>
			<polygon fill="#66BFAC" points="88.402,43.217 19.106,43.217 12.403,51.611 81.697,51.611 	"/>
			<polygon fill="#66BFAC" points="82.25,52.5 13.291,52.5 12.403,51.611 13.056,50.794 82.25,50.794 81.699,51.611 "/>
		</g>
	</g>
</svg>
