<svg version="1.1" id="Layer_1"
	 xmlns="http://www.w3.org/2000/svg" xmlns:xlink="http://www.w3.org/1999/xlink" x="0px" y="0px" width="100.5px" height="86px"
	 viewBox="0 0 100.5 86" enable-background="new 0 0 100.5 86" xml:space="preserve">
	<path fill="#73BCE0" d="M88.607,43.27c0.615,3.555-2.738,8.022-3.445,11.419c-0.26,0-0.52,0-0.779,0
		c-0.707-3.397-4.062-7.864-3.447-11.419H62.273c-2.976,3.287-7.263,5.365-12.045,5.365c-4.783,0-9.07-2.078-12.046-5.365H0v26.294
		h50.228l-19.726-0.002c-0.048-0.515,0-1.037,0-1.562c0-10.004,8.833-18.113,19.726-18.113S69.955,57.996,69.955,68
		c0,0.525,0.047,1.049,0,1.564h30.501V43.27H88.607z"/>
	<path fill="#ED696E" d="M85.271,39.433v-2.331h-1v2.331c-2.131,1.022-3.078,2.351-3.336,3.837h7.672
		C88.35,41.784,87.404,40.456,85.271,39.433z"/>
	<path fill="#E3F3FD" d="M84.383,54.689c0.26,0,0.52,0,0.779,0c0.707-3.397,4.062-7.864,3.445-11.419h-7.672
		C80.32,46.825,83.676,51.292,84.383,54.689z"/>
	<path fill="#66BFAC" d="M50.228,16.109c-8.982,0-16.263,7.281-16.263,16.263c0,4.199,1.604,8.013,4.217,10.898h12.046V16.109z"/>
	<path fill="#CEEAFA" d="M50.228,48.635V43.27H38.182C41.158,46.557,45.445,48.635,50.228,48.635z"/>
	<path fill="#95D0C6" d="M62.273,43.27c2.612-2.885,4.217-6.7,4.217-10.898c0-8.982-7.28-16.263-16.262-16.263V43.27H62.273z"/>
	<path fill="#E3F3FD" d="M50.228,48.635c4.784,0,9.071-2.078,12.045-5.365H50.228V48.635z"/>
	<path fill="#CEEAFA" d="M30.502,68c0,0.525-0.048,1.049,0,1.562l19.726,0.002V49.887C39.335,49.887,30.502,57.996,30.502,68z"/>
	<polygon fill="#95D0C6" points="69.955,69.566 69.955,69.564 50.228,69.564 "/>
	<path fill="#E3F3FD" d="M69.955,68c0-10.004-8.834-18.113-19.727-18.113v19.678h19.727C70.002,69.049,69.955,68.525,69.955,68z"/>

	<g id="js-slide4--bench-bubbles">
		<circle fill="#E3F3FD" cx="12.197" cy="53.152" r="1.602"/>
		<circle fill="none" stroke="#E3F3FD" stroke-width="0.25" stroke-miterlimit="10" cx="8.932" cy="61.174" r="1.293"/>
		<circle fill="none" stroke="#E3F3FD" stroke-width="0.25" stroke-miterlimit="10" cx="66.49" cy="51.899" r="1.939"/>
		<circle fill="#E3F3FD" cx="73.1" cy="50.131" r="0.665"/>
		<circle fill="#E3F3FD" cx="37.23" cy="48.635" r="1.735"/>
		<circle fill="#E3F3FD" cx="78.016" cy="64.439" r="1.241"/>
		<circle fill="#E3F3FD" cx="93.521" cy="50.131" r="2.051"/>
		<circle fill="none" stroke="#E3F3FD" stroke-width="0.25" stroke-miterlimit="10" cx="86.991" cy="59.971" r="1.555"/>
		<circle fill="#E3F3FD" cx="79.241" cy="58.402" r="1.743"/>
		<circle fill="none" stroke="#E3F3FD" stroke-width="0.25" stroke-miterlimit="10" cx="18.728" cy="58.402" r="1.837"/>
		<circle fill="#E3F3FD" cx="23.978" cy="63.236" r="2.307"/>
		<circle fill="#E3F3FD" cx="25.015" cy="53.396" r="1.349"/>
		<circle fill="none" stroke="#E3F3FD" stroke-width="0.25" stroke-miterlimit="10" cx="18.728" cy="46.866" r="1.429"/>
	</g>
	<rect width="100.5" height="20" fill="white" x="0" y="69"></rect>

</svg>
