
<svg version="1.1" id="Layer_1"
	 xmlns="http://www.w3.org/2000/svg" xmlns:xlink="http://www.w3.org/1999/xlink" x="0px" y="0px" width="100.5px" height="100px"
	 viewBox="0 0 100.5 100" enable-background="new 0 0 100.5 86" xml:space="preserve">
<g>
	
	<path opacity="0" id="js-slide4--data-folder" fill="#3197C5" d="M75.7,36.196v6.426h18.329V71.75H6.42V42.622h18.335v-6.426H0v41.968h100.455V36.196H75.7z"/>

	<polygon opacity="0" id="js-slide4--data-arrow" fill="#73BCE0" points="60.996,42.2 53.97,42.2 53.97,6.377 46.484,6.377 46.484,42.2 39.46,42.2 50.229,58.623"/>

	<g id="js-slide4--data-stars">
		<path opacity="0" fill="#95D0C6" d="M22.591,20.986L22.591,20.986v-2.113c-3.719,0-6.735-3.015-6.735-6.734h-2.113
			c0,3.719-3.015,6.734-6.734,6.734v2.113c3.719,0,6.734,3.015,6.734,6.735l0,0h2.113C15.855,24.001,18.872,20.986,22.591,20.986z"/>
		<path opacity="0" fill="#66BFAC" d="M76.723,14.053L76.723,14.053l0.001-1.829c-3.221,0-5.831-2.611-5.831-5.833h-1.832
			c0,3.222-2.61,5.833-5.831,5.833v1.829c3.221,0,5.831,2.611,5.831,5.833l0,0h1.832C70.893,16.664,73.503,14.053,76.723,14.053z"/>
		<path opacity="0" fill="#C5E6F2" d="M95.434,24.337L95.434,24.337v-2.04c-3.592,0-6.502-2.912-6.502-6.502h-2.043
			c0,3.591-2.91,6.502-6.502,6.502v2.04c3.592,0,6.502,2.913,6.502,6.505l0,0h2.043C88.932,27.25,91.842,24.337,95.434,24.337z"/>
		<path opacity="0" fill="#ED696E" d="M71.325,30.11L71.325,30.11l0.001-1.106c-1.949,0-3.529-1.58-3.529-3.528h-1.105
			c0,1.948-1.58,3.528-3.529,3.528v1.106c1.949,0,3.529,1.58,3.529,3.528l0,0h1.105C67.797,31.69,69.377,30.11,71.325,30.11z"/>
		<path opacity="0" fill="#FCCB86" d="M41.038,23.738L41.038,23.738l0.001-1.375c-2.422,0-4.386-1.964-4.386-4.385h-1.375
			c0,2.421-1.964,4.385-4.386,4.385v1.375c2.422,0,4.386,1.964,4.386,4.386l0,0h1.375C36.653,25.702,38.617,23.738,41.038,23.738z"/>		
	</g>
</g>
</svg>
