<svg version="1.1" id="Layer_1" class="svg"
	 xmlns="http://www.w3.org/2000/svg" xmlns:xlink="http://www.w3.org/1999/xlink" x="0px" y="0px" width="1278px" height="1184px"
	 viewBox="0 0 1278 1184" enable-background="new 0 0 1278 1184" xml:space="preserve">

<g id="js-slide3-text1-pic" style="opacity:0">
	<circle fill="none" stroke="#FFFFFF" stroke-width="3" stroke-miterlimit="10" cx="790.951" cy="775.558" r="50.228"/>
	<circle fill="none" stroke="#F26E70" stroke-width="3" stroke-miterlimit="10" cx="788.826" cy="801.216" r="20"/>
	<circle fill="none" stroke="#3098C2" stroke-width="3" stroke-miterlimit="10" cx="766.998" cy="761.849" r="19.5"/>
	<circle fill="none" stroke="#FDC683" stroke-width="3" stroke-miterlimit="10" cx="803.444" cy="765.343" r="14"/>
	<circle fill="none" stroke="#D8EDF5" stroke-width="3" stroke-miterlimit="10" cx="793.105" cy="739.007" r="11"/>
	<circle fill="none" stroke="#3098C2" stroke-width="3" stroke-miterlimit="10" cx="822.573" cy="788.559" r="13"/>
	<circle fill="none" stroke="#BDE0E9" stroke-width="3" stroke-miterlimit="10" cx="828.554" cy="765.03" r="8"/>
	<circle fill="none" stroke="#86CFC4" stroke-width="3" stroke-miterlimit="10" cx="814.704" cy="743.511" r="7"/>
	<circle fill="none" stroke="#FDC683" stroke-width="3" stroke-miterlimit="10" cx="755.844" cy="792.229" r="8.5"/>
	<ellipse fill="none" stroke="#D8EDF5" stroke-width="3" stroke-miterlimit="10" cx="760.543" cy="807.208" rx="3.062" ry="3.117"/>
</g>

<line id="js-slide3-line-in" fill="none" stroke="#FFFFFF" stroke-width="5" stroke-linejoin="round" stroke-miterlimit="10" x1="637.335" y1="-1.044" x2="637.335" y2="194.854"
 stroke-dasharray="196" stroke-dashoffset="196" />
<line id="js-slide3-line-out" fill="none" stroke="#FFFFFF" stroke-width="5" stroke-linejoin="round" stroke-miterlimit="10" x1="638.335" y1="561.503" x2="638.335" y2="1184.044"
 stroke-dasharray="622" stroke-dashoffset="622" />

<g>
	<g>
		<g id="js-slide3-circle1-inner" style="opacity:0">
			<g id="js-slide3-humans">
				<g transform="translate(56,0)">
					<path class="slide3-girl-white-part" fill="#FFFFFF" stroke="#0084A3" stroke-miterlimit="10" d="M580.567,295.511c4.938,0,6.486-1.533,8.825-3.306
						c0.32-0.246,7.689,0,7.689,0s-2.898-8.195-2.899-10.341c0-7.532-6.095-13.647-13.615-13.647"/>
					<path class="slide3-girl-white-part" fill="#FFFFFF" stroke="#0084A3" stroke-miterlimit="10" d="M580.567,313.081h16.516v-1.318
						c0-8.393-7.396-15.195-16.516-15.195"/>
					<path class="slide3-girl-blue-part" fill="#BDE0E9" stroke="#0084A3" stroke-miterlimit="10" d="M580.567,295.511c-4.946,0-6.495-1.533-8.834-3.306
						c-0.318-0.246-7.689,0-7.689,0s2.896-8.195,2.896-10.341c0-7.532,6.098-13.647,13.627-13.647"/>
					<path class="slide3-girl-blue-part" fill="#BDE0E9" stroke="#0084A3" stroke-miterlimit="10" d="M580.567,313.081h-16.523v-1.318
						c0-8.393,7.4-15.195,16.523-15.195"/>
				</g>
				
				<g transform="translate(-56,0)">
					<path class="slide3-girl-white-part" stroke="#0084A3" stroke-miterlimit="10" d="M694.034,295.511c4.947,0,6.496-1.533,8.824-3.306
						c0.331-0.245,7.694,0,7.694,0s-2.901-8.195-2.903-10.341c0-7.532-6.097-13.647-13.615-13.647"/>
					<path class="slide3-girl-white-part" stroke="#0084A3" stroke-miterlimit="10" d="M694.034,313.081l16.52,0.001v-1.319
						c0-8.393-7.396-15.194-16.52-15.194"/>
					<path class="slide3-girl-blue-part" stroke="#0084A3" stroke-miterlimit="10" d="M694.034,295.511c-4.945,0-6.496-1.533-8.823-3.306
						c-0.33-0.245-7.692,0-7.692,0s2.898-8.195,2.9-10.341c0-7.532,6.098-13.647,13.615-13.647"/>
					<path class="slide3-girl-blue-part" stroke="#0084A3" stroke-miterlimit="10" d="M694.034,313.081l-16.517,0.001v-1.319
						c0-8.393,7.394-15.194,16.517-15.194"/>
				</g>

				<g transform="translate(-20,0)">
					<path class="f-blue-g" d="M643.202,281.865c0,2.146-2.963,10.341-2.963,10.341s7.465-0.195,7.818,0
						c2.583,1.456,3.819,3.306,8.762,3.306v-27.294C649.296,268.217,643.202,274.333,643.202,281.865z"/>
					<path fill="#CDE7EE" d="M670.442,281.865c0-7.532-6.098-13.647-13.623-13.647v27.294c4.946,0,6.495-1.533,8.832-3.306
						c0.319-0.245,7.69,0,7.69,0S670.444,284.01,670.442,281.865z"/>
					<path class="f-blue-g" d="M640.299,311.762c0,0.443-0.034,0.885,0,1.317l16.521,0.001v-16.513
						C647.702,296.568,640.299,303.37,640.299,311.762z"/>
					<path fill="#CDE7EE" d="M673.343,311.762c0-8.393-7.401-15.194-16.522-15.194v16.513l16.522,0.001
						C673.38,312.647,673.343,312.208,673.343,311.762z"/>
				</g>

				<g transform="translate(96,0)">
					<path class="f-blue-g" d="M529.171,282.445c0,7.854,6.355,14.223,14.197,14.223v-28.45
						C535.526,268.217,529.171,274.592,529.171,282.445z"/>
					<path fill="#CDE7EE" d="M557.562,282.445c0-7.853-6.35-14.228-14.194-14.228v28.45
						C551.214,296.667,557.562,290.299,557.562,282.445z"/>
					<path class="f-blue-g" d="M526.151,313.608c0,0.463-0.043,0.919,0,1.366l17.217,0.001v-17.209
						C533.858,297.766,526.151,304.851,526.151,313.608z"/>
					<path fill="#CDE7EE" d="M560.589,313.608c0-8.757-7.707-15.842-17.221-15.842v17.209l17.221,0.001
						C560.631,314.528,560.589,314.072,560.589,313.608z"/>
				</g>
				<g transform="translate(20,0)">
					<path class="f-blue-g" d="M604.245,282.445c0,7.854,6.353,14.223,14.199,14.223v-28.45
						C610.598,268.217,604.245,274.592,604.245,282.445z"/>
					<path fill="#CDE7EE" d="M632.636,282.445c0-7.853-6.356-14.228-14.19-14.228v28.45
						C626.278,296.667,632.636,290.299,632.636,282.445z"/>
					<path class="f-blue-g" d="M601.221,313.608c0,0.463-0.038,0.919,0,1.366l17.225,0.001v-17.209
						C608.932,297.766,601.221,304.851,601.221,313.608z"/>
					<path fill="#CDE7EE" d="M635.663,313.608c0-8.757-7.717-15.842-17.219-15.842v17.209l17.219,0.001
						C635.706,314.528,635.663,314.072,635.663,313.608z"/>
				</g>
				<g transform="translate(-92,0)">
					<path class="f-blue-g" d="M717.452,281.865c0,2.146-2.969,10.341-2.969,10.341s7.469-0.195,7.821,0
						c2.591,1.455,3.818,3.306,8.765,3.306v-27.294C723.55,268.217,717.452,274.333,717.452,281.865z"/>
					<path fill="#CDE7EE" d="M744.688,281.865c0-7.532-6.095-13.647-13.617-13.647v27.294c4.948,0,6.496-1.533,8.828-3.306
						c0.327-0.246,7.688,0,7.688,0S744.689,284.01,744.688,281.865z"/>
					<path class="f-blue-g" d="M714.554,311.762c0,0.443-0.043,0.885,0,1.316l16.517,0.002v-16.514
						C721.948,296.567,714.554,303.37,714.554,311.762z"/>
					<path fill="#CDE7EE" d="M747.587,311.762c0-8.393-7.394-15.195-16.518-15.195v16.514h16.518
						C747.633,312.647,747.587,312.207,747.587,311.762z"/>
				</g>
				
			</g>
			
			<line fill="none" stroke="#3098C2" stroke-width="5" stroke-miterlimit="10" x1="515.704" y1="315.325" x2="759.132" y2="315.325"/>

			
			<path class="f-red-g" d="M617.135,235.701c0-1.642,0.733-3.114,1.739-4.187c1.17-1.086,2.558-1.731,4.156-1.731
				c1.659,0,3.213,0.646,4.186,1.731c1.111,1.072,1.713,2.545,1.713,4.187c0,1.634-0.602,3.094-1.713,4.188
				c-0.973,1.059-2.525,1.729-4.186,1.73c-1.6-0.002-2.986-0.672-4.156-1.73C617.868,238.794,617.135,237.334,617.135,235.701
				 M632.577,235.701c0-5.29-4.229-9.553-9.547-9.558c-5.174,0.005-9.486,4.268-9.486,9.558c0,4.644,3.289,8.519,7.68,9.375v2.449
				h-4.256v3.637h4.256v4.262h3.619v-4.262h4.271v-3.637h-4.271v-2.449C629.26,244.219,632.577,240.344,632.577,235.701"/>
			<path fill="none" stroke="#FFFFFF" stroke-width="5" stroke-miterlimit="10" d="M580.493,256.032
				c7.612-26.741,30.221-46.136,56.917-46.137c26.253,0,48.548,18.757,56.529,44.805"/>
			<path fill="none" stroke="#FFFFFF" stroke-width="5" stroke-miterlimit="10" d="M580.493,341.628
				c7.612,26.747,30.221,46.138,56.917,46.138c26.253,0.001,48.548-18.753,56.529-44.799"/>
			<g>
				<path fill="none" d="M651.612,247.799c-0.099,0.163-0.22,0.308-0.384,0.424c-0.163,0.12-0.344,0.21-0.56,0.271
					c-0.206,0.053-0.37,0.091-0.524,0.104v-1.008h-0.819v1.008c-0.49-0.073-0.867-0.272-1.133-0.594
					c-0.099-0.121-0.156-0.268-0.228-0.414h-2.076c0.166,0.708,0.455,1.271,0.841,1.699c0.672,0.582,1.5,0.928,2.596,0.996v1.224
					h0.82v-1.224c0.729-0.043,1.362-0.188,1.796-0.436c0.417-0.242,0.823-0.52,1.126-0.822c0.277-0.305,0.474-0.617,0.575-0.939
					c0.054-0.188,0.082-0.349,0.109-0.498h-2.07C651.661,247.66,651.646,247.734,651.612,247.799z"/>
				<rect x="648.249" y="232.382" fill="none" width="3.062" height="1.915"/>
				<path fill="none" d="M653.73,246.462c-0.028-0.31-0.127-0.609-0.3-0.935c-0.191-0.299-0.48-0.598-0.925-0.879
					c-0.371-0.286-0.875-0.533-1.611-0.713c-0.157-0.046-0.31-0.085-0.432-0.111c-0.121-0.029-0.221-0.061-0.318-0.088v-2.551
					c0.293,0,0.599,0.143,0.864,0.401c0.241,0.267,0.376,0.59,0.384,0.984h2.053c-0.024-0.495-0.139-0.935-0.331-1.3
					c-0.186-0.361-0.458-0.668-0.773-0.918c-0.262-0.241-0.562-0.443-0.924-0.585c-0.402-0.125-0.864-0.216-1.271-0.27v-1.12h-0.819
					v1.12c-0.479,0.031-0.902,0.117-1.26,0.247c-0.393,0.14-0.765,0.341-1.112,0.589c-0.326,0.265-0.544,0.579-0.706,0.953
					c-0.178,0.372-0.269,0.812-0.269,1.3c0,0.481,0.075,0.878,0.231,1.202c0.162,0.317,0.341,0.592,0.6,0.815
					c0.307,0.211,0.643,0.384,1,0.521c0.342,0.127,0.643,0.236,1.008,0.328c0.1,0.02,0.207,0.042,0.301,0.068
					c0.09,0.024,0.151,0.046,0.207,0.067v2.002h0.819v-1.745c0.558,0.139,1.003,0.317,1.253,0.508c0.233,0.188,0.35,0.466,0.35,0.834
					c0,0.151-0.026,0.28-0.064,0.403h2.07c0.02-0.114,0.033-0.221,0.033-0.307C653.786,247.047,653.769,246.761,653.73,246.462z
					 M649.325,243.541c-0.508-0.109-0.863-0.239-1.031-0.424c-0.174-0.171-0.27-0.41-0.27-0.734c0-0.21,0.036-0.379,0.104-0.529
					c0.06-0.152,0.146-0.274,0.26-0.367c0.1-0.104,0.25-0.177,0.408-0.23c0.173-0.052,0.349-0.07,0.529-0.07V243.541z"/>
				<path fill="none" d="M647.782,246.698h-2.044c0.029,0.325,0.079,0.621,0.15,0.893h2.076
					C647.854,247.335,647.778,247.055,647.782,246.698z"/>
				<path class="f-blue-g" d="M650.67,248.495c0.216-0.062,0.396-0.151,0.561-0.271c0.163-0.116,0.284-0.262,0.383-0.424
					c0.033-0.065,0.049-0.139,0.069-0.208h-1.536v1.008C650.3,248.585,650.464,248.547,650.67,248.495z"/>
				<path fill="#FFFFFF" d="M651.747,247.187c0-0.368-0.115-0.646-0.35-0.834c-0.25-0.19-0.695-0.369-1.253-0.508v1.745h1.537
					C651.721,247.467,651.747,247.338,651.747,247.187z"/>
				<path fill="#FFFFFF" d="M645.738,246.698h2.044c-0.004,0.357,0.071,0.638,0.184,0.893h1.359v-2.002
					c-0.056-0.021-0.117-0.043-0.207-0.067c-0.094-0.025-0.201-0.048-0.301-0.068c-0.365-0.091-0.666-0.201-1.008-0.328
					c-0.357-0.138-0.693-0.311-1-0.521c-0.259-0.224-0.438-0.498-0.6-0.815c-0.156-0.324-0.231-0.721-0.231-1.202
					c0-0.487,0.091-0.928,0.269-1.3c0.162-0.374,0.38-0.688,0.706-0.953c0.349-0.248,0.721-0.449,1.112-0.589
					c0.356-0.13,0.78-0.216,1.26-0.247v-1.12h0.819v1.12c0.407,0.054,0.869,0.145,1.271,0.27c0.362,0.142,0.662,0.344,0.924,0.585
					c0.315,0.25,0.589,0.557,0.773,0.918c0.192,0.365,0.307,0.805,0.331,1.3h-2.053c-0.008-0.394-0.143-0.717-0.384-0.984
					c-0.267-0.258-0.57-0.401-0.863-0.401v2.551c0.098,0.028,0.196,0.059,0.317,0.088c0.122,0.026,0.273,0.065,0.433,0.111
					c0.735,0.18,1.239,0.427,1.61,0.713c0.443,0.281,0.732,0.58,0.925,0.879c0.174,0.325,0.271,0.625,0.3,0.935
					c0.038,0.299,0.056,0.585,0.056,0.821c0,0.086-0.014,0.192-0.033,0.307h6.889c-0.841-3.666-3.729-8.59-6.41-12.19
					c-0.012-0.009-0.016-0.015-0.021-0.021c-0.258-0.399-0.489-0.753-0.746-1.116c-0.363-0.598-0.56-1.323-0.098-2.373l1.492-3.597
					l-2.424-1.075l0.271-1.075h-5.977l0.344,1.373l-2.432,0.777l1.536,3.597c0.688,1.786-0.313,2.636-0.985,3.51
					c-2.578,3.6-5.441,8.524-6.277,12.19h6.975C645.817,247.319,645.769,247.023,645.738,246.698z M648.249,232.382h3.062v1.915
					h-3.062V232.382z"/>
				<path class="f-blue-g" d="M649.325,248.598v-1.008h-1.359c0.07,0.146,0.129,0.293,0.228,0.414
					C648.458,248.326,648.835,248.525,649.325,248.598z"/>
				<path class="f-blue-g" d="M653.753,247.59c-0.027,0.149-0.057,0.31-0.11,0.498c-0.102,0.322-0.297,0.635-0.574,0.939
					c-0.303,0.303-0.709,0.58-1.126,0.822c-0.434,0.247-1.065,0.393-1.796,0.436v1.224h-0.82v-1.224
					c-1.096-0.068-1.924-0.414-2.596-0.996c-0.386-0.429-0.675-0.991-0.841-1.699h-6.975c-0.158,0.686-0.248,1.324-0.248,1.902
					c0,6.125,4.731,5.93,11.103,5.93c6.26,0,11.12,0.195,11.12-5.93c0-0.578-0.098-1.217-0.248-1.902H653.753z"/>
				<path fill="#FFFFFF" d="M648.388,241.486c-0.112,0.093-0.2,0.215-0.26,0.367c-0.065,0.15-0.104,0.319-0.104,0.529
					c0,0.324,0.096,0.563,0.27,0.734c0.168,0.185,0.523,0.314,1.031,0.424v-2.355c-0.183,0-0.356,0.019-0.529,0.07
					C648.638,241.309,648.486,241.382,648.388,241.486z"/>
			</g>
			<g id="pie-icon">
				<path fill="#CDE7EE" d="M645.441,360.292h-16.457c-2.598,0-4.698,1.838-4.698,4.097c0,2.268,2.103,4.098,4.698,4.098
					c1.789,0,3.319-0.872,4.112-2.152c0.8,1.28,2.336,2.152,4.118,2.152c1.783,0,3.315-0.872,4.113-2.152
					c0.799,1.28,2.33,2.152,4.111,2.152c2.602,0,4.706-1.831,4.706-4.098C650.146,362.129,648.042,360.292,645.441,360.292
					L645.441,360.292z"/>
				<path class="f-blue-g" d="M641.329,367.506c-0.798,1.276-2.33,2.15-4.113,2.15c-1.782,0-3.318-0.874-4.118-2.151
					c-0.793,1.277-2.323,2.151-4.112,2.151c-1.411,0-2.662-0.548-3.525-1.413v7.271c0,1.291,1.052,2.339,2.351,2.339h18.806
					c1.307,0,2.358-1.047,2.358-2.339v-7.271c-0.863,0.864-2.121,1.413-3.531,1.413C643.659,369.657,642.128,368.783,641.329,367.506
					L641.329,367.506z"/>
				<path class="f-blue-g" d="M638.39,356.774h-2.347v3.518h2.347V356.774L638.39,356.774z"/>
				<path class="f-yellow-g" d="M637.221,348.583l-0.093,0.104c-0.098,0.103-2.258,2.528-2.258,4.604c0,1.27,1.058,2.303,2.35,2.303
					c1.291,0,2.342-1.034,2.342-2.303c0-2.091-2.16-4.502-2.251-4.604L637.221,348.583L637.221,348.583z"/>
				<path class="f-blue-g" d="M645.441,356.774h-2.348v3.518h2.348V356.774L645.441,356.774z"/>
				<path class="f-yellow-g" d="M644.271,348.583l-0.092,0.104c-0.092,0.104-2.25,2.528-2.25,4.604c0,1.27,1.052,2.303,2.342,2.303
					c1.291,0,2.343-1.034,2.343-2.303c0-2.091-2.16-4.502-2.249-4.604L644.271,348.583L644.271,348.583z"/>
				<path class="f-blue-g" d="M631.327,356.774h-2.347v3.518h2.347V356.774L631.327,356.774z"/>
				<path class="f-yellow-g" d="M630.158,348.583l-0.099,0.104c-0.093,0.104-2.251,2.528-2.251,4.604c0,1.27,1.054,2.303,2.35,2.303
					c1.29,0,2.343-1.034,2.343-2.303c0-2.091-2.162-4.502-2.252-4.604L630.158,348.583L630.158,348.583z"/>
			</g>
			<path fill="none" stroke="#FFFFFF" stroke-width="3" stroke-miterlimit="10" d="M623.027,349.737L623.027,349.737
				c0-3.644,0-6.604,6.795-6.604h14.798c6.786,0,6.786,2.961,6.786,6.604l0,0"/>
			
				<text transform="matrix(1.0007 0 0 1 627.3379 337.6162)" fill="#FFFFFF" font-family="'HelveticaNeue-Bold'" font-size="17.7536">24</text>
			
		</g>

		<path id="js-slide3-circle1" fill="none" transform="rotate(-90,636,316)" stroke="#FFFFFF" stroke-width="5" stroke-miterlimit="10" d="M759.716,317.354
			c0,67.652-54.842,122.5-122.499,122.5s-122.501-54.849-122.501-122.5c0-67.648,54.844-122.5,122.501-122.5
			S759.716,249.705,759.716,317.354z" />


	</g>
	<g>
		<g>
			<path id="js-slide3-ball" class="f-yellow-g" style="opacity:0" fill="#FFFFFF" d="M590.419,469.445c0,4.042-3.275,7.318-7.318,7.318s-7.315-3.276-7.315-7.318
				c0-4.041,3.272-7.316,7.315-7.316S590.419,465.404,590.419,469.445z"/>
			<g id="js-slide3-girl" style="opacity: 0">
				<path fill="#CDE7EE" d="M555.087,530.354c-2.494,0-4.903-0.175-7.229-0.344c-2.527-0.182-5.145-0.369-7.757-0.334l-0.195-14.635
					c3.237-0.041,6.171,0.168,9.003,0.371c7.477,0.539,12.418,0.895,18.378-3.451c7.054-5.148,8.497-14.22,8.497-16.368h14.635
					c0,6.088-3.031,19.817-14.506,28.192C568.495,529.196,561.52,530.354,555.087,530.354z"/>
				<path fill="#CDE7EE" d="M558.203,495.729c0,2.869,3.966,13.821,3.966,13.821s-10-0.266-10.478,0
					c-3.465,1.943-5.124,4.418-11.747,4.418v-36.477C550.021,477.491,558.203,485.657,558.203,495.729z"/>
				<path class="f-blue-g" d="M521.688,495.729c0-10.071,8.168-18.236,18.258-18.236v36.477c-6.633,0-8.705-2.051-11.84-4.418
					c-0.434-0.332-10.308,0-10.308,0S521.682,498.598,521.688,495.729z"/>
				<path fill="#CDE7EE" d="M562.076,535.312c0,0.337,1.638,24.482,1.638,24.482l-23.78,0.002v-44.8
					C552.161,514.997,562.076,524.093,562.076,535.312z"/>
				<path class="f-blue-g" d="M517.786,535.312c0-11.22,9.92-20.314,22.146-20.314v44.8l-23.792-0.001
					C516.142,559.796,517.786,535.649,517.786,535.312z"/>
				<ellipse class="f-blue-g" cx="513.828" cy="548.075" rx="7.715" ry="7.223"/>


				<g id="js-slide3-rocket">
					<path class="f-red-g" d="M495.538,527.479c3.455,1.946,6.418,4.076,7.77,7.334c0.512,1.232,0.344,2.332-0.2,3.388
						c-1.189,2.309-2.871,5.096-4.334,7.69c-1.453,2.582-2.918,5.346-4.229,7.5c-0.602,0.992-1.453,1.703-2.785,1.906
						c-3.487,0.527-6.842-0.906-10.297-2.85c-7.627-4.303-10.662-13.379-6.772-20.271
						C478.574,525.282,487.909,523.179,495.538,527.479z"/>
					<path fill="#FFFFFF" d="M515.754,552.312c1.196,0.675-1.499,5.457-2.693,4.781c-4.084-2.303-15.41-9.212-15.41-9.212
						l2.248-3.984C499.896,543.896,512.47,550.46,515.754,552.312z"/>
					<path fill="#CDE7EE" d="M503.573,545.825c0,0-1.064-0.25-0.876-3.724c0.187-3.475,0.658-4.473,0.658-4.473l-3.459,6.268
						L503.573,545.825z"/>
					<path fill="#CDE7EE" d="M501.196,550.042c0,0-0.765-0.783-3.64,1.176c-2.873,1.957-3.481,2.881-3.481,2.881l3.569-6.207
						L501.196,550.042z"/>
				</g>
			</g>

			</g>
			


		<g id="js-slide3-table" style="opacity: 0">
			<line fill="none" stroke="#FFFFFF" stroke-width="5" stroke-miterlimit="10" x1="438.664" y1="561.837" x2="636.331" y2="561.837"/>
			<line fill="none" stroke="#FFFFFF" stroke-width="5" stroke-miterlimit="10" x1="539.934" y1="613.058" x2="539.934" y2="561.623"/>
		</g>

		<path id="js-slide3-circle2" fill="none" transform="rotate(-8,539,490)" stroke="#FFFFFF" stroke-width="5" stroke-miterlimit="10" d="M544.779,368.375l-5.124,0
	c-67.655,0-122.5,54.846-122.5,122.5c0,67.655,54.845,122.5,122.5,122.5c25.976,0,50.062-8.085,69.882-21.875
	c31.803-22.128,52.618-58.945,52.618-100.625c0-67.091-53.936-121.586-120.813-122.488"/>
		<!-- <circle transform="rotate(-94,539,490)" id="js-slide3-circle2" class="slide3-circle2" fill="none" stroke="#FFFFFF" stroke-width="5" stroke-miterlimit="10" cx="537.578" cy="490.558" r="122.5" /> -->
		
	</g>
	<g>
		<g id="js-slide3-girl2" style="opacity:0">
			<path class="f-blue-g" d="M718.341,568.62c0,2.867-3.973,13.82-3.973,13.82s9.998-0.267,10.471,0
				c3.461,1.94,5.117,4.417,11.741,4.417V550.38C726.503,550.38,718.341,558.546,718.341,568.62z"/>
			<path fill="#CDE7EE" d="M754.817,568.62c0-10.074-8.165-18.24-18.237-18.24v36.479c6.62,0,8.698-2.055,11.818-4.417
				c0.435-0.33,10.299,0,10.299,0S754.819,571.487,754.817,568.62z"/>
			<path class="f-blue-g" d="M714.454,608.577c0,0.59-0.053,0.26,0,0.84l22.126,1.83v-22.984
				C724.36,588.263,714.454,597.357,714.454,608.577z"/>
			<path fill="#CDE7EE" d="M758.697,608.577c0-11.22-9.905-20.314-22.117-20.314v22.984l22.117-1.828
				C758.756,608.841,758.697,609.169,758.697,608.577z"/>
		</g>

		<g id="js-slide3-brands">
      <g>
        <path class="f-blue-g" d="M710.896,532.735L710.896,532.735v-3.162c-5.566,0-10.082-4.515-10.082-10.078h-3.16
          c0,5.563-4.517,10.078-10.078,10.078v3.162c5.562,0,10.078,4.512,10.078,10.079l0,0h3.16
          C700.812,537.247,705.329,532.735,710.896,532.735z"/>
      </g>
      <g>
        <path class="f-white-g" d="M848.966,458.338L848.966,458.338v-2.373c-4.176,0-7.562-3.386-7.562-7.562h-2.373
          c0,4.179-3.391,7.562-7.564,7.562v2.373c4.177,0,7.564,3.386,7.564,7.564l0,0h2.373
          C841.401,461.724,844.79,458.338,848.966,458.338z"/>
      </g>
      <g>
        <path fill="#FFFFFF" d="M809.82,541.446L809.82,541.446v-2.679c-4.715,0-8.532-3.816-8.532-8.528h-2.674
          c0,4.712-3.818,8.528-8.531,8.528v2.679c4.713,0,8.531,3.817,8.531,8.528l0,0h2.674
          C801.288,545.267,805.105,541.446,809.82,541.446z"/>
      </g>
      <g>
        <path class="f-blue-g" d="M840.215,509.102L840.215,509.102v-4.267c-7.509,0-13.599-6.087-13.599-13.6h-4.271
          c0,7.513-6.087,13.598-13.598,13.598v4.269c7.511,0,13.598,6.09,13.598,13.603l0,0h4.271
          C826.616,515.188,832.706,509.102,840.215,509.102z"/>
        <g>
          <path fill="#FFFFFF" d="M825,500.902c0.806-1.062,1.927-1.067,1.927-1.067s0.167,0.999-0.634,1.96
            c-0.854,1.028-1.827,0.859-1.827,0.859S824.283,501.847,825,500.902z"/>
          <path fill="#FFFFFF" d="M824.567,503.354c0.416,0,1.186-0.567,2.187-0.567c1.725,0,2.402,1.227,2.402,1.227
            s-1.327,0.682-1.327,2.324c0,1.856,1.653,2.497,1.653,2.497s-1.156,3.251-2.719,3.251c-0.716,0-1.271-0.483-2.025-0.483
            c-0.771,0-1.533,0.502-2.031,0.502c-1.424,0-3.225-3.085-3.225-5.562c0-2.438,1.521-3.719,2.952-3.719
            C823.364,502.818,824.085,503.354,824.567,503.354z"/>
        </g>
      </g>
      <g>
        <path class="f-red-g" fill="#CDE7EE" d="M703.579,471.204L703.579,471.204l0.001-4.265c-7.511,0-13.598-6.094-13.598-13.604h-4.271
          c0,7.51-6.09,13.598-13.598,13.598v4.271c7.508,0,13.598,6.088,13.598,13.6l0,0h4.271
          C689.982,477.292,696.069,471.204,703.579,471.204z"/>
        <g>
          <g>
            <path class="f-yellow-g" d="M690.216,465.062c0.857,0,1.551,3.596,1.551,8.028h1.242c0-4.774-1.251-8.646-2.793-8.646
              c-0.879,0-1.661,1.164-2.172,2.98c-0.513-1.817-1.296-2.98-2.173-2.98c-1.543,0-2.794,3.872-2.794,8.646h1.241
              c0-4.435,0.693-8.028,1.553-8.028c0.857,0,1.553,3.315,1.553,7.411h1.24C688.664,468.381,689.359,465.062,690.216,465.062z"/>
          </g>
          <g>
            <path class="f-yellow-g" d="M693.63,472.476c0.171,0,0.312,0.135,0.312,0.309c0,0.179-0.142,0.311-0.312,0.311
              c-0.168,0-0.311-0.132-0.311-0.311C693.319,472.608,693.462,472.476,693.63,472.476z M693.63,473.048
              c0.146,0,0.254-0.115,0.254-0.266c0-0.147-0.107-0.261-0.254-0.261c-0.144,0-0.255,0.111-0.255,0.261
              C693.375,472.934,693.486,473.048,693.63,473.048z M693.511,472.604h0.144c0.085,0,0.126,0.034,0.126,0.104
              c0,0.065-0.042,0.093-0.098,0.098l0.104,0.159h-0.062l-0.1-0.154h-0.058v0.154h-0.06L693.511,472.604L693.511,472.604z
               M693.567,472.764h0.058c0.05,0,0.096-0.002,0.096-0.059c0-0.048-0.043-0.056-0.08-0.056h-0.07L693.567,472.764L693.567,472.764
              z"/>
          </g>
        </g>
      </g>
      <g>
        <path fill="#FFFFFF" d="M808.439,479.035h0.003v-5.736c-10.104,0-18.292-8.188-18.292-18.289h-5.739
          c0,10.103-8.188,18.289-18.287,18.289v5.736c10.1,0,18.287,8.189,18.287,18.294l0,0h5.739
          C790.15,487.227,798.341,479.035,808.439,479.035z"/>
        <g>
          <path fill="none" stroke="#0084A3" stroke-width="2" stroke-miterlimit="10" d="M795.283,476.169c0-4.418-3.581-8-7.999-8
            c-4.417,0-8.001,3.582-8.001,8s3.584,8,8.001,8C791.702,484.169,795.283,480.587,795.283,476.169L795.283,476.169z"/>
          <path class="f-blue-g" d="M795.089,476.169c0-4.312-3.493-7.807-7.805-7.807c-4.312,0-7.809,3.495-7.809,7.807
            c0,4.312,3.494,7.808,7.809,7.808C791.596,483.977,795.089,480.48,795.089,476.169L795.089,476.169z"/>
          <path fill="#FFFFFF" d="M783.904,471.781c-0.03-0.21-0.156-0.385-0.351-0.475c-0.189-0.088-0.419-0.055-0.588,0.066
            c-0.015,0.009-0.024,0.021-0.039,0.032c0.028-0.099,0.033-0.194,0.015-0.293c-0.025-0.099-0.072-0.188-0.146-0.254
            c-0.146-0.145-0.364-0.188-0.552-0.117c-0.092,0.033-0.172,0.091-0.231,0.165c-0.034,0.042-0.062,0.084-0.098,0.127
            c-0.182,0.221-0.357,0.439-0.53,0.662c-0.156,0.188-0.307,0.381-0.457,0.566c-0.012,0.016-0.021,0.025-0.028,0.037
            c-0.003,0,0.02,0.019,0.02,0.021c0.062,0.046,0.12,0.095,0.178,0.142c0.228,0.179,0.447,0.356,0.667,0.536
            c0.225,0.177,0.442,0.352,0.666,0.529c0.053,0.045,0.112,0.09,0.167,0.135c0.003,0.002,0.019,0.016,0.021,0.013
            c0.009-0.015,0.021-0.025,0.033-0.042c0.147-0.188,0.302-0.378,0.452-0.564c0.184-0.229,0.362-0.453,0.545-0.683
            c0.096-0.115,0.194-0.227,0.239-0.374C783.909,471.938,783.914,471.859,783.904,471.781L783.904,471.781L783.904,471.781z
             M781.949,472.42c-0.092-0.073-0.185-0.146-0.273-0.22c-0.036-0.028-0.072-0.06-0.104-0.085c0,0,0.029-0.046,0.035-0.048
            c0.172-0.218,0.343-0.432,0.512-0.644c0.047-0.059,0.09-0.117,0.156-0.146c0.094-0.039,0.205-0.017,0.273,0.061
            c0.053,0.062,0.073,0.146,0.057,0.229c-0.021,0.066-0.068,0.122-0.111,0.177c-0.094,0.113-0.188,0.227-0.271,0.339
            C782.132,472.195,782.041,472.308,781.949,472.42L781.949,472.42L781.949,472.42z M783.307,472.158
            c-0.059,0.068-0.111,0.144-0.172,0.217c-0.16,0.199-0.318,0.398-0.479,0.598c0,0.001-0.002,0.01-0.002,0.005
            c-0.015-0.004-0.019-0.012-0.027-0.019c-0.042-0.034-0.084-0.068-0.129-0.104c-0.078-0.062-0.151-0.119-0.228-0.183
            c0.146-0.182,0.287-0.358,0.436-0.543c0.073-0.087,0.141-0.175,0.214-0.264c0.047-0.063,0.109-0.108,0.196-0.11
            c0.101-0.003,0.188,0.059,0.229,0.146C783.378,471.989,783.367,472.084,783.307,472.158L783.307,472.158z"/>
          <path fill="#FFFFFF" d="M792.166,476.169c0-2.695-2.188-4.88-4.882-4.88c-2.696,0-4.882,2.185-4.882,4.88s2.186,4.88,4.882,4.88
            C789.979,481.049,792.166,478.864,792.166,476.169L792.166,476.169z"/>
          <path fill="#7FBFCF" d="M787.283,471.537c-2.527,0.062-4.567,2.104-4.633,4.632h4.633V471.537L787.283,471.537z"/>
          <path fill="#7FBFCF" d="M787.283,480.802c2.525-0.062,4.566-2.104,4.633-4.633h-4.633V480.802L787.283,480.802z"/>
          <polygon fill="#FFFFFF" points="792.489,470.83 792.083,470.452 790.76,472.186 791.166,472.564 792.618,471.899 791.65,473.166 
            791.932,473.646 793.914,472.737 793.635,472.258 792.49,472.783 793.303,471.715 792.947,471.271 791.729,471.83       "/>
          <polygon fill="#FFFFFF" points="786.564,469.501 787.08,470.964 787.487,470.964 788.003,469.501 788.057,470.964 
            788.625,471.045 788.542,468.85 787.812,468.769 787.284,470.314 786.756,468.769 786.023,468.85 785.943,471.045 
            786.51,470.964      "/>
        </g>
      </g>
      <g>
        <path class="f-white-g" d="M830.905,439.535L830.905,439.535l0.001-4.643c-8.171,0-14.796-6.62-14.796-14.792h-4.644
          c0,8.172-6.622,14.79-14.793,14.79v4.645c8.171,0,14.793,6.624,14.793,14.795l0,0h4.644
          C816.11,446.158,822.735,439.535,830.905,439.535z"/>
        <g>
          <path class="f-blue-g" d="M813.791,444.091c-3.526,0-6.385-2.855-6.385-6.385c0-3.526,2.855-6.384,6.385-6.384
            s6.385,2.855,6.385,6.384S817.317,444.091,813.791,444.091L813.791,444.091z"/>
          <path fill="white" d="M813.793,438.671l-5.184,2.146c1.092,1.835,3.067,2.954,5.205,2.941c2.129-0.006,4.103-1.137,5.184-2.977
            L813.793,438.671L813.793,438.671z"/>
          <path fill="white" d="M812.895,437.155l0.826-5.475c-2.129,0.028-4.092,1.178-5.154,3.021
            c-1.068,1.846-1.079,4.119-0.032,5.976L812.895,437.155L812.895,437.155z"/>
          <path fill="white" d="M814.663,437.228l4.413,3.415c1.025-1.854,1.003-4.111-0.067-5.946c-1.062-1.834-3.01-2.979-5.133-3.013
            L814.663,437.228L814.663,437.228z"/>
        </g>
      </g>
      <g>
        <path class="f-white-g" d="M762.109,444.593h0.003v-7.87c-13.861,0-25.101-11.237-25.101-25.103h-7.879
          c0,13.862-11.236,25.1-25.099,25.1v7.873c13.857,0,25.099,11.24,25.099,25.102c0,0,0,0,0,0.003h7.879
          C737.015,455.833,748.251,444.593,762.109,444.593z"/>
        <g>
          <line fill="none" x1="739.784" y1="452.536" x2="739.784" y2="453.337"/>
          <polyline class="f-blue-g" points="740.405,452.423 740.679,453.125 740.679,453.125      "/>
          <path class="f-green-g" d="M734.021,433.461L734.021,433.461c-0.112-0.019-0.654-0.108-1.283-0.108
            c-0.628,0-1.172,0.092-1.286,0.108c-0.062,0.01-0.087-0.05-0.036-0.083c0.047-0.039,1.322-1.012,1.322-1.012
            s1.277,0.973,1.32,1.012C734.111,433.411,734.085,433.471,734.021,433.461z M731.814,439.777L731.814,439.777
            c0,0-0.072,0.022-0.092,0.086c0.271,0.205,0.448,0.675,1.016,0.675c0.559,0,0.749-0.47,1.018-0.675
            c-0.021-0.062-0.089-0.086-0.089-0.086s-0.354,0.086-0.929,0.086S731.814,439.777,731.814,439.777z M732.738,438.991
            L732.738,438.991c-0.154,0-0.188-0.06-0.295-0.06c-0.103,0-0.297,0.082-0.347,0.151c0.014,0.039,0.021,0.071,0.05,0.1
            c0.226,0.038,0.323,0.162,0.592,0.162c0.259,0,0.357-0.125,0.586-0.162c0.037-0.025,0.043-0.061,0.047-0.1
            c-0.036-0.069-0.233-0.151-0.334-0.151C732.925,438.934,732.893,438.991,732.738,438.991z M745.491,441.399L745.491,441.399
            c-0.01,0.31-0.047,0.609-0.08,0.907c-1.443,0.241-1.965-1.049-3.442-0.981c0.083,0.312,0.16,0.637,0.21,0.963
            c1.224-0.005,1.72,1.141,3.079,0.969c-0.073,0.352-0.162,0.697-0.263,1.034c-1.073,0.104-1.453-0.962-2.695-0.933
            c0.017,0.177,0.02,0.352,0.02,0.531c0,0.104,0,0.201-0.003,0.295c1.057-0.008,1.399,0.973,2.412,0.926
            c-0.118,0.345-0.265,0.679-0.421,1.006c-0.725-0.036-0.974-0.967-2.084-0.895c-0.03,0.235-0.071,0.478-0.125,0.705
            c0.962-0.062,1.168,0.818,1.857,0.89c-0.185,0.317-0.366,0.632-0.567,0.93c-0.399-0.218-0.761-0.873-1.524-0.915
            c0.071-0.242,0.139-0.494,0.204-0.74c-0.69,0-1.472-0.267-2.123-0.867c0.207-1.213-1.669-2.438-1.669-3.332
            c0-0.963,0.483-1.488,0.483-2.794c0-0.956-0.465-2.004-1.177-2.717c-0.132-0.141-0.276-0.252-0.438-0.353
            c0.65,0.802,1.146,1.756,1.146,2.854c0,1.222-0.567,1.869-0.567,2.997c0,1.127,1.65,2.104,1.65,3.262
            c0,0.459-0.146,0.91-0.629,1.787c0.736,0.743,1.702,1.146,2.327,1.146c0.205,0,0.312-0.064,0.39-0.225
            c0.058-0.137,0.122-0.274,0.176-0.414c0.673,0.025,0.979,0.638,1.352,0.882c-0.202,0.27-0.422,0.529-0.646,0.786
            c-0.248-0.272-0.583-0.732-1.072-0.86c-0.082,0.168-0.179,0.333-0.278,0.501c0.426,0.108,0.71,0.54,0.934,0.814
            c-0.232,0.256-0.484,0.488-0.752,0.719c-0.159-0.253-0.41-0.573-0.701-0.747c-0.101,0.142-0.209,0.283-0.321,0.417
            c0.238,0.165,0.453,0.455,0.594,0.694c-0.299,0.244-0.614,0.473-0.938,0.688c-0.156-1.296-1.927-2.185-1.45-3.688
            c-0.155,0.265-0.348,0.6-0.348,0.991c0,1.092,1.164,1.954,1.25,3.038c-0.23,0.142-0.479,0.277-0.729,0.404
            c-0.043-1.188-1.271-2.487-1.271-3.467c0-1.091,1.429-2.186,1.429-3.473c0-1.279-1.649-2.172-1.649-3.303
            c0-1.128,0.701-1.781,0.701-3.221c0-1.062-0.505-2.14-1.279-2.821c-0.14-0.121-0.271-0.218-0.438-0.304
            c0.734,0.879,1.158,1.681,1.158,2.891c0,1.361-0.802,2.112-0.802,3.443c0,1.333,1.61,2.073,1.61,3.312
            c0,1.246-1.503,2.292-1.503,3.566c0,1.16,1.326,2.316,1.348,3.698c-0.283,0.127-0.581,0.238-0.891,0.35
            c0.173-1.396-1.322-2.834-1.322-3.965c0-1.243,1.562-2.308,1.562-3.649c0-1.335-1.589-1.956-1.589-3.331
            c0-1.372,0.982-2.137,0.982-3.646c0-1.188-0.592-2.249-1.441-2.905c-0.021-0.015-0.039-0.029-0.054-0.047
            c-0.087-0.052-0.148,0.019-0.089,0.091c0.598,0.75,0.922,1.515,0.922,2.643c0,1.393-1.118,2.518-1.118,3.86
            c0,1.583,1.506,2.039,1.506,3.338c0,1.311-1.611,2.349-1.611,3.729c0,1.28,1.522,2.704,1.265,4.187
            c-0.307,0.076-0.616,0.146-0.934,0.201c0.289-1.84-1.204-3.167-1.204-4.366c0-1.307,1.667-2.474,1.667-3.75
            c0-1.199-1.194-1.594-1.357-2.824c-0.015-0.165-0.153-0.29-0.337-0.261c-0.246,0.044-0.562,0.206-1.047,0.206
            c-0.492,0-0.798-0.162-1.046-0.206c-0.183-0.029-0.318,0.096-0.346,0.261c-0.153,1.23-1.353,1.625-1.353,2.824
            c0,1.276,1.671,2.443,1.671,3.75c0,1.199-1.499,2.525-1.216,4.366c-0.31-0.057-0.625-0.125-0.927-0.201
            c-0.268-1.48,1.266-2.903,1.266-4.187c0-1.382-1.613-2.42-1.613-3.729c0-1.299,1.502-1.755,1.502-3.338
            c0-1.345-1.118-2.47-1.118-3.86c0-1.128,0.319-1.894,0.933-2.643c0.054-0.072-0.013-0.143-0.093-0.091
            c-0.021,0.019-0.033,0.033-0.057,0.047c-0.851,0.656-1.438,1.719-1.438,2.905c0,1.511,0.974,2.274,0.974,3.646
            c0,1.375-1.58,1.996-1.58,3.331c0,1.344,1.56,2.406,1.56,3.649c0,1.131-1.496,2.568-1.324,3.965
            c-0.303-0.109-0.597-0.223-0.884-0.35c0.015-1.381,1.347-2.538,1.347-3.698c0-1.274-1.509-2.321-1.509-3.566
            c0-1.238,1.618-1.979,1.618-3.312s-0.805-2.083-0.805-3.443c0-1.21,0.426-2.012,1.157-2.891
            c-0.161,0.086-0.297,0.183-0.435,0.304c-0.776,0.684-1.287,1.76-1.287,2.821c0,1.438,0.709,2.092,0.709,3.221
            c0,1.13-1.646,2.021-1.646,3.303c0,1.287,1.429,2.381,1.429,3.473c0,0.979-1.235,2.278-1.272,3.467
            c-0.252-0.127-0.494-0.266-0.738-0.404c0.095-1.084,1.252-1.946,1.252-3.038c0-0.394-0.186-0.729-0.342-0.991
            c0.479,1.501-1.292,2.391-1.458,3.688c-0.312-0.216-0.629-0.441-0.931-0.688c0.144-0.239,0.352-0.529,0.598-0.694
            c-0.119-0.136-0.225-0.276-0.328-0.417c-0.285,0.173-0.542,0.49-0.708,0.747c-0.256-0.229-0.506-0.464-0.752-0.719
            c0.227-0.274,0.521-0.706,0.938-0.814c-0.099-0.168-0.193-0.333-0.275-0.501c-0.492,0.128-0.824,0.588-1.081,0.86
            c-0.216-0.257-0.436-0.519-0.638-0.786c0.374-0.244,0.681-0.854,1.353-0.882c0.057,0.139,0.107,0.276,0.178,0.414
            c0.068,0.157,0.178,0.225,0.39,0.225c0.616,0,1.58-0.402,2.324-1.146c-0.479-0.877-0.625-1.327-0.625-1.787
            c0-1.156,1.647-2.135,1.647-3.262c0-1.128-0.57-1.775-0.57-2.997c0-1.098,0.5-2.052,1.146-2.854
            c-0.157,0.101-0.3,0.212-0.441,0.353c-0.697,0.712-1.17,1.761-1.17,2.717c0,1.306,0.486,1.832,0.486,2.794
            c0,0.893-1.877,2.119-1.666,3.332c-0.656,0.603-1.44,0.867-2.125,0.867c0.06,0.246,0.128,0.498,0.204,0.74
            c-0.77,0.042-1.122,0.697-1.527,0.915c-0.199-0.298-0.393-0.61-0.564-0.93c0.688-0.069,0.896-0.952,1.851-0.89
            c-0.05-0.229-0.087-0.47-0.125-0.705c-1.101-0.072-1.353,0.855-2.077,0.895c-0.149-0.327-0.296-0.661-0.422-1.006
            c1.015,0.047,1.354-0.934,2.417-0.926c-0.006-0.095-0.006-0.191-0.006-0.295c0-0.182,0.006-0.354,0.014-0.531
            c-1.235-0.029-1.621,1.035-2.694,0.933c-0.101-0.337-0.183-0.685-0.258-1.034c1.354,0.172,1.854-0.974,3.072-0.969
            c0.058-0.327,0.125-0.651,0.221-0.963c-1.486-0.064-1.998,1.226-3.44,0.981c-0.044-0.298-0.07-0.6-0.08-0.907
            c1.674,0.189,2.303-1.188,3.834-1.021c0.146-0.366,0.313-0.722,0.498-1.059c-1.921-0.338-2.568,1.268-4.351,1.02
            c0.191-6.88,5.832-12.396,12.767-12.396s12.573,5.516,12.771,12.396c-1.79,0.248-2.439-1.355-4.358-1.02
            c0.188,0.337,0.361,0.69,0.499,1.059C743.183,440.211,743.812,441.591,745.491,441.399z M727.25,436.054L727.25,436.054
            c-0.941-0.382-2.084-0.299-3.055,0.327c-0.149-0.902-0.64-1.707-1.336-2.195c-0.102-0.062-0.2,0-0.192,0.114
            c0.148,1.911-0.971,3.566-2.344,5.021c1.416,0.424,2.621-1.396,4.461-0.764C725.439,437.583,726.279,436.729,727.25,436.054z
             M732.738,434.9L732.738,434.9c-1.188,0-2.178,0.66-2.439,1.528c-0.021,0.067,0.006,0.114,0.082,0.075
            c0.216-0.093,0.46-0.14,0.72-0.14c0.488,0,0.912,0.179,1.163,0.481c0.108,0.369,0.123,0.898-0.003,1.206
            c-0.198-0.045-0.269-0.204-0.467-0.204c-0.194,0-0.346,0.144-0.672,0.144c-0.331,0-0.37-0.156-0.583-0.156
            c-0.263,0-0.312,0.263-0.312,0.557c0,1.321,1.219,3.142,2.512,3.142c1.295,0,2.504-1.818,2.504-3.142
            c0-0.294-0.062-0.55-0.326-0.585c-0.133,0.096-0.254,0.187-0.557,0.187c-0.339,0-0.427-0.144-0.616-0.144
            c-0.232,0-0.21,0.496-0.492,0.528c-0.188-0.449-0.192-1.02-0.037-1.53c0.251-0.305,0.675-0.481,1.157-0.481
            c0.266,0,0.513,0.046,0.723,0.14c0.074,0.04,0.103-0.008,0.085-0.075C734.916,435.562,733.921,434.9,732.738,434.9z
             M734.63,436.79L734.63,436.79c-0.288,0-0.618,0.086-0.833,0.323c-0.016,0.061-0.016,0.158,0.013,0.216
            c0.514-0.177,0.973-0.181,1.193,0.067c0.113-0.107,0.152-0.201,0.152-0.312C735.155,436.912,734.981,436.79,734.63,436.79z
             M730.479,437.396L730.479,437.396c0.248-0.254,0.771-0.244,1.319-0.045c0.021-0.266-0.461-0.562-0.949-0.562
            c-0.35,0-0.522,0.122-0.522,0.293C730.323,437.195,730.365,437.289,730.479,437.396z M738.651,432.929L738.651,432.929
            c-0.938,0.064-1.751,0.384-2.412,0.923c0.287-0.793,0.64-1.483,1.09-2.151c-1.193,0.125-2.193,0.56-2.92,1.306l-0.566-1.494
            l1.267-1.115l-1.691-0.113l-0.677-1.574l-0.676,1.574l-1.693,0.113l1.271,1.115l-0.57,1.494
            c-0.728-0.747-1.724-1.181-2.914-1.306c0.443,0.668,0.801,1.358,1.079,2.151c-0.655-0.539-1.473-0.855-2.406-0.923
            c0.562,0.722,1.059,1.486,1.429,2.312c0.043,0.096,0.13,0.127,0.229,0.076c1.287-0.638,2.727-0.992,4.259-0.992
            c1.526,0,2.974,0.354,4.26,0.992c0.089,0.051,0.185,0.021,0.228-0.076C737.59,434.415,738.089,433.648,738.651,432.929z
             M740.697,438.561L740.697,438.561c1.828-0.636,3.039,1.188,4.458,0.764c-1.373-1.454-2.492-3.109-2.341-5.021
            c0.004-0.113-0.102-0.179-0.194-0.113c-0.698,0.487-1.189,1.293-1.339,2.194c-0.979-0.626-2.109-0.709-3.051-0.327
            C739.198,436.729,740.034,437.583,740.697,438.561z"/>
          <polygon class="f-blue-g" points="739.784,453.337 739.784,453.337 739.657,453.337 739.657,452.536 739.37,452.536 
            739.37,452.423 740.084,452.423 740.084,452.536 739.784,452.536      "/>
          <polygon class="f-blue-g" points="740.679,453.125 740.679,453.125 740.953,452.423 741.152,452.423 741.152,453.337 
            741.023,453.337 741.023,452.575 740.718,453.337 740.633,453.337 740.33,452.575 740.33,453.337 740.205,453.337 
            740.205,452.423 740.405,452.423       "/>
        </g>
      </g>
      <g>
        <path class="f-white-g" d="M751.141,504.935L751.141,504.935v-5.572c-9.812,0-17.769-7.954-17.769-17.767H727.8
          c0,9.812-7.953,17.767-17.768,17.767v5.572c9.812,0,17.768,7.955,17.768,17.77l0,0h5.572
          C733.372,512.89,741.328,504.935,751.141,504.935z"/>
        <g class="f-red-g">
          <path d="M730.587,497.351c-2.718,0-4.921,2.203-4.921,4.923c0,2.718,2.203,4.92,4.921,4.92
            c2.717,0,4.92-2.202,4.92-4.92C735.507,499.554,733.304,497.351,730.587,497.351 M737.961,502.271
            c0,4.071-3.301,7.375-7.374,7.375s-7.375-3.304-7.375-7.375c0-4.072,3.302-7.375,7.375-7.375S737.961,498.198,737.961,502.271"/>
          <path d="M730.587,499.743c-1.396,0-2.527,1.132-2.527,2.524c0,1.396,1.134,2.529,2.527,2.529
            c1.396,0,2.528-1.133,2.528-2.529C733.115,500.875,731.983,499.743,730.587,499.743"/>
        </g>
      </g>
      <g>
        <path fill="#CDE7EE" d="M782.618,526.318h0.002v-4.04c-7.114,0-12.881-5.771-12.881-12.886h-4.041
          c0,7.115-5.771,12.884-12.879,12.884v4.042c7.108,0,12.879,5.767,12.879,12.882l0,0h4.041
          C769.739,532.085,775.506,526.318,782.618,526.318z"/>
        <g>
          <path class="f-blue-g" d="M771.564,520.612L771.564,520.612c1.019,1.018,1.524,2.352,1.524,3.686s-0.509,2.668-1.524,3.688l0,0l0,0
            c-1.021,1.017-2.354,1.522-3.688,1.522s-2.668-0.509-3.687-1.522l0,0l0,0c-1.021-1.021-1.527-2.354-1.527-3.688
            s0.509-2.668,1.527-3.686l0,0l0,0c1.019-1.021,2.353-1.527,3.687-1.527S770.546,519.594,771.564,520.612L771.564,520.612
            L771.564,520.612z M771.521,520.655L771.521,520.655L771.521,520.655c-1.009-1.008-2.325-1.511-3.646-1.511
            s-2.638,0.503-3.644,1.51l0,0v0.001c-1.01,1.006-1.514,2.323-1.514,3.643c0,1.32,0.505,2.638,1.514,3.646l0,0l0,0
            c1.006,1.006,2.321,1.508,3.644,1.508c1.318,0,2.638-0.502,3.646-1.508l0,0l0,0c1.007-1.009,1.511-2.325,1.511-3.646
            C773.032,522.979,772.528,521.661,771.521,520.655L771.521,520.655z"/>
          <path class="f-blue-g" d="M771.938,521.667c0.102,0.316,0.152,0.651,0.152,1c0,1.123-0.554,2.113-1.393,2.729
            c-1.462,1.076-3.592,1.076-6.532,2.005c0.887,1.062,2.22,1.733,3.714,1.733c2.672,0,4.837-2.166,4.837-4.84
            C772.716,523.328,772.431,522.425,771.938,521.667L771.938,521.667z"/>
          <path class="f-red-g" d="M770.78,520.427c-0.811-0.604-1.813-0.969-2.901-0.969c-2.674,0-4.84,2.168-4.84,4.84
            c0,1.075,0.351,2.069,0.944,2.871C767.239,526.222,769.809,523.669,770.78,520.427L770.78,520.427z"/>
        </g>
      </g>
      <g>
        <path fill="#B5E2ED" d="M792.712,406.501h0.002v-4.265c-7.51,0-13.598-6.094-13.598-13.602h-4.271
          c0,7.508-6.088,13.602-13.596,13.602v4.265c7.508,0,13.596,6.091,13.596,13.601l0,0h4.271
          C779.116,412.592,785.204,406.501,792.712,406.501z"/>
        <g>
          <path class="f-blue-g" d="M780.219,400.562l-2.735,6.463l-0.759-1.658l1.396-3.798c0.104-0.293,0.472-0.433,1.092-0.433l0.22-0.574
            h-3.253l-0.21,0.574c0.462,0,0.65,0.14,0.577,0.433l-0.693,1.931l-1.36-2.938c-0.252-0.314-0.126-0.475,0.367-0.475v-0.682
            h-3.147v0.682c0.587,0,0.955,0.158,1.112,0.475l2.309,4.908l-1.082,2.889c-0.021,0.388-0.629,0.574-1.804,0.574l-0.22,0.577
            h8.979l1.249-2.652h-0.647c-0.608,1.375-1.312,2.075-2.102,2.075h-4.123l0.607-1.626l0.524,1.053h1.176l3.312-7.796
            c0.157-0.475,0.566-0.727,1.207-0.727v-0.606h-2.707v0.606C780.323,399.838,780.556,400.089,780.219,400.562L780.219,400.562z"/>
        </g>
      </g>
    </g>

		<path id="js-slide3-circle3" transform="rotate(-85,738,490)" fill="none" stroke="#FFFFFF" stroke-width="5" stroke-miterlimit="10" d="M859.592,490.557
			c0,67.657-54.847,122.5-122.5,122.5c-67.652,0-122.5-54.844-122.5-122.5c0-67.651,54.848-122.499,122.5-122.499
			C804.745,368.058,859.592,422.905,859.592,490.557z"/>
		
	</g>
</g>

<!-- circles connector -->
<!-- <path fill="#FFFFFF" d="M637.214,442.395c-3.824,0-7.749-0.184-11.663-0.546l-3.524-0.325l1.48-3.216
	c3.279-7.107,7.244-13.938,11.785-20.3l2.039-2.853l2.038,2.853c4.536,6.354,8.499,13.178,11.775,20.28l1.479,3.209l-3.519,0.332
	C645.122,442.204,641.12,442.395,637.214,442.395z"/> -->


<g id="js-slide3-text2-pic" style="opacity:0">
	<rect x="740.723" y="880.323" fill="#D8EDF5" width="100.456" height="66.966"/>
	<g>
		<path fill="#FFFFFF" d="M753.2,911.643c0,4.926,3.995,8.917,8.92,8.917v-17.835C757.195,902.725,753.2,906.718,753.2,911.643z"/>
		<path fill="#FFFFFF" d="M771.035,911.643c0-4.925-3.991-8.918-8.915-8.918v17.835C767.044,920.56,771.035,916.567,771.035,911.643
			z"/>
		<path fill="#FFFFFF" d="M774.506,938.269c0-9.346-5.546-16.922-12.386-16.922v18.384l12.386,0.002
			C774.538,939.249,774.506,938.761,774.506,938.269z"/>
		<path fill="#FFFFFF" d="M749.731,938.269c0,0.49-0.027,0.979,0,1.462h12.389v-18.384
			C755.278,921.347,749.731,928.923,749.731,938.269z"/>
	</g>
	<rect x="740.723" y="880.323" class="f-yellow-g" width="100.456" height="13.856"/>
	<rect x="783.936" y="900.38" fill="#7FBFCF" width="27.543" height="9.015"/>
	<rect x="783.936" y="912.721" fill="#7FBFCF" width="44.82" height="4.51"/>
	<rect x="783.938" y="920.161" fill="#7FBFCF" width="44.818" height="4.512"/>
	<rect x="783.938" y="927.604" fill="#7FBFCF" width="44.818" height="4.509"/>
	<rect x="783.938" y="935.045" fill="#7FBFCF" width="44.818" height="4.509"/>
</g>

<g id="js-slide3-text3-pic" style="opacity:0">

	<g>
		<path class="f-white-g" d="M790.951,1038.517c-0.971,0-1.757-0.784-1.757-1.756V990.74c0-0.971,0.786-1.758,1.757-1.758
		s1.757,0.787,1.757,1.758v46.021C792.708,1037.731,791.922,1038.517,790.951,1038.517z"/>
		<path class="f-white-g" d="M790.951,1116.456c-0.971,0-1.757-0.787-1.757-1.757v-46.03c0-0.971,0.786-1.759,1.757-1.759
			s1.757,0.788,1.757,1.759v46.03C792.708,1115.669,791.922,1116.456,790.951,1116.456z"/>
		<path class="f-white-g" d="M774.994,1054.474H728.97c-0.974,0-1.758-0.784-1.758-1.756c0-0.971,0.784-1.758,1.758-1.758h46.024
			c0.971,0,1.759,0.787,1.759,1.758C776.753,1053.689,775.965,1054.474,774.994,1054.474z"/>
		<path class="f-white-g" d="M852.928,1054.474h-46.025c-0.97,0-1.758-0.784-1.758-1.756c0-0.971,0.788-1.758,1.758-1.758h46.025
			c0.973,0,1.758,0.787,1.758,1.758C854.686,1053.689,853.898,1054.474,852.928,1054.474z"/>

	</g>
	
	<g class="f-red-g">
		<path d="M790.951,1104.349c-28.471,0-51.639-23.159-51.639-51.631c0-28.474,23.168-51.631,51.639-51.631
		s51.63,23.157,51.63,51.631C842.581,1081.188,819.422,1104.349,790.951,1104.349z M790.951,1004.601
		c-26.536,0-48.122,21.587-48.122,48.117c0,26.525,21.586,48.115,48.122,48.115c26.529,0,48.116-21.59,48.116-48.115
		C839.067,1026.188,817.48,1004.601,790.951,1004.601z"/>
	<path d="M790.951,1082.667c-16.518,0-29.95-13.434-29.95-29.949c0-16.518,13.434-29.951,29.95-29.951
		c16.516,0,29.95,13.435,29.95,29.951C820.901,1069.233,807.468,1082.667,790.951,1082.667z M790.951,1026.63
		c-14.385,0-26.088,11.703-26.088,26.088c0,14.384,11.703,26.087,26.088,26.087s26.088-11.703,26.088-26.087
		C817.039,1038.333,805.336,1026.63,790.951,1026.63z"/>
	<path d="M790.951,1059.056c3.499,0,6.339-2.84,6.339-6.338c0-3.5-2.84-6.34-6.339-6.34s-6.339,2.84-6.339,6.34
		C784.612,1056.216,787.452,1059.056,790.951,1059.056"/>
	</g>
	
</g>
</svg>
