<svg version="1.1" id="Layer_1" class="svg"
	 xmlns="http://www.w3.org/2000/svg" xmlns:xlink="http://www.w3.org/1999/xlink" x="0px" y="0px" width="1278.064px"
	 height="1376px" viewBox="0 0 1278.064 1376" enable-background="new 0 0 1278.064 1376" xml:space="preserve">

<!-- SLIDE1 LINE1 -->
<line id="js-slide1-line1--1" fill="none" stroke="#FFFFFF" stroke-width="5" stroke-linejoin="round" stroke-miterlimit="10" x1="637.785" y1="401.157" x2="637.785" y2="515.178" stroke-dasharray="115.5" stroke-dashoffset="115.5"
/>

<line id="js-slide1-line1--2" fill="none" stroke="#FFFFFF" stroke-width="5" stroke-linejoin="round" stroke-miterlimit="10" x1="638.806" y1="458.167" x2="589.322" y2="458.167" stroke-dasharray="50" stroke-dashoffset="50"  />

<polyline id="js-slide1-line1--3" fill="none" stroke="#FFFFFF" stroke-width="5" stroke-linejoin="round" stroke-miterlimit="10" points="513.45,458.167 
	171.056,458.167 171.056,800.055 513.45,800.055" stroke-dasharray="1041" stroke-dashoffset="1041" />

<g id="js-search-icon" style="opacity:0">
	<rect x="561.061" y="469.446" transform="matrix(-0.8221 -0.5693 0.5693 -0.8221 775.9922 1183.7194)" fill="#FFFFFF" width="23.728" height="2.365"/>
	<path fill="#FFFFFF" d="M548.512,439.108c-8.505,1.35-14.229,9.886-12.772,19.062c1.452,9.179,9.521,15.528,18.042,14.184
		c8.503-1.353,14.228-9.888,12.771-19.063C565.1,444.108,557.021,437.761,548.512,439.108z M553.329,469.526
		c-7.062,1.115-13.763-4.15-14.974-11.771c-1.205-7.616,3.545-14.699,10.604-15.814c7.058-1.119,13.758,4.147,14.964,11.767
		C565.13,461.321,560.386,468.408,553.329,469.526z"/>
</g>

<!-- SLIDE1 LINE2 -->
<line id="js-slide1-line2--1" fill="none" stroke="#FFF" stroke-width="5" stroke-linejoin="round" stroke-miterlimit="10" x1="637.785" y1="743.044" x2="637.785" y2="857.065" stroke-dasharray="115" stroke-dashoffset="115" />

<line id="js-slide1-line2--2" fill="none" stroke="#FFFFFF" stroke-width="5" stroke-linejoin="round" stroke-miterlimit="10" x1="638.332" y1="800.055" x2="687.815" y2="800.055" stroke-dasharray="50" stroke-dashoffset="50" 
	/>

<polyline id="js-slide1-line2--3" fill="none" stroke="#FFFFFF" stroke-width="5" stroke-linejoin="round" stroke-miterlimit="10" points="752.438,801.908 
	1107.01,801.908 1107.01,1172.385 915.682,1172.385"
	 stroke-dasharray="929" stroke-dashoffset="929"
/>

<g id="js-micro-icon" style="opacity:0">
	<line fill="none" stroke="#FFFFFF" stroke-width="7" stroke-miterlimit="10" x1="716.483" y1="796.421" x2="735.112" y2="777.571"/>

	<line fill="none" stroke="#FFFFFF" stroke-width="7" stroke-linecap="round" stroke-miterlimit="10" x1="711.622" y1="801.312" x2="719.186" y2="793.661"/>
	<path fill="none" stroke="#FFFFFF" stroke-width="2" stroke-miterlimit="10" d="M723.915,790.726
	c5.709,1.987,9.787,7.245,9.787,13.422c0,7.881-6.646,14.269-14.84,14.269c-5.74,0-10.722-3.135-13.188-7.72"/>
	<path fill="none" stroke="#FFFFFF" stroke-width="11" stroke-linecap="round" stroke-miterlimit="10" d="M718.87,789.832"/>

	<line fill="none" stroke="#FFFFFF" stroke-width="2" stroke-miterlimit="10" x1="694.451" y1="810.552" x2="717.622" y2="810.401"/>
	<path fill="#FFFFFF" d="M719.823,818.247c-6.172,0-11.477,1.771-13.787,4.308l27.615,0.042
	C731.357,820.039,726.03,818.247,719.823,818.247z"/>
	<path fill="#FFFFFF" d="M733.036,824.05c0,0.355-0.229,0.697-0.648,1.021l-24.851,0.02c-0.438-0.326-0.675-0.674-0.675-1.037"/>
</g>

<line id="js-slide1-line2--4" fill="none" stroke="#FFFFFF" stroke-width="3" stroke-miterlimit="10" x2="633.662" y2="1279.314" x1="582.457" y1="1249.753" 
 stroke-dasharray="60" stroke-dashoffset="60" />

<line id="js-slide1-line2--5" fill="none" stroke="#FFFFFF" stroke-width="5" stroke-linejoin="round" stroke-miterlimit="10" x1="638.785" y1="1288.365" x2="638.785" y2="1376" stroke-dasharray="88" stroke-dashoffset="88" />

<circle id="js-slide1-line2-circle1" class="h-g" fill="none" stroke="#FFFFFF" stroke-width="3" stroke-miterlimit="10" cx="576.29" cy="1245.667" r="6.762"/>
<circle id="js-slide1-line2-circle2" class="h-g" fill="none" stroke="#FFFFFF" stroke-width="3" stroke-miterlimit="10" cx="638.452" cy="1282.603" r="6.762"/>
	<g id="js-honey-comb" style="opacity: 0">
		<defs>
			<g id="honey-human">
				<path stroke-width="0" fill1="#0787A2" d="M637.787,636.999c6.581,0,11.915-6.289,11.915-14.053c0-7.761-5.334-14.052-11.915-14.052
					s-11.918,6.291-11.918,14.052C625.869,630.71,631.206,636.999,637.787,636.999z"/>
				<path stroke-width="0" fill1="#0787A2" d="M654.031,659.731c-1.496-12.25-8.202-21.491-16.244-21.491c-8.001,0-14.676,9.141-16.22,21.291
					l12.925,7.678h3.295l3.29,0.001"/>
			</g>

			<g id="honey-comb">
				<polygon class="honey-frame" stroke1="#C0E1E8" stroke-width="3" stroke-miterlimit="10" points="668.532,651.357 668.531,615.854 637.785,598.104 607.038,615.854 607.038,651.357 637.785,669.11"/>
			</g>

	</defs>

	<g transform="translate(-31, -53)">
		<use class="honey-comb" xlink:href="#honey-comb"></use>
		<use class="honey-human" xlink:href="#honey-human"></use>
		<use class="honey-comb-stroke" xlink:href="#honey-comb"></use>
	</g>
	
	<g transform="translate(31, -53)">
		<use class="honey-comb" xlink:href="#honey-comb"></use>
		<use class="honey-human" xlink:href="#honey-human"></use>
		<use class="honey-comb-stroke" xlink:href="#honey-comb"></use>
	</g>

	<g transform="translate(-31, 53)">
		<use class="honey-comb" xlink:href="#honey-comb"></use>
		<use class="honey-human" xlink:href="#honey-human"></use>
		<use class="honey-comb-stroke" xlink:href="#honey-comb"></use>
	</g>

	<g transform="translate(31, 53)">
		<use class="honey-comb" xlink:href="#honey-comb"></use>
		<use class="honey-human" xlink:href="#honey-human"></use>
		<use class="honey-comb-stroke" xlink:href="#honey-comb"></use>
	</g>

	<g transform="translate(-62, 0)">
		<use class="honey-comb" xlink:href="#honey-comb"></use>
		<use class="honey-human" xlink:href="#honey-human"></use>
		<use class="honey-comb-stroke" xlink:href="#honey-comb"></use>
	</g>

	<g transform="translate(62, 0)">
		<use class="honey-comb" xlink:href="#honey-comb"></use>
		<use class="honey-human" xlink:href="#honey-human"></use>
		<use class="honey-comb-stroke" xlink:href="#honey-comb"></use>
	</g>

	<g id="js-honey-comb-grey">
		<use class="honey-comb-grey" xlink:href="#honey-comb"></use>
		<use class="honey-human" xlink:href="#honey-human"></use>
		<use class="honey-comb-stroke" xlink:href="#honey-comb"></use>
	</g>

	<!-- <use width="66" height="75" xlink:href="#honey-comb"></use> -->
	

	<g id="_x3C_active_on_scroll_x3E__1_" display="none">
		<polygon display="inline" fill="#5D5E5E" stroke="#C0E1E8" stroke-width="3" stroke-miterlimit="10" points="668.532,651.357 
			668.531,615.854 637.785,598.104 607.038,615.854 607.038,651.357 637.785,669.11 		"/>
		<polygon display="inline" fill="#0987A2" stroke="#C0E1E8" stroke-width="3" stroke-miterlimit="10" points="629.538,583.88 
			629.537,557.512 607.038,544.328 584.538,557.512 584.538,583.88 607.038,597.062 		"/>
		<polygon display="inline" fill="#0987A2" stroke="#C0E1E8" stroke-width="3" stroke-miterlimit="10" points="691.033,583.759 
			691.031,557.471 668.532,544.328 646.033,557.471 646.033,583.759 668.532,596.901 		"/>
		<polygon display="inline" fill="#0987A2" stroke="#C0E1E8" stroke-width="3" stroke-miterlimit="10" points="730.026,646.705 
			730.026,620.506 707.526,607.406 685.026,620.506 685.027,646.705 707.526,659.806 		"/>
		<polygon display="inline" fill="#0987A2" stroke="#C0E1E8" stroke-width="3" stroke-miterlimit="10" points="590.544,646.704 
			590.544,620.508 568.043,607.408 545.544,620.508 545.544,646.704 568.043,659.804 		"/>
		<polygon display="inline" fill="#0987A2" stroke="#C0E1E8" stroke-width="3" stroke-miterlimit="10" points="629.552,708.903 
			629.55,682.654 607.052,669.529 584.552,682.654 584.554,708.903 607.052,722.028 		"/>
		<polygon display="inline" fill="#0987A2" stroke="#C0E1E8" stroke-width="3" stroke-miterlimit="10" points="691.047,708.956 
			691.046,682.815 668.546,669.742 646.047,682.815 646.047,708.956 668.546,722.028 		"/>
		<g display="inline">
			<g>
				<path fill="#FFFFFF" d="M637.787,636.999c6.581,0,11.915-6.289,11.915-14.053c0-7.761-5.334-14.052-11.915-14.052
					s-11.918,6.291-11.918,14.052C625.869,630.71,631.206,636.999,637.787,636.999z"/>
				<path fill="#FFFFFF" d="M654.031,659.731c-1.496-12.25-8.202-21.491-16.244-21.491c-8.001,0-14.676,9.141-16.22,21.291
					l12.925,7.678h3.295l3.29,0.001"/>
				<path fill="#FFFFFF" d="M634.492,667.209"/>
			</g>
		</g>
		<g display="inline">
			<g>
				<ellipse fill="#FFFFFF" cx="607.04" cy="562.779" rx="8.719" ry="10.435"/>
				<path fill="#FFFFFF" d="M618.926,590.099c-1.095-9.098-6.002-15.962-11.886-15.962c-5.854,0-10.74,6.789-11.87,15.812
					l9.459,5.702h2.411h2.406"/>
				<path fill="#FFFFFF" d="M604.629,595.651"/>
			</g>
		</g>
		<g display="inline">
			<g>
				<ellipse fill="#FFFFFF" cx="668.534" cy="562.723" rx="8.719" ry="10.404"/>
				<path fill="#FFFFFF" d="M680.421,589.958c-1.095-9.069-6.002-15.912-11.887-15.912c-5.854,0-10.738,6.771-11.869,15.763
					l9.458,5.688h2.411h2.408"/>
				<path fill="#FFFFFF" d="M666.123,595.494"/>
			</g>
		</g>
		<g display="inline">
			<g>
				<ellipse fill="#FFFFFF" cx="707.528" cy="625.742" rx="8.719" ry="10.369"/>
				<path fill="#FFFFFF" d="M719.415,652.885c-1.096-9.04-6.002-15.856-11.887-15.856c-5.855,0-10.738,6.747-11.871,15.711
					l9.459,5.667h2.412l2.402,0.001"/>
				<path fill="#FFFFFF" d="M705.116,658.402"/>
			</g>
		</g>
		<g display="inline">
			<g>
				<path fill="#FFFFFF" d="M568.044,636.11c4.816,0,8.719-4.645,8.719-10.37c0-5.729-3.898-10.367-8.719-10.367
					s-8.721,4.641-8.721,10.367C559.323,631.47,563.229,636.11,568.044,636.11z"/>
				<path fill="#FFFFFF" d="M579.933,652.884c-1.096-9.04-6.002-15.854-11.889-15.854c-5.854,0-10.738,6.742-11.868,15.71
					l9.458,5.666h2.41l2.408,0.001"/>
				<path fill="#FFFFFF" d="M565.634,658.401"/>
			</g>
		</g>
		<g display="inline">
			<g>
				<ellipse fill="#FFFFFF" cx="607.054" cy="687.899" rx="8.722" ry="10.388"/>
				<path fill="#FFFFFF" d="M618.94,715.095c-1.1-9.057-6.003-15.89-11.891-15.89c-5.854,0-10.737,6.759-11.869,15.741l9.458,5.675
					h2.411l2.407,0.001"/>
				<path fill="#FFFFFF" d="M604.643,720.621"/>
			</g>
		</g>
		<g display="inline">
			<g>
				<ellipse fill="#FFFFFF" cx="668.548" cy="688.037" rx="8.719" ry="10.346"/>
				<path fill="#FFFFFF" d="M680.438,715.123c-1.098-9.021-6.003-15.825-11.89-15.825c-5.854,0-10.737,6.73-11.869,15.678
					l9.459,5.652h2.41l2.407,0.001"/>
				<path fill="#FFFFFF" d="M666.138,720.628"/>
			</g>
		</g>
	</g>
</g>


<!-- THIS IS THE FIRST TEXT FRAME
<path fill="none" stroke="#FFFFFF" stroke-width="5" stroke-miterlimit="10" d="M865.532,207.814c0,2.036-1.82,3.686-4.057,3.686
	H413.17c-2.239,0-4.057-1.649-4.057-3.686V5.687c0-2.037,1.817-3.687,4.057-3.687h448.306c2.238,0,4.057,1.649,4.057,3.687V207.814
	L865.532,207.814z"/> -->



<g id="js-slide3-audience" style="opacity:0">
		<g transform="translate(65,0)">
			<path class="f-blue-g" d="M562.21,343.104c0,6.062,4.913,10.976,10.973,10.976v-21.945
				C567.123,332.133,562.21,337.045,562.21,343.104z"/>
			<path fill="#C0E1E8" d="M584.157,343.104c0-6.06-4.915-10.972-10.979-10.972v21.945
				C579.242,354.078,584.157,349.165,584.157,343.104z"/>
			<path class="f-blue-g" d="M557.297,369.674c0,0.424-0.039,0.845,0,1.261h15.885v-15.848
				C564.412,355.087,557.297,361.619,557.297,369.674z"/>
			<path fill="#C0E1E8" d="M589.068,369.674c0-8.055-7.113-14.587-15.891-14.587v15.848h15.891
				C589.109,370.521,589.068,370.101,589.068,369.674z"/>
		</g>
		<g transform="translate(35,0)" >
			<path class="f-blue-g" d="M590.375,338.088c0,7.071,5.73,12.802,12.8,12.802v-25.604
				C596.105,325.285,590.375,331.017,590.375,338.088z"/>
			<path fill="#C0E1E8" d="M615.979,338.088c0-7.071-5.729-12.804-12.804-12.804v25.604
				C610.245,350.89,615.979,345.159,615.979,338.088z"/>
			<path class="f-blue-g" d="M584.287,369.436c0,0.507-0.049,1.008,0,1.499h18.888V352.09
				C592.745,352.089,584.287,359.854,584.287,369.436z"/>
			<path fill="#C0E1E8" d="M622.066,369.436c0-9.577-8.457-17.346-18.896-17.346v18.845h18.896
				C622.115,370.441,622.066,369.939,622.066,369.436z"/>
		</g>
		<g transform="translate(-65,0)" >
			<path class="f-blue-g" d="M691.412,343.104c0,6.062,4.914,10.976,10.975,10.976v-21.945
				C696.326,332.133,691.412,337.045,691.412,343.104z"/>
			<path fill="#C0E1E8" d="M713.36,343.104c0-6.06-4.914-10.972-10.978-10.972v21.945C708.446,354.078,713.36,349.165,713.36,343.104
				z"/>
			<path class="f-blue-g" d="M686.502,369.674c0,0.424-0.041,0.845,0,1.261h15.885v-15.848
				C693.615,355.087,686.502,361.619,686.502,369.674z"/>
			<path fill="#C0E1E8" d="M718.275,369.674c0-8.055-7.113-14.587-15.893-14.587v15.848h15.893
				C718.312,370.521,718.275,370.101,718.275,369.674z"/>
		</g>
		<g transform="translate(-35,0)" >
			<path class="f-blue-g" d="M659.59,338.088c0,7.071,5.732,12.802,12.805,12.802v-25.604
				C665.322,325.285,659.59,331.017,659.59,338.088z"/>
			<path fill="#C0E1E8" d="M685.195,338.088c0-7.071-5.731-12.804-12.805-12.804v25.604
				C679.464,350.89,685.195,345.159,685.195,338.088z"/>
			<path class="f-blue-g" d="M653.505,369.436c0,0.507-0.048,1.008,0,1.499h18.89v-18.846
				C661.961,352.089,653.505,359.854,653.505,369.436z"/>
			<path fill="#C0E1E8" d="M691.284,369.436c0-9.577-8.458-17.346-18.894-17.346v18.846h18.894
				C691.33,370.441,691.284,369.941,691.284,369.436z"/>
		</g>
		<g transform="translate(0,0)">
			<path class="f-blue-g" d="M620.712,317.165c0,9.43,7.646,17.071,17.073,17.071v-34.143
				C628.357,300.095,620.712,307.738,620.712,317.165z"/>
			<path fill="#C0E1E8" d="M654.854,317.165c0-9.427-7.642-17.07-17.064-17.07v34.143
				C647.212,334.236,654.854,326.595,654.854,317.165z"/>
			<path fill="#C0E1E8" d="M661.499,368.136c0-17.89-10.62-32.394-23.714-32.394v35.189h23.714
				C661.558,370.013,661.499,369.079,661.499,368.136z"/>
			<path class="f-blue-g" d="M614.069,368.136c0,0.94-0.06,1.874,0,2.799h23.716v-35.189
				C624.688,335.742,614.069,350.246,614.069,368.136z"/>
		</g>
	
	
</g>

<g id="js-dna" style="opacity:0">
	<g>
		<line fill="none" stroke="#FFFFFF" stroke-width="3" stroke-miterlimit="10" x1="688.672" y1="966.8" x2="640.749" y2="939.136"/>
		<line fill="none" stroke="#FFFFFF" stroke-width="3" stroke-miterlimit="10" x1="693.87" y1="1031.184" x2="693.87" y2="975.786"/>
		
			<line fill="none" stroke="#FFFFFF" stroke-width="3" stroke-miterlimit="10" x1="640.79" y1="1067.896" x2="688.513" y2="1040.345"/>
		
			<line fill="none" stroke="#FFFFFF" stroke-width="3" stroke-miterlimit="10" x1="582.301" y1="1040.281" x2="630.186" y2="1067.928"/>
		<line fill="none" stroke="#FFFFFF" stroke-width="3" stroke-miterlimit="10" x1="577.05" y1="975.957" x2="577.05" y2="1031.095"/>
		<line fill="none" stroke="#FFFFFF" stroke-width="3" stroke-miterlimit="10" x1="630.186" y1="939.127" x2="582.598" y2="966.6"/>
		
			<line fill="none" stroke="#F26E70" stroke-width="3" stroke-miterlimit="10" x1="680.144" y1="977.729" x2="635.459" y2="951.931"/>
		
			<line fill="none" stroke="#5DC3AD" stroke-width="3" stroke-miterlimit="10" x1="635.459" y1="1055.125" x2="680.144" y2="1029.325"/>
		
			<line fill="none" stroke="#FDC683" stroke-width="3" stroke-miterlimit="10" x1="590.776" y1="977.729" x2="590.776" y2="1029.325"/>
		<circle fill="none" stroke="#FFFFFF" stroke-width="3" stroke-miterlimit="10" cx="635.459" cy="1070.973" r="6.762"/>
		<circle fill="none" stroke="#FFFFFF" stroke-width="3" stroke-miterlimit="10" cx="577.049" cy="1037.25" r="6.762"/>
		<circle fill="none" stroke="#FFFFFF" stroke-width="3" stroke-miterlimit="10" cx="577.049" cy="969.804" r="6.762"/>
		<circle fill="none" stroke="#FFFFFF" stroke-width="3" stroke-miterlimit="10" cx="635.459" cy="936.082" r="6.762"/>
		<circle fill="none" stroke="#FFFFFF" stroke-width="3" stroke-miterlimit="10" cx="693.87" cy="969.804" r="6.762"/>
		<circle fill="none" stroke="#FFFFFF" stroke-width="3" stroke-miterlimit="10" cx="693.87" cy="1037.25" r="6.762"/>
		
			<line fill="none" stroke="#FFFFFF" stroke-width="3" stroke-linecap="round" stroke-miterlimit="10" x1="571.193" y1="966.423" x2="557.955" y2="958.779"/>
		
			<line fill="none" stroke="#FFFFFF" stroke-width="3" stroke-linecap="round" stroke-miterlimit="10" x1="635.459" y1="929.32" x2="635.459" y2="914.034"/>
		
			<line fill="none" stroke="#FFFFFF" stroke-width="3" stroke-linecap="round" stroke-miterlimit="10" x1="699.726" y1="966.423" x2="712.965" y2="958.779"/>
		
			<line fill="none" stroke="#FFFFFF" stroke-width="3" stroke-linecap="round" stroke-miterlimit="10" x1="699.726" y1="1040.63" x2="712.965" y2="1048.275"/>
		
			<line fill="none" stroke="#FFFFFF" stroke-width="3" stroke-linecap="round" stroke-miterlimit="10" x1="635.461" y1="1077.735" x2="635.459" y2="1093.021"/>
		
			<line fill="none" stroke="#FFFFFF" stroke-width="3" stroke-linecap="round" stroke-miterlimit="10" x1="571.194" y1="1040.63" x2="557.955" y2="1048.275"/>
	</g>
	<path id="geo-icon" class="f-red-g" d="M552.383,947.906c-0.165-0.087-0.367-0.078-0.523,0.021l-4.099,1.951
		c-0.231,0.156-0.302,0.474-0.144,0.706c0.158,0.235,0.476,0.296,0.711,0.143l3.302-1.424v8.916l-7.677,2.794l-6.419-3.436
		c-0.151-0.082-0.337-0.082-0.488,0l-5.897,2.646v-9.054l3.069-1.291c0.235-0.153,0.3-0.471,0.146-0.705
		c-0.158-0.23-0.479-0.299-0.71-0.141l-3.305,1.438c-0.143,0.099-0.229,0.255-0.229,0.425v10.183c0,0.179,0.097,0.345,0.251,0.438
		c0.155,0.095,0.35,0.099,0.506,0.014l6.414-2.925l6.414,3.435c0.074,0.041,0.156,0.061,0.241,0.061c0.077,0,0.158-0.02,0.229-0.055
		l8.193-3.054c0.172-0.085,0.284-0.265,0.284-0.456v-10.184C552.653,948.167,552.548,947.995,552.383,947.906z M541.383,957.554
		c0.153,0,0.312-0.051,0.437-0.148c0.229-0.19,5.717-7.987,5.717-12.616c0-3.37-2.765-6.112-6.149-6.112
		c-3.39,0-6.146,2.742-6.146,6.112c0,4.629,5.479,12.427,5.718,12.616C541.076,957.503,541.229,957.554,541.383,957.554z
		 M541.383,939.692c2.826,0,5.124,2.28,5.124,5.094c0,3.659-3.919,9.782-5.124,11.495c-1.203-1.713-5.125-7.836-5.125-11.495
		C536.258,941.976,538.558,939.692,541.383,939.692z M543.434,944.792c0-1.124-0.916-2.036-2.046-2.036
		c-1.133,0-2.047,0.912-2.047,2.036c0,1.125,0.914,2.036,2.047,2.036C542.518,946.828,543.434,945.917,543.434,944.792z
		 M540.364,944.792c0-0.562,0.459-1.018,1.021-1.018c0.563,0,1.021,0.458,1.021,1.018c0,0.562-0.458,1.019-1.021,1.019
		C540.823,945.81,540.364,945.354,540.364,944.792z"/>
	<line fill="none" stroke="#FFFFFF" stroke-width="3" stroke-miterlimit="10" x1="630.184" y1="1067.928" x2="582.301" y2="1040.281"/>
	<line fill="none" stroke="#FFFFFF" stroke-width="3" stroke-miterlimit="10" x1="635.459" y1="1132.805" x2="635.459" y2="1076.368"/>
	<line fill="none" stroke="#FFFFFF" stroke-width="3" stroke-miterlimit="10" x1="582.213" y1="1169.162" x2="630.451" y2="1141.312"/>
	<polygon fill="#FFFFFF" points="644.403,1144.693 646.644,1146.262 647.835,1144.198 645.357,1143.042 "/>
	<polygon fill="#FFFFFF" points="648.883,1147.83 651.122,1149.396 652.791,1146.508 650.312,1145.354 "/>
	<polygon fill="#FFFFFF" points="653.361,1150.966 655.602,1152.534 657.746,1148.819 655.268,1147.665 "/>
	<polygon fill="#FFFFFF" points="657.841,1154.101 660.08,1155.67 662.702,1151.129 660.224,1149.975 "/>
	<polygon fill="#FFFFFF" points="662.319,1157.238 664.56,1158.807 667.657,1153.441 665.18,1152.285 "/>
	<polygon fill="#FFFFFF" points="666.799,1160.375 669.038,1161.942 672.613,1155.752 670.135,1154.596 "/>
	<polygon fill="#FFFFFF" points="671.278,1163.511 673.519,1165.079 677.569,1158.062 675.091,1156.908 "/>
	<polygon fill="#FFFFFF" points="675.758,1166.646 677.997,1168.215 682.524,1160.373 680.046,1159.218 "/>
	<polygon fill="#FFFFFF" points="680.236,1169.783 682.476,1171.354 687.48,1162.686 685.002,1161.529 "/>
	<polygon fill="#FFFFFF" points="684.716,1172.919 686.955,1174.487 692.436,1164.996 689.958,1163.839 "/>
	<polygon fill="#FFFFFF" points="689.194,1176.056 690.905,1177.254 696.807,1167.034 694.913,1166.151 "/>
	<line fill="none" stroke="#FFFFFF" stroke-width="3" stroke-miterlimit="10" x1="577.05" y1="1178.2" x2="577.05" y2="1239.591"/>
	<circle fill="none" stroke="#FFFFFF" stroke-width="3" stroke-miterlimit="10" cx="577.049" cy="1172.144" r="6.762"/>
	<circle fill="none" stroke="#FFFFFF" stroke-width="3" stroke-miterlimit="10" cx="635.459" cy="1138.606" r="6.762"/>
	<path class="f-green-g" d="M736.019,955.91c-0.335-0.333-0.729-0.531-2.158-0.531c-1.431,0-1.726,0.376-2.135,0.531l-2.075,0.622
		c-0.015-0.383-0.233-7.091-0.89-7.745c-0.676-0.672-1.474-1.076-4.363-1.076c-2.891,0-3.669,0.438-4.31,1.076
		c-0.639,0.641-0.424,7.452-0.424,7.452l1.415-3.359l0.889,10.006l2.562-5.12l2.394,5.12l0.844-10.006l1.872,3.654l-0.021,0.008
		l2.6,0.677l0.439,5.667l1.267-2.534l1.188,2.534l0.417-4.95l0.697,1.66C736.227,959.596,736.35,956.243,736.019,955.91
		 M733.895,954.95c1.267,0,2.288-1.026,2.288-2.29s-1.021-2.289-2.288-2.289s-2.286,1.025-2.286,2.289S732.628,954.95,733.895,954.95
		 M724.467,947.345c1.758,0,3.188-1.425,3.188-3.185c0-1.759-1.432-3.188-3.188-3.188c-1.76,0-3.184,1.429-3.184,3.188
		S722.707,947.345,724.467,947.345"/>
	<path class="f-yellow-g" d="M638.539,902.533c-0.091,0.281-0.256,0.553-0.495,0.816c-0.239,0.271-0.56,0.508-0.961,0.716
		c-0.404,0.209-0.92,0.334-1.545,0.374v1.062h-0.741v-1.062c-0.938-0.064-1.673-0.354-2.199-0.861
		c-0.526-0.509-0.833-1.255-0.918-2.241h1.771c-0.01,0.479,0.118,0.854,0.378,1.126c0.259,0.276,0.581,0.452,0.968,0.524v-2.612
		c-0.041-0.02-0.1-0.036-0.171-0.054c-0.07-0.024-0.148-0.041-0.232-0.062c-0.309-0.082-0.612-0.183-0.918-0.293
		c-0.302-0.113-0.566-0.265-0.809-0.448c-0.237-0.188-0.429-0.425-0.572-0.696c-0.143-0.28-0.215-0.632-0.215-1.05
		c0-0.426,0.083-0.801,0.246-1.125c0.164-0.323,0.376-0.6,0.646-0.814c0.271-0.225,0.58-0.396,0.934-0.52
		c0.354-0.117,0.716-0.188,1.096-0.217v-0.965h0.741v0.965c0.376,0.042,0.729,0.123,1.062,0.243c0.327,0.123,0.618,0.289,0.872,0.501
		c0.249,0.213,0.457,0.479,0.613,0.792c0.161,0.319,0.251,0.694,0.278,1.126h-1.784c-0.009-0.333-0.115-0.615-0.313-0.851
		c-0.199-0.231-0.441-0.353-0.729-0.353v2.213c0.099,0.027,0.202,0.055,0.308,0.076c0.104,0.025,0.215,0.057,0.33,0.088
		c0.622,0.165,1.103,0.373,1.438,0.617c0.335,0.248,0.583,0.503,0.736,0.771c0.162,0.267,0.255,0.531,0.284,0.8
		c0.028,0.268,0.046,0.504,0.046,0.713C638.68,902.021,638.632,902.253,638.539,902.533 M633.882,888.942h2.633v1.65h-2.633V888.942z
		 M639.118,891.545l0.002,0.001c-0.008-0.007-0.013-0.012-0.021-0.02c-0.235-0.332-0.479-0.652-0.715-0.957
		c-0.31-0.521-0.473-1.146-0.094-2.055l1.31-3.113l-2.054-0.938l0.209-0.922h-5.16l0.271,1.178l-2.112,0.683l1.307,3.113
		c0.646,1.542-0.276,2.276-0.817,3.028c-2.693,3.704-5.706,9.01-5.706,12.208c0,5.304,4.139,5.127,9.645,5.127
		s9.646,0.176,9.646-5.127C644.822,900.556,641.806,895.25,639.118,891.545 M636.586,901.032c-0.206-0.161-0.554-0.312-1.048-0.444
		v2.4c0.15-0.018,0.308-0.05,0.468-0.104c0.165-0.055,0.312-0.133,0.442-0.229c0.131-0.103,0.23-0.227,0.316-0.367
		c0.084-0.147,0.125-0.32,0.125-0.521C636.893,901.438,636.791,901.196,636.586,901.032 M634.019,896.817
		c-0.107,0.086-0.191,0.193-0.26,0.321c-0.062,0.131-0.095,0.282-0.095,0.456c0,0.275,0.088,0.488,0.264,0.644
		c0.178,0.146,0.466,0.271,0.869,0.357v-2.036c-0.144,0-0.282,0.021-0.415,0.062C634.249,896.666,634.125,896.729,634.019,896.817"/>
	<path class="f-yellow-g" d="M528.136,1147.576c-0.911-0.736-1.43-1.763-1.546-2.843c-0.109-1.082,0.188-2.193,0.921-3.104
		c0.737-0.911,1.768-1.429,2.842-1.546c1.082-0.11,2.193,0.183,3.107,0.92c0.905,0.738,1.426,1.758,1.542,2.835
		c0.112,1.085-0.18,2.201-0.92,3.112c-0.736,0.914-1.762,1.429-2.845,1.546C530.157,1148.608,529.045,1148.314,528.136,1147.576
		 M526.537,1135.057l-7.377-0.092l1.626,7.194l2.104-2.602l1.881,1.523c-0.65,1.224-0.901,2.596-0.765,3.92
		c0.181,1.734,1.031,3.41,2.493,4.59c1.461,1.188,3.276,1.671,5.01,1.486c1.734-0.185,3.41-1.032,4.593-2.495
		c1.188-1.465,1.669-3.286,1.483-5.021l-0.001-0.009c-0.182-1.729-1.034-3.394-2.491-4.573c-1.461-1.185-3.276-1.668-5.011-1.479
		c-1.325,0.134-2.613,0.665-3.677,1.56l-1.878-1.521L526.537,1135.057z"/>
	<path class="f-yellow-g" d="M546.47,1148.842c1.104,0,2.09,0.443,2.815,1.167c0.723,0.727,1.164,1.709,1.166,2.814
		c-0.002,1.103-0.443,2.09-1.166,2.812c-0.729,0.727-1.712,1.167-2.815,1.167c-1.103,0-2.089-0.439-2.812-1.167
		c-0.726-0.724-1.166-1.711-1.166-2.812c0-1.104,0.44-2.091,1.166-2.814C544.382,1149.286,545.367,1148.842,546.47,1148.842
		 M546.47,1159.249c3.132,0,5.737-2.239,6.312-5.204h1.641v2.863h2.446v-2.863h2.858v-2.443h-2.858v-2.86h-2.446v2.86h-1.641
		c-0.572-2.967-3.182-5.2-6.312-5.2c-3.548,0-6.425,2.876-6.426,6.426C540.045,1156.372,542.922,1159.249,546.47,1159.249"/>
	<line fill="none" stroke="#FFFFFF" stroke-width="3" stroke-linecap="round" stroke-miterlimit="10" x1="570.286" y1="1169.203" x2="557.05" y2="1161.562"/>
	<path class="f-blue-g" d="M718.294,1065.09h5.162v-2.604h-5.162V1065.09z M728.286,1057.842h-9.992v2.604h9.992V1057.842z
		 M728.286,1053.199h-9.992v2.604h9.992V1053.199z M728.286,1048.556h-9.992v2.604h9.992V1048.556z M733.851,1051.268
		c-1.271-1.268-1.178-2.312-1.178-2.312l-1.412-0.002l0.004,13.092c-0.727-0.251-1.596-0.299-2.479-0.078
		c-1.963,0.492-3.248,2.11-2.872,3.618c0.377,1.506,2.274,2.329,4.237,1.837c1.726-0.434,2.929-1.732,2.938-3.063v-9.48
		c0,0,3.828,0.479,3.49,2.93c-0.339,2.445-0.709,3.272-0.709,3.272l0.511,0.512c0,0,1.518-2.812,1.634-4.624
		C738.251,1053.451,735.263,1052.68,733.851,1051.268"/>
	<g class="f-red-g">
		<path d="M612.233,1126.082c0,0.854,0.155,1.547,1.015,1.547h4.72c0.855,0,1.019-0.691,1.019-1.547
			s-0.159-1.55-1.019-1.55h-4.72C612.393,1124.532,612.233,1125.226,612.233,1126.082"/>
		<path d="M611.377,1129.751c0,0.854,0.16,1.55,1.013,1.55h6.318c0.854,0,1.014-0.69,1.014-1.55
			c0-0.854-0.159-1.549-1.014-1.549h-6.318C611.537,1128.202,611.377,1128.896,611.377,1129.751"/>
		<path d="M612.224,1133.479c0,0.854,0.159,1.551,1.017,1.551h4.979c0.854,0,1.018-0.693,1.018-1.551
			c0-0.854-0.16-1.55-1.018-1.55h-4.979C612.383,1131.929,612.224,1132.622,612.224,1133.479"/>
		<path d="M613.046,1137.282c0,0.854,0.158,1.549,1.015,1.549h2.84c0.854,0,1.015-0.693,1.015-1.549
			c0-0.856-0.161-1.548-1.015-1.548h-2.84C613.204,1135.734,613.046,1136.427,613.046,1137.282"/>
		<path d="M612.65,1138.639c-0.177-0.332-0.25-0.75-0.25-1.354c0-0.607,0.073-1.027,0.25-1.357
			c0.06-0.115,0.144-0.236,0.254-0.35c-0.604-0.078-0.916-0.438-1.075-0.74c-0.174-0.333-0.25-0.751-0.25-1.354
			c0-0.606,0.076-1.025,0.25-1.357c0.047-0.089,0.108-0.188,0.185-0.276c-0.571-0.09-0.874-0.437-1.025-0.73
			c-0.178-0.332-0.251-0.75-0.251-1.358c0-0.604,0.077-1.024,0.251-1.356c0.147-0.293,0.442-0.634,1.003-0.729
			c-0.062-0.076-0.109-0.151-0.148-0.229c-0.173-0.332-0.248-0.75-0.248-1.354c0-0.607,0.075-1.025,0.248-1.359
			c0.185-0.345,0.562-0.758,1.331-0.758h0.963c0.104-0.718,2.083-2.252,2.083-5.391c0-3.439-3.653-3.042-3.653-3.042v2.136
			c-0.645,2.379-4.896,6.053-6.104,7.058c-1.426,0.729-2.312,2.153-2.312,3.909v5.233c0,2.711,2.191,4.907,4.897,4.907h3.689
			C612.7,1138.729,612.676,1138.686,612.65,1138.639"/>
	</g>
	<path fill="#0787A2" d="M539.491,1061.072c-0.705,0-1.275-0.568-1.275-1.271c0-0.698,0.57-1.269,1.275-1.269
		c0.702,0,1.271,0.565,1.271,1.269C540.765,1060.504,540.193,1061.072,539.491,1061.072 M543.738,1061.072
		c-0.704,0-1.274-0.568-1.274-1.271c0-0.698,0.57-1.269,1.274-1.269s1.271,0.565,1.271,1.269
		C545.011,1060.504,544.442,1061.072,543.738,1061.072 M547.986,1061.072c-0.704,0-1.274-0.568-1.274-1.271
		c0-0.698,0.57-1.269,1.274-1.269s1.271,0.565,1.271,1.269C549.261,1060.504,548.69,1061.072,547.986,1061.072 M543.404,1051.771
		c-5.715,0.109-10.273,3.799-10.188,8.229c0.089,4.433,4.792,7.938,10.504,7.824c1.287-0.025,2.519-0.232,3.646-0.587l5.243,2.245
		c0,0-1.776-3.575-0.149-5.655c0.946-1.243,1.479-2.692,1.447-4.235C553.821,1055.163,549.117,1051.659,543.404,1051.771"/>
</g>

<marker opacity="0" id="marker-end" viewBox="0 0 12 12" refX="0" refY="5" markerUnits="strokeWidth" markerWidth="8" markerHeight="8" fill="#FFFFFF" orient="auto">
	<circle cx="5" cy="5" r="5"></circle>
</marker>


<g id="js-slide3-human-lines">
	<line marker-end="url(#marker-end)" fill="none" stroke="#FFFFFF" stroke-miterlimit="10" x1="540.117" y1="211.167" x2="540.117" y2="211.167" y22="359.439"/>
	<line marker-end="url(#marker-end)" fill="none" stroke="#FFFFFF" stroke-miterlimit="10" x1="586.7" y1="212.417" x2="586.7" y2="212.417" y22="266.762"/>
	<line marker-end="url(#marker-end)" fill="none" stroke="#FFFFFF" stroke-miterlimit="10" x1="571.325" y1="210.167" x2="571.325" y2="210.167" y22="293.095"/>
	<line marker-end="url(#marker-end)" fill="none" stroke="#FFFFFF" stroke-miterlimit="10" x1="555.979" y1="211.501" x2="555.979" y2="211.501" y22="287.095"/>
	<line marker-end="url(#marker-end)" fill="none" stroke="#FFFFFF" stroke-miterlimit="10" x1="601.947" y1="210.167" x2="601.947" y2="210.167" y22="300.729"/>
	<line marker-end="url(#marker-end)" fill="none" stroke="#FFFFFF" stroke-miterlimit="10" x1="617.749" y1="208.74" x2="617.749" y2="208.74" y22="269.763"/>
	<line marker-end="url(#marker-end)" fill="none" stroke="#FFFFFF" stroke-miterlimit="10" x1="735.453" y1="211.167" x2="735.453" y2="211.167" y22="355.095"/>
	<line marker-end="url(#marker-end)" fill="none" stroke="#FFFFFF" stroke-miterlimit="10" x1="688.87" y1="212.417" x2="688.87" y2="212.417" y22="276.397"/>
	<line marker-end="url(#marker-end)" fill="none" stroke="#FFFFFF" stroke-miterlimit="10" x1="704.245" y1="210.167" x2="704.245" y2="210.167" y22="293.095"/>
	<line marker-end="url(#marker-end)" fill="none" stroke="#FFFFFF" stroke-miterlimit="10" x1="719.592" y1="212.501" x2="719.592" y2="212.501" y22="306.762"/>
	<line marker-end="url(#marker-end)" fill="none" stroke="#FFFFFF" stroke-miterlimit="10" x1="673.623" y1="210.167" x2="673.623" y2="210.167" y22="300.729"/>
	<line marker-end="url(#marker-end)" fill="none" stroke="#FFFFFF" stroke-miterlimit="10" x1="657.821" y1="208.74" x2="657.821" y2="208.74" y22="262.095"/>
	<line marker-end="url(#marker-end)" fill="none" stroke="#FFFFFF" stroke-miterlimit="10" x1="524.256" y1="211.084" x2="524.256" y2="211.084" y22="344.845"/>
	<line marker-end="url(#marker-end)" fill="none" stroke="#FFFFFF" stroke-miterlimit="10" x1="508.396" y1="211.084" x2="508.396" y2="211.084" y22="367.363"/>
	<line marker-end="url(#marker-end)" fill="none" stroke="#FFFFFF" stroke-miterlimit="10" x1="492.534" y1="211.084" x2="492.534" y2="211.084" y22="367.363"/>
	<line marker-end="url(#marker-end)" fill="none" stroke="#FFFFFF" stroke-miterlimit="10" x1="751.314" y1="211.084" x2="751.314" y2="211.084" y22="344.845"/>
	<line marker-end="url(#marker-end)" fill="none" stroke="#FFFFFF" stroke-miterlimit="10" x1="767.175" y1="211.084" x2="767.175" y2="211.084" y22="367.363"/>
	<line marker-end="url(#marker-end)" fill="none" stroke="#FFFFFF" stroke-miterlimit="10" x1="783.036" y1="211.084" x2="783.036" y2="211.084" y22="367.363"/>
	<line marker-end="url(#marker-end)" fill="none" stroke="#FFFFFF" stroke-miterlimit="10" x1="637.785" y1="209.533" x2="637.785" y2="209.533" y22="282.517"/>
	
</g>



<g id="bloc_5" display="none">
	<rect y="3865.088" display="inline" fill="none" stroke="#000000" stroke-miterlimit="10" width="1278" height="695.966"/>
</g>
<g id="bloc_6" display="none">
	<rect y="4561.055" display="inline" fill="none" stroke="#000000" stroke-miterlimit="10" width="1278" height="1150.445"/>
</g>
<g id="bloc_7" display="none">
	<rect y="5711.5" display="inline" fill="none" stroke="#000000" stroke-miterlimit="10" width="1278" height="200.991"/>
</g>
<g id="bloc_8" display="none">
	<rect y="5912.491" display="inline" fill="none" stroke="#000000" stroke-miterlimit="10" width="1278" height="638.969"/>
</g>
<g id="bloc_9" display="none">
	<rect y="6551.461" display="inline" fill="none" stroke="#000000" stroke-miterlimit="10" width="1278" height="251.988"/>
</g>
<g id="bloc_10" display="none">
	<rect y="6803.45" display="inline" fill="none" stroke="#000000" stroke-miterlimit="10" width="1278" height="477.924"/>
</g>
<g id="js-slide1--demographics-img" opacity="0">
	<g>
		<path class="f-blue-g" d="M152.696,1080.679c0,2.453-3.396,11.824-3.396,11.824s8.551-0.229,8.957,0
			c2.961,1.66,4.376,3.778,10.041,3.778v-31.204C159.682,1065.077,152.696,1072.062,152.696,1080.679z"/>
		<path fill="#BFE0E7" d="M183.9,1080.679c0-8.616-6.984-15.602-15.603-15.602v31.204c5.665,0,7.44-1.759,10.113-3.778
			c0.371-0.281,8.812,0,8.812,0S183.901,1083.132,183.9,1080.679z"/>
		<path class="f-blue-g" d="M149.373,1114.86c0,0.505-0.045,1.006,0,1.5l18.925,0.002v-18.88
			C157.848,1097.483,149.373,1105.263,149.373,1114.86z"/>
		<path fill="#BFE0E7" d="M187.223,1114.86c0-9.601-8.474-17.377-18.925-17.377v18.879h18.925
			C187.269,1115.868,187.223,1115.366,187.223,1114.86z"/>
	</g>
	<g>
		<path class="f-blue-g" d="M99.945,1102.042c0,3.459,2.804,6.262,6.261,6.262v-12.521
			C102.749,1095.78,99.945,1098.583,99.945,1102.042z"/>
		<path fill="#BFE0E7" d="M112.468,1102.042c0-3.459-2.803-6.262-6.262-6.262v12.521
			C109.665,1108.304,112.468,1105.501,112.468,1102.042z"/>
		<path class="f-blue-g" d="M98.611,1115.76c0,0.203-0.019,0.404,0,0.604h7.595v-7.576
			C102.012,1108.786,98.611,1111.908,98.611,1115.76z"/>
		<path fill="#BFE0E7" d="M113.802,1115.76c0-3.852-3.401-6.974-7.596-6.974v7.576h7.596
			C113.821,1116.164,113.802,1115.963,113.802,1115.76z"/>
	</g>
	<g>
		<path class="f-blue-g" d="M114.76,1079.169c0,8.979,7.281,16.262,16.263,16.262v-32.522
			C122.041,1062.905,114.76,1070.188,114.76,1079.169z"/>
		<path fill="#BFE0E7" d="M147.286,1079.169c0-8.982-7.281-16.264-16.263-16.264v32.522
			C140.005,1095.431,147.286,1088.15,147.286,1079.169z"/>
		<path class="f-blue-g" d="M111.297,1114.797c0,0.526-0.048,1.048,0,1.563l19.726,0.002v-19.681
			C120.13,1096.686,111.297,1104.792,111.297,1114.797z"/>
		<path fill="#BFE0E7" d="M150.75,1114.797c0-10.005-8.834-18.111-19.728-18.111v19.68h19.728
			C150.797,1115.847,150.75,1115.323,150.75,1114.797z"/>
	</g>
	<g>
		<path class="f-blue-g" d="M185.194,1102.042c0,3.459,2.804,6.262,6.261,6.262v-12.521
			C187.998,1095.78,185.194,1098.583,185.194,1102.042z"/>
		<path fill="#BFE0E7" d="M197.717,1102.042c0-3.459-2.803-6.262-6.262-6.262v12.521
			C194.914,1108.304,197.717,1105.501,197.717,1102.042z"/>
		<path class="f-blue-g" d="M183.86,1115.76c0,0.203-0.019,0.404,0,0.604h7.595v-7.576
			C187.261,1108.786,183.86,1111.908,183.86,1115.76z"/>
		<path fill="#BFE0E7" d="M199.051,1115.76c0-3.852-3.401-6.974-7.596-6.974v7.576h7.596
			C199.07,1116.164,199.051,1115.963,199.051,1115.76z"/>
	</g>
</g>
<g id="js-slide1--lifestyles-img" opacity="0">
	  <g>
    <path d="M142.902,1236.146c0,4.641,3.762,8.398,8.402,8.398v-16.803
      C146.664,1227.745,142.902,1231.507,142.902,1236.146z" class="f-blue-g"></path>
    <path d="M159.707,1236.146c0-4.643-3.762-8.401-8.402-8.401v16.803
      C155.945,1244.548,159.707,1240.787,159.707,1236.146z" fill="#BFE0E7"></path>
    <path d="M141.113,1254.554c0,0.271-0.025,0.541,0,0.812h10.191v-10.167
      C145.677,1245.195,141.113,1249.386,141.113,1254.554z" class="f-blue-g"></path>
    <path fill="#BFE0E7" d="M161.496,1254.554c0-5.168-4.563-9.355-10.191-9.355v10.167h10.191
      C161.521,1255.096,161.496,1254.826,161.496,1254.554z"></path>
  </g>
  <path d="M158.806,1206.812L158.806,1206.812v-2.567c-4.52,0-8.184-3.664-8.184-8.187h-2.567
    c0,4.521-3.664,8.187-8.184,8.187v2.567c4.52,0,8.184,3.661,8.184,8.184l0,0h2.567
    C150.622,1210.475,154.286,1206.812,158.806,1206.812z" class="f-blue-g"></path>
  <path fill="#0287A2" d="M139.487,1219.616L139.487,1219.616v-1.457c-2.564,0-4.643-2.078-4.643-4.646h-1.457
    c0,2.564-2.079,4.646-4.643,4.646v1.457c2.564,0,4.643,2.078,4.643,4.643l0,0h1.457
    C134.844,1221.694,136.923,1219.616,139.487,1219.616z"></path>
  <path fill="#0287A2" d="M130.299,1172.229L130.299,1172.229v-1.095c-1.924,0-3.484-1.56-3.484-3.481h-1.093
    c0,1.925-1.561,3.481-3.485,3.481v1.095c1.924,0,3.485,1.562,3.485,3.483l0,0h1.093
    C126.814,1173.79,128.375,1172.229,130.299,1172.229z"></path>
  <path d="M136.118,1191.271L136.118,1191.271v-1.966c-3.46,0-6.264-2.806-6.264-6.266h-1.966
    c0,3.46-2.805,6.264-6.264,6.264v1.968c3.459,0,6.264,2.807,6.264,6.266l0,0h1.966
    C129.854,1194.077,132.658,1191.271,136.118,1191.271z" class="f-green-g"></path>
  <path d="M158.958,1176.263L158.958,1176.263l0.001-2.678c-4.714,0-8.536-3.822-8.536-8.536h-2.679
    c0,4.714-3.822,8.536-8.536,8.536v2.678c4.714,0,8.536,3.822,8.536,8.535c0,0,0,0,0,0.001h2.679
    C150.423,1180.085,154.245,1176.263,158.958,1176.263z" class="f-green-g"></path>
  <path class="f-green-g" d="M194.77,1176.686L194.77,1176.686v-2.14c-3.764,0-6.814-3.051-6.814-6.812h-2.139
    c0,3.765-3.051,6.812-6.814,6.812v2.14c3.763,0,6.814,3.053,6.814,6.813l0,0h2.139
    C187.956,1179.735,191.007,1176.686,194.77,1176.686z"></path>
  <path class="f-red-g" d="M199.059,1208.729L199.059,1208.729v-1.966c-3.46,0-6.265-2.805-6.265-6.266h-1.966
    c0,3.461-2.804,6.266-6.264,6.266v1.966c3.46,0,6.264,2.807,6.264,6.267l0,0h1.966
    C192.794,1211.534,195.599,1208.729,199.059,1208.729z"></path>
  <path class="f-red-g" d="M179.003,1219.505L179.003,1219.505v-1.23c-2.17,0-3.93-1.762-3.93-3.932h-1.233
    c0,2.17-1.759,3.932-3.929,3.932v1.23c2.17,0,3.929,1.76,3.929,3.931l0,0h1.233
    C175.074,1221.265,176.833,1219.505,179.003,1219.505z"></path>
  <path d="M119.579,1220.854L119.579,1220.854v-1.859c-3.277,0-5.934-2.656-5.934-5.937h-1.861
    c0,3.277-2.657,5.937-5.934,5.937v1.859c3.277,0,5.934,2.655,5.934,5.936l0,0h1.861
    C113.646,1223.509,116.302,1220.854,119.579,1220.854z" class="f-red-g"></path>
  <path d="M113.097,1198.52L113.097,1198.52v-1.966c-3.46,0-6.264-2.805-6.264-6.264h-1.966
    c0,3.459-2.805,6.264-6.264,6.264v1.966c3.459,0,6.264,2.807,6.264,6.268l0,0h1.966
    C106.833,1201.323,109.638,1198.52,113.097,1198.52z" class="f-yellow-g"></path>
  <path class="f-yellow-g" d="M181.397,1191.659L181.397,1191.659v-2.646c-4.653,0-8.425-3.771-8.425-8.424h-2.644
    c0,4.652-3.772,8.424-8.425,8.424v2.646c4.652,0,8.425,3.771,8.425,8.427l0,0h2.644
    C172.973,1195.433,176.745,1191.659,181.397,1191.659z"></path>
</g>
</svg>
