<?xml version="1.0" encoding="UTF-8" standalone="no"?>
<svg width="58px" height="71px" viewBox="0 0 58 71" version="1.1" xmlns="http://www.w3.org/2000/svg" xmlns:xlink="http://www.w3.org/1999/xlink" xmlns:sketch="http://www.bohemiancoding.com/sketch/ns">
    <!-- Generator: Sketch 3.0.1 (7597) - http://www.bohemiancoding.com/sketch -->
    <title>pdf-icon</title>
    <description>Created with Sketch.</description>
    <defs>
        <filter x="-50%" y="-50%" width="200%" height="200%" filterUnits="objectBoundingBox" id="filter-1">
            <feOffset dx="-1" dy="1" in="SourceAlpha" result="shadowOffsetOuter1"></feOffset>
            <feGaussianBlur stdDeviation="0" in="shadowOffsetOuter1" result="shadowBlurOuter1"></feGaussianBlur>
            <feColorMatrix values="0 0 0 0 0   0 0 0 0 0   0 0 0 0 0  0 0 0 0.0858554121 0" in="shadowBlurOuter1" type="matrix" result="shadowMatrixOuter1"></feColorMatrix>
            <feMerge>
                <feMergeNode in="shadowMatrixOuter1"></feMergeNode>
                <feMergeNode in="SourceGraphic"></feMergeNode>
            </feMerge>
        </filter>
    </defs>
    <g id="Page-1" stroke="none" stroke-width="1" fill="none" fill-rule="evenodd" sketch:type="MSPage">
        <path d="M57,18 L57,71 L6,71 L6,1 L40,1 L57,18 Z" id="Rectangle-33" fill="#FFFFFF" sketch:type="MSShapeGroup"></path>
        <path d="M40,1 L40,18 L57,18 L40,1 Z" id="Path-18" fill="#FFFFFF" filter="url(#filter-1)" sketch:type="MSShapeGroup"></path>
        <rect id="Rectangle-34" fill="#FF6C66" sketch:type="MSShapeGroup" x="0" y="10" width="34" height="17"></rect>
        <text id="PDF" sketch:type="MSTextLayer" font-family="Open Sans" font-size="10" font-weight="normal" sketch:alignment="middle" letter-spacing="1" fill="#FFFFFF">
            <tspan x="6.76416016" y="22">PDF</tspan>
        </text>
        <path d="M29.2400199,34.0360851 C29.7368389,34.0253397 30.2476528,33.9662402 30.7462211,34.0271306 C31.0313673,34.4282911 31.1415771,34.9512325 31.1293316,35.4437287 C30.4960623,35.4759649 30.7567173,34.0611576 29.9327675,34.208011 C29.0178509,35.6228183 29.3834677,37.4943038 29.6353759,39.0846188 C29.9520105,39.6039784 29.6511201,40.4761444 30.2161643,40.8450688 C30.4348346,39.4123526 30.5642874,37.968891 30.7899552,36.5379657 L30.9473978,36.5003569 C31.0033775,38.6010771 30.9911319,40.7000063 30.6237658,42.7720721 C31.5649229,45.5067691 32.9854053,48.2181845 35.2508299,50.0287796 C36.2532147,50.5284394 37.0719164,51.7032667 38.2982196,51.5582042 C40.6721047,51.4149326 43.2681588,50.9045274 45.4653583,52.0954728 C45.9604279,52.279935 46.0199062,52.8977938 45.9954152,53.3598448 C45.5248366,53.3490994 45.4671076,52.6667683 44.9492963,52.6327413 C43.1492022,52.0166734 41.1829186,52.3497799 39.3215967,52.2888894 C39.4877862,52.6524412 39.9146307,52.6524412 40.2277666,52.8046673 C41.9316458,53.4708803 43.8262055,54.1747021 45.6682843,53.7430964 C45.6053073,54.2732014 44.9860329,54.6546621 44.4769684,54.5095995 C42.0418556,54.6349622 39.7414438,53.6517607 37.5372469,52.706168 C37.0509241,52.6399049 36.5541051,52.5861781 36.071281,52.6864682 C32.569057,53.2810454 29.0633343,54.0296396 25.7552896,55.3710202 C24.5237383,57.7206747 23.1784784,60.0506294 21.3468958,61.9668874 C20.662895,62.5149013 19.6517634,63.4103489 18.752591,62.7889083 C18.4027185,62.5990734 17.8096845,62.3232755 18.0598434,61.8182431 C18.6336343,59.8160222 20.2308024,58.4227057 21.8629577,57.3033961 C21.9626714,57.3857773 22.9860485,56.2987039 22.674662,57.0508799 C20.9497904,58.4603145 19.2581568,60.2333008 18.694862,62.486247 C19.510065,62.5005741 20.12759,61.784216 20.7696061,61.3758919 C22.6956543,59.2232358 23.991932,56.5852471 25.3109515,54.0260578 C27.0620635,50.4782943 28.7781882,46.8517315 29.6773606,42.961907 C29.0458407,40.7537332 28.545523,38.4721326 28.666229,36.1547142 C28.6312417,35.4419378 28.6487354,34.5375357 29.2400199,34.0360851 L29.2400199,34.0360851 Z M30.2268583,45 C29.3134642,48.8756577 27.6304348,52.4426517 26,56 C29.2608696,54.64188 32.5585554,53.3628551 36,52.6606454 C33.3790323,50.9244125 31.4715989,48.1425816 30.3443198,45.0405121 L30.2268583,45 L30.2268583,45 Z" id="Shape" fill="#FF6C66" sketch:type="MSShapeGroup"></path>
    </g>
</svg>