<?xml version="1.0" encoding="utf-8"?>
<!-- Generator: Adobe Illustrator 16.0.0, SVG Export Plug-In . SVG Version: 6.00 Build 0)  -->
<!DOCTYPE svg PUBLIC "-//W3C//DTD SVG 1.1//EN" "http://www.w3.org/Graphics/SVG/1.1/DTD/svg11.dtd" [
	<!ENTITY ns_extend "http://ns.adobe.com/Extensibility/1.0/">
	<!ENTITY ns_ai "http://ns.adobe.com/AdobeIllustrator/10.0/">
	<!ENTITY ns_graphs "http://ns.adobe.com/Graphs/1.0/">
	<!ENTITY ns_vars "http://ns.adobe.com/Variables/1.0/">
	<!ENTITY ns_imrep "http://ns.adobe.com/ImageReplacement/1.0/">
	<!ENTITY ns_sfw "http://ns.adobe.com/SaveForWeb/1.0/">
	<!ENTITY ns_custom "http://ns.adobe.com/GenericCustomNamespace/1.0/">
	<!ENTITY ns_adobe_xpath "http://ns.adobe.com/XPath/1.0/">
]>
<svg version="1.1"
	 id="Layer_1" xmlns:x="&ns_extend;" xmlns:i="&ns_ai;" xmlns:graph="&ns_graphs;" xmlns:sketch="http://www.bohemiancoding.com/sketch/ns"
	 xmlns="http://www.w3.org/2000/svg" xmlns:xlink="http://www.w3.org/1999/xlink" x="0px" y="0px" width="58px" height="71px"
	 viewBox="0 0 58 71" enable-background="new 0 0 58 71" xml:space="preserve">
<metadata>
	<sfw  xmlns="&ns_sfw;">
		<slices></slices>
		<sliceSourceBounds  height="86.106" width="67.087" bottomLeftOrigin="true" x="89.956" y="101.597"></sliceSourceBounds>
	</sfw>
</metadata>
<title>pdf-icon</title>
<description>Created with Sketch.</description>
<g>
	<g>
		<defs>
			<polygon id="SVGID_1_" points="53.491,70.85 3,70.85 3,1.362 36.66,1.362 53.491,18.238 			"/>
		</defs>
		<clipPath id="SVGID_2_">
			<use xlink:href="#SVGID_1_"  overflow="visible"/>
		</clipPath>
		
			<rect x="-4.544" y="-6.192" opacity="0.2" clip-path="url(#SVGID_2_)" fill-rule="evenodd" clip-rule="evenodd" width="65.578" height="84.595"/>
	</g>
	<g>
		<defs>
			<polygon id="SVGID_3_" points="55,69.339 4.509,69.339 4.509,-0.15 38.169,-0.15 55,16.727 			"/>
		</defs>
		<clipPath id="SVGID_4_">
			<use xlink:href="#SVGID_3_"  overflow="visible"/>
		</clipPath>
		
			<rect x="-3.035" y="-7.703" clip-path="url(#SVGID_4_)" fill-rule="evenodd" clip-rule="evenodd" fill="#FF6C66" width="65.578" height="84.594"/>
	</g>
	<g>
		<defs>
			<polygon id="SVGID_5_" points="36.66,18.238 53.491,18.238 36.66,1.362 			"/>
		</defs>
		<clipPath id="SVGID_6_">
			<use xlink:href="#SVGID_5_"  overflow="visible"/>
		</clipPath>
		
			<rect x="29.117" y="-6.192" opacity="0.2" clip-path="url(#SVGID_6_)" fill-rule="evenodd" clip-rule="evenodd" width="31.917" height="31.982"/>
	</g>
	<g>
		<defs>
			<polygon id="SVGID_7_" points="38.169,16.727 55,16.727 38.169,-0.15 			"/>
		</defs>
		<clipPath id="SVGID_8_">
			<use xlink:href="#SVGID_7_"  overflow="visible"/>
		</clipPath>
		
			<rect x="30.625" y="-7.703" clip-path="url(#SVGID_8_)" fill-rule="evenodd" clip-rule="evenodd" fill="#D0021B" width="31.918" height="31.983"/>
	</g>
	<g>
		<defs>
			<path id="SVGID_9_" d="M27.095,35.785c-0.837,3.676-2.382,7.065-3.873,10.442c2.986-1.288,6.007-2.503,9.159-3.172
				c-2.399-1.648-4.146-4.289-5.181-7.232L27.095,35.785z M26.19,25.374c0.454-0.011,0.922-0.066,1.379-0.008
				c0.26,0.381,0.362,0.876,0.351,1.345c-0.582,0.03-0.341-1.313-1.096-1.173c-0.837,1.344-0.504,3.12-0.272,4.629
				c0.29,0.494,0.014,1.323,0.533,1.673c0.199-1.361,0.318-2.73,0.526-4.089l0.143-0.037c0.051,1.995,0.039,3.987-0.296,5.955
				c0.859,2.595,2.162,5.169,4.239,6.888c0.917,0.475,1.667,1.589,2.792,1.453c2.173-0.137,4.552-0.622,6.562,0.509
				c0.455,0.175,0.51,0.762,0.487,1.2c-0.431-0.011-0.486-0.657-0.959-0.689c-1.649-0.586-3.448-0.268-5.155-0.326
				c0.152,0.344,0.543,0.344,0.829,0.49c1.562,0.631,3.297,1.3,4.985,0.89c-0.058,0.503-0.625,0.865-1.093,0.729
				c-2.229,0.118-4.338-0.813-6.355-1.712c-0.447-0.063-0.899-0.114-1.345-0.019c-3.21,0.564-6.418,1.273-9.449,2.548
				c-1.127,2.23-2.359,4.443-4.039,6.262c-0.625,0.521-1.554,1.371-2.377,0.781c-0.32-0.181-0.862-0.443-0.634-0.923
				c0.527-1.899,1.988-3.223,3.486-4.286c0.09,0.08,1.027-0.954,0.742-0.239c-1.579,1.339-3.13,3.021-3.645,5.161
				c0.746,0.013,1.311-0.668,1.901-1.055c1.764-2.044,2.951-4.547,4.159-6.979c1.605-3.367,3.176-6.812,4.001-10.502
				c-0.579-2.097-1.038-4.263-0.927-6.465C25.631,26.708,25.648,25.85,26.19,25.374z"/>
		</defs>
		<clipPath id="SVGID_10_">
			<use xlink:href="#SVGID_9_"  overflow="visible"/>
		</clipPath>
		
			<rect x="8.35" y="17.787" clip-path="url(#SVGID_10_)" fill-rule="evenodd" clip-rule="evenodd" fill="#FFFFFF" width="40.737" height="42.638"/>
	</g>
	<path fill="none" stroke="#FFFFFF" stroke-miterlimit="10" d="M27.095,35.785c-0.837,3.676-2.382,7.065-3.873,10.442
		c2.986-1.288,6.007-2.503,9.159-3.172c-2.399-1.648-4.146-4.289-5.181-7.232L27.095,35.785z M26.19,25.374
		c0.454-0.011,0.922-0.066,1.379-0.008c0.26,0.381,0.362,0.876,0.351,1.345c-0.582,0.03-0.341-1.313-1.096-1.173
		c-0.837,1.344-0.504,3.12-0.272,4.629c0.29,0.494,0.014,1.323,0.533,1.673c0.199-1.361,0.318-2.73,0.526-4.089l0.143-0.037
		c0.051,1.995,0.039,3.987-0.296,5.955c0.859,2.595,2.162,5.169,4.239,6.888c0.917,0.475,1.667,1.589,2.792,1.453
		c2.173-0.137,4.552-0.622,6.562,0.509c0.455,0.175,0.51,0.762,0.487,1.2c-0.431-0.011-0.486-0.657-0.959-0.689
		c-1.649-0.586-3.448-0.268-5.155-0.326c0.152,0.344,0.543,0.344,0.829,0.49c1.562,0.631,3.297,1.3,4.985,0.89
		c-0.058,0.503-0.625,0.865-1.093,0.729c-2.229,0.118-4.338-0.813-6.355-1.712c-0.447-0.063-0.899-0.114-1.345-0.019
		c-3.21,0.564-6.418,1.273-9.449,2.548c-1.127,2.23-2.359,4.443-4.039,6.262c-0.625,0.521-1.554,1.371-2.377,0.781
		c-0.32-0.181-0.862-0.443-0.634-0.923c0.527-1.899,1.988-3.223,3.486-4.286c0.09,0.08,1.027-0.954,0.742-0.239
		c-1.579,1.339-3.13,3.021-3.645,5.161c0.746,0.013,1.311-0.668,1.901-1.055c1.764-2.044,2.951-4.547,4.159-6.979
		c1.605-3.367,3.176-6.812,4.001-10.502c-0.579-2.097-1.038-4.263-0.927-6.465C25.631,26.708,25.648,25.85,26.19,25.374z"/>
</g>
</svg>
