<?xml version="1.0" encoding="UTF-8" standalone="no"?>
<svg width="58px" height="71px" viewBox="0 0 58 71" version="1.1" xmlns="http://www.w3.org/2000/svg" xmlns:xlink="http://www.w3.org/1999/xlink" xmlns:sketch="http://www.bohemiancoding.com/sketch/ns">
    <!-- Generator: Sketch 3.0.1 (7597) - http://www.bohemiancoding.com/sketch -->
    <title>ppt-icon</title>
    <description>Created with Sketch.</description>
    <defs>
        <filter x="-50%" y="-50%" width="200%" height="200%" filterUnits="objectBoundingBox" id="filter-1">
            <feOffset dx="-1" dy="1" in="SourceAlpha" result="shadowOffsetOuter1"></feOffset>
            <feGaussianBlur stdDeviation="0" in="shadowOffsetOuter1" result="shadowBlurOuter1"></feGaussianBlur>
            <feColorMatrix values="0 0 0 0 0   0 0 0 0 0   0 0 0 0 0  0 0 0 0.0858554121 0" in="shadowBlurOuter1" type="matrix" result="shadowMatrixOuter1"></feColorMatrix>
            <feMerge>
                <feMergeNode in="shadowMatrixOuter1"></feMergeNode>
                <feMergeNode in="SourceGraphic"></feMergeNode>
            </feMerge>
        </filter>
    </defs>
    <g id="Page-1" stroke="none" stroke-width="1" fill="none" fill-rule="evenodd" sketch:type="MSPage">
        <path d="M57,18 L57,71 L6,71 L6,1 L40,1 L57,18 Z" id="Rectangle-36" fill="#FFFFFF" sketch:type="MSShapeGroup"></path>
        <path d="M40,1 L40,18 L57,18 L40,1 Z" id="Path-25" fill="#FFFFFF" filter="url(#filter-1)" sketch:type="MSShapeGroup"></path>
        <rect id="Rectangle-35" fill="#FFC872" sketch:type="MSShapeGroup" x="0" y="10" width="34" height="17"></rect>
        <text id="PPT" sketch:type="MSTextLayer" font-family="Open Sans" font-size="10" font-weight="normal" sketch:alignment="middle" letter-spacing="1" fill="#FFFFFF">
            <tspan x="6.71337891" y="22">PPT</tspan>
        </text>
        <path d="M18,44 L18,61 L24,61 L24,44 L18,44 Z M29,41 L29,61 L35,61 L35,41 L29,41 Z M39,36 L39,61 L45,61 L45,36 L39,36 Z" id="Rectangle-37" fill="#FFC872" sketch:type="MSShapeGroup"></path>
    </g>
</svg>