<?xml version="1.0" encoding="UTF-8" standalone="no"?>
<svg width="57px" height="70px" viewBox="0 0 57 70" version="1.1" xmlns="http://www.w3.org/2000/svg" xmlns:xlink="http://www.w3.org/1999/xlink" xmlns:sketch="http://www.bohemiancoding.com/sketch/ns">
    <!-- Generator: Sketch 3.3.3 (12072) - http://www.bohemiancoding.com/sketch -->
    <title>Untitled 23</title>
    <desc>Created with Sketch.</desc>
    <defs></defs>
    <g id="Page-1" stroke="none" stroke-width="1" fill="none" fill-rule="evenodd" sketch:type="MSPage">
        <g id="Group" sketch:type="MSLayerGroup">
            <path d="M57,17 L57,70 L6,70 L6,0 L40,0 L57,17 L57,17 Z" id="Rectangle-41" fill="#FFFFFF" sketch:type="MSShapeGroup"></path>
            <path d="M39,1 L39,18 L56,18 L39,1 L39,1 Z" id="Path-26-Copy" fill="#E4E4E4" sketch:type="MSShapeGroup"></path>
            <path d="M40,0 L40,17 L57,17 L40,0 L40,0 Z" id="Path-26" fill="#FFFFFF" sketch:type="MSShapeGroup"></path>
            <rect id="Rectangle-40" fill="#3098C2" sketch:type="MSShapeGroup" x="0" y="9" width="34" height="17"></rect>
            <g id="twitter" transform="translate(18.500000, 36.000000)" fill="#3098C2" sketch:type="MSShapeGroup">
                <path d="M8.177,22.2779375 C5.16425,22.2779375 2.3603125,21.367125 0,19.8046875 C0.417625,19.8550625 0.84175,19.881875 1.272375,19.881875 C3.771625,19.881875 6.0718125,19.0019375 7.8975,17.525625 C5.5631875,17.4809375 3.5936875,15.8900625 2.9144375,13.7028125 C3.2394375,13.767 3.5741875,13.8019375 3.917875,13.8019375 C4.4045625,13.8019375 4.875,13.7345 5.3226875,13.6085625 C2.88275,13.1031875 1.04325,10.87775 1.04325,8.2103125 L1.04325,8.14125 C1.7623125,8.554 2.585375,8.801 3.459625,8.8294375 C2.028,7.8430625 1.0863125,6.157125 1.0863125,4.24775 C1.0863125,3.238625 1.3495625,2.292875 1.808625,1.480375 C4.441125,4.81 8.3711875,7.002125 12.805,7.23125 C12.714,6.82825 12.666875,6.4081875 12.666875,5.97675 C12.666875,2.936375 15.0548125,0.4720625 18.0009375,0.4720625 C19.5349375,0.4720625 20.9210625,1.14075 21.893625,2.2108125 C23.109125,1.9638125 24.2506875,1.5055625 25.28175,0.8750625 C24.883625,2.1604375 24.0378125,3.2394375 22.93525,3.921125 C24.015875,3.7870625 25.042875,3.4913125 26,3.0525625 C25.285,4.15675 24.3806875,5.126875 23.33825,5.9028125 C23.349625,6.13925 23.3545,6.3765 23.3545,6.6145625 C23.3536875,13.8896875 17.9879375,22.2779375 8.177,22.2779375" id="Shape"></path>
            </g>
            <path d="M5.06616211,20 L4.52661133,20 L4.52661133,15.8391113 L3.05712891,15.8391113 L3.05712891,15.3598633 L6.53564453,15.3598633 L6.53564453,15.8391113 L5.06616211,15.8391113 L5.06616211,20 Z M11.2836914,20 L10.7504883,20 L9.81420898,16.8928223 C9.76977517,16.755289 9.72005236,16.5817882 9.66503906,16.3723145 C9.61002577,16.1628407 9.5814616,16.0369468 9.5793457,15.9946289 C9.53279599,16.2739272 9.45874074,16.5796696 9.35717773,16.9118652 L8.44946289,20 L7.91625977,20 L6.68164062,15.3598633 L7.25292969,15.3598633 L7.98608398,18.2258301 C8.08764699,18.6278503 8.16170224,18.991779 8.20825195,19.317627 C8.26538115,18.930418 8.35001572,18.5516783 8.4621582,18.1813965 L9.29370117,15.3598633 L9.86499023,15.3598633 L10.737793,18.2067871 C10.839356,18.534751 10.9250485,18.9050272 10.994873,19.317627 C11.0350751,19.0171697 11.1112462,18.6511252 11.2233887,18.2194824 L11.9533691,15.3598633 L12.5246582,15.3598633 L11.2836914,20 Z M13.2514648,20 L13.2514648,15.3598633 L13.7910156,15.3598633 L13.7910156,20 L13.2514648,20 Z M16.4919434,20 L15.9523926,20 L15.9523926,15.8391113 L14.4829102,15.8391113 L14.4829102,15.3598633 L17.9614258,15.3598633 L17.9614258,15.8391113 L16.4919434,15.8391113 L16.4919434,20 Z M20.2180176,20 L19.6784668,20 L19.6784668,15.8391113 L18.2089844,15.8391113 L18.2089844,15.3598633 L21.6875,15.3598633 L21.6875,15.8391113 L20.2180176,15.8391113 L20.2180176,20 Z M24.9724121,20 L22.3857422,20 L22.3857422,15.3598633 L24.9724121,15.3598633 L24.9724121,15.8391113 L22.925293,15.8391113 L22.925293,17.3339844 L24.8486328,17.3339844 L24.8486328,17.8100586 L22.925293,17.8100586 L22.925293,19.5175781 L24.9724121,19.5175781 L24.9724121,20 Z M26.5402832,18.0703125 L26.5402832,20 L26.0007324,20 L26.0007324,15.3598633 L27.2734375,15.3598633 C27.8426135,15.3598633 28.2631415,15.4688303 28.5350342,15.6867676 C28.8069268,15.9047049 28.9428711,16.2326638 28.9428711,16.6706543 C28.9428711,17.2842641 28.631839,17.6989735 28.0097656,17.9147949 L29.2697754,20 L28.6318359,20 L27.5083008,18.0703125 L26.5402832,18.0703125 Z M26.5402832,17.6069336 L27.2797852,17.6069336 C27.6606464,17.6069336 27.9399405,17.5312914 28.1176758,17.3800049 C28.295411,17.2287183 28.3842773,17.0017919 28.3842773,16.6992188 C28.3842773,16.3924138 28.2938241,16.171306 28.112915,16.0358887 C27.9320059,15.9004713 27.6416036,15.8327637 27.2416992,15.8327637 L26.5402832,15.8327637 L26.5402832,17.6069336 Z" id="TWITTER" fill="#FFFFFF" sketch:type="MSShapeGroup"></path>
        </g>
    </g>
</svg>