<svg viewBox="0 0 784 598" enable-background="new 0 0 784 598" xml:space="preserve">

<path id="yukon-state" d="M202.308,121.672c1.088,0.419,2.525,0.71,3.279,1.482c0.97,0.994,2.306,7.799,3.068,9.637
	c0.476,1.149,1.722,1.709,2.433,2.647c-0.147,1.731-2.038,3.455-2.856,4.765c-1.845,2.956-2.828,6.18-4.337,9.637
	c-0.458,0.988-0.917,1.977-1.375,2.965c-0.115,1.478,5.116,4.086,5.924,5.507c0.628,1.105-2.119,6.174-2.433,8.154
	c-0.369,2.329,1.817,2.038,2.222,3.494c0.284,1.022-0.112,3.039-0.423,3.707c-2.368,0.422-2.185,1.445-2.962,3.494
	c-0.278,0.734-1.308,1.595-0.952,2.859c0.423,0.564,0.846,1.129,1.269,1.694c0,0.882,0,1.765,0,2.647
	c0.388,0.706,0.776,1.412,1.164,2.118c0.106,1.094,0.212,2.188,0.317,3.282c0.282,0.671,0.564,1.342,0.846,2.012
	c0.477,1.712-0.716,3.703-1.058,4.977c-0.564,3.671-1.128,7.343-1.693,11.014c2.077,2.474,2.228,4.727,3.597,7.942
	c0.423,0.847,0.847,1.694,1.27,2.541c0,0-1.153,4.929-1.27,5.295c0.641,1.444,6.921,4.836,9.098,4.871
	c-0.105,2.365-0.211,4.73-0.317,7.095c-1.058-0.529-2.116-1.06-3.173-1.589c-3.586-1.591-6.993-3.272-10.261-5.188
	c-4.161-2.153-8.322-4.307-12.482-6.46c-6.39-3.759-12.619-7.839-18.83-11.755c-3.208-2.082-6.418-4.165-9.626-6.248
	c-1.106-0.74-3.208-1.574-3.491-3.071c0.633-1.808,1.763-2.812,2.962-4.024c-0.031-0.592-0.108-0.618-0.317-0.953
	c-1.207-0.348-2.738-0.461-4.231-0.741c-0.314-0.25-0.445-0.983-0.74-1.165c-0.81-0.497-1.8-0.002-2.116-0.953
	c-0.398-1.198,1.957-4.051,2.433-4.765c2.715-4.095,5.43-8.19,8.146-12.285C177.693,158.104,190.002,139.885,202.308,121.672z"/>
<path id="idaho-state" d="M217.012,342.045c1.333,0.096,3.366,0.605,4.125,1.377c-0.216,3.773-2.742,7.689-1.587,12.604
	c0.776,1.588,1.552,3.177,2.328,4.765c0.423,1.166,0.846,2.33,1.269,3.496c0.458,0.528,0.917,1.06,1.375,1.588
	c0,0-1.567,5.38-1.587,5.399c-0.86,0.935-2.536,1.902-1.375,3.918c1.02,0.265,2.372,0.255,3.491,0.425
	c1.282,2.851,1.184,10.272,3.491,11.756c1.024,0.656,2.911-0.129,4.337,0.104c1.894,0.31,3.833,0.519,5.818,0.848
	c0.771,1.636-0.411,4.384-0.847,6.035c-1.199,5.048-2.398,10.097-3.597,15.146c-8.532-2.646-17.067-5.298-25.6-7.94
	c-2.571-0.81-7.894-1.64-9.521-3.283c0.025-2.99,1.741-5.521,2.539-8.05c0.353-1.52,0.705-3.034,1.058-4.553
	c0.6-0.812,1.199-1.623,1.798-2.438c0.376-1.539-0.534-3.3-0.211-4.66c2.575-1.731,4.619-4.131,6.453-6.562
	c-0.406-2.639-1.376-5.721-0.846-8.791c0.759-4.396,2.339-8.18,3.809-11.965C214.825,348.188,215.918,345.116,217.012,342.045z"/>
<path id="montana-state" d="M222.089,343.527c7.581,2.188,15.163,4.378,22.744,6.565c13.998,4.134,28.238,6.446,43.055,9.638
	c-1.375,8.151-2.75,16.309-4.126,24.463c-0.368,1.771-0.759,7.729-1.798,8.471c-0.106,0.07-0.212,0.145-0.317,0.214
	c-2.936-1.317-6.828-1.407-10.155-2.226c-6.875-1.481-13.753-2.965-20.628-4.447c-2.126-0.491-8.932-2.391-10.367-1.479
	c-0.219,0.776-0.713,2.062-1.375,2.438c-1.145,0.477-9.106-0.707-10.367-1.166c-1.58-3.133-1.253-8.4-3.068-11.438
	c-1.29,0.021-2.703,0.188-3.597-0.104c0.075-1.547,0.843-2.19,1.904-2.754c0.079-2.308,1.698-3.794,1.481-5.397
	c-0.159-1.176-0.987-1.729-1.481-2.543c-0.458-1.234-0.917-2.472-1.375-3.705c-0.734-1.705-1.73-2.976-2.116-5.188
	C219.723,350.381,221.804,347.111,222.089,343.527z"/>
<path id="north-dakota-state" d="M288.84,360.049c7.156-0.089,15.236,1.073,21.791,2.225c5.09,0.892,10.61,0.676,15.34,1.904
	c0.354,8.646,0.705,17.299,1.061,25.944c-0.106,0.032-0.212,0.067-0.317,0.104c-1.437,0.594-9.854-0.941-11.637-1.271
	c-10.119-1.271-20.241-2.543-30.36-3.812C286.089,376.781,287.465,368.414,288.84,360.049z"/>
<path id="wisconsin-state" d="M381.296,421.681c-3.921-0.232-17.825,0.213-19.782-1.271c-1.179-0.896-1.98-9.045-2.854-10.907
	c-1.148-2.452-6.565-5.396-8.463-7.836c0.067-2.646,0.141-5.295,0.211-7.94c0.459-1.229,2.373-1.414,2.854-2.858
	c0.479-1.427-0.27-3.808,0.85-4.554c1.231-0.315,2.469-0.637,3.699-0.953c1.308-0.528,2.609-1.061,3.914-1.588
	c0.035,0.035,0.071,0.068,0.106,0.104c0.035,0.494,0.069,0.986,0.104,1.48c0.812,0.528,1.621,1.061,2.436,1.59
	c0.644,0.787,0.782,1.791,1.798,2.225c3.816,1.628,8.682,1.787,11.954,4.023c1.249,0.854,2.414,3.147,2.962,4.658
	c0.314,0.866,0.288,1.841,0.848,2.438c1.577-0.539,2.16-2.282,2.961-3.602c0.179,0.034,0.354,0.069,0.529,0.104
	c-0.143,1.095-0.281,2.188-0.424,3.283c-1.922,0.363-1.734,3.261-2.221,5.081c-0.529,1.554-1.062,3.106-1.591,4.66
	C380.357,413.411,381.046,418.125,381.296,421.681z"/>
<path id="wyoming-state" d="M241.448,385.568c2.407-0.019,4.613,0.678,6.664,1.166c3.702,0.777,7.405,1.553,11.107,2.33
	c7.616,1.588,15.234,3.177,22.85,4.766c0,0.035,0,0.07,0,0.105c-1.904,11.188-3.809,22.381-5.712,33.568c-0.176,0-0.353,0-0.529,0
	c-14.244-3.035-28.493-6.071-42.737-9.105c1.975-8.154,3.95-16.312,5.924-24.463C239.728,391.346,239.757,387.252,241.448,385.568z"
	/>
<path id="south-dakota-state" d="M284.714,386.311c3.481-0.049,6.606,0.51,9.626,1.062c4.619,0.603,9.24,1.198,13.858,1.8
	c6.1,0.776,12.201,1.555,18.301,2.329c0,0.035,0,0.069,0,0.104c-0.571,2.193,0.856,3.688,0.741,6.036
	c-0.24,4.825-0.714,11.178-1.481,15.674c-0.29,1.698,0.131,3.768-0.212,5.188c-0.07,0.032-0.141,0.067-0.211,0.104
	c-1.615-0.188-2.458-1.279-3.914-1.589c-1.34,0-2.681,0-4.02,0c-1.396-0.479-2.231-1.79-3.914-2.228
	c-6.349-0.847-12.695-1.691-19.042-2.538c-3.13-0.565-12.118-0.729-13.964-2.118c0.882-5.262,1.764-10.521,2.645-15.778
	C283.652,391.711,283.522,388.369,284.714,386.311z"/>
<g id="utah-state">
	<path d="M217.223,405.479c1.798,0.029,3.383,0.904,4.866,1.377c3.904,1.238,8.452,2.03,11.742,4.023
		c-0.087,2.536-1.138,5.578-2.01,7.729c0.106,0.142,0.212,0.281,0.317,0.424c4.337,0.987,8.675,1.979,13.012,2.965
		c-1.728,7.729-3.456,15.464-5.184,23.191c-0.729,2.892-1.011,8.229-2.433,10.483c-10.859-2.686-21.722-5.366-32.582-8.052
		c2.574-8.895,5.148-17.791,7.722-26.687C214.19,415.786,215.707,410.631,217.223,405.479z"/>
</g>
<path id="nebraska-state" d="M280.165,411.62c3.314,0.392,6.63,0.776,9.944,1.165c3.843,0.494,7.688,0.988,11.532,1.481
	c4.055,0.529,8.109,1.061,12.164,1.59c1.332,0.425,1.983,1.849,3.068,2.224c0.916-0.035,1.834-0.067,2.75-0.104
	c1.789-0.079,5.452,1.104,6.029,2.013c0.142,0.848,0.28,1.693,0.424,2.541c0.467,1.537,1.324,2.905,1.689,4.66
	c0.317,2.61,0.638,5.225,0.952,7.836c0.724,2.641,2.472,4.721,2.856,7.625c-0.458,0-0.917,0-1.376,0
	c-9.942-1.095-19.892-2.189-29.831-3.283c-1.925-0.317-9.519-0.375-10.473-1.271c-1.034-2.68,1.359-6.113,0.211-8.153
	c-3.906-0.969-8.582-1.503-12.694-2.437C278.332,422.211,279.249,416.914,280.165,411.62z"/>
<path id="iowa-state" d="M328.298,413.314c10.189,0.034,20.382,0.069,30.571,0.104c0.322,2.05,0.489,5.487,1.479,7.096
	c0.513,0.822,1.235,0.812,2.013,1.377c1.896,1.376,3.368,6.283,1.271,8.578c-0.763,0.833-2.751,0.752-3.809,1.271
	c-0.502,3.281,0.509,7.508-2.962,7.838c-1.25-1.6-3.912-0.788-6.453-1.166c-6.522-0.211-13.047-0.424-19.57-0.635
	c-0.391-1.324-1.058-2.515-1.375-4.021c-0.246-2.364-0.494-4.729-0.74-7.098c-0.562-1.479-1.129-2.966-1.689-4.444
	c-0.071-2.896-0.145-5.79-0.212-8.688C327.311,413.456,327.804,413.385,328.298,413.314z"/>
<path id="new-jersey-state" d="M464.654,423.375c2.082-0.035,5.576,1.119,6.136,2.647c-0.035,0.882-0.07,1.765-0.106,2.646
	c0.428,1.377,0.852,2.754,1.271,4.13c0.519,2.896-3.029,10.191-4.654,10.59c-2.219,0.54-5.394-3.438-4.229-6.564
	c0.604-1.633,2.724-2.354,3.275-4.131c-1.158-0.857-2.565-1.978-3.174-3.39C463.317,428.349,464.221,424.361,464.654,423.375z"/>
<path id="west-virginia-state" d="M427.947,437.988c0.316,0.135,0.127-0.002,0.313,0.213c0.606,1.313,0.155,3.533,1.375,4.234
	c1.396,1.243,5.429-0.346,6.562,0.637c0.306,0.672,0.296,2.676,0.952,2.965c1.514,0.667,8.467-5.992,10.685-2.541
	c0.035,0.144,0.07,0.281,0.105,0.426c-1.567,2.052-1.998,0.188-4.021,0.104c-0.54,1.629-0.989,3.008-2.222,3.918
	c-0.459,0.247-0.917,0.493-1.375,0.74c-0.598,0.792-0.547,2.396-1.062,3.178c-1.128,0.212-2.256,0.424-3.385,0.636
	c-0.639,2.223-3.051,8.387-4.549,9.64c-0.951,0.354-1.904,0.706-2.855,1.06c-1.1,0.388-2.879,1.537-4.439,1.165
	c-2.416-0.574-5.651-4.233-6.352-6.566c-0.543-1.82,0.979-2.688,1.481-3.812c0.177-0.603,0.353-1.2,0.528-1.801
	c0.553-0.578,1.613-0.517,2.01-1.271c0.479-0.93,0.389-1.882,0.953-2.646c1.014-1.376,2.89-1.879,3.808-3.392
	C427.605,443,427.088,440.393,427.947,437.988z"/>
<path id="kansas-state" d="M285.666,464.992c1.199-8.576,2.398-17.156,3.597-25.729c11.389,1.232,22.78,2.472,34.167,3.706
	c3.244,0.54,9.935-0.342,10.367,2.966c-1.875,3.716,0.861,2.988,1.375,5.719c0.785,4.172,0.562,13.873-0.424,17.579
	c-3.631-0.354-7.264-0.706-10.896-1.06C311.127,467.111,298.395,466.052,285.666,464.992z"/>
<path id="kentucky-state" d="M372.833,473.888c-0.044-1.551-0.002-3.147,0.528-4.13c2.975-0.697,4.885-0.436,6.453-2.541
	c0.803-1.078,0.489-3.021,1.799-3.604c1.836-0.812,4.324-0.271,6.664-0.74c1.129-0.562,2.258-1.13,3.385-1.692
	c0.883-0.211,1.764-0.423,2.646-0.635c1.875-1.115,3.091-4.591,4.653-5.399c0.917-0.143,1.834-0.283,2.751-0.425
	c0.07-1.062,0.144-2.118,0.211-3.18c2.888,0.36,4.008,1.945,6.562,2.541c2.396,0.145,4.796,0.282,7.189,0.427
	c0.979,1.347,0.691,3.073,1.481,4.555c1.163,1.518,2.327,3.034,3.491,4.553c0,0.036,0,0.071,0,0.105
	c-3.266,1.354-4.993,6.493-7.938,7.625c-5.535,0.143-11.072,0.282-16.604,0.424c-4.654,0.143-9.312,0.282-13.966,0.424
	c-1.097,0.202-1.086,1.035-1.901,1.271C377.77,473.605,375.301,473.747,372.833,473.888z"/>
<path id="oklahoma-state" d="M279.636,464.992c4.231,0.495,8.463,0.989,12.694,1.482c7.439,0.672,14.881,1.342,22.32,2.013
	c6.732,0.604,13.472,1.2,20.206,1.8c0.062,9.202,1.169,19.355,0,28.596c-1.766-0.812-3.526-1.624-5.29-2.438
	c-4.304,0.035-8.604,0.069-12.905,0.105c-1.692-0.528-3.386-1.062-5.077-1.593c-0.953-0.702-1.904-1.408-2.855-2.114
	c-1.764-0.354-3.524-0.706-5.291-1.062c-0.773-0.601-1.551-1.2-2.326-1.801c-1.232-0.46-2.469-0.919-3.701-1.378
	c0.492-5.753,0.986-11.508,1.479-17.261c-0.847-1.064-3.696-0.769-5.289-1.062c-3.484-0.643-11.751-0.777-14.281-2.225
	C279.425,467.04,279.531,466.016,279.636,464.992z"/>
<path id="north-carolina-state" d="M462.327,479.713c0.812,0.067,1.622,0.141,2.433,0.211c-0.158,1.375-1.8,3.141-2.961,3.492
	c-0.982,0.305-1.745,0.038-2.434,0.529c-1.52,1.624-3.033,3.248-4.549,4.872c-0.438,0.798-0.307,1.991-0.74,2.646
	c-0.705,0.315-1.41,0.636-2.115,0.95c-2.18-0.528-7.026-4.604-8.887-6.033c-0.74-0.639-1.48-1.271-2.221-1.905
	c-2.226,0.07-4.443,0.142-6.665,0.211c-1.817-0.306-2.562-1.258-4.553-1.588c-5.644-0.938-9.689,1.556-13.329,2.646
	c-3.138,0.318-6.273,0.639-9.41,0.953c0.211-0.246,0.423-0.494,0.635-0.74c1.304-1.165,2.605-2.328,3.913-3.492
	c2.312-1.643,4.644-3.329,6.979-4.769c1.521-0.812,3.033-1.624,4.549-2.437c1.077-0.788,1.621-2.972,2.751-3.495
	c8.074-1.022,16.151-2.047,24.229-3.069c4.619-0.773,9.239-1.554,13.854-2.33c0.664,0.312,0.941,1.062,0.951,2.015
	c-0.493,0.459-0.982,0.918-1.479,1.377c2.318,0.131,4.713,0.778,4.76,3.179c-0.48,0.952-2,3.402-2.961,3.812
	c-0.688,0.289-2.107-0.028-2.646,0.426C462.398,478.018,462.362,478.865,462.327,479.713z"/>
<path id="arkansas-state" d="M336.125,475.053c9.803,0.143,19.607,0.28,29.408,0.424c0.035,0.104,0.067,0.213,0.104,0.318
	c-0.332,1.037-0.729,2.521-0.212,3.389c0.952,0.389,1.904,0.773,2.856,1.164c-0.238,1.613-1.433,2.776-2.013,4.132
	c-0.459,1.27-0.918,2.54-1.375,3.812c-0.704,0.953-1.409,1.906-2.114,2.859c-0.211,0.847-0.422,1.693-0.638,2.542
	c-0.771,1.164-1.551,2.33-2.324,3.493c-1.188,2.017-1.225,5.164-1.061,8.261c-6.77,0-13.541,0-20.311,0
	c-0.07-1.658-0.144-3.315-0.212-4.978c-0.708-0.045-1.608-0.247-1.904-0.742c-0.764-1.666-0.212-5.297-0.212-7.411
	C336.125,486.561,336.125,480.807,336.125,475.053z"/>
<path id="south-carolina-state" d="M425.514,484.055c2.066-0.026,4.356-0.165,5.928,0.424c0.728,0.271,0.854,0.988,1.689,1.164
	c2.538,0.035,5.078,0.07,7.616,0.104c1.833,1.447,3.667,2.896,5.501,4.345c1.234,0.739,2.469,1.48,3.702,2.226
	c-0.917,1.199-1.833,2.399-2.75,3.6c-0.354,1.166-0.706,2.33-1.062,3.495c-2.187,2.33-4.373,4.66-6.559,6.989
	c-0.674,0.674-3.479,3.752-4.549,3.603c-1.414-0.197-4.646-5.799-5.502-7.2c-2.071-3.396-5.36-5.684-8.039-8.475
	c-0.916-1.094-1.834-2.188-2.75-3.28c-1.01-0.82-2.172-1.398-3.068-2.329c0.035-0.354,0.07-0.706,0.105-1.062
	C417.151,484.913,422.452,485.293,425.514,484.055z"/>
<path id="alabama-state" d="M397.27,487.973c0.246,0,0.494,0,0.74,0c0.917,3.425,1.834,6.85,2.75,10.271
	c0.283,2.083,0.564,4.166,0.851,6.248c0.6,1.412,1.196,2.824,1.798,4.235c0.62,1.861,0.211,4.964,0.213,7.201
	c0,2.521,1.196,4.789,0.739,6.774c-4.312-0.06-17.832-0.396-19.146,2.015c0.635,2.013,1.271,4.021,1.904,6.036
	c-1.34,0-2.685,0-4.021,0c-1.341-0.562-1.594-0.823-3.385-0.529c0.105-6.316,0.212-12.641,0.316-18.955
	c0.648-4.161,0.016-8.498,0.636-12.283c0.465-2.836-0.013-8.213,1.163-10.379C386.973,488.396,392.121,488.185,397.27,487.973z"/>
<path id="mississippi-state" d="M380.555,488.29c-0.492,5.475-0.983,10.943-1.479,16.414c-0.07,8.475-0.144,16.944-0.211,25.415
	c-2.578-0.053-4.931,0.289-6.351,1.377c-3.396-0.562-2.274-4.198-3.175-7.307c-4.266-0.247-8.532-0.494-12.8-0.741
	c-0.035-0.104-0.07-0.212-0.105-0.314c-0.744-1.827,3.616-8.612,4.231-10.805c0.323-1.146-0.424-1.972-0.636-2.966
	c-0.485-2.285-0.782-6.041-0.316-8.685c0.48-2.733,1.823-4.004,2.962-5.933c1.537-2.601,0.988-4.279,3.49-6.144
	C370.964,488.502,375.76,488.396,380.555,488.29z"/>
<path id="alberta-state" d="M234.678,243.562c3.949,1.306,7.899,2.612,11.848,3.918c10.014,2.965,20.03,5.93,30.043,8.895
	c0,0.318,0,0.636,0,0.953c-0.388,1.482-0.775,2.966-1.164,4.448c-2.323,1.052-4.479,2.558-5.606,4.766
	c0.071,0.105,0.141,0.211,0.211,0.317c0.67,0.317,1.34,0.636,2.01,0.953c1.264-0.577,1.594-1.916,2.645-2.436
	c0,0.106,0,0.212,0,0.317c-6.84,28.59-13.682,57.188-20.522,85.776c-4.725-1.271-9.451-2.541-14.175-3.812
	c-2.254-0.674-5.138-0.846-6.876-2.116c-3.854-2.821,0.757-9.271-0.952-13.446c-1.058-2.05-2.116-4.097-3.173-6.146
	c-1.667-3.775-3.085-7.207-4.655-11.014c-0.725-1.76-2.311-3.24-3.067-5.082c-0.388-1.66-0.776-3.317-1.164-4.979
	c-0.706-1.231-1.411-2.472-2.116-3.705c-0.814-1.017-2.056-1-2.222-2.754c0.733-1.379,0.742-3.725,1.27-5.399
	c1.445-4.236,2.892-8.472,4.337-12.708C225.791,268.06,230.235,255.809,234.678,243.562z"/>
<path id="saskatchewan-state" d="M277.838,256.797c7.722,1.518,15.446,3.036,23.167,4.554c2.609,0.578,9.026,0.982,10.896,2.118
	c0.036,4.352-0.826,8.731-1.586,12.708c-0.322,1.696-0.043,3.993-0.848,5.295c-0.626,1.015-2.797,1.839-3.597,3.495
	c-0.893,1.847,0.891,3.237,0.316,5.507c-0.306,1.205-1.489,1.604-1.797,2.859c0.104,0.105,0.211,0.212,0.314,0.317
	c0.966-0.535,1.496-1.338,2.751-1.588c0.035,0.106,0.069,0.212,0.104,0.318c0.716,1.789-0.495,12.782-0.848,15.038
	c-0.881,12.425-1.763,24.854-2.645,37.275c-0.281,3.705-0.564,7.412-0.846,11.119c-0.265,1.645,0.266,3.78-0.74,4.657
	c-3.435-1.491-10.702-1.065-14.917-1.8c-7.853-1.363-15.333-2.993-22.744-4.87c-3.057-0.774-7.01-0.875-9.521-2.33
	c5.042-21.106,10.085-42.221,15.127-63.327c1.34-5.577,2.68-11.155,4.02-16.732c0.495-1.944,0.527-5.327,1.692-6.777
	c2.28,0.593,5.67,1.048,8.357,0.635c1.058-0.105,2.116-0.211,3.174-0.317c1.699,0.288,2.957,1.63,4.76,1.376
	c-0.487-1.831-10.433-4.896-12.694-6.036c-1.208-0.609-2.646,1.092-2.75-0.53C277.274,258.775,277.556,257.787,277.838,256.797z"/>
<path id="manitoba-state" d="M345.329,266.646c-0.075,2.883-0.915,6.028-0.317,9.001c1.357,1.71,4.838,1.185,6.664,2.436
	c1.579,1.081,3.195,11.941,2.963,14.614c0.07,0.071,0.144,0.142,0.211,0.212c3.158,0.159,5.481-1.652,8.465-1.059
	c0.938,0.187,1.102,0.854,1.8,1.165c1.918,0.852,4.188,0.82,5.814,1.694c0,0.142,0,0.283,0,0.424
	c-7.018,8.049-14.032,16.098-21.052,24.145c-2.715,2.932-5.431,5.861-8.146,8.791c-0.927,1.15-2.272,2.125-2.856,3.603
	c-1.124,2.843-0.224,6.737-0.74,10.166c-0.423,7.198-0.847,14.399-1.27,21.604c-0.035,0-0.071,0-0.106,0
	c-4.229-0.213-8.463-0.424-12.69-0.637c-6.631-0.74-13.263-1.482-19.889-2.226c0.043-5.756,0.248-11.543,1.059-16.838
	c0.388-5.541,0.772-11.086,1.164-16.627c0.526-7.343,1.058-14.685,1.586-22.024c1.146-7.442-0.597-16.751,3.49-21.285
	c-0.095-1.01-0.572-1.298-0.739-2.118c0.773-6.141,1.552-12.285,2.325-18.426c0.178,0,0.354,0,0.528,0
	c3.949,0.423,7.898,0.848,11.851,1.271C331.936,265.627,338.391,266.299,345.329,266.646z"/>
<path id="ontario-state" d="M372.093,295.238c3.44,1.131,3.814,3.881,6.029,5.614c1.215,0.948,2.844,0.926,4.442,1.588
	c1.021,0.672,2.045,1.342,3.064,2.014c0.74,0.105,1.481,0.211,2.222,0.316c1.233,1.022,2.472,2.047,3.702,3.069
	c1.271,0.035,2.539,0.07,3.812,0.104c3.889,0.593,9.078-0.414,11.314,1.802c-0.021,1.696-0.92,5.647-0.736,6.563
	c0.354,0.738,0.701,1.479,1.059,2.226c0.473,1.579,0.77,3.646,1.058,4.979c0.396,1.838-0.109,3.202,0.639,4.446
	c1.552,2.013,3.103,4.021,4.65,6.036c0.532,0.66,1.201,0.863,1.904,1.375c1.578,1.146,2.966,3.786,3.386,6.036
	c1.41-0.034,2.82-0.068,4.23-0.104c1.021,8.719,2.046,17.438,3.064,26.156c0.864,4.809,0.592,9.547,2.962,12.707
	c2.603,3.461,6.849,3.243,11.53,4.659c1.551,0.704,3.104,1.409,4.654,2.116c0.635,0.775,1.27,1.556,1.904,2.328
	c1.834-0.143,3.668-0.278,5.501-0.422c1.851-0.555,3.815-2.803,6.136-2.228c0.07,1,0.658,1.972,0.312,2.858
	c-0.726,1.523-2.779,2.601-3.91,3.812c-1.48,1.801-2.965,3.602-4.442,5.398c-0.714,0.896-1.854,1.311-2.646,2.116
	c-0.696,0.718-0.478,1.438-1.587,1.905c-2.607,1.106-6.473,0.873-8.987,1.802c-1.69,0.623-6.887,3.166-6.03,5.507
	c0.652,1.175,2.435,0.729,3.491,1.271c0.237,0.691,0.562,0.983,0.635,1.903c-0.106,0.069-0.212,0.144-0.317,0.213
	c-0.582,0.268-1.396,0.059-2.222,0.214c-1.929,0.359-4.679,1.203-5.712,2.539c0,0.069,0,0.143,0,0.214
	c0.458,0.354,0.916,0.706,1.375,1.061c-0.035,0.069-0.07,0.142-0.105,0.211c-2.084,0.222-4.771-0.892-6.665-0.104
	c-2.956,1.226-4.129,5.071-6.979,6.248c-1.445,0.141-2.896,0.279-4.338,0.424c0-0.036,0-0.069,0-0.105
	c0.98-2.045,2.427-1.711,4.229-2.856c0.422-2.27-0.177-3.833,0.639-6.036c0.562-1.527,2.227-2.189,2.75-3.918
	c0-2.474,0-4.941,0-7.413c0.736-1.521,1.479-3.036,2.221-4.555c-0.563-0.755-2.438-3.604-2.538-4.445
	c0.035-0.07,0.07-0.146,0.104-0.213c0.035,0,0.071,0,0.106,0c2.15,0.844,5.246,6.08,8.146,5.399c4.88-1.214-2.585-8.414-3.386-9.216
	c-2.662-2.657-8.566-2.323-13.117-3.069c-2.077-0.034-4.158-0.067-6.238-0.104c-0.493-0.459-0.986-0.918-1.48-1.377
	c-0.846-0.459-1.69-0.918-2.539-1.377c0,0-2.194-3.785-2.326-4.022c0.281-0.282,0.563-0.562,0.85-0.849
	c-0.162-1.145-0.804-1.64-1.271-2.438c-0.521-0.889-0.784-2.491-1.689-2.965c-2.201-1.147-5.322-1.039-6.664-2.967
	c-0.316-1.588-0.638-3.178-0.951-4.767c-0.354,0-0.706,0-1.062,0c-3.396,0.968-6.104-0.552-8.146-1.588
	c-0.775,0.562-1.553,1.129-2.327,1.69c0.143,0.354,0.282,0.707,0.425,1.062c-0.573,0.569-6.395,5.198-6.771,5.297
	c-1.406,0.358-12.168-1.124-13.227-1.59c-0.543-0.237-0.562-0.746-0.949-1.062c-0.035,0-0.07,0-0.105,0
	c-0.528-0.104-1.058-0.213-1.587-0.316c-0.881-0.67-1.765-1.34-2.646-2.012c-1.551-0.035-3.104-0.069-4.651-0.104
	c-0.765-0.128-4.132-1.114-4.764-1.483c-1.194-0.698-0.596-2.875-1.161-4.232c-0.324-0.777-1.44-1.128-2.012-1.693
	c-0.057-6.688-0.104-13.996,0.849-20.229c0.446-2.938-0.334-6.307,0.635-8.684c1.809-4.438,6.854-7.342,9.73-10.906
	C357.07,312.465,364.582,303.852,372.093,295.238z"/>
<path id="washington-state" d="M185.911,330.186c9.978,3.812,19.959,7.625,29.938,11.438c-0.288,3.194-2.087,6.539-3.174,9.317
	c-1.855,4.744-2.806,8.861-3.914,14.613c-0.035,0-0.07,0-0.105,0c-3.501-1.479-7.201-2.744-11.108-3.705
	c-2.679-0.283-5.36-0.565-8.04-0.849c-2.539-0.506-4.501-1.381-6.559-2.228c-1.555-0.637-5.301-0.854-6.136-2.225
	c-0.43-0.896-0.077-2.289-0.423-3.39c-0.677-2.149-3.304-3.646-5.818-4.022c0.765-5.65,1.681-12.877,3.174-18.32
	c2.67-0.668,6.696,5.834,10.684,4.979C184.374,333.453,185.096,331.705,185.911,330.186z"/>
<path id="oregon-state" d="M170.254,350.094c2.114,0.166,4.575,1.516,5.078,3.282c0.582,2.046-0.101,3.771,1.587,4.657
	c1.446,0.391,2.892,0.775,4.337,1.165c2.963,1.036,5.514,2.325,9.097,2.967c2.433,0.212,4.867,0.425,7.299,0.636
	c3.702,1.235,7.405,2.473,11.107,3.707c0.317,1.729,0.635,3.459,0.952,5.188c-1.286,0.99-1.78,2.271-2.75,3.604
	c-0.892,1.223-2.696,1.69-3.491,2.965c-0.071,0.069-0.141,0.144-0.212,0.213c-0.625,1.601,0.706,3.166,0.212,4.767
	c-0.312,1.011-1.555,1.396-1.904,2.541c-1,3.271-2.002,10.33-3.914,12.284c-11.106-4.061-22.216-8.119-33.322-12.18
	c-1.671-0.65-9.822-2.881-9.944-4.234c0.494-2.225,0.987-4.448,1.481-6.672c1.333-3.215,4.344-5.301,6.136-8.153
	C165.194,361.74,167.977,355.844,170.254,350.094z"/>
<path id="minnesota-state" d="M327.346,412.15c0.246-5.295,0.494-10.592,0.74-15.886c-0.282-0.987-0.562-1.979-0.846-2.967
	c-0.195-1.118,0.521-1.521,0.74-2.226c0.032-1.377,0.067-2.754,0.104-4.131c-1.072-7.174-0.942-15.32-0.952-22.979
	c3.209,0.062,7.028,0.887,10.05,0.211c0.371-0.562,0.505-1.111,0.74-1.904c0.144,0,0.282,0,0.424,0
	c1.705,1.354,1.011,4.262,2.538,5.295c1.193,0.808,4.146,1.433,5.818,1.693c1.375,0.069,2.751,0.143,4.126,0.212
	c0.6,0.493,1.199,0.986,1.798,1.48c1.161,0.821,3.099,1.847,4.337,2.329c2.964,1.158,8.172-0.688,10.156,1.378
	c-1.014,1.685-3.146,1.381-4.762,2.438c-1.225,0.798-1.746,2.204-2.855,3.068c-1.83,1.433-5.227,3.539-6.453,5.399
	c-0.896,1.365,0.043,4.354-0.951,5.719c-0.64,0.88-2.131,1.016-2.751,2.014c-0.139,0.227-0.443,7.959-0.314,8.366
	c1.748,3.547,9.173,5.871,9.309,10.377c-0.07,0-0.141,0-0.211,0c-2.201,0.896-6.541,0.215-9.203,0.215
	C341.732,412.221,334.538,412.186,327.346,412.15z"/>
<path id="california-state" d="M154.704,383.559c5.324,1.938,10.649,3.883,15.974,5.822c3.052,1.196,6.735,1.854,9.309,3.602
	c-2.151,6.179-4.302,12.355-6.453,18.532c-0.7,1.939-2.568,4.878-1.692,7.729c6.347,11.933,12.695,23.863,19.042,35.794
	c1.48,2.685,2.962,5.365,4.443,8.05c0.035,1.409,0.07,2.822,0.106,4.233c0.211,1.142,1.291,2.354,1.058,3.392
	c-0.454,0.815-1.411,0.625-2.116,1.165c-0.494,0.812-0.987,1.621-1.481,2.437c-1.654,2.486-3.64,3.068-1.164,6.354
	c-0.106,0.246-0.212,0.494-0.317,0.741c-1.234,0.529-2.469,1.062-3.703,1.588c-3.314-0.917-6.629-1.835-9.944-2.753
	c-1.785-0.494-4.586-0.537-5.5-1.903c-1.049-1.569-0.312-4.605-0.741-6.776c-0.364-1.843-1.621-3.613-2.75-4.768
	c-1.873-1.909-4.056-3.836-5.712-5.932c-0.89-1.127-1.604-2.529-2.75-3.391c-2.197-1.646-4.624-1.194-6.135-3.812
	c-1.352-2.341,1.26-3.997,0.635-6.672c-0.528-2.258-1.159-5.895-2.01-8.153c-0.634-1.198-1.27-2.397-1.904-3.602
	c-0.344-1.707,1.699-2.594,1.27-4.979c-0.317-1.76-1.82-2.521-1.375-4.871c0.258-1.364,1.737-2.604,1.375-4.13
	c-0.35-1.479-2.06-1.896-2.539-3.18c-0.141-1.129-0.282-2.26-0.423-3.389c-0.564-1.694-1.128-3.39-1.692-5.083
	c-0.688-3.663,1.882-5.999,2.116-8.79c0.126-1.515-1.933-2.724-1.481-4.659c0.716-3.068,3.855-5.592,5.395-8.153
	C154.235,386.85,154.032,384.863,154.704,383.559z"/>
<path id="new-hampshire-state" d="M479.253,385.357c0.38,0.146,0.335,0.096,0.528,0.424c0.314,1.342,0.635,2.685,0.953,4.023
	c0.904,3.053,1.688,6.53,3.063,9.213c0.745,1.452,2.784,2.538,2.437,4.555c-2.855,0.621-5.082,4.662-9.626,2.965
	c-0.106-4.094-0.212-8.188-0.317-12.282c0.379-1.098,2.055-1.567,2.221-2.966C478.868,388.305,476.613,387.895,479.253,385.357z"/>
<path id="new-york-state" d="M471.848,428.141c0.046-5.986-4.935-4.312-8.354-6.884c-1.396-1.051-2.492-3.846-4.23-4.345
	c-8.885,1.377-17.771,2.754-26.656,4.133c-0.354-0.242-0.393-0.373-0.425-0.953c0.913-2.238,3.08-4.479,4.765-6.036
	c-0.305-1.54-1.836-2.822-1.481-4.446c1.163-0.317,2.327-0.637,3.491-0.953c5.463-0.874,11.201,0.979,12.271-4.13
	c0.365-1.747-0.447-3.146-0.635-4.555c4.311-3.45,4.655-9.204,12.589-9.214c1.242,0,2.545-0.369,3.387,0
	c0.315,1.412,0.637,2.823,0.95,4.233c0.07,1.412,0.146,2.824,0.212,4.235c0.604,1.021,1.199,2.048,1.802,3.068
	c0.815,2.014,1.168,4.446,1.587,6.776c0.883,4.91-0.214,10.53,1.479,14.401c0.313,0.715-0.363,1.27-0.104,1.906
	c0.767-0.752,7.729-3.791,8.887-3.603c0.035,0.034,0.07,0.069,0.104,0.104c-0.033,0.212-0.068,0.424-0.104,0.635
	C479.556,424.932,475.791,428.054,471.848,428.141z"/>
<g id="michigan-state">
	<path d="M378.018,379.32c0.211,0,0.425,0,0.638,0c0,0.144,0,0.283,0,0.426c-0.963,0.709-1.472,1.484-1.904,2.752
		c0.104,0.179,0.212,0.354,0.316,0.529c0.95,0.213,1.901,0.424,2.854,0.637c1.128,0.85,2.257,1.693,3.386,2.541
		c1.595,0.465,7.302-1.375,9.203-1.691c2.821-0.475,4.783,1.409,5.289,1.377c2.071-0.146,5.715,1.984,5.077,4.021
		c-1.425,1.795-6.966,0.759-9.626,1.271c-0.852,0.164-3.662,0.346-4.549,0.739c-0.494,0.528-0.988,1.062-1.48,1.591
		c-0.671,0.245-1.341,0.491-2.011,0.739c-1.187,0.735-1.799,1.898-2.751,2.857c-0.105-0.034-0.211-0.069-0.316-0.105
		c-1.021-1.41-2.045-2.821-3.064-4.233c-2.812-2.125-7.071-2.771-10.79-3.918c-1.142-0.354-3.36-1.338-2.751-2.965
		c0.721-1.391,3.049-1.212,4.549-1.802c2.108-0.83,3.594-2.369,5.396-3.496C376.324,380.17,377.17,379.746,378.018,379.32z"/>
	<path d="M409.541,426.553c-2.539,0.104-5.078,0.211-7.617,0.313c-2.396,0-4.796,0-7.19,0c-1.692,0.254-4.584,0.562-6.351,0.105
		c0.247-1.796,2.604-5.625,2.226-7.729c-0.056-0.289-0.562-3.938-0.74-4.233c-0.969-1.585-2.517-3.521-1.903-6.671
		c0.354-0.851,0.705-1.695,1.059-2.544c0.612-1.963,0.477-3.741,1.479-5.295c0.468-0.723,1.249-0.584,1.587-1.588
		c0.854,0.271,1.043,1.368,1.271,2.226c0.211-0.035,0.424-0.069,0.636-0.104c0.637-1.517,0.688-2.886,1.164-4.66
		c0.584-0.058,0.917-0.114,1.163-0.528c0.142-1.197,0.278-2.398,0.423-3.602c0.067-0.036,0.142-0.071,0.212-0.105
		c0.986,0.061,2.559-0.188,3.173,0c0.918,0.707,1.834,1.411,2.751,2.118c0.952,0.392,1.904,0.774,2.855,1.164
		c1.379,1.022,2.593,5.205,1.901,8.05c-0.312,1.3-1.212,2.289-1.69,3.812c-0.28,0.104-0.563,0.211-0.849,0.315
		c-0.258,1.157,0.104,1.901,0.638,2.542c1.692-0.381,3.759-2.798,4.761-4.023c0.247,0.213,0.494,0.424,0.74,0.637
		c1.023,2.105,4.189,6.232,2.854,9.953C412.721,420.516,409.551,420.621,409.541,426.553z"/>
</g>
<path id="nevada-state" d="M181.044,393.512c3.712,0.139,8.571,2.676,11.742,3.918c7.757,2.506,15.516,5.015,23.273,7.521
	c-1.164,4.164-2.327,8.33-3.491,12.496c-2.327,8.047-4.654,16.097-6.981,24.146c-0.755,2.441-2.346,10.674-4.02,11.646
	c-0.878,0.445-2.08-0.301-3.068,0.104c-2.469,1.015-2.016,4.912-2.645,7.836c-0.141,0-0.282,0-0.423,0
	c-2.659-3.87-4.352-8.467-6.771-12.604c-3.526-6.601-7.053-13.2-10.579-19.804c-1.255-2.438-5.884-8.503-5.183-11.966
	C174.567,408.566,178.608,401.211,181.044,393.512z"/>
<path id="massachusetts-state" d="M485.705,404.631c0.6,0.034,1.199,0.067,1.799,0.104c0.177,0.146,0.354,0.282,0.529,0.425
	c-0.022,1.384-0.812,2.646-0.424,3.706c0.448,1.129,4.581,4.576,6.026,3.918c0.007-1.563-0.667-1.562-1.058-2.541
	c0.353,0.035,0.705,0.07,1.058,0.104c0.713,0.473,1.406,1.11,1.481,2.225c-0.035,0.035-0.07,0.07-0.106,0.105
	c-0.424,0.956-6.066,4.125-7.401,3.494c-1.061-1.309-2.115-2.612-3.177-3.918c-4.237-0.175-7.802,1.688-11.849,1.903
	c0-0.067,0-0.142,0-0.212c-0.416-0.821-0.717-4.907-0.211-5.295c1.199-0.106,2.396-0.213,3.597-0.317
	c2.188-0.389,4.372-0.774,6.562-1.164C483.59,406.325,484.648,405.479,485.705,404.631z"/>
<path id="rhode-island-state" d="M481.897,413.209c2.743-0.086,4.119,1.531,4.337,3.812c-0.775,0.92-1.621,1.652-2.75,2.224
	c-0.105,0-0.212,0-0.317,0c-0.528-1.871-1.058-3.738-1.587-5.609C481.686,413.491,481.792,413.35,481.897,413.209z"/>
<path id="connecticut-state" d="M480.1,413.633c0.615,0.36,2.355,5.656,1.586,6.248c-0.983,0.602-8.225,2.757-8.674,2.327
	c0.203-1.188-0.648-2.427-0.847-3.602c0.106-1.13,0.212-2.26,0.317-3.39C475.021,414.691,477.561,414.162,480.1,413.633z"/>
<path id="pennsylvania-state" d="M458.73,417.975c0.803,0.099,0.895,0.465,1.375,0.848c0.813,1.724,2.5,2.622,3.598,4.023
	c-0.283,1.554-0.564,3.104-0.847,4.656c-0.196,0.755-0.621,0.927-0.741,1.803c0.627,1.554,1.812,2.686,3.064,3.603
	c-1.129,1.164-2.257,2.329-3.385,3.494c-5.73,2.649-13.921,2.981-20.945,4.446c-2.951,0.613-7.059,1.697-10.575,1.061
	c-1.925-4.087-1.284-8.98-2.116-14.401c-0.07-1.729-0.145-3.461-0.211-5.188c0.951-0.671,1.9-1.343,2.854-2.014
	c0.32,0.135,0.127-0.002,0.318,0.212c0.141,0.562,0.281,1.131,0.423,1.692C440.605,420.799,449.67,419.386,458.73,417.975z"/>
<path id="colorado-state" d="M246.631,422.316c9.026,1.904,18.055,3.812,27.081,5.719c5.147,1.181,10.772,1.437,15.55,2.752
	c0.538,2.017-0.844,7.854-1.269,10.062c-1.093,7.802-2.187,15.604-3.28,23.402c-2.216,0.84-7.933-1.062-10.155-1.591
	c-8.392-1.623-16.785-3.246-25.177-4.871c-2.368-0.521-9.404-1.047-10.579-2.436c1.763-7.941,3.526-15.886,5.29-23.826
	C244.765,428.851,244.819,423.963,246.631,422.316z"/>
<path id="illinois-state" d="M363.947,422.316c5.746,0.069,11.496,0.141,17.242,0.211c0.021,2.399,1,3.729,1.375,6.146
	c0.178,8.786,0.354,17.577,0.525,26.366c-0.916,1.729-1.833,3.459-2.75,5.188c-0.646,2.183-0.182,4.788-1.375,6.354
	c-0.424,0.247-0.847,0.494-1.271,0.741c-0.281,0.354-0.563,0.706-0.849,1.062c-1.196,0.104-2.396,0.213-3.598,0.315
	c-0.562,0.16-0.729,0.577-1.375,0.741c-0.035-0.035-0.07-0.071-0.104-0.106c0.053-7.334-4.148-5.312-6.028-9.104
	c-0.41-1.741,1.104-4.234,0-5.824c-0.988-0.741-1.979-1.48-2.963-2.225c-0.316-0.812-0.636-1.625-0.951-2.438
	c-1.316-1.854-5.881-5.354-4.338-9.104c0.856-0.375,2.515-1.521,2.962-2.33c0.071-1.94,0.142-3.883,0.212-5.823
	c3-0.41,6.502-3.116,4.973-7.309C365.266,424.149,364.073,423.314,363.947,422.316z"/>
<path id="ohio-state" d="M426.36,422.951c0.177,0.035,0.353,0.07,0.524,0.105c0.132,6.683,1.175,15.562-1.057,20.858
	c-0.729,1.727-2.523,1.979-3.598,3.283c-0.717,0.866-0.732,2.389-1.48,3.282c-0.635,0.317-1.27,0.636-1.904,0.952
	c-0.606,0.911-0.736,2.229-1.27,3.071c-0.176,0-0.354,0-0.529,0c-0.493-0.426-0.982-0.85-1.479-1.271
	c-1.89-0.665-4.78,0.363-6.876-0.104c-1.696-0.384-2.519-1.458-3.812-2.016c-0.829-0.354-2.36-0.146-2.854-0.848
	c-0.104-2.117-0.211-4.235-0.315-6.354c-0.142-2.965-0.282-5.931-0.424-8.896c-0.284-1.906-0.729-5.205-0.104-6.987
	c3.14-0.213,6.276-0.425,9.414-0.638c1.595,0.42,3.248,2.325,5.712,1.695C419.115,428.377,424.068,424.67,426.36,422.951z"/>
<path id="indiana-state" d="M389.441,428.035c3.28-0.021,7.467-0.442,10.364,0.211c0.144,2.153,0.28,4.31,0.425,6.46
	c0.178,4.024,0.354,8.052,0.525,12.072c0.003,2.089,0.646,5.488-0.211,7.095c-3.834,0.711-3.662,3.683-6.136,5.511
	c-0.642,0.472-1.704,0.319-2.538,0.635c-1.199,0.601-2.397,1.2-3.599,1.802c-1.341,0.035-2.683,0.069-4.021,0.104
	c-1.021,0.212-2.045,0.424-3.065,0.635c0-0.069,0-0.144,0-0.211c-0.896-2.405,2.187-4.761,2.75-6.354
	c-0.144-8.93-0.28-17.859-0.424-26.792c0.104-0.104,0.213-0.211,0.316-0.315C385.439,428.244,387.625,428.76,389.441,428.035z"/>
<path id="missouri-state" d="M335.914,473.994c-0.035-2.082-0.07-4.166-0.105-6.248c0.513-3.414,1.129-8.163,0.528-12.178
	c-0.07-1.59-0.141-3.179-0.212-4.767c-0.705-0.883-1.41-1.769-2.115-2.646c0.108-1.147,1.119-1.616,0.85-2.856
	c-0.223-1.007-1.271-1.412-1.802-2.118c-0.74-0.993-1.212-2.736-1.479-4.13c0.07-0.07,0.141-0.145,0.212-0.214
	c4.76,0.144,9.521,0.281,14.28,0.426c3.4,0.513,6.931-0.114,9.941,0.526c0.705,1.6,0.183,4.203,0.951,5.824
	c1.199,1.377,2.398,2.754,3.599,4.131c0.46,0.952,0.916,1.905,1.375,2.857c0.78,1.062,2.932,1.715,3.278,3.071
	c-0.212,1.691-0.424,3.39-0.635,5.083c1.903,1.553,3.81,3.104,5.713,4.656c0.938,1.702-0.13,4.354,1.69,5.188
	c0.062,3.188-1.438,3.158-2.224,5.083c-0.444,1.1-0.42,2.373-0.951,3.283c-1.021,0.188-1.59-0.27-2.434-0.529
	c0.07-1.06,0.141-2.118,0.211-3.178c-0.104-0.177-0.211-0.354-0.313-0.528C357.318,473.195,345.676,474.121,335.914,473.994z"/>
<path id="virginia-state" d="M448.469,444.872c0.366,0.073,3.977,1.928,4.232,2.227c-0.212,0.425-0.424,0.849-0.635,1.271
	c-0.91,3.188,5.391,4.615,7.088,5.719c0.14,0.566-0.102,0.968,0,1.482c0.524,0.812,1.057,1.623,1.586,2.438
	c0.104,0.949,0.212,1.903,0.313,2.856c0.788,1.604,3.376,1.836,2.962,4.342c-4.223,1.137-8.514,1.332-13.012,2.226
	c-11.449,2.271-23.533,2.812-36.072,4.021c0.381-1.729,5.066-6.968,6.982-7.095c0.493,0.316,0.986,0.635,1.479,0.952
	c1.882,0.455,7.439-1.602,8.465-2.329c0.916-1.554,1.834-3.105,2.75-4.659c0.585-1.331,1.047-4.127,2.222-4.872
	c1.076-0.521,2.653-0.494,3.597-1.06c0.818-3.446,2.896-4.108,4.231-6.883C446.395,445.692,447.533,446.396,448.469,444.872z"/>
<path id="arizona-state" d="M204.846,448.79c2.539,0.604,5.078,1.2,7.617,1.804c5.465,1.341,10.932,2.684,16.396,4.021
	c1.619,0.449,7.564,1.354,8.251,2.33c0.209,0.607-2.131,10.455-2.539,11.966c-1.974,8.542-3.949,17.085-5.924,25.627
	c-0.861,3.384-0.977,7.788-2.645,10.483c-2.868,0.824-7.042-1.152-9.626-1.801c-0.882-0.069-1.763-0.145-2.645-0.212
	c-2.612-0.575-4.424-3.235-6.347-4.659c-4.64-3.436-9.261-6.814-13.752-10.271c-1.812-1.396-3.783-1.874-4.866-4.021
	c0.07-0.177,0.141-0.354,0.211-0.529c1.048-0.303,3.146-1.064,3.597-2.013c0.36-1.262-0.526-2.24-1.164-2.858
	c0.006-1.184,3.096-5.693,3.808-6.143c1.067-0.668,2.128-0.851,2.75-1.905c-0.458-0.988-0.917-1.978-1.375-2.966
	c-0.704-3.006,0.554-12.375,2.116-13.132c0.742-0.352,3.412,0.387,3.808,0.104C203.295,452.674,204.07,450.731,204.846,448.79z"/>
<g id="maryland-state">
	<path d="M467.404,449.002c-0.07,1.023-0.145,2.05-0.211,3.071c-1.055,0.396-3,0.651-4.231,0.424
		c-0.282-0.424-0.562-0.848-0.847-1.271c-1.271-0.882-1.775,0.144-2.646-1.588c-0.639-1.271-1.398-5.111-0.95-6.988
		c0.118-0.5,0.522-0.74,0.425-1.271c-0.105-0.144-0.211-0.281-0.316-0.426c-3.951,1.31-1.116,8.846-0.317,11.229
		c-2.339-0.739-4.292-0.866-5.184-3.071c0.188-1.688,1.405-2.517,2.222-3.601c-0.525-0.528-1.059-1.062-1.587-1.589
		c-0.067,0-0.142,0-0.212,0c-0.404,0.585-1.535,1.572-2.433,1.271c-1.893-0.386-2.188-2.931-4.126-3.39
		c-4.504-1.064-6.352,2.666-9.312,3.179c-0.148-0.774-0.458-1.651-0.212-2.542c7.439-1.235,14.882-2.473,22.321-3.706
		c0.202,3.697,1.562,7.104,2.433,10.271C463.949,449.002,465.678,449.002,467.404,449.002z"/>
	<path d="M464.972,453.238c0.458,0.035,0.917,0.069,1.376,0.104c0,0.177,0,0.354,0,0.526c-0.806,1.862-1.673,3.481-2.539,5.084
		c0.352,0.288,0.437,0.249,0.528,0.85c-0.353,0.494-0.705,0.985-1.058,1.48c-0.145,0-0.282,0-0.423,0
		c-0.071-0.104-0.146-0.213-0.216-0.315c-0.641-1.291,0.804-5.869,1.062-7.31C464.125,453.521,464.549,453.379,464.972,453.238z"/>
</g>
<path id="new-mexico-state" d="M245.785,503.539c0.004,0.785-0.15,1.232-0.423,1.695c-2.406-0.01-8.892-2.242-10.79-1.483
	c-1.18,0.475-0.925,2.139-1.904,2.757c-1.571,0.692-4.608-0.219-5.29-0.953c0.16-4.629,2.284-11.071,3.385-15.462
	c2.468-11.015,4.937-22.026,7.405-33.039c5.429-0.082,10.525,1.604,15.339,2.646c8.307,1.802,16.957,2.715,24.965,4.872
	c0.544,1.931-1.336,10.025-1.798,12.284c-1.657,10.021-3.315,20.051-4.972,30.073c-0.176,0-0.353,0-0.529,0
	c-2.574-0.458-5.149-0.918-7.723-1.376C257.848,504.332,252.746,503.562,245.785,503.539z"/>
<path id="texas-state" d="M279.002,469.44c6.516-0.064,12.454,1.972,18.725,2.328c0.418,3.029-0.177,6.758-0.636,9.639
	c-0.247,2.438-0.493,4.871-0.739,7.31c0.057,0.089,6.885,4.137,7.192,4.232c1.375,0.213,2.751,0.424,4.126,0.639
	c1.709,0.472,2.187,1.645,3.385,2.438c0.646,0.424,4.123,1.198,4.866,1.376c4.271,1.017,9.444-0.646,13.857,0.212
	c3.142,0.608,4.45,3.051,7.723,3.604c0,4.835,0,9.673,0,14.508c0.646,2.282,3.165,5.065,2.646,8.262
	c-0.426,1.164-0.85,2.329-1.271,3.494c-0.558,2.237-0.94,7.729-2.327,8.789c-1.003,0.477-2.197,0.424-3.065,0.952
	c-2.316,1.408-4.189,3.521-6.664,4.978c-2.327,1.13-4.654,2.26-6.982,3.389c-3.562,2.123-7.818,6.029-9.521,9.955
	c-1.61,3.729,2.216,9.703,0.315,13.237c-2.039-0.146-2.799-1.864-4.44-2.437c-0.951-0.07-1.903-0.145-2.855-0.212
	c-2.256-1.165-4.516-2.33-6.771-3.494c-1.615-1.709-0.894-2.286-1.797-4.447c-0.326-0.778-1.322-1.092-1.587-2.118
	c-0.471-1.828-0.107-3.846-0.74-5.399c-1.516-2.788-3.033-5.576-4.549-8.364c-0.6-1.729-1.199-3.46-1.798-5.188
	c-0.889-2.077-2.389-3.315-3.597-4.979c-0.353-0.639-0.706-1.271-1.058-1.905c-0.585-0.695-1.911-0.604-2.962-0.848
	c-2.174-0.503-5.501-1.184-6.876,0.636c-1.444,1.908-1.503,5.59-5.395,4.66c-2.417-0.578-7.368-6.058-8.251-8.366
	c-0.529-2.506-1.058-5.015-1.587-7.521c-0.995-2.744-4.175-4.383-5.607-6.987c-0.937-1.704-4.403-4.646-4.02-6.987
	c0.141-0.105,0.282-0.212,0.423-0.318c2.022-0.562,4.959,0.064,6.665,0.426c2.786,0.426,5.572,0.85,8.357,1.271
	c2.995,0.655,7.06,2.093,10.473,1.48C274.77,494.928,276.886,482.182,279.002,469.44z"/>
<path id="tennesee-state" d="M424.139,471.877c-0.395,3.384-6.088,4.749-8.354,6.462c-1.695,1.274-3.757,2.354-5.5,3.703
	c-1.785,1.389-3.33,3.826-5.607,4.659c-3.265,1.195-7.681-0.147-11.424,0.424c-8.886,0.145-17.771,0.283-26.657,0.427
	c0-0.316,0-0.638,0-0.953c0.976-3.022,2.702-5.025,3.599-8.048c0.446-1.521,0.146-2.885,1.479-3.495
	c2.854-0.211,5.712-0.424,8.568-0.638c1.118-0.221,1.559-0.938,2.538-1.162C396.562,472.795,410.354,472.336,424.139,471.877z"/>
<path id="georgia-state" d="M405.521,522.812c-0.317-2.048-0.639-4.096-0.953-6.143c0-2.51,0-5.016,0-7.521
	c-0.563-1.271-1.127-2.542-1.691-3.812c-0.854-2.776-0.934-6.275-1.691-8.896c-0.321-1.118-2.28-7.636-1.479-8.261
	c5.041-0.423,10.085-0.851,15.127-1.271c0,0.144,0,0.281,0,0.423c-0.188,0.445-0.449,1.149-0.212,1.694
	c0.575,1.188,4.022,3.209,5.184,4.659c2.243,2.81,5.269,4.812,7.405,7.729c2.011,2.739,4.59,8.323,7.828,9.529
	c-0.74,2.259-1.481,4.521-2.222,6.777c-0.181,1.518-0.354,3.035-0.529,4.554c-0.07,0.034-0.142,0.069-0.212,0.104
	c-1.188-0.457-3.718-0.295-4.654,0.213c0,1.129,0,2.259,0,3.389c-0.07,0.035-0.141,0.07-0.211,0.105
	c-0.438-0.242-0.47-0.735-0.847-0.953c-0.851-0.07-1.692-0.144-2.539-0.212c-5.677-0.07-11.354-0.145-17.031-0.213
	c-0.054-0.801-0.295-1.49-0.74-1.905C405.873,522.812,405.697,522.812,405.521,522.812z"/>
<path id="louisiana-state" d="M338.348,506.505c5.186,0.032,10.367,0.067,15.553,0.104c1.708,0.257,3.536-0.155,4.863,0.316
	c0.043,2.151,1.299,3.806,0.74,5.822c-0.884,3.201-4.856,7.539-4.229,11.118c1.758,2.036,10.252,0.099,13.115,1.377
	c0.36,1.68,0.188,4.396,1.162,5.509c0.909,1.033,2.938,1.054,3.601,2.329c0.592,2.115-0.944,2.651-1.164,4.233
	c0.748,1.308,4.256,2.302,3.386,4.343c-0.812,0.07-1.622,0.145-2.435,0.212c-1.621-0.562-3.244-1.13-4.865-1.691
	c-2.189,0.271-5.013,2.262-7.937,1.06c-2.452-1.009-4.755-5.25-7.3-5.507c-0.613-0.062-1.934,1.812-3.914,1.482
	c-1.885-0.312-3.125-1.203-4.653-1.591c-2.229-0.562-4.879,0.301-6.24,0.426c0.045-2.169,1.032-3.817,1.479-5.721
	c0.212-1.308,0.423-2.609,0.635-3.918c0.354-0.672,0.705-1.342,1.061-2.014c0.572-2.398-1.689-6.023-2.222-7.729
	C338.098,513.832,338.641,509.725,338.348,506.505z"/>
<g id="florida-state">
	<path d="M428.582,523.236c1.621-0.083,2.908-0.16,3.914,0.528c1.64,7.175,4.996,11.496,8.146,16.839
		c1.396,2.36,1.738,5.801,2.856,8.365c1.158,2.659,3.328,5.073,3.914,8.15c0.771,4.076-0.266,8.863-0.847,11.861
		c-0.303,1.539-0.056,3.287-0.741,4.446c-1.275,2.146-4.979,3.812-7.828,4.343c0-0.104,0-0.211,0-0.317
		c2.516-0.919,7.216-2.673,7.828-5.398c-0.035-0.034-0.07-0.069-0.105-0.104c-1.436,0.017-2.938,0.758-4.125,0.316
		c-3.021-1.115-7.761-6.666-9.729-9.213c-0.882-0.812-1.768-1.624-2.646-2.438c-0.525-1.197-1.059-2.397-1.587-3.602
		c-0.741-0.849-1.479-1.693-2.222-2.541c-0.564-2.506-1.129-5.014-1.692-7.521c-0.54-3.096-0.066-5.979-1.587-7.938
		c-0.791-1.022-7.293-7.463-8.251-7.625c-3.071-0.521-7.021,4.557-10.05,3.494c-0.879-0.436-1.154-1.461-1.904-2.015
		c-1.058-0.459-2.113-0.918-3.174-1.377c-0.881-0.562-1.763-1.129-2.646-1.691c-2.6-0.81-5.979,1.275-8.146,0.314
		c-0.304-1.879-1.926-3.821-1.479-5.718c5.877-0.812,12.87-0.726,19.146-0.741c0.141,0.705,0.281,1.412,0.423,2.117
		c6.312,0,12.624,0,18.938,0c1.108,0.266,0.979,1.312,2.327,1.481c0.353-0.178,0.701-0.354,1.058-0.529
		C428.441,525.566,428.512,524.401,428.582,523.236z"/>
</g>
<g id="northwest-territories-state">
	<path d="M307.246,73.701c1.533-0.012,1.951,0.772,2.328,1.906c2.266-0.178,6.545-1.377,8.885-0.318
		c0.05,2.616-0.928,7.865-2.961,8.472c-5.008,1.494-4.857-3.057-6.242-5.295c-0.865-1.399-2.836-1.717-2.326-4.342
		C307.035,73.983,307.141,73.842,307.246,73.701z"/>
	<path d="M300.477,77.832c1.246-0.016,2.358,0.413,2.75,1.27c1.356,2.332-0.938,3.574-1.799,4.66
		c-0.646,0.815-0.228,2.404-0.74,3.389c-0.273,0.529-4.112,3.371-4.972,3.388c-0.176-0.07-0.353-0.141-0.529-0.211
		c-0.769-2.036,0.02-3.101,0.952-4.448c-1.82,1.061-6.997,7.767-9.097,6.989c-1.101-0.461-0.908-1.361-1.375-2.436
		c-1.833-0.184-3.299-0.216-4.443-0.953c-0.392-1.468,0.065-2.815,0.952-3.601c1.826-1.617,5.073-1.67,7.193-2.965
		c2.09-1.276,3.41-3.985,5.924-4.765C297.021,78.043,298.748,77.938,300.477,77.832z"/>
	<path d="M300.688,89.903c2.153-0.016,4.006,0.142,4.443,1.8c0.07,0.6,0.141,1.2,0.211,1.8c0.706,1.153,2.332,1.503,2.963,2.859
		c0.781,1.684,0.484,4.613,1.375,6.142c0.688,0.177,2.052,0.306,2.646,0.635c0.266,1.417-0.312,2.941-0.637,4.13
		c-0.371,1.353-0.416,3.516-1.271,4.448c-0.563,0.248-1.129,0.494-1.691,0.741c-2.538,1.577-3.146,2.095-7.617,2.012
		c-0.963-1.265-2.852-2.333-2.963-4.342c1.199-1.736,4.556-1.859,6.453-2.859c0-0.07,0-0.141,0-0.211
		c-0.035-0.071-0.068-0.141-0.104-0.212c-0.848-0.071-1.691-0.141-2.539-0.211c-0.758-0.258-1.014-1.481-1.691-1.166
		c-0.834,0.4-1.974,1.274-3.598,0.847c-1.3-0.341-4.661-4.323-4.761-5.93c0.708-1.693,1.324-0.976,1.904-1.694
		c0.141-0.565,0.282-1.13,0.423-1.694C295.948,94.014,297.711,91.65,300.688,89.903z"/>
	<path d="M270.433,102.611c2.044,0.125,8.082,1.662,9.309,2.541c0.317,0.601,0.635,1.201,0.952,1.8
		c1.058,1.166,2.116,2.331,3.173,3.495c1.225,0.859,3.544-0.079,4.76,0.742c1.479,0.998,3.72,8.169,3.068,10.801
		c-2.068,1.517-5.168,1.835-7.722,2.965c-3.038,1.343-5.812,3.761-8.357,5.718c-1.779,1.369-3.309,5.775-5.183,6.354
		c-1.743,0.539-7.592,1.42-9.203,0.636c-0.148-2.674-0.603-5.972-1.693-7.837c-0.903-1.545-2.458-3.166-2.75-5.188
		c0.862-1.071,2.04-1.814,2.856-2.859c1.164-1.8,2.327-3.601,3.491-5.401c1.869-2.4,3.738-4.801,5.607-7.201
		C269.933,107.192,268.829,104.381,270.433,102.611z"/>
	<path d="M293.917,123.367c0.73-0.02,0.987,0.074,1.375,0.317c0.909,2.918-0.754,4.689-1.269,7.096c0.035,0,0.07,0,0.105,0
		c1.022-0.742,2.045-1.482,3.067-2.225c1.511,0.718,5.263,2.34,5.713,4.024c-0.389,0.953-0.776,1.906-1.163,2.859
		c0.916-0.282,1.833-0.564,2.75-0.848c-0.101-0.97-0.99-2.591-0.529-3.176c0.464-0.487,1.147-0.876,2.011-0.953
		c-0.812,3.423-1.621,6.848-2.434,10.272c-1.622,6.459-3.244,12.92-4.866,19.38c-1.53,0.402-3.86-0.751-5.184-1.166
		c-3.702-1.094-7.405-2.189-11.107-3.283c-1.345-0.42-4.783-0.661-5.395-1.8c2.611-0.54,7.106-0.489,9.521,0.211
		c2.177,0.632,4.02,2.039,6.77,2.225c-0.141-0.142-0.282-0.283-0.423-0.424c-3.431-6.961-17.253-2.323-17.877-11.649
		c1.254-1.247,5.048-2.084,7.087-2.33c-1.252-0.929-3.431-0.307-4.337-1.589c-0.477-0.675-0.045-1.234-0.317-2.012
		c-0.292-0.836-1.471-1.297-1.692-2.436c-0.38-1.95,1.587-3.045,2.327-4.024c0.633-0.838,0.623-2.289,1.269-3.177
		c1.398-1.918,5.016-3.156,7.511-3.918C289.192,124.286,291.555,123.827,293.917,123.367z"/>
	<path d="M219.339,133.64c0.961-0.037,1.487,0.086,2.01,0.423c0.141,1.023,0.282,2.048,0.423,3.071
		c1.417,0.21,1.688-0.588,2.75-0.847c1.622-0.106,3.244-0.212,4.866-0.318c1.773-0.27,3.741-0.851,5.606-0.529
		c2.476,0.426,5.023,0.794,3.703,3.707c0.07,0.071,0.141,0.141,0.211,0.211c2.665,0.435,5.675-2.458,6.876-0.105
		c1.329,3.271-0.997,7.474,1.481,9.849c0.106-0.036,0.211-0.071,0.317-0.106c0.789-1.068,3.961-4.388,5.395-4.554
		c0.07,0.106,0.141,0.212,0.211,0.318c0.141,1.412,0.282,2.824,0.423,4.235c-0.217,0.822-1.018,1.52-1.587,2.012
		c0.035,0.176,0.071,0.353,0.106,0.53c0.465,0.154,0.956,0.439,1.375,0.317c0.952-0.6,1.904-1.2,2.856-1.801
		c1.737-0.441,3.023,0.578,3.914,1.06c6.2,3.354,2.638,9.948,0.634,15.038c-0.42,1.068-1.52,3.059-1.058,4.342
		c7.157,9.847,14.317,19.698,21.475,29.545c2.503,0.529,5.007,1.059,7.511,1.588c3.129,8.661,13.511,11.333,20.945,15.673
		c1.946,1.136,4.622,1.805,6.136,3.389c-0.848,9.248-1.691,18.498-2.539,27.745c-0.583,3.632-0.138,10.8-1.479,13.555
		c-3.658,0.084-6.629-0.771-9.627-1.483c-4.16-0.812-8.32-1.624-12.48-2.435c-3.738-0.707-7.476-1.413-11.213-2.118
		c-7.757-2.294-15.516-4.589-23.273-6.884c-4.654-1.447-9.31-2.895-13.963-4.342c-4.972-1.8-9.944-3.601-14.916-5.4
		c-2.715-1.095-5.43-2.189-8.145-3.283c0.031-2.789,0.485-6.76-0.317-9.001c-3.079,0.2-6.386-1.893-8.569-3.389
		c0.099-2.158,0.815-4.039,1.798-5.295c-0.749-1.019-1.604-1.89-2.116-3.177c-0.529-1.8-1.058-3.601-1.587-5.4
		c-0.494-0.706-0.987-1.413-1.481-2.118c0.106-0.812,0.212-1.624,0.317-2.437c0.593-3.235,0.498-6.127,1.27-9.001
		c0.353-1.412,0.705-2.824,1.058-4.236c-0.317-0.67-0.635-1.341-0.952-2.012c-0.036-0.917-0.071-1.835-0.106-2.753
		c-0.353-0.812-0.705-1.624-1.058-2.436c-0.176-1.2-0.353-2.401-0.529-3.601c-0.317-0.424-0.635-0.848-0.952-1.271
		c-0.414-1.189,0.478-1.651,0.741-2.117c0.431-0.762,0.042-1.815,0.529-2.436c0.635-0.283,1.27-0.565,1.904-0.848
		c0.734-0.51,1.525-4.165,0.952-5.083c-0.705-0.741-1.411-1.482-2.116-2.224c-0.98-3.189,3.281-6.011,2.539-8.896
		c-0.572-2.226-4.435-3.643-5.924-5.189c-0.005-1.448,0.742-2.049,1.164-3.071c1.463-3.543,2.748-6.597,4.549-9.636
		c0.663-1.119,1.344-3.512,2.75-3.812c0.348,0.524,0.697,1.167,1.375,1.376c0.036-0.035,0.071-0.07,0.106-0.105
		c0.03-0.941-0.182-2.554,0.211-3.389C215.671,134.205,217.505,133.921,219.339,133.64z"/>
</g>
<g id="alaska-state">
	<path d="M109.746,165.09c-3.927-0.099-10.291-0.175-11.531,2.436c-0.035,0.389-0.07,0.776-0.105,1.165
		c0.507,0.093,0.629,0.148,0.846,0.529c0.251,0.923-0.715,2.396-1.164,3.071c-1.853,0.006-2.753-0.578-4.443-0.848
		c-3.967-0.632-8.2-0.321-11.53-1.059c-1.833,0.212-3.667,0.423-5.501,0.635c-4.551,0.039-8.266-0.38-11.848-0.953
		c-2.826-0.452-5.986,0.167-8.357-0.741c-0.431-0.165-2.251-0.973-2.539-1.376c-0.212-0.494-0.423-0.988-0.635-1.482
		c-1.022-0.318-2.045-0.636-3.068-0.953c-1.586-0.953-3.174-1.906-4.76-2.859c-0.833-0.42-2.032-1.141-2.75-1.377
		c-0.388-0.035-0.776-0.07-1.164-0.105c-0.875-0.517-1.73-1.703-2.645-2.33c-0.635-0.142-1.27-0.282-1.904-0.424
		c-1.985-0.508-2.03-1.151-2.75-2.965c-0.35-0.881-0.655-1.243-0.105-2.224c3.792-0.856,8.776-0.042,11.53,1.588
		c0.881,0.671,1.763,1.342,2.645,2.013c2.574,1.059,5.148,2.118,7.723,3.177c1.234,0.706,2.468,1.412,3.702,2.118
		c1.587-0.071,3.174-0.142,4.761-0.212c1.728,0.423,3.456,0.847,5.183,1.271c0.881-0.106,1.763-0.212,2.645-0.317
		c2.643-0.479,4.533-0.595,6.559-1.483c3.101-1.358,5.542-3.886,8.886-4.977c0-0.035,0-0.071,0-0.105
		c-3.629,0.103-4.382-0.505-5.289-3.178c-0.693,0.114-0.892,0.315-1.587,0.212c-0.957-1.742-0.709-3.623-0.423-5.824
		c-1.586-1.447-3.173-2.896-4.76-4.342c-1.115-0.624-2.541-0.627-3.491-1.271c-0.071-0.282-0.141-0.565-0.212-0.848
		c2.25-2.864,6.581-5.036,7.405-9.213c-0.036-0.035-0.071-0.07-0.106-0.105c-2.892,0.064-3.241-0.608-4.443-2.118
		c-0.598-0.752-1.622-1.273-2.01-2.224c-0.962-2.354,0.975-4.409,1.481-6.143c0.105-0.917,0.211-1.835,0.317-2.753
		c1.526-1.804,4.901-1.825,5.078-4.978c-0.825-1.629-1.662-5.606,0.74-6.566c0.881-0.105,1.763-0.211,2.645-0.317
		c0.528-0.459,1.058-0.918,1.586-1.377c1.622,0.035,3.244,0.07,4.866,0.106c1.765-0.428,4.984-1.59,7.722-0.847
		c0.106,2.224,0.212,4.447,0.317,6.672c0.106,0,0.212,0,0.317,0c1.601-0.582,4.021-0.676,6.03-0.742
		c0.214,0.678,0.651,1.401,1.164,1.8c2.166-0.026,5.089-2.423,5.712-4.024c0.299-0.769,0.216-1.636,0.529-2.224
		c1.119-0.224,2.912-0.257,3.809-0.741c0-0.035,0-0.071,0-0.106c-0.035-0.141-0.07-0.282-0.106-0.423
		c-2.574-0.07-5.148-0.141-7.722-0.211c-0.054-1.072,0.205-2.833,0.106-3.389c-0.382-0.787-1.226-2.885-1.904-3.495
		c-1.128-0.67-2.257-1.341-3.385-2.012c-1.696-1.341-1.129-5.614-0.635-7.73c0.767-0.513,1.88-0.848,2.539-1.482
		c-0.258-1.937-2.408-4.351-1.375-6.989c0.263-0.646,0.695-0.852,1.164-1.271c4.979-0.111,8.065,2.095,11.636,3.495
		c2.357,0.924,5.243,1.215,7.193,2.542c-0.068,0.385-0.043,0.321-0.211,0.53c-0.643,1.257-3.422,2.508-2.645,4.341
		c0.52,1.273,2.773,3.222,4.337,3.389c0.65-1.405,2.387-4.233,4.125-4.448c0.523,0.272,0.674,0.406,1.164,0.212
		c0.005-2.518-0.458-5.085-1.481-6.671c-0.423-0.6-0.846-1.2-1.27-1.8c-0.96-3.21,0.49-10.862,1.058-13.661
		c1.365-0.646,2.988-1.463,4.655-1.694c1.829,2.405,3.879,3.626,7.616,4.236c0.881,0.035,1.763,0.07,2.645,0.105
		c0.529-0.529,1.058-1.059,1.587-1.588c2.215-1.41,4.632-1.775,8.357-1.801c1.274,1.68,3.491,4.159,6.876,3.601
		c1.644-0.271,3.353-1.301,5.501-0.847c2.525,0.533,3.93,2.883,5.712,4.235c1.551,0.071,3.103,0.142,4.654,0.212
		c1.887,4.896-0.45,7.181-1.269,10.59c0.775,0.812,1.551,1.624,2.327,2.436c0.811,0.6,1.622,1.2,2.433,1.8
		c-0.317,0.741-0.635,1.483-0.952,2.224c1.022,1.624,2.045,3.248,3.068,4.871c2.066,1.022,2.524,0.715,3.914,2.542
		c0.917,1.623,1.833,3.247,2.75,4.871c3.502,4.596,8.28,7.353,13.857,9.954c0.133,1.729-0.782,4.454-0.634,5.295
		c0.172,0.984,1.272,3.226,0.846,4.447c-3.808,5.542-7.617,11.085-11.425,16.626c-8.321,12.425-16.645,24.853-24.965,37.276
		c-2.715,4.021-5.431,8.049-8.146,12.072c-1.069,1.608-3.044,3.336-3.173,5.718c0.758,1.449,2.699,3.051,4.549,3.389
		c0.987,0.07,1.975,0.141,2.962,0.212c-0.423,0.423-0.847,0.847-1.27,1.271c-0.388,0.564-0.776,1.13-1.164,1.694
		c-0.379,0.917-1.136,5.696-0.846,6.883c0.301,1.236,1.009,2.486,1.269,4.13c0.403,2.544-0.654,4.246-0.74,6.354
		c0.105,0.035,0.211,0.07,0.317,0.106c1.164-0.635,2.327-1.271,3.491-1.906c1.657-0.636,3.315-1.271,4.972-1.906
		c0.589-0.574,0.408-0.973,1.27-1.377c4.172,0.343,4.454,12.817,5.184,17.473c0.336,2.146,1.167,4.896,0.741,6.99
		c-0.44,2.154-1.91,4.875-1.481,7.413c0.458,2.716,1.894,5.462,3.279,7.413c0.529,0.635,1.058,1.271,1.586,1.906
		c1.032,3.006-1.783,4.483-2.539,6.142c-0.506,1.111-0.292,2.604-0.952,3.495c-0.608,0.82-2.292,1.858-3.385,2.118
		c-1.852,0.438-10.292-4.061-10.896-4.978c-0.176-0.848-0.353-1.694-0.529-2.542c-0.445-1.803-0.84-3.747-1.164-5.824
		c-0.035-2.471-0.07-4.941-0.105-7.413c-0.335-1.715-1.237-3.578-0.847-6.142c0.547-3.592,1.28-8.608,0.423-12.602
		c-0.881-2.083-1.763-4.166-2.645-6.248c-0.605-2.407-0.087-5.418-0.846-7.625c-0.723-2.1-2.494-3.653-1.587-6.989
		c0.336-1.236,1.758-1.01,2.116-2.224c-0.853,0.058-1.491,0.491-2.222,0.212c-1.584-0.727-3.667-3.129-4.337-4.766
		c-0.317-1.129-0.635-2.259-0.952-3.389c-1.999-3.418-6.264-4.332-8.357-7.201c-2.256-3.091,1.081-3.42-3.809-5.401
		c0.078-0.975,1.141-5.647,1.058-5.824c-0.494-0.247-0.987-0.494-1.481-0.741c-0.259-1.744,0.031-3.751-1.058-4.66
		c-2.838,0.922-2.676,2.227-4.549,3.601c-0.67,0.388-1.34,0.777-2.01,1.165c-0.958,1.143-1.483,2.769-3.385,2.965
		c-1.194-0.78-2.401-1.918-2.75-3.494c-4.907-0.568-10.709-0.273-13.963-2.542c-0.25-0.797-0.323-1.45-0.106-2.33
		c1.551-0.734,2.196-2.382,3.597-3.177c1.305-0.211,2.61-0.423,3.914-0.635c0.741-0.494,1.481-0.988,2.222-1.482
		c5.239-1.697,7.383,0.515,10.896,2.329c-0.706-1.023-1.411-2.047-2.116-3.07c0.105-0.212,0.211-0.424,0.317-0.636
		c0.6-0.247,1.199-0.494,1.799-0.741c-2.093-0.658-4.568-0.497-7.299-0.848c-0.247-0.388-0.494-0.776-0.741-1.165
		c-1.622,0.6-3.244,1.2-4.866,1.8c-1.35,0.4-3.503,0.203-4.654,0.848C109.887,163.891,109.816,164.491,109.746,165.09z"/>
	<path d="M78.962,78.997c0.212,0.035,0.423,0.07,0.635,0.105c1.409,2.537,4.739,2.223,3.808,6.566
		c-0.427,0.092-1.307,0.053-1.586,0.318c-0.896,2.579,1.763,4.206-0.847,5.507c-0.57,0.284-1.27,0.405-1.904,0.105
		c-0.224-1.897-0.303-5.938-0.952-7.836c-0.272-0.797-1.426-1.163-1.164-2.438C77.183,80.209,78.21,79.618,78.962,78.997z"/>
	<path d="M65.527,111.824c0.775,0.071,1.552,0.142,2.327,0.212c0.353,1.023,0.705,2.047,1.058,3.071
		c0.558,0.709,1.601,0.511,1.904,1.588c0.296,1.05-0.361,1.795-0.635,2.33c-2,3.908-4.543,3.343-6.664,0
		C63.854,116.644,63.961,113.088,65.527,111.824z"/>
	<path d="M13.058,145.605c2.043-0.011,5.185,0.038,6.453,0.953c0.917,0.812,1.834,1.624,2.75,2.436
		c1.562,0.521,3.352,0.44,4.021,1.801c0.274,0.95-0.029,2.717-0.423,3.389c-3.244,0.028-3.42-2.35-5.289-3.601
		c-0.811-0.177-1.623-0.353-2.433-0.53c-0.728-0.403-1.127-1.323-2.01-1.693c-1.397-0.587-2.924-0.763-4.125-1.483
		c0-0.177,0-0.353,0-0.53c0.176-0.176,0.353-0.353,0.529-0.529C12.705,145.748,12.882,145.676,13.058,145.605z"/>
	<path d="M101.494,173.986c0.705,0.035,1.411,0.07,2.116,0.106c0.106,0.07,0.211,0.141,0.317,0.211
		c0.198,3.624-1.191,4.26-3.914,5.188c-0.494,0.176-0.987,0.353-1.481,0.53c-1.873,2.051-2.756,4.97-4.76,6.883
		c-3.488,0.077-7.662-2.915-9.309-4.765c0.031-1.681,0.937-2.465,1.27-3.812c0.239-0.967-0.122-1.964,0.317-2.753
		C89.719,174.152,97.926,175.989,101.494,173.986z"/>
</g>
<g id="nunavut-state">
	<path d="M395.789,128.238c5.554-0.139,7.562,1.052,10.049,3.812c0.79,0.877,2.465,2.417,1.587,3.918
		c-1.141,0.286-2.75,0.045-4.229,0.318c-1.444,0.266-2.772,1.798-4.552,1.377c-1.477-0.351-4.733-6.984-4.862-9.001
		c0.067-0.035,0.142-0.07,0.212-0.106C394.59,128.45,395.189,128.344,395.789,128.238z"/>
	<path d="M339.616,170.598c2.874,0.832,7.929,8.484,6.979,12.39c-4.473,3.464-6.775,0.249-9.941-2.012
		c-1.184-0.844-2.665-0.802-2.855-2.647C335.811,175.7,337.258,172.854,339.616,170.598z"/>
	<path d="M395.895,236.783c1.521-0.041,3.298-0.109,4.23,0.424c1.093,3.198-3.873,8.421-7.51,6.883
		c-0.213-0.141-0.424-0.283-0.635-0.423C391.232,239.74,393.227,238.017,395.895,236.783z"/>
	<path d="M395.895,81.538c0.164,4.864-0.104,5.302-2.325,7.942c0.528,2.041,3.084,2.026,3.599,3.707
		c1.136,3.713-4.817,10.148-7.617,8.26c-0.049-0.559-0.017-1.41-0.211-1.694c-0.418-0.656-1.247-0.964-2.01-1.271
		c-0.559,0.544-1.035,1.029-1.8,1.376c-2.146-0.195-3.075-1.122-4.338-2.117c-0.246,0.141-0.492,0.282-0.739,0.423
		c-0.201,1.037-0.293,2.036-1.163,2.436c-1.062,0.544-3.105-0.048-4.443-0.106c-4.438-0.191-9.285,0.755-8.251-4.871
		c0.371-2.017,1.936-3.945,3.6-4.66c0.768-0.329,1.2-0.088,1.689-0.635c-0.938-2.609-4.37-3.571-1.689-7.413
		c6.646-1.684,4.805,3.386,8.146,5.189c0.282-0.176,0.563-0.353,0.847-0.529c-0.987-1.67-3.112-2.543-3.276-4.978
		c0.492-0.741,0.985-1.482,1.479-2.223c-2.306,0.058-4.323,0.043-5.604-0.848c-1.31-4.368,2.595-8.898,6.238-9.636
		c1.555,0.776,3.104,1.553,4.653,2.33c0.105-0.565,0.213-1.13,0.317-1.694c-0.035-0.036-0.07-0.07-0.105-0.106
		c-4.825-0.036-4.98-4.932-6.979-7.836c-0.493-0.741-0.986-1.483-1.48-2.224c-0.425-0.524-1.174-0.453-1.479-1.165
		c-0.73-1.689-0.241-5.767,0.949-6.354c4.045-2.219,7.342,4.761,9.1,6.142c0-0.142,0-0.282,0-0.424
		c-0.779-1.99-2.729-3.219-2.855-5.506c0.798-1.462,3.405-2.729,4.865-3.495c0.56-0.292,1.236-0.237,1.587-0.741
		c0.805-1.604,1.757-2.311,2.751-3.601c-0.709-0.745-1.104-1.534-1.69-2.436c-0.104,0.07-0.213,0.141-0.315,0.211
		c-0.726,2.301-2.698,5.382-5.078,6.037c-1.164,0.105-2.327,0.211-3.491,0.317c-1.284,0.256-2.758,0.725-4.336,0.424
		c-1.473-1.065-0.671-3.671-0.104-5.083c-1.261,0.771-1.871,2.694-2.964,3.706c-2.322,0.031-3.284-1.196-4.338-2.436
		c-0.021-0.864,0.125-1.119,0.424-1.589c-1.062,0.038-1.558-0.132-2.114-0.529c-0.979-3.068,0.737-3.75,2.114-5.506
		c-0.034-0.106-0.069-0.212-0.104-0.318c-0.303-0.021-4.033-1.555-4.441-1.8c-0.068-0.388-0.143-0.776-0.211-1.165
		c0.881-2.116,2.523-2.256,4.229-3.495c0.705-0.671,1.411-1.342,2.116-2.012c0.881-0.106,1.763-0.212,2.646-0.318
		c0-0.494,0-0.988,0-1.482l2.646-3.494c2.075-0.491,3.067,1.551,4.653,1.271c0.271-2.582,3.023-7.749,4.761-8.79
		c0.704-0.105,1.409-0.211,2.114-0.317c1.041-3.456,3.854-0.994,6.98-2.012c1.354-0.44,2.499-1.208,4.229-1.482
		c1.021,0.142,2.047,0.282,3.065,0.424c1.987-0.248,3.209-0.778,5.29-0.424c1.488,0.254,3.122-0.516,4.337,0.106
		c0.888,0.453,1.095,1.905,2.011,2.436c0.949,0.55,2.521,0.329,3.176,1.165c1.964,2.515,0.707,8.825-0.849,10.801
		c-0.622,0.792-1.543,0.928-2.434,1.483c-1.479,0.921-3.152,3.724-3.599,5.612c0.688-0.446,3.854-3.773,4.127-4.448
		c0.666-0.096,1.184-0.039,1.799,0.106c0.034,0.105,0.067,0.212,0.104,0.317c1.449,3.244-1.315,6.124-2.223,7.943
		c-0.354,1.2-0.705,2.4-1.058,3.6c-1.078,2.633-2.487,5.039-3.278,7.942c-0.607,2.226-0.336,5.496-1.693,6.99
		c-0.773,0.854-2.332,0.566-3.385,1.164c-0.697,4.431-4.12,2.807-6.03,5.295c0,0.071,0,0.141,0,0.212
		c2.031,1.051,0.698,2.475,0.529,3.812c2.507,0.008,5.624,1.993,4.337,5.083c-0.277,0.669-0.937,0.635-1.164,1.482
		c0.544,0.506,1.815,1.343,1.479,2.33c-0.34,0.619-0.979,0.374-1.375,0.847c-0.068,0.53-0.144,1.059-0.211,1.588
		C399.583,80.531,398.109,81.52,395.895,81.538z"/>
	<path d="M358.234,40.025c5.074-0.021,4.715,3.307,6.348,6.672c0.898,1.854,2.557,3.029,3.598,4.659
		c0.281,0.953,0.562,1.907,0.849,2.859c0.812,0.883,1.618,1.766,2.434,2.647c0.58,0.883,0.244,2.701,0.848,3.601
		c0.983,1.473,3.755,2.297,4.229,4.13c1.021,3.938-4.104,6.752-5.396,8.684c-1.071,1.604-0.938,3.574-2.646,4.66
		c-0.638,0.406-1.604,0.111-2.222-0.105c-0.284,0.48-0.309,1.546-0.741,1.906c-0.673,0.375-2.646,0.515-3.386,0.106
		c-1.537-0.851-6.835-7.97-6.137-10.484c0.525-1.884,3.324-2.045,4.551-3.283c0-0.106,0-0.212,0-0.318
		c-0.638-0.353-1.271-0.706-1.903-1.059c-1.809-0.337-4.517,1.452-5.501-0.53c-0.555-0.925,0.214-2,0.212-2.648
		c-2.213-0.67-1.912-3.946-0.847-5.612c0.772-0.07,1.552-0.141,2.324-0.212c-0.271-1.939-2.014-1.815-2.112-3.918
		c0.759-2.241,1.896-1.639,3.808-2.647c0-0.035,0-0.07,0-0.105c-0.409-1.158-1.521-1.849-2.222-2.754
		c0.729-2.35,2.498-2.601,3.174-3.918C357.934,41.5,357.662,40.655,358.234,40.025z"/>
	<path d="M333.058,63.111c1.95-0.024,3.612,0.552,4.126,1.906c0.23,0.608,0.062,1.05,0.529,1.377
		c0.563,0.212,1.128,0.423,1.691,0.635c0.871,0.62,4.461,5.36,4.549,6.46c-0.246,0.918-0.493,1.836-0.74,2.753
		c-0.404,2.371,4.948,4.783-0.313,6.671c-2.001-0.935-2.939-3.392-4.655-4.659c-2.706-2-8.901,0.404-6.562-5.612
		c0.992-0.436,1.555-0.765,2.225-1.482C333.77,67.685,328.312,65.724,333.058,63.111z"/>
	<path d="M347.445,71.794c1.242,0.045,5.446,2.435,5.924,3.177c0.367,0.412,1.287,4.858,0.74,6.036
		c-0.312,0.667-2.826,2.525-3.914,2.33c-2.943-0.528-1.699-1.717-2.437-3.601c-0.562-0.741-1.128-1.482-1.689-2.224
		C344.911,75.356,346.18,72.659,347.445,71.794z"/>
	<path d="M317.189,90.645c4.797-0.061,0.562,7.577,2.011,10.378c1.673,0.143,3.132-0.612,4.549-0.318
		c3.071,4.1,0.534,10.881-3.809,11.754c-2.456,0.494-3.46-1.029-4.975-1.376c-1.397-0.322-1.646,0.721-2.75,0.847
		c-0.069-0.035-0.142-0.071-0.212-0.106c-0.048-3.396,1.304-5.809,2.224-8.048c0.035-0.882,0.068-1.765,0.104-2.647
		C314.891,97.791,315.132,92.607,317.189,90.645z"/>
	<path d="M349.561,92.55c4.524-0.096,6.118,1.103,7.726,3.918c1.532,0.403,4.641-0.239,5.924,0.636
		c0.854,0.582,0.383,1.659,0.951,2.542c0.562,0.868,1.748,0.698,2.01,2.012c0.259,1.293-0.769,2.101-0.422,3.177
		c0.422,0.459,0.847,0.918,1.269,1.377c0.317,0.706,0.639,1.412,0.953,2.118c2.715,0.494,5.433,0.988,8.146,1.482
		c1.587-0.706,3.174-1.412,4.761-2.118c0.775-0.6,1.551-1.2,2.327-1.801c4.854-1.642,10.646,2.19,12.06,4.554
		c0.727,1.208,0.166,1.798,0,2.859c0.145,0.494,0.281,0.988,0.425,1.483c0.022,0.119-1.11,3.791-1.271,4.024
		c-0.985,1.464-5.724,2.683-8.04,1.694c-0.422-0.424-0.846-0.847-1.27-1.271c-0.948,0.697-2.041,1.526-3.279,1.906
		c-1.91,0.586-10.396,0.891-11.848-0.105c-0.281-0.495-0.564-0.989-0.85-1.482c-0.141,0-0.282,0-0.424,0
		c-0.478,0.609-1.959,2.282-2.75,2.118c-0.14-0.027-5.606-2.224-5.606-2.224c-0.547-0.611-1.858-7.646-1.586-9.107
		c0.229-1.2,1.06-2.856,0.638-4.66c-0.705-1.271-1.41-2.541-2.115-3.812c-1.799-0.247-3.598-0.494-5.396-0.741
		c-2.121-1.054-5.089-5.507-3.174-8.26C348.996,92.763,349.278,92.657,349.561,92.55z"/>
	<path d="M338.876,96.045c2.528-0.065,5.757,0.257,6.981,1.588c0.043,5.336-0.017,12.047-0.951,16.202
		c-2.328,1.651-8.34-1.078-7.828-3.494c0.189-0.911,1.463-1.579,2.01-2.224c-2.146,0.139-5.277,0.404-6.664-0.53
		c-0.177-1.094-0.354-2.189-0.529-3.283c-0.699-1.39-2.752-1.78-3.7-2.965c0.248-0.825,0.713-1.403,1.164-2.012
		c1.44,0.003,3.234,0.029,4.02,0.741c1.521,1.384,1.75,4.444,4.866,3.918c1.054-2.734-1.414-3.485-2.75-4.765
		c0-0.141,0-0.283,0-0.424C336.415,97.575,337.662,96.985,338.876,96.045z"/>
	<path d="M352.311,108.542c4.425,0.074,4.4,2.89,4.654,7.201c0.061,0.969,0.269,2.349-0.211,3.071
		c-2.303,3.485-7.875-1.505-9.309-3.071C347.371,111.913,349.541,109.702,352.311,108.542z"/>
	<path d="M355.061,125.062c2.347-0.073,9.549,2.43,10.054,3.812c0.204,0.563-3.063,6.494-3.492,7.201
		c-0.672,1.11-1.113,4.923-2.326,5.401c-1.517,0.212-3.033,0.424-4.549,0.636c-0.521,1.529-0.298,4.188-1.164,5.4
		c-1.66,0.603-4.285,1.202-4.866-1.059c-0.035-0.848-0.068-1.694-0.104-2.542c-0.392-1.917-0.94-4.544-0.528-7.095
		c0.424-2.633,1.512-9.616,3.066-10.696C352.188,125.397,353.767,125.579,355.061,125.062z"/>
	<path d="M274.665,154.606c8.215,2.33,16.433,4.66,24.647,6.989c0-0.07,0-0.141,0-0.212c2.539-9.953,5.078-19.91,7.617-29.863
		c0.034,0,0.069,0,0.104,0c0.068,0.036,0.141,0.071,0.211,0.106c0.678,2.007,2,3.857,2.435,6.142c0.397,2.1-0.688,5.461,0.315,6.99
		c0.209,0.219,0.04,0.109,0.424,0.211c0.035,0,0.07,0,0.104,0c1.888-2.373,0.577-10.25,0.528-14.19
		c0.77-0.593,1.179-1.484,2.114-1.906c1.533-0.426,2.769,0.718,3.599,1.376c-0.601-0.982-1.004-2.089-0.636-3.495
		c2.573-1.997,4.918-1.984,6.875,0.636c0.439,0.587,1.113,1.258,0.847,2.542c-0.518,2.488-3.388,3.886-3.911,5.718
		c0.032,0.812,0.068,1.624,0.104,2.436c-0.001,4.353,0.604,8.158,1.271,11.437c0.506,2.496-1.93,3.507-1.061,6.142
		c1.438,4.349,11.854,9.444,8.886,14.613c-1.895,0.144-3.41-0.64-4.972-0.847c-0.104,0.141-0.211,0.282-0.316,0.423
		c0.604,1.765,1.767,2.963,2.115,4.766c0.629,3.228-3.718,4.613-6.559,3.812c-1.228-0.345-9.104-5.13-9.416-5.718
		c-0.104-0.495-0.211-0.989-0.315-1.483c-0.248-0.035-0.494-0.07-0.74-0.105c-0.732,0.595-1.092,1.5-2.012,1.906
		c-1.219,0.538-2.625,0.389-4.125,0.741c-0.986,0.459-1.976,0.918-2.962,1.377c-3.268,0.783-12.774,0.095-14.916-1.165
		c-0.281-2.275,0.012-6.279-1.164-7.836c-0.788-1.043-3.301-1.232-4.443-1.907C276.142,162.367,274.936,159.234,274.665,154.606z"/>
	<path d="M334.75,126.967c2.021,0.106,2.637,1.511,4.549,1.694c0.861-1.162,4.021-2.092,5.607-1.165
		c0.308,1.637,0.42,3.368-0.635,4.236c1.501,1.783-0.774,3.753-2.116,5.188c0.068,0.106,0.142,0.212,0.212,0.318
		c0.562,0.282,1.128,0.564,1.689,0.847c0.278,1.991,1.102,2.903,1.59,4.448c1.51,4.784-0.447,8.655-4.341,9.425
		c0.139,1.334-2.342,3.754-4.229,2.859c-3.277-1.552-1.978-3.851-3.599-6.671c-1.854-3.225-9.759-6.173-3.913-11.437
		c1.479,0.14,3.071,2.597,4.126,2.013c0.889-0.578,1.045-1.823,1.376-2.965C333.045,132.877,331.444,130.067,334.75,126.967z"/>
	<path d="M470.473,225.876c-3.395-0.124-8.308-2.301-11.002-3.601c-2.306-1.112-3.178-2.511-6.559-2.224c0,0.035,0,0.07,0,0.106
		c3.563,4.846,11.062,5.716,15.229,9.954c-0.066,1.341-0.142,2.683-0.212,4.024c-3.57,0.061-10.32,0.156-13.223-0.741
		c-1.512-0.468-2.148-2.283-3.809-2.647c-0.987,0-1.979,0-2.965,0c-2.949-0.556-7.555-2.068-7.613-5.612
		c0.313-0.282,0.635-0.565,0.949-0.847c0-0.036,0-0.071,0-0.106c-1.387-0.577-2.389-1.426-3.598-2.118
		c-0.74-0.282-1.479-0.564-2.222-0.847c-0.529-0.706-1.06-1.412-1.587-2.118c-0.844-0.67-2.988-1.97-4.866-1.377
		c-0.599,0.424-1.198,0.848-1.798,1.271c-0.812,0.071-1.623,0.141-2.437,0.211c-1.021,0.848-2.046,1.695-3.065,2.542
		c-4.813,0.116-7.717,0.188-8.568-3.812c-0.153-0.731-0.479-1.984-0.211-2.753c0.604-0.741,1.199-1.482,1.799-2.224
		c0.316-0.93,0.139-1.86,0.528-2.541c2.4-0.445,5.798,0.141,8.355-0.529c1.095-0.671,2.188-1.342,3.276-2.012
		c0.812-0.248,1.623-0.494,2.438-0.742c-0.211-0.812-0.425-1.624-0.639-2.436c-0.575-0.934-2.008-1.066-2.537-2.118
		c-0.683-2.564,3.463-9.044,4.551-11.013c-0.392-1.271-0.775-2.542-1.164-3.812c-1.24-2.894-3.544-5.049-5.396-7.413
		c-1.197-0.882-2.396-1.765-3.597-2.647c-0.282-0.67-0.563-1.341-0.847-2.012c-2.673,0.022-3.396,2.371-5.817,2.012
		c-0.104-0.388-0.212-0.776-0.317-1.165c0.527-1.309,1.35-1.77,2.115-2.753c0-0.07,0-0.142,0-0.212
		c-0.312-0.247-0.635-0.494-0.951-0.741c-1.555,0.065-2.51,1.179-3.809,0.423c-0.188-1.484,0.186-1.698,0.951-2.436
		c-1.084-1.859-3.666-4.084-5.605-5.083c-0.402,0.14-0.221-0.001-0.424,0.317c-0.07,0.67-0.141,1.341-0.211,2.012
		c-2.678,0.213-9.368-0.393-11.107,0.423c-0.062,0.425,0.006,0.317-0.211,0.529c-1.856,1.007-8.612-0.119-10.896-0.212
		c-1.459-0.059-3.097,0.729-4.338,0.212c-1.23-0.511-1.103-2.204-2.115-2.859c-1.519,0.035-3.033,0.07-4.549,0.106
		c-1.577-0.351-5.927-4.611-5.078-6.778c0.07-0.071,0.143-0.141,0.212-0.211c1.28-0.719,3.448-0.214,5.077-0.636
		c0-0.035,0-0.07,0-0.105c-0.144-0.142-0.281-0.283-0.424-0.424c-1.16-0.352-4.457-0.765-5.5-1.376
		c-2.033-9.302,0.469-20.354,4.862-26.157c1.493-1.97,10.062-4.604,10.054,0.529c-1.729,3.296-4.736,6.959-3.914,11.86
		c0.309,1.841-0.377,3.848,1.058,4.554c0.749-0.42,1.729-2.275,1.904-3.177c-0.675-1.214-1.896-3.003-1.375-5.295
		c0.286-1.271,1.583-2.01,2.327-2.859c0.543-0.62,0.548-2.085,0.95-2.753c1.188-1.965,4.61-5.605,8.566-4.554
		c1.451,0.386,4.223,6.305,4.866,7.942c0.898,2.289,0.262,3.4,2.01,4.977c1.424,0.041,2.5-0.242,3.386-0.742
		c0.263-4.827,7.478-4.54,10.688-2.329c1.814,1.252,1.049,2.667,3.701,4.023c0.521,2.228,2.88,5.025,4.761,5.719
		c0.271-1.112,0.771-2.171,1.479-2.859c4.226,0.132,4.137,1.96,5.928,4.342c0.801,1.065,2.207,2.217,3.174,3.177
		c1.23-0.096,1.461-0.818,2.433-0.953c1.655-0.229,3.481,1.686,4.126,2.647c-0.177,1.059-0.354,2.118-0.525,3.177
		c1.062-0.331,1.155-1.36,2.111-1.8c2.013-0.457,4.42,2.884,4.867,4.448c0.105,0.812,0.211,1.624,0.316,2.436
		c0.883,1.42,2.715,1.288,3.174,3.389c-0.916,0.494-1.834,0.988-2.75,1.482c-0.994,0.23-1.379-0.495-2.01-0.106
		c0.363,0.746,0.975,1.546,0.736,2.859c-0.107,0.621-0.521,1.26-0.313,1.906c0.563,1.169,1.729,1.278,2.962,1.801
		c3.812,1.618,5.365,2.829,11.002,2.438c2.027,2.726,2.779,3.218,6.875,3.918c0.318,0.812,0.635,1.624,0.953,2.436
		c1.057-0.35,4.226-1.687,4.865-1.271c1.999,0.618,3.517,3.515,2.112,6.249c-0.353,0.423-0.704,0.847-1.058,1.271
		c-0.17,0.722,0.646,0.891,0.74,1.377c-0.145,0.458-0.282,0.917-0.424,1.376c-0.615,2.917,0.364,4.411-2.752,4.766
		c0,0.106,0,0.212,0,0.318c0.597,1.623,1.283,2.811,2.224,4.024c-0.035,0.142-0.07,0.283-0.106,0.424
		c-1.353,2.715-4.864,0.775-7.087,0c-1.911-0.667-2.761-2.693-3.914-4.13c-1.443-1.805-4.382-3.324-6.771-4.129
		c-0.576,0.675-1.021,1.085-2.012,1.376c0.564,0.704,1.98,1.716,1.589,2.965c-0.149,1.046-0.742,1.082-1.271,1.695
		c0.071,0.247,0.146,0.494,0.212,0.741c3.201,0.198,3.854,3.211,5.818,4.659c1.372,1.011,3.73,0.792,5.184,1.8
		c0.316,0.565,0.637,1.13,0.951,1.694c2.238,2.802,5.258,5.185,7.405,8.049C470.684,219.592,470.578,222.734,470.473,225.876z"/>
	<path d="M345.435,265.693c-5.708,0.07-11.201-0.92-16.396-1.8c-5.294-0.897-11.028-0.535-15.975-1.8
		c1.306-13.871,2.607-27.747,3.913-41.618c-1.004-2.009-7.715-4.417-9.941-5.718c-4.231-2.259-8.464-4.519-12.695-6.778
		c-2.153-1.594-3.67-4.98-5.078-7.307c-2.539-0.53-5.078-1.059-7.616-1.588c-6.981-9.706-13.965-19.416-20.946-29.122
		c0.733-2.275,3.51-11.499,4.76-12.602c3.13,1.406,4.178,4.682,6.665,6.672c0.884,0.707,2.276,2.002,3.491,2.224
		c0.635-0.142,1.27-0.282,1.904-0.424c1.973,0.488,5.794,5.684,5.395,8.26c-1.107,1.357-4.417,1.408-5.818,2.436
		c0,0.141,0,0.282,0,0.423c0.423,0.636,0.846,1.271,1.27,1.906c1.481,1.122,8.405,3.333,11.213,2.859
		c1.552-0.353,3.104-0.706,4.655-1.06c1.547,0.785,6.591,8.34,6.347,10.908c0.069-0.036,0.142-0.071,0.211-0.106
		c0.308-2.35-0.078-4.863-0.104-7.202c2.084-0.959,6.058-2.311,7.192-4.235c0-0.035,0-0.071,0-0.106
		c-2.176,0.448-7.202,3.537-8.039-0.211c-0.771-3.454,3.577-3.396,5.925-4.024c0.989-0.265,2.437-1.129,3.81-0.847
		c2.348,0.482,1.693,3.532,2.75,5.294c0.743,1.246,2.329,3.132,3.7,3.707c0.776,0.106,1.554,0.212,2.328,0.318
		c1.13,0.582,2.354,3.095,2.963,4.236c2.68,0.176,5.357,0.353,8.04,0.53c1.654,0.388,3.312,0.776,4.972,1.165
		c-0.035-1.258,0.968-6.079,1.479-6.46c2.286-0.813,7.757,2.27,9.312,3.071c-0.603,2.33-1.199,4.66-1.798,6.989
		c1.065,0.686,1.749,1.234,2.112,2.647c0.035,0,0.071,0,0.106,0c0-0.071,0-0.141,0-0.212c0.932-2.064-1.717-5.554-0.106-8.366
		c3.354-0.276,7.555-1.585,6.562-6.565c-0.175-0.88-0.751-1.178-1.06-1.8c-0.665-1.352,0.019-2.659,0.212-3.812
		c-1.543-1.699-4.403-2.376-5.714-4.236c-0.908-1.296-1.84-3.228-1.375-5.824c0.145-0.706,0.282-1.412,0.426-2.118
		c-0.529-1.2-1.061-2.4-1.587-3.601c-0.301-2.607,2.677-4.346,3.912-5.506c-0.528-2.347,1.534-4.587,3.176-5.719
		c2.115,0.053,6.188,4.731,6.665,6.459c0.562,2.055,0.021,4.688,0.846,6.354c0.635,1.287,3.449,4.728,2.75,6.566
		c-0.07,0.106-0.143,0.212-0.211,0.317c-0.494-0.07-0.987-0.141-1.48-0.211c0.238,2.124-0.77,3.746,0.211,5.083
		c1.152,0.283,2.035-0.296,3.279-0.106c1.668,0.255,3.135,0.938,4.443,1.588c-0.08,0.472-0.136,0.445-0.318,0.742
		c-1.141,0.297-3.147,0.528-3.809,1.376c0.189,1.474,1.207,2.213,1.799,3.283c0.647,1.174,0.793,2.938,0.847,4.659
		c0.071-0.035,0.145-0.07,0.212-0.105c0.81-3.949,0.202-6.648,3.812-8.048c1.771,1.365,5.979,5.623,5.184,9.319
		c-0.295,1.365-1.646,1.781-1.163,3.812c0.577,2.42,2.191,3.984,3.387,5.824c0.034,0,0.068,0,0.104,0
		c0.672-0.491,1.528-0.928,1.903-1.694c0.213-1.412,0.425-2.824,0.636-4.236c0.771-2.294,1.552-4.589,2.328-6.883
		c0.62-1.444,1.818-2.284,1.9-4.236c-0.827-1.547-3.902-7.04-0.848-8.472c3.592-2.11,9.812,3.189,11.637,4.342
		c1.248,0.787,3.104,1.24,3.279,3.071c-0.281,0.282-0.562,0.564-0.846,0.847c0.479,1.388,1.69,2.416,1.375,4.342
		c-0.939,0.426-3.152,1.771-3.812,2.436c0.563,0.917,1.129,1.835,1.692,2.753c0.176,0.564,0.353,1.13,0.528,1.694
		c0.884,1.293,2.263,1.528,2.645,3.495c0.587,3.015-3.646,10.647-5.184,11.119c-1.568,0.482-3.146-0.667-3.914-1.164
		c0.371,0.729,1.075,1.979,0.423,2.753c-0.899,0.15-1.502-0.414-2.436-0.317c-0.354,0.211-0.702,0.423-1.059,0.636
		c-1.588,0.463-2.961-1.341-3.597-2.013c-1.374-0.017-2.248,0.34-3.279,0.636c-0.035,0.07-0.071,0.141-0.104,0.211
		c0,0.071,0,0.141,0,0.212c3.972,2.854,0.837,5.471-1.06,8.048c-0.562,0.917-1.128,1.836-1.69,2.753
		c0.447,0.552,1.285,0.917,1.479,1.694c0.593,2.376-5.213,11.012-6.56,11.543c-1.735,0.686-4.211,0.155-5.604,0.953
		c-0.282,0.918-0.562,1.836-0.848,2.754c-1.553-0.071-3.104-0.142-4.654-0.212c0,0.035,0,0.07,0,0.106
		c0.07,0.07,0.144,0.141,0.212,0.211c0.442,0.774,1.646,0.944,2.01,1.694c0.037,0.776,0.071,1.553,0.106,2.33
		c-0.052,3.714-2.985,3.347-6.348,3.707c0.188,0.595,0.662,0.909,0.424,1.589c-1.199,1.376-2.398,2.753-3.601,4.13
		C350.559,250.576,345.42,258.628,345.435,265.693z"/>
	<path d="M416.1,180.976c6.744-0.191,5.949,12.745-0.212,12.284c-4.015-0.3-3.485-8.103-1.798-10.695
		C414.586,181.802,415.293,181.446,416.1,180.976z"/>
	<path d="M383.412,209.461c0.387,0.036,0.772,0.07,1.163,0.106c1.661,0.808,1.517,3.534,2.962,4.341
		c0.562,0.106,1.129,0.212,1.693,0.318c1.738,0.792,8.896,5.444,9.729,6.777c0.635,1.482,1.271,2.965,1.904,4.447
		c2.433-0.077,4.384-0.179,5.396,1.377c1.423,2.191-1.096,4.521-2.434,4.871c0,0-6.117-1.188-6.241-1.271c-0.036,0-0.07,0-0.104,0
		c-1.291-0.975-1.437-4.684-4.442-3.283c-1.161,4.341-3.327,6.618-6.136,9.213c-1.146,0.057-1.994,0.15-2.75-0.317
		c-0.041-1.27-0.129-2.709-0.638-3.494c-1.892-0.24-4.748-0.138-5.714-1.377c0.346-2.058,2.229-2.526,2.646-4.447
		c0-1.801,0-3.601,0-5.401c0-4.23,0.361-8.774,2.01-11.542C382.777,209.673,383.094,209.567,383.412,209.461z"/>
</g>
<g id="quebec-state">
	<path d="M511.623,333.045c4.699-0.105,10.047,0.278,12.377,2.646c0.039,0.967-0.082,1.396-0.423,1.906
		c-2.485,0.43-6.839,1.447-9.627,0.635c-0.917-0.459-1.833-0.918-2.75-1.377c-1.443-0.469-2.819-0.354-3.491-1.588
		C508.163,333.211,509.74,333.719,511.623,333.045z"/>
	<path d="M485.494,258.28c0.002,2.513-0.854,5.014-0.529,6.989c1.082,1.415,2.794,1.684,4.338,2.648
		c0.947,4.008,0.464,8.763,1.904,12.284c0.412,1.008,1.521,1.485,2.115,2.33c0.855,1.222,1.021,2.297,1.587,3.918
		c0.388,0.459,0.772,0.918,1.163,1.377c1.439,2.07,0.771,3.763-0.211,5.824c-1.803-0.212-3.602-0.424-5.396-0.635
		c-0.894,0.725-1.062,1.964-2.538,2.118c-1.371-0.728-3.248-1.884-5.289-1.588c-0.642,0.538-0.479,1.278-0.953,2.011
		c-0.458,0.318-0.916,0.635-1.375,0.953c-0.141,0.742-0.277,1.481-0.423,2.226c-0.524,0.636-1.058,1.271-1.587,1.906
		c-0.798,1.383,0.452,3.93,1.062,4.766c0.887,1.223,4.562,3.344,4.861,4.342c-0.141,1.094-0.277,2.188-0.423,3.282
		c1.017,2.233,3.384,0.913,5.289,1.06c0.497,1.467,0.412,3.358,1.481,4.235c1.229,1.009,2.591-0.134,4.337,0.317
		c0.493,0.354,0.983,0.705,1.479,1.061c1.273,0.536,4.182,0.508,5.712,0.211c0.674-1.555,0.692-3.996,0.952-5.932
		c0.035,0,0.07,0,0.105,0c1.117,0.483,2.394,1.565,4.229,1.166c8.169-1.784,15.519-5.705,23.062-8.474
		c2.68-0.848,5.355-1.692,8.039-2.541c0.686,0.312,2.185,2.642,2.328,3.494c-2.226,1.646-5.104,3.646-6.562,6.037
		c-2.273,3.731-2.258,8.719-5.925,11.015c-7.118,4.452-17.7,5.825-25.917,9c-2.537,0.979-5.359,1.586-7.299,3.178
		c-1.578,1.295-1.961,6.889-3.174,8.896c-3.969,0.332-5.624,5.067-6.982,8.151c-0.67,1.164-1.34,2.33-2.01,3.494
		c-0.316,1.129-0.637,2.262-0.951,3.391c-1.674,3.906-4.464,8.701-7.617,11.227c-2.139,1.713-7.384,5.799-8.146,8.473
		c2.01-2.082,4.021-4.166,6.026-6.248c2.886-2.319,5.812-4.658,7.828-7.836c1.093-2.117,2.188-4.235,3.279-6.354
		c0.246-0.883,0.493-1.769,0.74-2.647c2.646-4.379,7.195-8.51,11.526-11.226c3.275-2.056,14.45-10.095,16.291-1.062
		c0.628,3.08-2.442,6.306-4.229,7.097c-2.469,0.459-4.938,0.918-7.404,1.377c-1.896,0.597-2.854,2.088-4.655,2.646
		c-1.556,0.484-4.742-0.142-5.604,1.062c-0.786,1.123-0.215,4.198,0,5.609c-1.271,0.175-3.085,0.123-4.338,0.316
		c-3.28,2.663-2.77,11.832-4.021,16.838c-0.561,2.242-3.617,6.104-5.289,7.097c-1.688,1-13.032,3.049-15.551,2.438
		c-0.705-1.066-0.838-2.525-1.479-3.812c-4.611-0.998-5.915,3.301-11.953,2.226c-0.604-0.672-1.199-1.343-1.8-2.013
		c-0.87-0.539-3.259-1.553-4.126-1.905c-1.307-0.214-2.608-0.425-3.912-0.638c-2.709-0.582-5.243-1.59-7.092-3.069
		c-2.484-1.995-2.504-5.838-3.174-9.741c-0.917-7.52-1.834-15.037-2.75-22.559c-0.336-1.938-1.418-8.325-0.847-9.637
		c0.528-0.178,1.058-0.354,1.587-0.529c-0.156-2.812,1.83-4.222,1.479-5.822c-0.724-3.309-2.974-6.787-4.229-9.852
		c-0.143-1.342-0.283-2.682-0.424-4.021c-0.419-1.201-1.255-1.521-2.011-2.328c-0.152-0.164-1.587-4.235-1.587-4.235
		c0.831-1.935,3.609-2.979,5.185-4.234c3.39-2.711,6.459-7.301,7.299-12.498c0.999-6.177-3.133-13.453-6.241-15.778
		c-1.924-1.439-5.277-2.459-5.924-5.083c-0.627-2.56,1.58-4.594,2.327-5.93c0.105-0.988,0.212-1.977,0.316-2.965
		c0.354-0.564,0.705-1.13,1.06-1.694c-0.21-2.095-1.162-4.785-2.116-6.354c-0.493-0.742-0.984-1.483-1.479-2.225
		c-0.07-2.294-0.145-4.589-0.212-6.883c-0.916-2.083-1.834-4.166-2.751-6.248c0.46-0.963,1.1-2.988,2.012-3.494
		c4.14-2.303,8.686,1.774,12.689,0.635c1.392-0.395,2.996-2.086,3.914-3.071c2.154,0.263,10.177,4.689,11.107,6.142
		c0.666,1.036,0.149,2.404,1.164,3.071c0.926,0.61,2.419,0.399,3.702,0.635c2.193,0.405,4.479,0.748,6.347,1.482
		c-0.219,4.596,0.449,5.606,1.48,9.213c0.104,0.848,0.212,1.695,0.314,2.542c0.644,1.621,2.131,2.712,2.75,4.659
		c1.062-0.07,2.116-0.141,3.174-0.211c0.525,0.136,5.263,3.448,5.607,3.918c1.292-0.669,2.838-2.002,3.385-3.389
		c0.144-0.635,0.281-1.271,0.423-1.906c0.945-1.607,1.757-1.083,2.225-3.918c0.351-2.123-0.497-3.762-0.739-5.083
		c-0.298-1.621,0.883-4.017,1.479-4.977c0.246-0.035,0.493-0.071,0.739-0.106c0.035,0.106,0.07,0.212,0.106,0.318
		c0.388,1.165,0.771,2.33,1.162,3.495c1.541,2.669,2.425,2.356,2.646,6.566C482.79,258.529,484.119,258.312,485.494,258.28z"/>
</g>
<g id="british-columbia-state">
	<path d="M231.716,345.328c-3.244-0.987-6.488-1.977-9.732-2.965c-8.967-2.854-17.358-6.051-25.812-9.426
		c-2.026-0.81-10.503-3.256-11.213-4.658c-0.176-0.953-0.353-1.906-0.529-2.858c-0.881-0.812-1.763-1.623-2.645-2.437
		c-0.141-0.494-0.282-0.988-0.423-1.482c-0.306-0.521-1.323-0.781-1.692-1.377c-1.068-1.721-0.992-4.457-2.01-6.143
		c-1.234-1.482-2.469-2.965-3.703-4.447c0-1.023,0-2.049,0-3.07c-1.002-0.137-3.722-1.844-4.125-2.646
		c-0.505-1.004-0.655-7.735-0.211-9.106c0.303-0.937,1.342-1.327,1.798-2.223c-0.433-1.244-0.302-3.225-0.846-4.554
		c-1.487-3.634-3.519-2.684-0.846-7.201c-0.175-1.477-1.01-2.261-1.375-3.495c-0.413-1.392-0.608-7.509-0.106-9.001
		c0.687-2.044,3.976-2.441,5.606-3.6c2.173-1.546,1.445-3.338,2.75-5.507c0.593-0.985,1.824-1.739,2.116-2.965
		c0.846-3.556-1.39-4.652-2.433-6.354c-0.89-1.453-1.783-3.303-2.221-5.083c-0.713-2.893,0.848-5.799,1.269-8.26
		c0.301-1.753-0.288-3.427-0.529-4.871c-0.105-1.765-0.211-3.53-0.317-5.295c-0.445-2.701-0.972-5.393-1.586-7.836
		c-0.458-2.012-0.917-4.025-1.375-6.037c-0.567-0.873-2.406-1.467-3.808-1.482c-1.493,2.084-5.194,3.889-8.04,4.448
		c0-0.036,0-0.071,0-0.106c1.431-4.537-1.35-7.611-0.423-11.543c0.176-0.035,0.353-0.07,0.529-0.106
		c5.712,3.636,11.425,7.272,17.137,10.908c11.49,7.198,23.66,14.662,36.496,20.332c5.112,2.118,10.226,4.236,15.339,6.354
		c1.293,0.528,4.641,1.029,4.866,2.541c-4.513,12.495-9.028,24.993-13.541,37.488c-1.904,4.938-3.442,9.211-4.549,15.144
		c-0.282,0.849-0.564,1.693-0.846,2.541c0.176,1.764,2.65,3.025,3.491,4.447c1.153,1.951,1.154,4.438,2.116,6.774
		c0.85,2.067,2.574,3.804,3.385,5.824c1.42,3.547,2.883,6.83,4.443,10.379c1.027,2.337,2.712,4.69,3.385,7.31
		c0.497,1.932-0.543,4.729-0.847,6.563C230.249,342.721,231.508,343.689,231.716,345.328z"/>
	<path d="M155.339,263.682c2.903,0.067,4.607,2.59,6.03,4.236c-0.808,3.212-5.123,4.326-5.924,7.625
		c-0.781,3.214,2.263,5.9,1.481,9.001c-0.176,0-0.353,0-0.529,0c-3.443-5.046-2.989-14.017-1.481-20.65
		C155.057,263.822,155.198,263.752,155.339,263.682z"/>
	<path d="M165.494,302.016c2.16,0.24,4.142,3.324,5.29,4.767c1.974,2.295,3.949,4.59,5.924,6.885c1.205,1.81,0.89,4.403,1.586,6.776
		c0.503,1.713,1.987,2.859,2.856,4.234c0.516,0.813,2.431,8.291,1.798,8.789c-3.81,1.553-7.894-4.121-8.992-6.035
		c-0.282-0.883-0.564-1.767-0.846-2.646c-2.291-0.759-2.074-2.597-2.962-4.767c-1.681-4.108-4.522-7.414-5.712-12.071
		c-0.291-1.138-1.43-3.246-1.058-4.343C163.798,302.758,164.714,302.506,165.494,302.016z"/>
</g>
<g id="newfoundland-and-labrador-state">
	<path d="M478.406,245.466c3.395,0.799,4.609,4.896,7.088,6.672c1.472,1.056,3.326,2.113,4.443,3.495
		c0.454,0.882,0.912,1.765,1.375,2.647l2.75,2.647c0.922,0.701,2.479,0.448,3.174,1.377c0.846,1.13,0.805,3.702,1.587,4.66
		c0.456,0.559,2.937,1.108,3.914,2.118c-0.104,2.462-1.021,4.038,0.313,6.142c1.006,1.586,5.938,2.178,8.039,2.965
		c1.266,0.473,1.951,1.979,2.963,2.753c2.014,0.142,4.021,0.283,6.029,0.424c0.705,0.212,1.41,0.424,2.115,0.635
		c1.072-0.023,1.354-0.895,2.01-1.165c1.205-0.495,4.784,1.03,5.502,1.376c0.066,0.644,0.12,1.197-0.212,1.694
		c-0.776,0.565-1.552,1.13-2.327,1.695c-1.975,2.188-3.949,4.377-5.924,6.565c-0.742,0.921-2.887,2.398-2.328,4.13
		c0.106,0.104,0.212,0.211,0.318,0.315c3.38-1.795,4.917-6.404,7.615-9.106c0.812-0.813,1.854-2.683,4.021-2.013
		c0.67,0.671,1.34,1.342,2.01,2.013c1.021-0.11,2.188-0.598,3.491-0.318c2.01,1.165,4.021,2.33,6.029,3.495
		c-0.111,0.87-0.666,1.488-0.423,2.647c0.583,2.784,3.459,3.89,4.126,6.565c0.383,1.537-3.455,6.1-4.338,6.774
		c-0.07,0-0.145,0-0.215,0c-0.983-1.198-1.975-2.397-2.962-3.603c-1.918,0.078-6.842,2.134-8.675,2.859
		c-6.271,2.363-12.554,4.73-18.83,7.096c-1.265,0.443-3.17,1.414-4.861,1.06c-1.314-0.271-2.863-1.737-4.127-1.271
		c-0.246,2.047-0.492,4.095-0.74,6.142c-2.564,0.884-4.438-0.888-6.137-1.271c-1.487-0.336-3.154,0.438-4.34-0.213
		c-0.378-1.703-0.599-3.699-1.479-4.871c-1.375,0.193-1.729,1.004-3.385,1.06c-0.428-0.313-0.851-0.636-1.271-0.953
		c0.173-1.229,0.53-2.576,0.211-4.021c-1.123-1.394-3.219-1.834-4.337-3.283c-0.595-0.771-2.264-3.188-1.269-4.656
		c0.329-0.488,0.995-0.553,1.269-1.166c0.177-0.705,0.354-1.41,0.529-2.117c0.466-0.93,1.507-1.854,2.113-2.858
		c4.571,0.16,3.8,3.289,7.513-0.424c1.443,0.142,2.892,0.283,4.338,0.424c-0.07,0.776-0.144,1.553-0.212,2.33
		c-1.759,0.979-3.683,2.987-4.866,4.553c0.082,0.688,0.322,0.937,0.846,1.166c2.082,1.199,3.33-1.312,4.553-1.801
		c1.153-0.465,2.221,0.242,3.275,0.104c1.668-0.219,4.037-3.658,2.227-5.294c-0.806,0.486-3.635,2.257-4.655,0.529
		c-0.862-2.402,2.453-3.816,1.688-6.459c-0.425-1.477-1.362-2.376-2.01-3.494c-0.896-1.565-1.031-3.107-2.01-4.448
		c-0.606-0.831-1.625-1.386-2.01-2.436c-1.021-2.782-0.437-9.587-1.693-11.755c-0.896-1.542-3.516-1.148-4.229-2.965
		c-0.416-1.147,0.438-1.611,0.635-2.33c0.08-0.295-0.212-4.766-0.212-4.766c-0.976-0.481-2.666-0.019-3.812-0.212
		c-0.021-1.525-0.353-4.007-1.164-4.871c-0.49-0.282-0.983-0.564-1.479-0.848C479.062,250.257,478.487,247.406,478.406,245.466z"/>
	<path d="M553.091,319.277c4.772,0.018,9.636-4.48,13.329-2.012c0.414,1.364-0.004,2.381,0,3.493
		c1.709,1.771,3.135,0.032,5.078,0.953c0.035,0.067,0.07,0.142,0.104,0.211c0.031,2.405-1.228,2.854-2.112,4.234
		c0.96,0.729-0.011,2.805,1.27,3.282c0.271-1.254,1.22-2.68,2.436-2.965c0.527,0.799,0.848,2.143,1.69,2.646
		c0.949-0.416,1.4-1.063,2.646-1.166c0.613,3.771,1.352,9.854-2.962,9.853c-0.634-0.328-0.911-0.795-1.163-1.481
		c-0.146,0-0.283,0-0.428,0c-0.353,0.493-0.702,0.987-1.058,1.481c-0.142,0-0.282,0-0.423,0c-1.004-1.606-0.643-6.152-2.223-7.201
		c-0.416,0.562-0.166,1.771-0.528,2.438c-0.609,1.112-1.979,1.648-2.433,2.966c-1.299,3.728-0.121,7.082-5.928,5.823
		c-0.031-0.213-0.067-0.424-0.104-0.639c0.929-1.707,2.493-1.997,2.222-4.764c-0.104,0-0.212,0-0.314,0
		c-0.771,0.359-1.635,0.851-2.646,0.952c-0.726,0.069-0.89-0.452-1.587-0.216c-1.657,0.953-3.314,1.906-4.973,2.859
		c-1.978,0.494-3.949,0.988-5.928,1.481c-1.438,0.521-4.264,2.405-5.712,2.116c-3.366-1.229-0.132-4.936,0-7.198
		c-0.423-0.459-0.847-0.918-1.27-1.377c0.312-1.899,1.673-2.748,1.27-5.509c-0.782-5.375-0.407-12.188,0.423-17.264
		c0.276-1.682,0.079-3.295,0.639-4.656c0.664-1.627,2.719-3.834,4.65-4.131c3.137,2.951,1.098,10.154,0.741,14.613
		c0.636-0.74,1.271-1.48,1.903-2.226c1.15-0.562,2.667,0.194,3.386,0.739C553.091,317.514,553.091,318.396,553.091,319.277z"/>
</g>
<path id="new-brunswick-state" d="M490.889,362.377c-0.035-1.52-0.066-3.034-0.104-4.554c1.764-0.212,3.522-0.425,5.289-0.636
	c2.516-0.938,3.755-2.729,7.3-3.39c1.455-0.271,2.031,0.56,3.279,0.636c0.968-1.312,3.405-2.776,5.712-2.33c0,0.248,0,0.496,0,0.742
	c-1.985,3.918,0.521,10.213,3.914,11.543c1.375,0.104,2.751,0.211,4.126,0.314c0,0.145,0,0.281,0,0.425
	c-2.98,3.213-4.907,7.866-8.356,10.59c-0.92,0.728-2.172,0.739-3.064,1.378c-0.18,0.354-0.354,0.706-0.529,1.059
	c-0.913,1.299-4.156,1.943-5.712,0.742c-0.774-0.599-0.91-1.613-1.481-2.438c-0.562-0.391-1.128-0.775-1.688-1.165
	c-0.95-1.11-1.646-3.044-2.116-4.556C495.98,366.047,497.312,362.352,490.889,362.377z"/>
<path id="maine-state" d="M490.995,363.438c4.653-0.014,4.121,1.672,4.972,5.4c0.48,2.104,1.207,4.355,2.226,6.034
	c0.573,0.952,1.794,1.379,2.323,2.226c0.68,1.069,0.951,2.096,2.014,2.754c1.145,0.711,2.769,0.856,3.809,1.588
	c-0.104,3.824-3.968,4.224-6.241,5.933c-1.411,1.34-2.817,2.683-4.229,4.022c-3.521,2.84-6.696,6.005-9.415,9.638
	c-0.247-0.213-0.493-0.424-0.741-0.638c-1.623-3.577-2.937-7.287-4.125-11.647c-0.244-0.894-1.285-3.209-0.846-4.343
	c0.408-1.057,1.296-2.305,1.688-3.6c0.459-3.213,0.918-6.426,1.376-9.638c0.637-2.263,1.271-4.521,1.903-6.776
	C487.408,364.359,489.898,364.199,490.995,363.438z"/>
<g id="nova-scotia-state">
	<path d="M537.541,351.364c0.211,0,0.423,0,0.635,0c0.969,1.45,0.648,3.796,1.375,4.872c0.705,0.354,1.41,0.705,2.115,1.06
		c0.494,0.563,0.987,1.129,1.48,1.693c-0.027,1.608-1.152,3.649-2.225,4.235c-0.494,0.142-0.986,0.282-1.479,0.424
		c-0.459,0.528-0.918,1.059-1.376,1.588c-1.794-0.193-3.751-2.94-4.442-4.342C534.376,357.77,536.059,354.004,537.541,351.364z"/>
	<path d="M531.088,364.072c2.881-0.026,6.596,0.408,6.664,3.283c-3.102,4.795-8.675,7.194-12.06,11.754
		c-0.778-0.027-1.642-0.021-2.115,0.211c-1.613,4.729-3.379,8.449-6.981,11.121c-10.355-2.176-3.77-12.254,0.422-15.887
		c1.521-1.316,3.63-1.47,4.867-3.07c-1.973,0.26-3.062,2.094-5.078,1.801c-0.031-0.104-0.066-0.213-0.104-0.315
		c-0.498-1.394,1.01-2.918,1.586-3.704c0.832-1.143,1.865-3.009,3.386-3.393c1.163,0,2.327,0,3.491,0
		C527.471,365.51,529.592,365.213,531.088,364.072z"/>
</g>
<g id="delaware-state">
	<path d="M463.818,448.393c-0.553,0.016-1.112-0.407-1.25-0.94l-1.983-7.627c-0.138-0.531,0.077-1.062,0.478-1.176
		c0.401-0.115,0.938,0.19,1.188,0.682l0.796,1.557c0.251,0.486,0.778,1.203,1.173,1.587l1.754,1.704
		c0.396,0.385,0.812,1.139,0.928,1.677l0.311,1.466c0.113,0.538-0.242,0.989-0.793,1.006L463.818,448.393z"/>
</g>
<path id="prince-edward-island-state" d="M529.078,359.201c-0.01,0.713-1.09,5.054-1.481,5.295
	c-1.038,0.285-11.432-1.438-12.165-1.905c-1.255-0.8,0.938-3.7,1.48-4.022c1.164,0.883,2.328,1.769,3.491,2.646
	c1.058-0.673,2.483-0.343,4.021-0.738C525.908,360.086,527.094,359.262,529.078,359.201z"/>

<g id="vermont-state">
	<path d="M467.588,391.578c-0.097-0.541,0.256-1.107,0.785-1.264l7.375-2.14c0.528-0.151,1.113,0.146,1.3,0.662
		c0,0,0.743,2.062,0.577,2.146c-0.166,0.082-1.935,2.153-1.935,2.153c-0.356,0.421-0.618,1.212-0.581,1.761l0.361,5.421
		c0.037,0.549,0.074,1.445,0.083,1.997l0.056,3.125c0.008,0.551-0.428,1.098-0.961,1.217l-2.01,0.442
		c-0.533,0.117-1.127-0.209-1.312-0.728c0,0-2.664-7.478-2.58-7.644C468.834,398.564,467.588,391.578,467.588,391.578z"/>
</g>

<g id="hawaii-state">
		<path d="M74.421,504.711c0,0,0.424-0.89-0.275-0.984s-2.321-0.315-2.321-0.315l1.097-1.661l2.998-0.975l2.122,0.67l0.669,1.3
		l-1.652,1.651L74.421,504.711z"/>
	<polygon points="89.492,509 89.807,507.309 93.112,507.309 94.412,509 93.112,510.299 92.67,509.75 	"/>
	<polygon points="106.806,513.564 107.791,516.476 111.054,520.765 113.376,519.467 113.651,517.499 113.022,516.83 
		113.376,516.201 	"/>
	<polygon points="116.918,524.029 115.306,525.367 114.006,528.634 114.99,530.246 115.306,534.811 116.918,537.447 
		118.885,537.134 119.909,535.167 122.15,535.48 124.12,533.867 127.383,532.216 127.738,529.933 125.086,529.084 123.489,526.981 
		122.177,525.301 	"/>

</g>

	<g id="js-info" style="display:none;">
		<text id="js-state-name" x="605" y="521" text-anchor="middle" fill="#2386ae" style="font-size: 24px;letter-spacing: 1px; ">Florida</text>
		<text x="605" y="548" text-anchor="middle" fill="#2386ae" style="font-size: 20px;">these followers: <tspan id="js-followers-count">26%</tspan></text>
		<text x="605" y="580" text-anchor="middle" fill="#445469" style="font-size: 20px;">average: <tspan id="js-average-count">30%</tspan></text>
		<line class="pointer-line" marker-end="url(#path-marker-circle-small)" marker-start="url(#path-marker-circle-small-start)" fill="none" x1="704" y1="553.773" x2="500" y2="553.773"/>
		<line class="pointer-line" id="js-pointer-line" marker-end="url(#path-marker-circle-small)" marker-start="url(#path-marker-circle-small-start)" fill="none" x1="500" y1="553.773" x2="435.038" y2="553.773"/>
	</g>

</svg>
