<?xml version="1.0" encoding="utf-8"?>
<!-- Generator: Adobe Illustrator 16.0.0, SVG Export Plug-In . SVG Version: 6.00 Build 0)  -->
<!DOCTYPE svg PUBLIC "-//W3C//DTD SVG 1.1//EN" "http://www.w3.org/Graphics/SVG/1.1/DTD/svg11.dtd" [
	<!ENTITY ns_extend "http://ns.adobe.com/Extensibility/1.0/">
	<!ENTITY ns_ai "http://ns.adobe.com/AdobeIllustrator/10.0/">
	<!ENTITY ns_graphs "http://ns.adobe.com/Graphs/1.0/">
	<!ENTITY ns_vars "http://ns.adobe.com/Variables/1.0/">
	<!ENTITY ns_imrep "http://ns.adobe.com/ImageReplacement/1.0/">
	<!ENTITY ns_sfw "http://ns.adobe.com/SaveForWeb/1.0/">
	<!ENTITY ns_custom "http://ns.adobe.com/GenericCustomNamespace/1.0/">
	<!ENTITY ns_adobe_xpath "http://ns.adobe.com/XPath/1.0/">
]>
<svg version="1.1" id="Layer_1" xmlns:x="&ns_extend;" xmlns:i="&ns_ai;" xmlns:graph="&ns_graphs;"
	 xmlns="http://www.w3.org/2000/svg" xmlns:xlink="http://www.w3.org/1999/xlink" x="0px" y="0px" width="140px" height="130px"
	 viewBox="0 0 140 130" enable-background="new 0 0 140 130" xml:space="preserve">
<metadata>
	<sfw  xmlns="&ns_sfw;">
		<slices></slices>
		<sliceSourceBounds  height="121.877" width="138.617" y="-125.432" x="0.691" bottomLeftOrigin="true"></sliceSourceBounds>
	</sfw>
</metadata>
<g>
	<g>
		<path fill="#3197C5" d="M53.845,78.938c2.692,0,5.288-0.211,7.794-0.418c2.726-0.225,5.545-0.451,8.362-0.408l-0.363-17.284
			c-3.487-0.048-7.541-0.024-10.592,0.219c-10.473,0.82-25.58-7.073-25.983-25.409h-19.1C15.769,60.828,31.55,78.023,53.845,78.938z
			"/>
		<path fill="#3197C5" d="M49.742,37.241c0,11.072,8.906,20.048,19.896,20.048V17.186C58.647,17.186,49.742,26.173,49.742,37.241z"
			/>
		<path fill="#73BCE0" d="M89.521,37.241c0-11.068-8.905-20.055-19.883-20.055v40.103C80.615,57.289,89.521,48.312,89.521,37.241z"
			/>
		<path fill="#3197C5" d="M45.178,83.459c0,0.66-0.049,1.309,0,1.951h24.46V60.828C56.135,60.828,45.178,70.947,45.178,83.459z"/>
		<path fill="#73BCE0" d="M94.085,83.459c0-12.512-10.957-22.631-24.447-22.631V85.41l24.447,0.002
			C94.149,84.768,94.085,84.119,94.085,83.459z"/>
	</g>
	<path fill="none" stroke="#3197C5" stroke-width="5" stroke-miterlimit="10" d="M136.809,69.594
		c0,8.355-5.575,15.129-12.452,15.129H15.644c-6.877,0-12.452-6.773-12.452-15.129v-48.41c0-8.356,5.575-15.129,12.452-15.129
		h108.713c6.877,0,12.452,6.773,12.452,15.129V69.594z"/>
	<g>
		<path fill="#66BFAC" d="M54.954,89.975c0,8.195,6.585,14.841,14.727,14.841v-29.69C61.539,75.125,54.954,81.777,54.954,89.975z"/>
		<path fill="#95D0C6" d="M84.401,89.975c0-8.197-6.591-14.85-14.721-14.85v29.69C77.811,104.815,84.401,98.17,84.401,89.975z"/>
		<path fill="#66BFAC" d="M51.815,124c0,0.483-0.038,0.96,0,1.426h17.865v-17.957C59.812,107.469,51.815,114.858,51.815,124z"/>
		<path fill="#95D0C6" d="M87.545,124c0-9.142-8.002-16.531-17.864-16.531v17.957l17.864,0.006
			C87.589,124.963,87.545,124.483,87.545,124z"/>
	</g>
	<g>
		<path fill="#95D0C6" d="M103.118,107.516c7.061,0,12.789-5.774,12.789-12.898c0-7.121-5.729-12.904-12.789-12.904
			c-7.074,0-12.799,5.783-12.799,12.904C90.319,101.741,96.044,107.516,103.118,107.516z"/>
		<path fill="#95D0C6" d="M118.644,124.186c0-7.939-6.957-14.359-15.525-14.359c-8.576,0-15.529,6.42-15.529,14.359
			c0,0.426-0.035,0.837,0,1.244h15.529l15.525,0.002C118.679,125.023,118.644,124.611,118.644,124.186z"/>
	</g>
	<g>
		<path fill="#66BFAC" d="M36.417,107.516c7.075,0,12.8-5.774,12.8-12.898c0-7.121-5.725-12.904-12.8-12.904
			c-7.063,0-12.795,5.783-12.795,12.904C23.622,101.741,29.353,107.516,36.417,107.516z"/>
		<path fill="#66BFAC" d="M51.947,124.186c0-7.939-6.954-14.359-15.53-14.359c-8.573,0-15.526,6.42-15.526,14.359
			c0,0.426-0.037,0.838,0,1.246l15.526-0.002h15.53C51.979,125.022,51.947,124.611,51.947,124.186z"/>
	</g>
</g>
</svg>
