<svg width="316px" height="316px" viewBox="0 0 316 316" version="1.1" xmlns="http://www.w3.org/2000/svg" xmlns:xlink="http://www.w3.org/1999/xlink" xmlns:sketch="http://www.bohemiancoding.com/sketch/ns" class="tailored-block__svg">
    <g id="Page-1" stroke="none" stroke-width="1" fill="none" fill-rule="evenodd" sketch:type="MSPage">
        <g id="js-market-research-question-marks" sketch:type="MSLayerGroup" transform="translate(118.000000, 113.000000)">
            <path d="M35.735,31.433 L35.735,29.558 C35.735,27.409 36.126,25.622 36.907,24.196 C37.688,22.771 39.056,21.296 41.009,19.773 C43.333,17.937 44.832,16.511 45.506,15.495 C46.18,14.48 46.517,13.269 46.517,11.862 C46.517,10.222 45.97,8.962 44.876,8.083 C43.782,7.204 42.21,6.765 40.159,6.765 C38.303,6.765 36.585,7.028 35.003,7.556 C33.421,8.083 31.878,8.718 30.374,9.46 L27.913,4.304 C31.878,2.097 36.126,0.993 40.657,0.993 C44.485,0.993 47.522,1.931 49.769,3.806 C52.014,5.681 53.138,8.269 53.138,11.569 C53.138,13.034 52.922,14.338 52.493,15.48 C52.064,16.623 51.414,17.712 50.545,18.747 C49.676,19.783 48.176,21.13 46.048,22.79 C44.231,24.216 43.016,25.398 42.4,26.335 C41.785,27.273 41.477,28.532 41.477,30.114 L41.477,31.433 L35.735,31.433 L35.735,31.433 Z M34.534,40.778 C34.534,37.83 35.97,36.355 38.841,36.355 C40.247,36.355 41.321,36.74 42.064,37.512 C42.806,38.284 43.177,39.372 43.177,40.778 C43.177,42.165 42.8,43.264 42.049,44.074 C41.297,44.884 40.228,45.29 38.841,45.29 C37.454,45.29 36.39,44.895 35.648,44.104 C34.905,43.312 34.534,42.204 34.534,40.778 L34.534,40.778 Z" id="Fill-8" fill="#F6C281" sketch:type="MSShapeGroup"></path>
            <path d="M8.548,53.433 L8.548,51.558 C8.548,49.409 8.939,47.622 9.72,46.196 C10.501,44.771 11.868,43.296 13.821,41.772 C16.146,39.937 17.645,38.511 18.318,37.495 C18.992,36.48 19.329,35.269 19.329,33.862 C19.329,32.222 18.782,30.962 17.689,30.083 C16.594,29.204 15.023,28.765 12.972,28.765 C11.116,28.765 9.398,29.028 7.815,29.556 C6.233,30.083 4.69,30.718 3.187,31.46 L0.726,26.304 C4.69,24.097 8.939,22.993 13.47,22.993 C17.297,22.993 20.335,23.931 22.581,25.806 C24.827,27.681 25.95,30.269 25.95,33.569 C25.95,35.034 25.735,36.338 25.306,37.481 C24.876,38.623 24.226,39.712 23.357,40.747 C22.488,41.783 20.989,43.13 18.86,44.79 C17.044,46.216 15.828,47.397 15.213,48.335 C14.598,49.272 14.29,50.532 14.29,52.114 L14.29,53.433 L8.548,53.433 L8.548,53.433 Z M7.347,62.778 C7.347,59.83 8.782,58.354 11.653,58.354 C13.06,58.354 14.133,58.74 14.876,59.512 C15.618,60.284 15.989,61.372 15.989,62.778 C15.989,64.166 15.613,65.264 14.861,66.074 C14.109,66.884 13.04,67.29 11.653,67.29 C10.266,67.29 9.202,66.895 8.46,66.104 C7.717,65.313 7.347,64.204 7.347,62.778 L7.347,62.778 Z" id="Fill-9" fill="#378FB0" sketch:type="MSShapeGroup"></path>
            <path d="M35.735,53.433 L35.735,51.558 C35.735,49.409 36.126,47.622 36.907,46.196 C37.688,44.771 39.056,43.296 41.009,41.772 C43.333,39.937 44.832,38.511 45.506,37.495 C46.18,36.48 46.517,35.269 46.517,33.862 C46.517,32.222 45.97,30.962 44.876,30.083 C43.782,29.204 42.21,28.765 40.159,28.765 C38.303,28.765 36.585,29.028 35.003,29.556 C33.421,30.083 31.878,30.718 30.374,31.46 L27.913,26.304 C31.878,24.097 36.126,22.993 40.657,22.993 C44.485,22.993 47.522,23.931 49.769,25.806 C52.014,27.681 53.138,30.269 53.138,33.569 C53.138,35.034 52.922,36.338 52.493,37.481 C52.064,38.623 51.414,39.712 50.545,40.747 C49.676,41.783 48.176,43.13 46.048,44.79 C44.231,46.216 43.016,47.397 42.4,48.335 C41.785,49.272 41.477,50.532 41.477,52.114 L41.477,53.433 L35.735,53.433 L35.735,53.433 Z M34.534,62.778 C34.534,59.83 35.97,58.354 38.841,58.354 C40.247,58.354 41.321,58.74 42.064,59.512 C42.806,60.284 43.177,61.372 43.177,62.778 C43.177,64.166 42.8,65.264 42.049,66.074 C41.297,66.884 40.228,67.29 38.841,67.29 C37.454,67.29 36.39,66.895 35.648,66.104 C34.905,65.313 34.534,64.204 34.534,62.778 L34.534,62.778 Z" id="Fill-10" fill="#E36869" sketch:type="MSShapeGroup"></path>
            <path d="M62.923,53.433 L62.923,51.558 C62.923,49.409 63.314,47.622 64.095,46.196 C64.876,44.771 66.243,43.296 68.196,41.772 C70.521,39.937 72.02,38.511 72.693,37.495 C73.367,36.48 73.704,35.269 73.704,33.862 C73.704,32.222 73.157,30.962 72.064,30.083 C70.969,29.204 69.398,28.765 67.347,28.765 C65.491,28.765 63.773,29.028 62.19,29.556 C60.608,30.083 59.065,30.718 57.562,31.46 L55.101,26.304 C59.065,24.097 63.314,22.993 67.845,22.993 C71.672,22.993 74.71,23.931 76.956,25.806 C79.202,27.681 80.325,30.269 80.325,33.569 C80.325,35.034 80.11,36.338 79.681,37.481 C79.251,38.623 78.601,39.712 77.732,40.747 C76.863,41.783 75.364,43.13 73.235,44.79 C71.419,46.216 70.203,47.397 69.588,48.335 C68.973,49.272 68.665,50.532 68.665,52.114 L68.665,53.433 L62.923,53.433 L62.923,53.433 Z M61.722,62.778 C61.722,59.83 63.157,58.354 66.028,58.354 C67.435,58.354 68.508,58.74 69.251,59.512 C69.993,60.284 70.364,61.372 70.364,62.778 C70.364,64.166 69.988,65.264 69.236,66.074 C68.484,66.884 67.415,67.29 66.028,67.29 C64.641,67.29 63.577,66.895 62.835,66.104 C62.092,65.313 61.722,64.204 61.722,62.778 L61.722,62.778 Z" id="Fill-11" fill="#85C9B8" sketch:type="MSShapeGroup"></path>
            <path d="M22.142,75.433 L22.142,73.558 C22.142,71.409 22.532,69.622 23.314,68.196 C24.094,66.771 25.462,65.296 27.415,63.772 C29.739,61.937 31.238,60.511 31.912,59.495 C32.586,58.48 32.923,57.269 32.923,55.862 C32.923,54.222 32.376,52.962 31.282,52.083 C30.188,51.204 28.616,50.765 26.565,50.765 C24.71,50.765 22.991,51.028 21.409,51.556 C19.827,52.083 18.284,52.718 16.78,53.46 L14.319,48.304 C18.284,46.097 22.532,44.993 27.064,44.993 C30.891,44.993 33.929,45.931 36.175,47.806 C38.42,49.681 39.544,52.269 39.544,55.569 C39.544,57.034 39.329,58.338 38.899,59.48 C38.47,60.623 37.82,61.712 36.951,62.747 C36.082,63.783 34.583,65.13 32.454,66.79 C30.638,68.216 29.422,69.397 28.807,70.335 C28.191,71.272 27.884,72.532 27.884,74.114 L27.884,75.433 L22.142,75.433 L22.142,75.433 Z M20.94,84.778 C20.94,81.83 22.376,80.355 25.247,80.355 C26.653,80.355 27.727,80.74 28.47,81.512 C29.212,82.284 29.583,83.372 29.583,84.778 C29.583,86.166 29.207,87.264 28.455,88.074 C27.703,88.884 26.634,89.29 25.247,89.29 C23.86,89.29 22.796,88.894 22.054,88.103 C21.311,87.312 20.94,86.204 20.94,84.778 L20.94,84.778 Z" id="Fill-12" fill="#5CBBA1" sketch:type="MSShapeGroup"></path>
            <path d="M49.329,75.433 L49.329,73.558 C49.329,71.409 49.72,69.622 50.501,68.196 C51.282,66.771 52.649,65.296 54.603,63.772 C56.927,61.937 58.426,60.511 59.1,59.495 C59.773,58.48 60.11,57.269 60.11,55.862 C60.11,54.222 59.564,52.962 58.47,52.083 C57.376,51.204 55.804,50.765 53.753,50.765 C51.897,50.765 50.179,51.028 48.597,51.556 C47.015,52.083 45.472,52.718 43.968,53.46 L41.507,48.304 C45.472,46.097 49.72,44.993 54.251,44.993 C58.079,44.993 61.116,45.931 63.362,47.806 C65.608,49.681 66.731,52.269 66.731,55.569 C66.731,57.034 66.516,58.338 66.087,59.48 C65.657,60.623 65.007,61.712 64.139,62.747 C63.27,63.783 61.77,65.13 59.642,66.79 C57.825,68.216 56.609,69.397 55.994,70.335 C55.379,71.272 55.071,72.532 55.071,74.114 L55.071,75.433 L49.329,75.433 L49.329,75.433 Z M48.128,84.778 C48.128,81.83 49.564,80.355 52.435,80.355 C53.841,80.355 54.915,80.74 55.657,81.512 C56.399,82.284 56.771,83.372 56.771,84.778 C56.771,86.166 56.394,87.264 55.643,88.074 C54.891,88.884 53.821,89.29 52.435,89.29 C51.047,89.29 49.983,88.894 49.241,88.103 C48.499,87.312 48.128,86.204 48.128,84.778 L48.128,84.778 Z" id="Fill-13" fill="#67B2CD" sketch:type="MSShapeGroup"></path>
        </g>
        <g id="js-market-research-chart" sketch:type="MSLayerGroup" transform="translate(28.000000, 28.000000)" stroke-width="40">
            <path d="M130,223 C181.362482,223 223,181.362482 223,130 C223,78.6375183 181.362482,37 130,37 C78.6375183,37 37,78.6375183 37,130 C37,181.362482 78.6375183,223 130,223 Z" id="dark-blue" stroke="#378EB0" sketch:type="MSShapeGroup"></path>
            <path d="M130,223 C181.362482,223 223,181.362482 223,130 C223,78.6375183 181.362482,37 130,37 C78.6375183,37 37,78.6375183 37,130 C37,181.362482 78.6375183,223 130,223 Z" id="blue" stroke="#67B2CD" stroke-dasharray="15,1000" sketch:type="MSShapeGroup" transform="translate(130.000000, 130.000000) rotate(-180.000000) translate(-130.000000, -130.000000) "></path>
            <path d="M130,223 C181.362482,223 223,181.362482 223,130 C223,78.6375183 181.362482,37 130,37 C78.6375183,37 37,78.6375183 37,130 C37,181.362482 78.6375183,223 130,223 Z" id="green1" stroke="#85C9B8" stroke-dasharray="25,1000" sketch:type="MSShapeGroup" transform="translate(130.000000, 130.000000) rotate(-189.000000) translate(-130.000000, -130.000000) "></path>
            <path d="M130,223 C181.362482,223 223,181.362482 223,130 C223,78.6375183 181.362482,37 130,37 C78.6375183,37 37,78.6375183 37,130 C37,181.362482 78.6375183,223 130,223 Z" id="yellow" stroke="#F5C281" stroke-dasharray="70,1000" sketch:type="MSShapeGroup" transform="translate(130.000000, 130.000000) rotate(-192.000000) translate(-130.000000, -130.000000) "></path>
            <path d="M130,223 C181.362482,223 223,181.362482 223,130 C223,78.6375183 181.362482,37 130,37 C78.6375183,37 37,78.6375183 37,130 C37,181.362482 78.6375183,223 130,223 Z" id="green" stroke="#5CBAA0" stroke-dasharray="45,1000" sketch:type="MSShapeGroup" transform="translate(130.000000, 130.000000) rotate(-235.000000) translate(-130.000000, -130.000000) "></path>
            <path d="M130,223 C181.362482,223 223,181.362482 223,130 C223,78.6375183 181.362482,37 130,37 C78.6375183,37 37,78.6375183 37,130 C37,181.362482 78.6375183,223 130,223 Z" id="red" stroke="#E36869" stroke-dasharray="50,1000" sketch:type="MSShapeGroup" transform="translate(130.000000, 130.000000) rotate(-262.000000) translate(-130.000000, -130.000000) "></path>
        </g>
    </g>
</svg>