<svg width="239px" height="238px" viewBox="0 0 239 238" version="1.1" xmlns="http://www.w3.org/2000/svg" xmlns:xlink="http://www.w3.org/1999/xlink" xmlns:sketch="http://www.bohemiancoding.com/sketch/ns" class="tailored-block__svg">
    <path d="M119.029,119.191 L103.376,7.786 C108.297,7.094 114.061,6.691 119.029,6.691 L119.029,119.191" id="Fill-1" fill="#67B2CD" sketch:type="MSShapeGroup"></path>
    <path d="M119.029,119.191 L97.568,8.759 C100.008,8.284 100.916,8.131 103.376,7.786 L119.029,119.191" id="Fill-2" fill="#B5DFE3" sketch:type="MSShapeGroup"></path>
    <path d="M119.029,119.191 L28.039,53.065 C45.565,28.937 68.301,14.449 97.568,8.759 L119.029,119.191" id="Fill-3" fill="#F6C281" sketch:type="MSShapeGroup"></path>
    <path d="M119.029,119.191 L7.398,105.481 C9.818,85.747 16.356,69.151 28.039,53.065 L119.029,119.191" id="Fill-4" fill="#5CBBA1" sketch:type="MSShapeGroup"></path>
    <path d="M119.029,119.191 L17.941,168.509 C8.139,148.403 4.674,127.683 7.398,105.481 L119.029,119.191" id="Fill-5" fill="#E36869" sketch:type="MSShapeGroup"></path>
    <path d="M119.029,119.191 L119.029,6.691 C181.145,6.691 231.5,57.06 231.5,119.191 C231.5,181.324 181.145,231.691 119.029,231.691 C74.307,231.691 37.548,208.715 17.941,168.509 L119.029,119.191" id="Fill-6" fill="#378FB0" sketch:type="MSShapeGroup"></path>
    <path d="M192.092,119.199 C192.092,159.554 159.385,192.269 119.041,192.269 C78.691,192.269 45.99,159.554 45.99,119.199 C45.99,78.838 78.691,46.127 119.041,46.127 C159.385,46.127 192.092,78.838 192.092,119.199" id="Fill-7" fill="#85C9B8" sketch:type="MSShapeGroup"></path>
    
    <g id="">
        <g id="js-market-research-guys" sketch:type="MSLayerGroup" transform="translate(118.000000, 114.000000)">
            <!-- <g id="yellow-red" transform="translate(1.000000, 0.000000)" sketch:type="MSShapeGroup">
            </g> -->
            
            <g id="js-market-research-guys-row-2">

                <g id="" fill="#B5DFE3" opacity="0">
                    <path d="M17.719,29.423 C25.754,29.423 32.261,22.899 32.261,14.851 C32.261,6.801 25.754,0.273 17.719,0.273 C9.688,0.273 3.176,6.801 3.176,14.851 C3.176,22.899 9.688,29.423 17.719,29.423" id="Fill-10"></path>
                    <path d="M35.359,46.783 C35.359,37.81 27.467,30.549 17.719,30.549 C7.981,30.549 0.085,37.81 0.085,46.783 C0.085,47.255 0.041,47.721 0.085,48.184 L35.359,48.184 C35.405,47.721 35.359,47.255 35.359,46.783" id="Fill-11"></path>
                </g>
                <g opacity="0" id="red" fill="#E36869">
                    <g opacity="0" id="js-market-research-guys-yellow" transform="translate(0.000000, 1.000000)" fill="#F6C281">
                        <path d="M18.035,29.153 C26.072,29.153 32.579,22.631 32.579,14.581 C32.579,6.532 26.072,0.003 18.035,0.003 C10.004,0.003 3.493,6.532 3.493,14.581 C3.493,22.631 10.004,29.153 18.035,29.153" id="Fill-8"></path>
                        <path d="M35.676,46.513 C35.676,37.541 27.779,30.28 18.035,30.28 C8.297,30.28 0.4,37.541 0.4,46.513 C0.4,46.985 0.354,47.452 0.4,47.914 L35.676,47.914 C35.717,47.452 35.676,46.985 35.676,46.513" id="Fill-9"></path>
                    </g>
                    
                    <path d="M18.035,29.423 C26.072,29.423 32.579,22.899 32.579,14.851 C32.579,6.801 26.072,0.273 18.035,0.273 C10.004,0.273 3.493,6.801 3.493,14.851 C3.493,22.899 10.004,29.423 18.035,29.423" id="Fill-12"></path>
                    <path d="M35.676,46.783 C35.676,37.81 27.779,30.549 18.035,30.549 C8.297,30.549 0.4,37.81 0.4,46.783 C0.4,47.255 0.354,47.721 0.4,48.184 L35.676,48.184 C35.717,47.721 35.676,47.255 35.676,46.783" id="Fill-13"></path>
                </g>
                <g id="Fill-14-+-Fill-15" transform="translate(1.000000, 0.000000)" fill="#378FB0" sketch:type="MSShapeGroup" opacity="0">
                    <path d="M18.352,29.423 C26.389,29.423 32.896,22.899 32.896,14.851 C32.896,6.801 26.389,0.273 18.352,0.273 C10.32,0.273 3.81,6.801 3.81,14.851 C3.81,22.899 10.32,29.423 18.352,29.423" id="Fill-14"></path>
                    <path d="M35.992,46.783 C35.992,37.81 28.096,30.549 18.352,30.549 C8.608,30.549 0.717,37.81 0.717,46.783 C0.717,47.255 0.671,47.721 0.717,48.184 L35.992,48.184 C36.033,47.721 35.992,47.255 35.992,46.783" id="Fill-15"></path>
                </g>
            </g>
            <g id="js-market-research-guys-row-1">
                <g id="js-market-research-guys-green" fill="#5CBBA1" sketch:type="MSShapeGroup" opacity="0">
                    <path d="M18.379,29.999 C26.416,29.999 32.917,23.478 32.917,15.427 C32.917,7.383 26.416,0.85 18.379,0.85 C10.342,0.85 3.832,7.383 3.832,15.427 C3.832,23.478 10.342,29.999 18.379,29.999" id="Fill-16"></path>
                    <path d="M36.019,47.36 C36.019,38.387 28.123,31.126 18.379,31.126 C8.637,31.126 0.739,38.387 0.739,47.36 C0.739,47.832 0.697,48.304 0.739,48.762 L36.019,48.762 C36.062,48.304 36.019,47.837 36.019,47.36" id="Fill-17"></path>
                </g>    
            </g>
            
        </g>
        <g id="blue" sketch:type="MSLayerGroup" transform="translate(119.000000, 113.000000)" fill="#67B2CD">
            <path d="M18.1824167,31.223449 C26.4426667,31.223449 33.1293889,24.4362857 33.1293889,16.0566735 C33.1293889,7.68434694 26.4426667,0.884693878 18.1824167,0.884693878 C9.92833333,0.884693878 3.23544444,7.68434694 3.23544444,16.0566735 C3.23544444,24.4362857 9.92833333,31.223449 18.1824167,31.223449" id="Fill-18" sketch:type="MSShapeGroup"></path>
            <path d="M36.3124167,49.2930612 C36.3124167,39.9538163 28.2022222,32.396449 18.1824167,32.396449 C8.17288889,32.396449 0.0585833333,39.9538163 0.0585833333,49.2930612 C0.0585833333,49.7843265 0.0154166667,50.2755918 0.0585833333,50.7522857 L36.3124167,50.7522857 C36.3607222,50.2755918 36.3124167,49.7895306 36.3124167,49.2930612" id="Fill-19" sketch:type="MSShapeGroup"></path>
        </g>            
    </g>

</svg>