
<svg width="507px" height="424px" viewBox="0 0 507 424" version="1.1" xmlns="http://www.w3.org/2000/svg" xmlns:xlink="http://www.w3.org/1999/xlink" xmlns:sketch="http://www.bohemiancoding.com/sketch/ns" class="tailored-block__svg">
    <g id="Page-1" stroke="none" stroke-width="1" fill="none" fill-rule="evenodd" sketch:type="MSPage">
        <g id="js-market-research-spikes" sketch:type="MSLayerGroup" transform="translate(0.000000, 48.000000)">
            <circle id="blue" stroke="#B5DEE3" stroke-width="0" stroke-width2="192" stroke-dasharray="20,2000" sketch:type="MSShapeGroup" transform="translate(149.500000, 149.500000) rotate(-32.000000) translate(-149.500000, -149.500000) " cx="149.5" cy="149.5" r="107.5"></circle>
            <circle id="dark-blue" stroke="#378EB0" stroke-width="0" stroke-width2="298" stroke-dasharray="21,2000" sketch:type="MSShapeGroup" transform="translate(149.500000, 149.500000) rotate(-22.000000) translate(-149.500000, -149.500000) " cx="149.5" cy="149.5" r="107.5"></circle>
            <circle id="green" stroke="#5CBAA0" stroke-width="0" stroke-width2="228" stroke-dasharray="23,2000" sketch:type="MSShapeGroup" transform="translate(149.500000, 149.500000) rotate(-11.2) translate(-149.500000, -149.500000) " cx="149.5" cy="149.5" r="107.5"></circle>
            <circle id="yellow" stroke="#F5C281" stroke-width="0" stroke-width2="138" stroke-dasharray="20,2000" sketch:type="MSShapeGroup" transform="translate(149.500000, 149.500000) rotate(.8) translate(-149.500000, -149.500000) " cx="149.5" cy="149.5" r="107.5"></circle>
            <circle id="red" stroke="#E36869" stroke-width="0" stroke-width2="266" stroke-dasharray="21,2000" sketch:type="MSShapeGroup" transform="translate(149.500000, 149.500000) rotate(11.3) translate(-149.500000, -149.500000) " cx="149.5" cy="149.5" r="107.5"></circle>
            <circle id="green-last" stroke="#85C9B8" stroke-width="0" stroke-width2="334" stroke-dasharray="20,2000" sketch:type="MSShapeGroup" transform="translate(149.500000, 149.500000) rotate(22.1) translate(-149.500000, -149.500000) " cx="149.5" cy="149.5" r="107.5"></circle>
        </g>
        <circle id="mask" fill="#64B9DC" sketch:type="MSShapeGroup" cx="149" cy="197" r="111"></circle>
        <g id="js-market-research-lines" sketch:type="MSLayerGroup" transform="translate(48.000000, 96.000000)" stroke="#979797" stroke-width="14">
            <circle id="Oval-8" sketch:type="MSShapeGroup" cx="101" cy="101" r="84" stroke="#E36869" stroke-dasharray="527.772" stroke-dashoffset="527.772" transform="rotate(-90,101,101)"></circle>
            <circle id="Oval-9" sketch:type="MSShapeGroup" cx="101" cy="101" r="101" stroke="#378EB0" stroke-dasharray="634.583" stroke-dashoffset="634.583" transform="rotate(-90,101,101)"></circle>
        </g>

        <g id="center" sketch:type="MSLayerGroup" transform="translate(76.000000, 124.000000)">
            <path d="M146.273,73.277 C146.273,32.933 113.545,0.221 73.169,0.213 L73.169,0.204 C32.83,0.204 0.132,32.92 0.132,73.277 C0.132,99.325 13.764,122.19 34.273,135.132 C37.974,110.441 53.982,91.866 73.169,91.866 C92.351,91.866 108.363,110.445 112.061,135.136 C132.613,122.203 146.273,99.332 146.273,73.277" id="Fill-1" fill="#B5DFE3" sketch:type="MSShapeGroup"></path>
            <path d="M73.169,91.866 L73.169,146.337 C87.463,146.333 100.8,142.223 112.061,135.136 C108.363,110.445 92.351,91.866 73.169,91.866" id="Fill-2" fill="#67B2CD" sketch:type="MSShapeGroup"></path>
            <path d="M73.169,146.337 L73.169,91.866 C53.982,91.866 37.974,110.441 34.273,135.132 C45.536,142.231 58.872,146.345 73.169,146.345 L73.169,146.337" id="Fill-3" fill="#378FB0" sketch:type="MSShapeGroup"></path>
            <path d="M44.591,60.807 C44.591,76.577 57.39,89.351 73.169,89.351 L73.169,32.266 C57.39,32.266 44.591,45.05 44.591,60.807" id="Fill-4" fill="#378FB0" sketch:type="MSShapeGroup"></path>
            <path d="M101.735,60.807 C101.735,45.05 88.95,32.266 73.169,32.266 L73.169,89.351 C88.95,89.351 101.735,76.577 101.735,60.807" id="Fill-5" fill="#67B2CD" sketch:type="MSShapeGroup"></path>
        </g>
    </g>
</svg>